G75*
%MOIN*%
%OFA0B0*%
%FSLAX26Y26*%
%IPPOS*%
%LPD*%
%AMOC8*
5,1,8,0,0,1.08239X$1,22.5*
%
%ADD10C,0.060000*%
%ADD11C,0.064000*%
%ADD12C,0.076000*%
%ADD13R,0.076000X0.076000*%
%ADD14C,0.065000*%
%ADD15C,0.170000*%
%ADD16R,0.095000X0.095000*%
%ADD17C,0.095000*%
%ADD18C,0.066000*%
%ADD19OC8,0.066000*%
%ADD20C,0.074000*%
%ADD21C,0.100000*%
%ADD22C,0.010000*%
D10*
X00420000Y00850000D02*
X00480000Y00850000D01*
X00480000Y00950000D02*
X00420000Y00950000D01*
X00420000Y01050000D02*
X00480000Y01050000D01*
X00650000Y00780000D02*
X00650000Y00720000D01*
X00750000Y00720000D02*
X00750000Y00780000D01*
X00850000Y00780000D02*
X00850000Y00720000D01*
X00950000Y00720000D02*
X00950000Y00780000D01*
X01050000Y00780000D02*
X01050000Y00720000D01*
X01150000Y00720000D02*
X01150000Y00780000D01*
X01250000Y00780000D02*
X01250000Y00720000D01*
X02220000Y00850000D02*
X02280000Y00850000D01*
X02280000Y00950000D02*
X02220000Y00950000D01*
X02220000Y01050000D02*
X02280000Y01050000D01*
D11*
X01950000Y01850000D03*
X01850000Y01850000D03*
X01750000Y01850000D03*
X01650000Y01850000D03*
X01550000Y01850000D03*
X01450000Y01850000D03*
X01350000Y01850000D03*
X01250000Y01850000D03*
X01150000Y01850000D03*
X01050000Y01850000D03*
X00950000Y01850000D03*
X00850000Y01850000D03*
X00750000Y01850000D03*
X00650000Y01850000D03*
X00650000Y02150000D03*
X00750000Y02150000D03*
X00850000Y02150000D03*
X00950000Y02150000D03*
X01050000Y02150000D03*
X01150000Y02150000D03*
X01250000Y02150000D03*
X01350000Y02150000D03*
X01450000Y02150000D03*
X01550000Y02150000D03*
X01650000Y02150000D03*
X01750000Y02150000D03*
X01850000Y02150000D03*
X01950000Y02150000D03*
D12*
X02448425Y02200000D03*
X02448425Y01650000D03*
X02700000Y01048425D03*
X00001575Y01450000D03*
D13*
X00198425Y01450000D03*
X02251575Y01650000D03*
X02251575Y02200000D03*
X02700000Y00851575D03*
D14*
X01350000Y01650000D03*
X01150000Y01650000D03*
D15*
X00239370Y02000000D03*
X00121260Y01814961D03*
X00003150Y02000000D03*
D16*
X02750000Y01800000D03*
D17*
X02750000Y01996850D03*
X02750000Y02193701D03*
D18*
X02559843Y02789764D03*
X02459843Y02789764D03*
X02359843Y02789764D03*
X02259843Y02789764D03*
X02159843Y02789764D03*
X02059843Y02789764D03*
X01959843Y02789764D03*
X01859843Y02789764D03*
X01759843Y02789764D03*
X01659843Y02789764D03*
X01559843Y02789764D03*
X01459843Y02789764D03*
X01359843Y02789764D03*
X01259843Y02789764D03*
X01159843Y02789764D03*
X01059843Y02789764D03*
D19*
X01800000Y01500000D03*
X01900000Y01500000D03*
D20*
X02350000Y02550000D03*
X02450000Y02550000D03*
X01300000Y02550000D03*
X01200000Y02550000D03*
X00250000Y02550000D03*
X00150000Y02550000D03*
D21*
X00450000Y02127953D03*
X00450000Y01872047D03*
D22*
X00450000Y01935000D01*
X00252000Y02133000D01*
X00252000Y02547000D01*
X00250000Y02550000D01*
X00513000Y02196000D02*
X00450000Y02133000D01*
X00450000Y02127953D01*
X00513000Y02196000D02*
X01206000Y02196000D01*
X01206000Y02547000D01*
X01200000Y02550000D01*
X01296000Y02547000D02*
X01300000Y02550000D01*
X01296000Y02547000D02*
X01062000Y02781000D01*
X01059843Y02789764D01*
X01159843Y02789764D02*
X01161000Y02790000D01*
X01188000Y02790000D01*
X01242000Y02844000D01*
X01377000Y02844000D01*
X01413000Y02808000D01*
X01449000Y02844000D01*
X02376000Y02844000D01*
X02430000Y02790000D01*
X02457000Y02790000D01*
X02459843Y02789764D01*
X02367000Y02781000D02*
X02359843Y02789764D01*
X02367000Y02781000D02*
X02367000Y02637000D01*
X02448000Y02556000D01*
X02450000Y02550000D01*
X02358000Y02547000D02*
X02448000Y02457000D01*
X02448000Y02205000D01*
X02448425Y02200000D01*
X02457000Y02196000D01*
X02745000Y02196000D01*
X02750000Y02193701D01*
X02750000Y01800000D02*
X02232000Y01800000D01*
X01890000Y02142000D01*
X01854000Y02142000D01*
X01850000Y02150000D01*
X01755000Y02151000D02*
X01750000Y02150000D01*
X01755000Y02151000D02*
X01755000Y02484000D01*
X02052000Y02781000D01*
X02059843Y02789764D01*
X02159843Y02789764D02*
X02160000Y02781000D01*
X02160000Y02745000D01*
X02349000Y02556000D01*
X02350000Y02550000D01*
X02358000Y02547000D01*
X01647000Y01854000D02*
X01650000Y01850000D01*
X01647000Y01854000D02*
X01602000Y01899000D01*
X01602000Y02169000D01*
X01566000Y02205000D01*
X01566000Y02781000D01*
X01559843Y02789764D01*
X01413000Y02808000D02*
X01413000Y02151000D01*
X01449000Y02151000D01*
X01450000Y02150000D01*
X01413000Y02151000D02*
X01350000Y02151000D01*
X01350000Y02150000D01*
X01350000Y02142000D01*
X01251000Y02043000D01*
X01251000Y01854000D01*
X01250000Y01850000D01*
X01098000Y01872000D02*
X01098000Y01827000D01*
X00954000Y01683000D01*
X00954000Y00756000D01*
X00950000Y00750000D01*
X00756000Y00756000D02*
X00750000Y00750000D01*
X00756000Y00756000D02*
X00756000Y01557000D01*
X01044000Y01845000D01*
X01050000Y01850000D01*
X01098000Y01872000D02*
X01071000Y01899000D01*
X01296000Y02124000D01*
X01296000Y02160000D01*
X01359000Y02223000D01*
X01359000Y02781000D01*
X01359843Y02789764D01*
X01206000Y02196000D02*
X01206000Y02187000D01*
X01242000Y02151000D01*
X01250000Y02150000D01*
X01071000Y01899000D02*
X00999000Y01899000D01*
X00950000Y01850000D01*
X01152000Y01656000D02*
X01150000Y01650000D01*
X01152000Y01656000D02*
X01224000Y01656000D01*
X01413000Y01845000D01*
X01449000Y01845000D01*
X01450000Y01850000D01*
X01467000Y01800000D02*
X01431000Y01800000D01*
X01152000Y01521000D01*
X01152000Y00756000D01*
X01150000Y00750000D01*
X01530000Y00675000D02*
X00621000Y00675000D01*
X00450000Y00846000D01*
X00450000Y00850000D01*
X00450000Y00950000D02*
X00450000Y00954000D01*
X00009000Y01395000D01*
X00009000Y01449000D01*
X00001575Y01450000D01*
X00009000Y01458000D01*
X00009000Y01701000D01*
X00117000Y01809000D01*
X00121260Y01814961D01*
X00117000Y01818000D01*
X00117000Y01890000D01*
X00009000Y01998000D01*
X00003150Y02000000D01*
X00234000Y01998000D02*
X00239370Y02000000D01*
X00234000Y01998000D02*
X00234000Y01485000D01*
X00207000Y01458000D01*
X00198425Y01450000D01*
X00468000Y01854000D02*
X00450000Y01872000D01*
X00450000Y01872047D01*
X00468000Y01854000D02*
X00648000Y01854000D01*
X00650000Y01850000D01*
X01350000Y01650000D02*
X01350000Y01647000D01*
X01548000Y01845000D01*
X01550000Y01850000D01*
X01557000Y01845000D01*
X01584000Y01845000D01*
X01773000Y01656000D01*
X02250000Y01656000D01*
X02251575Y01650000D01*
X02304000Y01503000D02*
X02700000Y01107000D01*
X02700000Y01048425D01*
X02511000Y01044000D02*
X02700000Y00855000D01*
X02700000Y00851575D01*
X02511000Y01044000D02*
X02250000Y01044000D01*
X02250000Y01050000D01*
X02250000Y01044000D02*
X01800000Y01494000D01*
X01800000Y01500000D01*
X01900000Y01500000D02*
X01908000Y01503000D01*
X02304000Y01503000D01*
X02448000Y01647000D01*
X02448425Y01650000D01*
X02250000Y00850000D02*
X02250000Y00846000D01*
X01701000Y00846000D01*
X01530000Y00675000D01*
X01467000Y01800000D02*
X01503000Y01836000D01*
X01503000Y01872000D01*
X01530000Y01899000D01*
X01602000Y01899000D01*
M02*
