G75*
%MOIN*%
%OFA0B0*%
%FSLAX26Y26*%
%IPPOS*%
%LPD*%
%AMOC8*
5,1,8,0,0,1.08239X$1,22.5*
%
%ADD10C,0.000000*%
%ADD11C,0.006000*%
%ADD12C,0.002000*%
%ADD13C,0.007000*%
%ADD14C,0.004000*%
%ADD15R,0.035000X0.050000*%
%ADD16C,0.008000*%
%ADD17C,0.010000*%
%ADD18C,0.005000*%
%ADD19R,0.116142X0.171260*%
%ADD20C,0.001000*%
D10*
X-00450000Y00600000D02*
X-00450000Y04349606D01*
X03037008Y04349606D01*
X03037008Y00600000D01*
X-00450000Y00600000D01*
X-00412992Y00700000D02*
X-00412973Y00701546D01*
X-00412916Y00703091D01*
X-00412821Y00704634D01*
X-00412689Y00706174D01*
X-00412518Y00707711D01*
X-00412310Y00709243D01*
X-00412065Y00710769D01*
X-00411782Y00712289D01*
X-00411461Y00713802D01*
X-00411104Y00715306D01*
X-00410710Y00716801D01*
X-00410280Y00718286D01*
X-00409813Y00719759D01*
X-00409310Y00721221D01*
X-00408771Y00722671D01*
X-00408197Y00724106D01*
X-00407588Y00725527D01*
X-00406944Y00726933D01*
X-00406266Y00728322D01*
X-00405554Y00729694D01*
X-00404809Y00731049D01*
X-00404030Y00732384D01*
X-00403219Y00733701D01*
X-00402376Y00734996D01*
X-00401501Y00736271D01*
X-00400596Y00737524D01*
X-00399660Y00738755D01*
X-00398693Y00739962D01*
X-00397698Y00741145D01*
X-00396674Y00742303D01*
X-00395622Y00743436D01*
X-00394542Y00744542D01*
X-00393436Y00745622D01*
X-00392303Y00746674D01*
X-00391145Y00747698D01*
X-00389962Y00748693D01*
X-00388755Y00749660D01*
X-00387524Y00750596D01*
X-00386271Y00751501D01*
X-00384996Y00752376D01*
X-00383701Y00753219D01*
X-00382384Y00754030D01*
X-00381049Y00754809D01*
X-00379694Y00755554D01*
X-00378322Y00756266D01*
X-00376933Y00756944D01*
X-00375527Y00757588D01*
X-00374106Y00758197D01*
X-00372671Y00758771D01*
X-00371221Y00759310D01*
X-00369759Y00759813D01*
X-00368286Y00760280D01*
X-00366801Y00760710D01*
X-00365306Y00761104D01*
X-00363802Y00761461D01*
X-00362289Y00761782D01*
X-00360769Y00762065D01*
X-00359243Y00762310D01*
X-00357711Y00762518D01*
X-00356174Y00762689D01*
X-00354634Y00762821D01*
X-00353091Y00762916D01*
X-00351546Y00762973D01*
X-00350000Y00762992D01*
X-00348454Y00762973D01*
X-00346909Y00762916D01*
X-00345366Y00762821D01*
X-00343826Y00762689D01*
X-00342289Y00762518D01*
X-00340757Y00762310D01*
X-00339231Y00762065D01*
X-00337711Y00761782D01*
X-00336198Y00761461D01*
X-00334694Y00761104D01*
X-00333199Y00760710D01*
X-00331714Y00760280D01*
X-00330241Y00759813D01*
X-00328779Y00759310D01*
X-00327329Y00758771D01*
X-00325894Y00758197D01*
X-00324473Y00757588D01*
X-00323067Y00756944D01*
X-00321678Y00756266D01*
X-00320306Y00755554D01*
X-00318951Y00754809D01*
X-00317616Y00754030D01*
X-00316299Y00753219D01*
X-00315004Y00752376D01*
X-00313729Y00751501D01*
X-00312476Y00750596D01*
X-00311245Y00749660D01*
X-00310038Y00748693D01*
X-00308855Y00747698D01*
X-00307697Y00746674D01*
X-00306564Y00745622D01*
X-00305458Y00744542D01*
X-00304378Y00743436D01*
X-00303326Y00742303D01*
X-00302302Y00741145D01*
X-00301307Y00739962D01*
X-00300340Y00738755D01*
X-00299404Y00737524D01*
X-00298499Y00736271D01*
X-00297624Y00734996D01*
X-00296781Y00733701D01*
X-00295970Y00732384D01*
X-00295191Y00731049D01*
X-00294446Y00729694D01*
X-00293734Y00728322D01*
X-00293056Y00726933D01*
X-00292412Y00725527D01*
X-00291803Y00724106D01*
X-00291229Y00722671D01*
X-00290690Y00721221D01*
X-00290187Y00719759D01*
X-00289720Y00718286D01*
X-00289290Y00716801D01*
X-00288896Y00715306D01*
X-00288539Y00713802D01*
X-00288218Y00712289D01*
X-00287935Y00710769D01*
X-00287690Y00709243D01*
X-00287482Y00707711D01*
X-00287311Y00706174D01*
X-00287179Y00704634D01*
X-00287084Y00703091D01*
X-00287027Y00701546D01*
X-00287008Y00700000D01*
X-00287027Y00698454D01*
X-00287084Y00696909D01*
X-00287179Y00695366D01*
X-00287311Y00693826D01*
X-00287482Y00692289D01*
X-00287690Y00690757D01*
X-00287935Y00689231D01*
X-00288218Y00687711D01*
X-00288539Y00686198D01*
X-00288896Y00684694D01*
X-00289290Y00683199D01*
X-00289720Y00681714D01*
X-00290187Y00680241D01*
X-00290690Y00678779D01*
X-00291229Y00677329D01*
X-00291803Y00675894D01*
X-00292412Y00674473D01*
X-00293056Y00673067D01*
X-00293734Y00671678D01*
X-00294446Y00670306D01*
X-00295191Y00668951D01*
X-00295970Y00667616D01*
X-00296781Y00666299D01*
X-00297624Y00665004D01*
X-00298499Y00663729D01*
X-00299404Y00662476D01*
X-00300340Y00661245D01*
X-00301307Y00660038D01*
X-00302302Y00658855D01*
X-00303326Y00657697D01*
X-00304378Y00656564D01*
X-00305458Y00655458D01*
X-00306564Y00654378D01*
X-00307697Y00653326D01*
X-00308855Y00652302D01*
X-00310038Y00651307D01*
X-00311245Y00650340D01*
X-00312476Y00649404D01*
X-00313729Y00648499D01*
X-00315004Y00647624D01*
X-00316299Y00646781D01*
X-00317616Y00645970D01*
X-00318951Y00645191D01*
X-00320306Y00644446D01*
X-00321678Y00643734D01*
X-00323067Y00643056D01*
X-00324473Y00642412D01*
X-00325894Y00641803D01*
X-00327329Y00641229D01*
X-00328779Y00640690D01*
X-00330241Y00640187D01*
X-00331714Y00639720D01*
X-00333199Y00639290D01*
X-00334694Y00638896D01*
X-00336198Y00638539D01*
X-00337711Y00638218D01*
X-00339231Y00637935D01*
X-00340757Y00637690D01*
X-00342289Y00637482D01*
X-00343826Y00637311D01*
X-00345366Y00637179D01*
X-00346909Y00637084D01*
X-00348454Y00637027D01*
X-00350000Y00637008D01*
X-00351546Y00637027D01*
X-00353091Y00637084D01*
X-00354634Y00637179D01*
X-00356174Y00637311D01*
X-00357711Y00637482D01*
X-00359243Y00637690D01*
X-00360769Y00637935D01*
X-00362289Y00638218D01*
X-00363802Y00638539D01*
X-00365306Y00638896D01*
X-00366801Y00639290D01*
X-00368286Y00639720D01*
X-00369759Y00640187D01*
X-00371221Y00640690D01*
X-00372671Y00641229D01*
X-00374106Y00641803D01*
X-00375527Y00642412D01*
X-00376933Y00643056D01*
X-00378322Y00643734D01*
X-00379694Y00644446D01*
X-00381049Y00645191D01*
X-00382384Y00645970D01*
X-00383701Y00646781D01*
X-00384996Y00647624D01*
X-00386271Y00648499D01*
X-00387524Y00649404D01*
X-00388755Y00650340D01*
X-00389962Y00651307D01*
X-00391145Y00652302D01*
X-00392303Y00653326D01*
X-00393436Y00654378D01*
X-00394542Y00655458D01*
X-00395622Y00656564D01*
X-00396674Y00657697D01*
X-00397698Y00658855D01*
X-00398693Y00660038D01*
X-00399660Y00661245D01*
X-00400596Y00662476D01*
X-00401501Y00663729D01*
X-00402376Y00665004D01*
X-00403219Y00666299D01*
X-00404030Y00667616D01*
X-00404809Y00668951D01*
X-00405554Y00670306D01*
X-00406266Y00671678D01*
X-00406944Y00673067D01*
X-00407588Y00674473D01*
X-00408197Y00675894D01*
X-00408771Y00677329D01*
X-00409310Y00678779D01*
X-00409813Y00680241D01*
X-00410280Y00681714D01*
X-00410710Y00683199D01*
X-00411104Y00684694D01*
X-00411461Y00686198D01*
X-00411782Y00687711D01*
X-00412065Y00689231D01*
X-00412310Y00690757D01*
X-00412518Y00692289D01*
X-00412689Y00693826D01*
X-00412821Y00695366D01*
X-00412916Y00696909D01*
X-00412973Y00698454D01*
X-00412992Y00700000D01*
X-00205000Y00950000D02*
X-00204980Y00951595D01*
X-00204922Y00953189D01*
X-00204824Y00954782D01*
X-00204687Y00956371D01*
X-00204511Y00957957D01*
X-00204296Y00959537D01*
X-00204043Y00961113D01*
X-00203751Y00962681D01*
X-00203421Y00964242D01*
X-00203052Y00965794D01*
X-00202645Y00967336D01*
X-00202201Y00968869D01*
X-00201719Y00970389D01*
X-00201200Y00971898D01*
X-00200645Y00973393D01*
X-00200052Y00974874D01*
X-00199424Y00976341D01*
X-00198759Y00977791D01*
X-00198060Y00979225D01*
X-00197325Y00980641D01*
X-00196556Y00982038D01*
X-00195752Y00983417D01*
X-00194915Y00984775D01*
X-00194046Y00986112D01*
X-00193143Y00987428D01*
X-00192208Y00988720D01*
X-00191243Y00989990D01*
X-00190246Y00991236D01*
X-00189219Y00992456D01*
X-00188162Y00993651D01*
X-00187076Y00994820D01*
X-00185962Y00995962D01*
X-00184820Y00997076D01*
X-00183651Y00998162D01*
X-00182456Y00999219D01*
X-00181236Y01000246D01*
X-00179990Y01001243D01*
X-00178720Y01002208D01*
X-00177428Y01003143D01*
X-00176112Y01004046D01*
X-00174775Y01004915D01*
X-00173417Y01005752D01*
X-00172038Y01006556D01*
X-00170641Y01007325D01*
X-00169225Y01008060D01*
X-00167791Y01008759D01*
X-00166341Y01009424D01*
X-00164874Y01010052D01*
X-00163393Y01010645D01*
X-00161898Y01011200D01*
X-00160389Y01011719D01*
X-00158869Y01012201D01*
X-00157336Y01012645D01*
X-00155794Y01013052D01*
X-00154242Y01013421D01*
X-00152681Y01013751D01*
X-00151113Y01014043D01*
X-00149537Y01014296D01*
X-00147957Y01014511D01*
X-00146371Y01014687D01*
X-00144782Y01014824D01*
X-00143189Y01014922D01*
X-00141595Y01014980D01*
X-00140000Y01015000D01*
X-00138405Y01014980D01*
X-00136811Y01014922D01*
X-00135218Y01014824D01*
X-00133629Y01014687D01*
X-00132043Y01014511D01*
X-00130463Y01014296D01*
X-00128887Y01014043D01*
X-00127319Y01013751D01*
X-00125758Y01013421D01*
X-00124206Y01013052D01*
X-00122664Y01012645D01*
X-00121131Y01012201D01*
X-00119611Y01011719D01*
X-00118102Y01011200D01*
X-00116607Y01010645D01*
X-00115126Y01010052D01*
X-00113659Y01009424D01*
X-00112209Y01008759D01*
X-00110775Y01008060D01*
X-00109359Y01007325D01*
X-00107962Y01006556D01*
X-00106583Y01005752D01*
X-00105225Y01004915D01*
X-00103888Y01004046D01*
X-00102572Y01003143D01*
X-00101280Y01002208D01*
X-00100010Y01001243D01*
X-00098764Y01000246D01*
X-00097544Y00999219D01*
X-00096349Y00998162D01*
X-00095180Y00997076D01*
X-00094038Y00995962D01*
X-00092924Y00994820D01*
X-00091838Y00993651D01*
X-00090781Y00992456D01*
X-00089754Y00991236D01*
X-00088757Y00989990D01*
X-00087792Y00988720D01*
X-00086857Y00987428D01*
X-00085954Y00986112D01*
X-00085085Y00984775D01*
X-00084248Y00983417D01*
X-00083444Y00982038D01*
X-00082675Y00980641D01*
X-00081940Y00979225D01*
X-00081241Y00977791D01*
X-00080576Y00976341D01*
X-00079948Y00974874D01*
X-00079355Y00973393D01*
X-00078800Y00971898D01*
X-00078281Y00970389D01*
X-00077799Y00968869D01*
X-00077355Y00967336D01*
X-00076948Y00965794D01*
X-00076579Y00964242D01*
X-00076249Y00962681D01*
X-00075957Y00961113D01*
X-00075704Y00959537D01*
X-00075489Y00957957D01*
X-00075313Y00956371D01*
X-00075176Y00954782D01*
X-00075078Y00953189D01*
X-00075020Y00951595D01*
X-00075000Y00950000D01*
X-00075020Y00948405D01*
X-00075078Y00946811D01*
X-00075176Y00945218D01*
X-00075313Y00943629D01*
X-00075489Y00942043D01*
X-00075704Y00940463D01*
X-00075957Y00938887D01*
X-00076249Y00937319D01*
X-00076579Y00935758D01*
X-00076948Y00934206D01*
X-00077355Y00932664D01*
X-00077799Y00931131D01*
X-00078281Y00929611D01*
X-00078800Y00928102D01*
X-00079355Y00926607D01*
X-00079948Y00925126D01*
X-00080576Y00923659D01*
X-00081241Y00922209D01*
X-00081940Y00920775D01*
X-00082675Y00919359D01*
X-00083444Y00917962D01*
X-00084248Y00916583D01*
X-00085085Y00915225D01*
X-00085954Y00913888D01*
X-00086857Y00912572D01*
X-00087792Y00911280D01*
X-00088757Y00910010D01*
X-00089754Y00908764D01*
X-00090781Y00907544D01*
X-00091838Y00906349D01*
X-00092924Y00905180D01*
X-00094038Y00904038D01*
X-00095180Y00902924D01*
X-00096349Y00901838D01*
X-00097544Y00900781D01*
X-00098764Y00899754D01*
X-00100010Y00898757D01*
X-00101280Y00897792D01*
X-00102572Y00896857D01*
X-00103888Y00895954D01*
X-00105225Y00895085D01*
X-00106583Y00894248D01*
X-00107962Y00893444D01*
X-00109359Y00892675D01*
X-00110775Y00891940D01*
X-00112209Y00891241D01*
X-00113659Y00890576D01*
X-00115126Y00889948D01*
X-00116607Y00889355D01*
X-00118102Y00888800D01*
X-00119611Y00888281D01*
X-00121131Y00887799D01*
X-00122664Y00887355D01*
X-00124206Y00886948D01*
X-00125758Y00886579D01*
X-00127319Y00886249D01*
X-00128887Y00885957D01*
X-00130463Y00885704D01*
X-00132043Y00885489D01*
X-00133629Y00885313D01*
X-00135218Y00885176D01*
X-00136811Y00885078D01*
X-00138405Y00885020D01*
X-00140000Y00885000D01*
X-00141595Y00885020D01*
X-00143189Y00885078D01*
X-00144782Y00885176D01*
X-00146371Y00885313D01*
X-00147957Y00885489D01*
X-00149537Y00885704D01*
X-00151113Y00885957D01*
X-00152681Y00886249D01*
X-00154242Y00886579D01*
X-00155794Y00886948D01*
X-00157336Y00887355D01*
X-00158869Y00887799D01*
X-00160389Y00888281D01*
X-00161898Y00888800D01*
X-00163393Y00889355D01*
X-00164874Y00889948D01*
X-00166341Y00890576D01*
X-00167791Y00891241D01*
X-00169225Y00891940D01*
X-00170641Y00892675D01*
X-00172038Y00893444D01*
X-00173417Y00894248D01*
X-00174775Y00895085D01*
X-00176112Y00895954D01*
X-00177428Y00896857D01*
X-00178720Y00897792D01*
X-00179990Y00898757D01*
X-00181236Y00899754D01*
X-00182456Y00900781D01*
X-00183651Y00901838D01*
X-00184820Y00902924D01*
X-00185962Y00904038D01*
X-00187076Y00905180D01*
X-00188162Y00906349D01*
X-00189219Y00907544D01*
X-00190246Y00908764D01*
X-00191243Y00910010D01*
X-00192208Y00911280D01*
X-00193143Y00912572D01*
X-00194046Y00913888D01*
X-00194915Y00915225D01*
X-00195752Y00916583D01*
X-00196556Y00917962D01*
X-00197325Y00919359D01*
X-00198060Y00920775D01*
X-00198759Y00922209D01*
X-00199424Y00923659D01*
X-00200052Y00925126D01*
X-00200645Y00926607D01*
X-00201200Y00928102D01*
X-00201719Y00929611D01*
X-00202201Y00931131D01*
X-00202645Y00932664D01*
X-00203052Y00934206D01*
X-00203421Y00935758D01*
X-00203751Y00937319D01*
X-00204043Y00938887D01*
X-00204296Y00940463D01*
X-00204511Y00942043D01*
X-00204687Y00943629D01*
X-00204824Y00945218D01*
X-00204922Y00946811D01*
X-00204980Y00948405D01*
X-00205000Y00950000D01*
X-00225591Y02789764D02*
X-00225576Y02790972D01*
X-00225532Y02792179D01*
X-00225458Y02793384D01*
X-00225354Y02794588D01*
X-00225221Y02795788D01*
X-00225058Y02796985D01*
X-00224866Y02798178D01*
X-00224645Y02799365D01*
X-00224395Y02800547D01*
X-00224116Y02801722D01*
X-00223808Y02802890D01*
X-00223472Y02804050D01*
X-00223107Y02805201D01*
X-00222714Y02806343D01*
X-00222293Y02807476D01*
X-00221845Y02808597D01*
X-00221369Y02809707D01*
X-00220866Y02810805D01*
X-00220336Y02811891D01*
X-00219780Y02812963D01*
X-00219198Y02814021D01*
X-00218589Y02815065D01*
X-00217956Y02816093D01*
X-00217297Y02817105D01*
X-00216614Y02818101D01*
X-00215906Y02819080D01*
X-00215175Y02820041D01*
X-00214420Y02820984D01*
X-00213643Y02821909D01*
X-00212842Y02822813D01*
X-00212020Y02823698D01*
X-00211177Y02824563D01*
X-00210312Y02825406D01*
X-00209427Y02826228D01*
X-00208523Y02827029D01*
X-00207598Y02827806D01*
X-00206655Y02828561D01*
X-00205694Y02829292D01*
X-00204715Y02830000D01*
X-00203719Y02830683D01*
X-00202707Y02831342D01*
X-00201679Y02831975D01*
X-00200635Y02832584D01*
X-00199577Y02833166D01*
X-00198505Y02833722D01*
X-00197419Y02834252D01*
X-00196321Y02834755D01*
X-00195211Y02835231D01*
X-00194090Y02835679D01*
X-00192957Y02836100D01*
X-00191815Y02836493D01*
X-00190664Y02836858D01*
X-00189504Y02837194D01*
X-00188336Y02837502D01*
X-00187161Y02837781D01*
X-00185979Y02838031D01*
X-00184792Y02838252D01*
X-00183599Y02838444D01*
X-00182402Y02838607D01*
X-00181202Y02838740D01*
X-00179998Y02838844D01*
X-00178793Y02838918D01*
X-00177586Y02838962D01*
X-00176378Y02838977D01*
X-00175170Y02838962D01*
X-00173963Y02838918D01*
X-00172758Y02838844D01*
X-00171554Y02838740D01*
X-00170354Y02838607D01*
X-00169157Y02838444D01*
X-00167964Y02838252D01*
X-00166777Y02838031D01*
X-00165595Y02837781D01*
X-00164420Y02837502D01*
X-00163252Y02837194D01*
X-00162092Y02836858D01*
X-00160941Y02836493D01*
X-00159799Y02836100D01*
X-00158666Y02835679D01*
X-00157545Y02835231D01*
X-00156435Y02834755D01*
X-00155337Y02834252D01*
X-00154251Y02833722D01*
X-00153179Y02833166D01*
X-00152121Y02832584D01*
X-00151077Y02831975D01*
X-00150049Y02831342D01*
X-00149037Y02830683D01*
X-00148041Y02830000D01*
X-00147062Y02829292D01*
X-00146101Y02828561D01*
X-00145158Y02827806D01*
X-00144233Y02827029D01*
X-00143329Y02826228D01*
X-00142444Y02825406D01*
X-00141579Y02824563D01*
X-00140736Y02823698D01*
X-00139914Y02822813D01*
X-00139113Y02821909D01*
X-00138336Y02820984D01*
X-00137581Y02820041D01*
X-00136850Y02819080D01*
X-00136142Y02818101D01*
X-00135459Y02817105D01*
X-00134800Y02816093D01*
X-00134167Y02815065D01*
X-00133558Y02814021D01*
X-00132976Y02812963D01*
X-00132420Y02811891D01*
X-00131890Y02810805D01*
X-00131387Y02809707D01*
X-00130911Y02808597D01*
X-00130463Y02807476D01*
X-00130042Y02806343D01*
X-00129649Y02805201D01*
X-00129284Y02804050D01*
X-00128948Y02802890D01*
X-00128640Y02801722D01*
X-00128361Y02800547D01*
X-00128111Y02799365D01*
X-00127890Y02798178D01*
X-00127698Y02796985D01*
X-00127535Y02795788D01*
X-00127402Y02794588D01*
X-00127298Y02793384D01*
X-00127224Y02792179D01*
X-00127180Y02790972D01*
X-00127165Y02789764D01*
X-00127180Y02788556D01*
X-00127224Y02787349D01*
X-00127298Y02786144D01*
X-00127402Y02784940D01*
X-00127535Y02783740D01*
X-00127698Y02782543D01*
X-00127890Y02781350D01*
X-00128111Y02780163D01*
X-00128361Y02778981D01*
X-00128640Y02777806D01*
X-00128948Y02776638D01*
X-00129284Y02775478D01*
X-00129649Y02774327D01*
X-00130042Y02773185D01*
X-00130463Y02772052D01*
X-00130911Y02770931D01*
X-00131387Y02769821D01*
X-00131890Y02768723D01*
X-00132420Y02767637D01*
X-00132976Y02766565D01*
X-00133558Y02765507D01*
X-00134167Y02764463D01*
X-00134800Y02763435D01*
X-00135459Y02762423D01*
X-00136142Y02761427D01*
X-00136850Y02760448D01*
X-00137581Y02759487D01*
X-00138336Y02758544D01*
X-00139113Y02757619D01*
X-00139914Y02756715D01*
X-00140736Y02755830D01*
X-00141579Y02754965D01*
X-00142444Y02754122D01*
X-00143329Y02753300D01*
X-00144233Y02752499D01*
X-00145158Y02751722D01*
X-00146101Y02750967D01*
X-00147062Y02750236D01*
X-00148041Y02749528D01*
X-00149037Y02748845D01*
X-00150049Y02748186D01*
X-00151077Y02747553D01*
X-00152121Y02746944D01*
X-00153179Y02746362D01*
X-00154251Y02745806D01*
X-00155337Y02745276D01*
X-00156435Y02744773D01*
X-00157545Y02744297D01*
X-00158666Y02743849D01*
X-00159799Y02743428D01*
X-00160941Y02743035D01*
X-00162092Y02742670D01*
X-00163252Y02742334D01*
X-00164420Y02742026D01*
X-00165595Y02741747D01*
X-00166777Y02741497D01*
X-00167964Y02741276D01*
X-00169157Y02741084D01*
X-00170354Y02740921D01*
X-00171554Y02740788D01*
X-00172758Y02740684D01*
X-00173963Y02740610D01*
X-00175170Y02740566D01*
X-00176378Y02740551D01*
X-00177586Y02740566D01*
X-00178793Y02740610D01*
X-00179998Y02740684D01*
X-00181202Y02740788D01*
X-00182402Y02740921D01*
X-00183599Y02741084D01*
X-00184792Y02741276D01*
X-00185979Y02741497D01*
X-00187161Y02741747D01*
X-00188336Y02742026D01*
X-00189504Y02742334D01*
X-00190664Y02742670D01*
X-00191815Y02743035D01*
X-00192957Y02743428D01*
X-00194090Y02743849D01*
X-00195211Y02744297D01*
X-00196321Y02744773D01*
X-00197419Y02745276D01*
X-00198505Y02745806D01*
X-00199577Y02746362D01*
X-00200635Y02746944D01*
X-00201679Y02747553D01*
X-00202707Y02748186D01*
X-00203719Y02748845D01*
X-00204715Y02749528D01*
X-00205694Y02750236D01*
X-00206655Y02750967D01*
X-00207598Y02751722D01*
X-00208523Y02752499D01*
X-00209427Y02753300D01*
X-00210312Y02754122D01*
X-00211177Y02754965D01*
X-00212020Y02755830D01*
X-00212842Y02756715D01*
X-00213643Y02757619D01*
X-00214420Y02758544D01*
X-00215175Y02759487D01*
X-00215906Y02760448D01*
X-00216614Y02761427D01*
X-00217297Y02762423D01*
X-00217956Y02763435D01*
X-00218589Y02764463D01*
X-00219198Y02765507D01*
X-00219780Y02766565D01*
X-00220336Y02767637D01*
X-00220866Y02768723D01*
X-00221369Y02769821D01*
X-00221845Y02770931D01*
X-00222293Y02772052D01*
X-00222714Y02773185D01*
X-00223107Y02774327D01*
X-00223472Y02775478D01*
X-00223808Y02776638D01*
X-00224116Y02777806D01*
X-00224395Y02778981D01*
X-00224645Y02780163D01*
X-00224866Y02781350D01*
X-00225058Y02782543D01*
X-00225221Y02783740D01*
X-00225354Y02784940D01*
X-00225458Y02786144D01*
X-00225532Y02787349D01*
X-00225576Y02788556D01*
X-00225591Y02789764D01*
X-00225591Y04010236D02*
X-00225576Y04011444D01*
X-00225532Y04012651D01*
X-00225458Y04013856D01*
X-00225354Y04015060D01*
X-00225221Y04016260D01*
X-00225058Y04017457D01*
X-00224866Y04018650D01*
X-00224645Y04019837D01*
X-00224395Y04021019D01*
X-00224116Y04022194D01*
X-00223808Y04023362D01*
X-00223472Y04024522D01*
X-00223107Y04025673D01*
X-00222714Y04026815D01*
X-00222293Y04027948D01*
X-00221845Y04029069D01*
X-00221369Y04030179D01*
X-00220866Y04031277D01*
X-00220336Y04032363D01*
X-00219780Y04033435D01*
X-00219198Y04034493D01*
X-00218589Y04035537D01*
X-00217956Y04036565D01*
X-00217297Y04037577D01*
X-00216614Y04038573D01*
X-00215906Y04039552D01*
X-00215175Y04040513D01*
X-00214420Y04041456D01*
X-00213643Y04042381D01*
X-00212842Y04043285D01*
X-00212020Y04044170D01*
X-00211177Y04045035D01*
X-00210312Y04045878D01*
X-00209427Y04046700D01*
X-00208523Y04047501D01*
X-00207598Y04048278D01*
X-00206655Y04049033D01*
X-00205694Y04049764D01*
X-00204715Y04050472D01*
X-00203719Y04051155D01*
X-00202707Y04051814D01*
X-00201679Y04052447D01*
X-00200635Y04053056D01*
X-00199577Y04053638D01*
X-00198505Y04054194D01*
X-00197419Y04054724D01*
X-00196321Y04055227D01*
X-00195211Y04055703D01*
X-00194090Y04056151D01*
X-00192957Y04056572D01*
X-00191815Y04056965D01*
X-00190664Y04057330D01*
X-00189504Y04057666D01*
X-00188336Y04057974D01*
X-00187161Y04058253D01*
X-00185979Y04058503D01*
X-00184792Y04058724D01*
X-00183599Y04058916D01*
X-00182402Y04059079D01*
X-00181202Y04059212D01*
X-00179998Y04059316D01*
X-00178793Y04059390D01*
X-00177586Y04059434D01*
X-00176378Y04059449D01*
X-00175170Y04059434D01*
X-00173963Y04059390D01*
X-00172758Y04059316D01*
X-00171554Y04059212D01*
X-00170354Y04059079D01*
X-00169157Y04058916D01*
X-00167964Y04058724D01*
X-00166777Y04058503D01*
X-00165595Y04058253D01*
X-00164420Y04057974D01*
X-00163252Y04057666D01*
X-00162092Y04057330D01*
X-00160941Y04056965D01*
X-00159799Y04056572D01*
X-00158666Y04056151D01*
X-00157545Y04055703D01*
X-00156435Y04055227D01*
X-00155337Y04054724D01*
X-00154251Y04054194D01*
X-00153179Y04053638D01*
X-00152121Y04053056D01*
X-00151077Y04052447D01*
X-00150049Y04051814D01*
X-00149037Y04051155D01*
X-00148041Y04050472D01*
X-00147062Y04049764D01*
X-00146101Y04049033D01*
X-00145158Y04048278D01*
X-00144233Y04047501D01*
X-00143329Y04046700D01*
X-00142444Y04045878D01*
X-00141579Y04045035D01*
X-00140736Y04044170D01*
X-00139914Y04043285D01*
X-00139113Y04042381D01*
X-00138336Y04041456D01*
X-00137581Y04040513D01*
X-00136850Y04039552D01*
X-00136142Y04038573D01*
X-00135459Y04037577D01*
X-00134800Y04036565D01*
X-00134167Y04035537D01*
X-00133558Y04034493D01*
X-00132976Y04033435D01*
X-00132420Y04032363D01*
X-00131890Y04031277D01*
X-00131387Y04030179D01*
X-00130911Y04029069D01*
X-00130463Y04027948D01*
X-00130042Y04026815D01*
X-00129649Y04025673D01*
X-00129284Y04024522D01*
X-00128948Y04023362D01*
X-00128640Y04022194D01*
X-00128361Y04021019D01*
X-00128111Y04019837D01*
X-00127890Y04018650D01*
X-00127698Y04017457D01*
X-00127535Y04016260D01*
X-00127402Y04015060D01*
X-00127298Y04013856D01*
X-00127224Y04012651D01*
X-00127180Y04011444D01*
X-00127165Y04010236D01*
X-00127180Y04009028D01*
X-00127224Y04007821D01*
X-00127298Y04006616D01*
X-00127402Y04005412D01*
X-00127535Y04004212D01*
X-00127698Y04003015D01*
X-00127890Y04001822D01*
X-00128111Y04000635D01*
X-00128361Y03999453D01*
X-00128640Y03998278D01*
X-00128948Y03997110D01*
X-00129284Y03995950D01*
X-00129649Y03994799D01*
X-00130042Y03993657D01*
X-00130463Y03992524D01*
X-00130911Y03991403D01*
X-00131387Y03990293D01*
X-00131890Y03989195D01*
X-00132420Y03988109D01*
X-00132976Y03987037D01*
X-00133558Y03985979D01*
X-00134167Y03984935D01*
X-00134800Y03983907D01*
X-00135459Y03982895D01*
X-00136142Y03981899D01*
X-00136850Y03980920D01*
X-00137581Y03979959D01*
X-00138336Y03979016D01*
X-00139113Y03978091D01*
X-00139914Y03977187D01*
X-00140736Y03976302D01*
X-00141579Y03975437D01*
X-00142444Y03974594D01*
X-00143329Y03973772D01*
X-00144233Y03972971D01*
X-00145158Y03972194D01*
X-00146101Y03971439D01*
X-00147062Y03970708D01*
X-00148041Y03970000D01*
X-00149037Y03969317D01*
X-00150049Y03968658D01*
X-00151077Y03968025D01*
X-00152121Y03967416D01*
X-00153179Y03966834D01*
X-00154251Y03966278D01*
X-00155337Y03965748D01*
X-00156435Y03965245D01*
X-00157545Y03964769D01*
X-00158666Y03964321D01*
X-00159799Y03963900D01*
X-00160941Y03963507D01*
X-00162092Y03963142D01*
X-00163252Y03962806D01*
X-00164420Y03962498D01*
X-00165595Y03962219D01*
X-00166777Y03961969D01*
X-00167964Y03961748D01*
X-00169157Y03961556D01*
X-00170354Y03961393D01*
X-00171554Y03961260D01*
X-00172758Y03961156D01*
X-00173963Y03961082D01*
X-00175170Y03961038D01*
X-00176378Y03961023D01*
X-00177586Y03961038D01*
X-00178793Y03961082D01*
X-00179998Y03961156D01*
X-00181202Y03961260D01*
X-00182402Y03961393D01*
X-00183599Y03961556D01*
X-00184792Y03961748D01*
X-00185979Y03961969D01*
X-00187161Y03962219D01*
X-00188336Y03962498D01*
X-00189504Y03962806D01*
X-00190664Y03963142D01*
X-00191815Y03963507D01*
X-00192957Y03963900D01*
X-00194090Y03964321D01*
X-00195211Y03964769D01*
X-00196321Y03965245D01*
X-00197419Y03965748D01*
X-00198505Y03966278D01*
X-00199577Y03966834D01*
X-00200635Y03967416D01*
X-00201679Y03968025D01*
X-00202707Y03968658D01*
X-00203719Y03969317D01*
X-00204715Y03970000D01*
X-00205694Y03970708D01*
X-00206655Y03971439D01*
X-00207598Y03972194D01*
X-00208523Y03972971D01*
X-00209427Y03973772D01*
X-00210312Y03974594D01*
X-00211177Y03975437D01*
X-00212020Y03976302D01*
X-00212842Y03977187D01*
X-00213643Y03978091D01*
X-00214420Y03979016D01*
X-00215175Y03979959D01*
X-00215906Y03980920D01*
X-00216614Y03981899D01*
X-00217297Y03982895D01*
X-00217956Y03983907D01*
X-00218589Y03984935D01*
X-00219198Y03985979D01*
X-00219780Y03987037D01*
X-00220336Y03988109D01*
X-00220866Y03989195D01*
X-00221369Y03990293D01*
X-00221845Y03991403D01*
X-00222293Y03992524D01*
X-00222714Y03993657D01*
X-00223107Y03994799D01*
X-00223472Y03995950D01*
X-00223808Y03997110D01*
X-00224116Y03998278D01*
X-00224395Y03999453D01*
X-00224645Y04000635D01*
X-00224866Y04001822D01*
X-00225058Y04003015D01*
X-00225221Y04004212D01*
X-00225354Y04005412D01*
X-00225458Y04006616D01*
X-00225532Y04007821D01*
X-00225576Y04009028D01*
X-00225591Y04010236D01*
X01595000Y00950000D02*
X01595020Y00951595D01*
X01595078Y00953189D01*
X01595176Y00954782D01*
X01595313Y00956371D01*
X01595489Y00957957D01*
X01595704Y00959537D01*
X01595957Y00961113D01*
X01596249Y00962681D01*
X01596579Y00964242D01*
X01596948Y00965794D01*
X01597355Y00967336D01*
X01597799Y00968869D01*
X01598281Y00970389D01*
X01598800Y00971898D01*
X01599355Y00973393D01*
X01599948Y00974874D01*
X01600576Y00976341D01*
X01601241Y00977791D01*
X01601940Y00979225D01*
X01602675Y00980641D01*
X01603444Y00982038D01*
X01604248Y00983417D01*
X01605085Y00984775D01*
X01605954Y00986112D01*
X01606857Y00987428D01*
X01607792Y00988720D01*
X01608757Y00989990D01*
X01609754Y00991236D01*
X01610781Y00992456D01*
X01611838Y00993651D01*
X01612924Y00994820D01*
X01614038Y00995962D01*
X01615180Y00997076D01*
X01616349Y00998162D01*
X01617544Y00999219D01*
X01618764Y01000246D01*
X01620010Y01001243D01*
X01621280Y01002208D01*
X01622572Y01003143D01*
X01623888Y01004046D01*
X01625225Y01004915D01*
X01626583Y01005752D01*
X01627962Y01006556D01*
X01629359Y01007325D01*
X01630775Y01008060D01*
X01632209Y01008759D01*
X01633659Y01009424D01*
X01635126Y01010052D01*
X01636607Y01010645D01*
X01638102Y01011200D01*
X01639611Y01011719D01*
X01641131Y01012201D01*
X01642664Y01012645D01*
X01644206Y01013052D01*
X01645758Y01013421D01*
X01647319Y01013751D01*
X01648887Y01014043D01*
X01650463Y01014296D01*
X01652043Y01014511D01*
X01653629Y01014687D01*
X01655218Y01014824D01*
X01656811Y01014922D01*
X01658405Y01014980D01*
X01660000Y01015000D01*
X01661595Y01014980D01*
X01663189Y01014922D01*
X01664782Y01014824D01*
X01666371Y01014687D01*
X01667957Y01014511D01*
X01669537Y01014296D01*
X01671113Y01014043D01*
X01672681Y01013751D01*
X01674242Y01013421D01*
X01675794Y01013052D01*
X01677336Y01012645D01*
X01678869Y01012201D01*
X01680389Y01011719D01*
X01681898Y01011200D01*
X01683393Y01010645D01*
X01684874Y01010052D01*
X01686341Y01009424D01*
X01687791Y01008759D01*
X01689225Y01008060D01*
X01690641Y01007325D01*
X01692038Y01006556D01*
X01693417Y01005752D01*
X01694775Y01004915D01*
X01696112Y01004046D01*
X01697428Y01003143D01*
X01698720Y01002208D01*
X01699990Y01001243D01*
X01701236Y01000246D01*
X01702456Y00999219D01*
X01703651Y00998162D01*
X01704820Y00997076D01*
X01705962Y00995962D01*
X01707076Y00994820D01*
X01708162Y00993651D01*
X01709219Y00992456D01*
X01710246Y00991236D01*
X01711243Y00989990D01*
X01712208Y00988720D01*
X01713143Y00987428D01*
X01714046Y00986112D01*
X01714915Y00984775D01*
X01715752Y00983417D01*
X01716556Y00982038D01*
X01717325Y00980641D01*
X01718060Y00979225D01*
X01718759Y00977791D01*
X01719424Y00976341D01*
X01720052Y00974874D01*
X01720645Y00973393D01*
X01721200Y00971898D01*
X01721719Y00970389D01*
X01722201Y00968869D01*
X01722645Y00967336D01*
X01723052Y00965794D01*
X01723421Y00964242D01*
X01723751Y00962681D01*
X01724043Y00961113D01*
X01724296Y00959537D01*
X01724511Y00957957D01*
X01724687Y00956371D01*
X01724824Y00954782D01*
X01724922Y00953189D01*
X01724980Y00951595D01*
X01725000Y00950000D01*
X01724980Y00948405D01*
X01724922Y00946811D01*
X01724824Y00945218D01*
X01724687Y00943629D01*
X01724511Y00942043D01*
X01724296Y00940463D01*
X01724043Y00938887D01*
X01723751Y00937319D01*
X01723421Y00935758D01*
X01723052Y00934206D01*
X01722645Y00932664D01*
X01722201Y00931131D01*
X01721719Y00929611D01*
X01721200Y00928102D01*
X01720645Y00926607D01*
X01720052Y00925126D01*
X01719424Y00923659D01*
X01718759Y00922209D01*
X01718060Y00920775D01*
X01717325Y00919359D01*
X01716556Y00917962D01*
X01715752Y00916583D01*
X01714915Y00915225D01*
X01714046Y00913888D01*
X01713143Y00912572D01*
X01712208Y00911280D01*
X01711243Y00910010D01*
X01710246Y00908764D01*
X01709219Y00907544D01*
X01708162Y00906349D01*
X01707076Y00905180D01*
X01705962Y00904038D01*
X01704820Y00902924D01*
X01703651Y00901838D01*
X01702456Y00900781D01*
X01701236Y00899754D01*
X01699990Y00898757D01*
X01698720Y00897792D01*
X01697428Y00896857D01*
X01696112Y00895954D01*
X01694775Y00895085D01*
X01693417Y00894248D01*
X01692038Y00893444D01*
X01690641Y00892675D01*
X01689225Y00891940D01*
X01687791Y00891241D01*
X01686341Y00890576D01*
X01684874Y00889948D01*
X01683393Y00889355D01*
X01681898Y00888800D01*
X01680389Y00888281D01*
X01678869Y00887799D01*
X01677336Y00887355D01*
X01675794Y00886948D01*
X01674242Y00886579D01*
X01672681Y00886249D01*
X01671113Y00885957D01*
X01669537Y00885704D01*
X01667957Y00885489D01*
X01666371Y00885313D01*
X01664782Y00885176D01*
X01663189Y00885078D01*
X01661595Y00885020D01*
X01660000Y00885000D01*
X01658405Y00885020D01*
X01656811Y00885078D01*
X01655218Y00885176D01*
X01653629Y00885313D01*
X01652043Y00885489D01*
X01650463Y00885704D01*
X01648887Y00885957D01*
X01647319Y00886249D01*
X01645758Y00886579D01*
X01644206Y00886948D01*
X01642664Y00887355D01*
X01641131Y00887799D01*
X01639611Y00888281D01*
X01638102Y00888800D01*
X01636607Y00889355D01*
X01635126Y00889948D01*
X01633659Y00890576D01*
X01632209Y00891241D01*
X01630775Y00891940D01*
X01629359Y00892675D01*
X01627962Y00893444D01*
X01626583Y00894248D01*
X01625225Y00895085D01*
X01623888Y00895954D01*
X01622572Y00896857D01*
X01621280Y00897792D01*
X01620010Y00898757D01*
X01618764Y00899754D01*
X01617544Y00900781D01*
X01616349Y00901838D01*
X01615180Y00902924D01*
X01614038Y00904038D01*
X01612924Y00905180D01*
X01611838Y00906349D01*
X01610781Y00907544D01*
X01609754Y00908764D01*
X01608757Y00910010D01*
X01607792Y00911280D01*
X01606857Y00912572D01*
X01605954Y00913888D01*
X01605085Y00915225D01*
X01604248Y00916583D01*
X01603444Y00917962D01*
X01602675Y00919359D01*
X01601940Y00920775D01*
X01601241Y00922209D01*
X01600576Y00923659D01*
X01599948Y00925126D01*
X01599355Y00926607D01*
X01598800Y00928102D01*
X01598281Y00929611D01*
X01597799Y00931131D01*
X01597355Y00932664D01*
X01596948Y00934206D01*
X01596579Y00935758D01*
X01596249Y00937319D01*
X01595957Y00938887D01*
X01595704Y00940463D01*
X01595489Y00942043D01*
X01595313Y00943629D01*
X01595176Y00945218D01*
X01595078Y00946811D01*
X01595020Y00948405D01*
X01595000Y00950000D01*
X02727165Y02789764D02*
X02727180Y02790972D01*
X02727224Y02792179D01*
X02727298Y02793384D01*
X02727402Y02794588D01*
X02727535Y02795788D01*
X02727698Y02796985D01*
X02727890Y02798178D01*
X02728111Y02799365D01*
X02728361Y02800547D01*
X02728640Y02801722D01*
X02728948Y02802890D01*
X02729284Y02804050D01*
X02729649Y02805201D01*
X02730042Y02806343D01*
X02730463Y02807476D01*
X02730911Y02808597D01*
X02731387Y02809707D01*
X02731890Y02810805D01*
X02732420Y02811891D01*
X02732976Y02812963D01*
X02733558Y02814021D01*
X02734167Y02815065D01*
X02734800Y02816093D01*
X02735459Y02817105D01*
X02736142Y02818101D01*
X02736850Y02819080D01*
X02737581Y02820041D01*
X02738336Y02820984D01*
X02739113Y02821909D01*
X02739914Y02822813D01*
X02740736Y02823698D01*
X02741579Y02824563D01*
X02742444Y02825406D01*
X02743329Y02826228D01*
X02744233Y02827029D01*
X02745158Y02827806D01*
X02746101Y02828561D01*
X02747062Y02829292D01*
X02748041Y02830000D01*
X02749037Y02830683D01*
X02750049Y02831342D01*
X02751077Y02831975D01*
X02752121Y02832584D01*
X02753179Y02833166D01*
X02754251Y02833722D01*
X02755337Y02834252D01*
X02756435Y02834755D01*
X02757545Y02835231D01*
X02758666Y02835679D01*
X02759799Y02836100D01*
X02760941Y02836493D01*
X02762092Y02836858D01*
X02763252Y02837194D01*
X02764420Y02837502D01*
X02765595Y02837781D01*
X02766777Y02838031D01*
X02767964Y02838252D01*
X02769157Y02838444D01*
X02770354Y02838607D01*
X02771554Y02838740D01*
X02772758Y02838844D01*
X02773963Y02838918D01*
X02775170Y02838962D01*
X02776378Y02838977D01*
X02777586Y02838962D01*
X02778793Y02838918D01*
X02779998Y02838844D01*
X02781202Y02838740D01*
X02782402Y02838607D01*
X02783599Y02838444D01*
X02784792Y02838252D01*
X02785979Y02838031D01*
X02787161Y02837781D01*
X02788336Y02837502D01*
X02789504Y02837194D01*
X02790664Y02836858D01*
X02791815Y02836493D01*
X02792957Y02836100D01*
X02794090Y02835679D01*
X02795211Y02835231D01*
X02796321Y02834755D01*
X02797419Y02834252D01*
X02798505Y02833722D01*
X02799577Y02833166D01*
X02800635Y02832584D01*
X02801679Y02831975D01*
X02802707Y02831342D01*
X02803719Y02830683D01*
X02804715Y02830000D01*
X02805694Y02829292D01*
X02806655Y02828561D01*
X02807598Y02827806D01*
X02808523Y02827029D01*
X02809427Y02826228D01*
X02810312Y02825406D01*
X02811177Y02824563D01*
X02812020Y02823698D01*
X02812842Y02822813D01*
X02813643Y02821909D01*
X02814420Y02820984D01*
X02815175Y02820041D01*
X02815906Y02819080D01*
X02816614Y02818101D01*
X02817297Y02817105D01*
X02817956Y02816093D01*
X02818589Y02815065D01*
X02819198Y02814021D01*
X02819780Y02812963D01*
X02820336Y02811891D01*
X02820866Y02810805D01*
X02821369Y02809707D01*
X02821845Y02808597D01*
X02822293Y02807476D01*
X02822714Y02806343D01*
X02823107Y02805201D01*
X02823472Y02804050D01*
X02823808Y02802890D01*
X02824116Y02801722D01*
X02824395Y02800547D01*
X02824645Y02799365D01*
X02824866Y02798178D01*
X02825058Y02796985D01*
X02825221Y02795788D01*
X02825354Y02794588D01*
X02825458Y02793384D01*
X02825532Y02792179D01*
X02825576Y02790972D01*
X02825591Y02789764D01*
X02825576Y02788556D01*
X02825532Y02787349D01*
X02825458Y02786144D01*
X02825354Y02784940D01*
X02825221Y02783740D01*
X02825058Y02782543D01*
X02824866Y02781350D01*
X02824645Y02780163D01*
X02824395Y02778981D01*
X02824116Y02777806D01*
X02823808Y02776638D01*
X02823472Y02775478D01*
X02823107Y02774327D01*
X02822714Y02773185D01*
X02822293Y02772052D01*
X02821845Y02770931D01*
X02821369Y02769821D01*
X02820866Y02768723D01*
X02820336Y02767637D01*
X02819780Y02766565D01*
X02819198Y02765507D01*
X02818589Y02764463D01*
X02817956Y02763435D01*
X02817297Y02762423D01*
X02816614Y02761427D01*
X02815906Y02760448D01*
X02815175Y02759487D01*
X02814420Y02758544D01*
X02813643Y02757619D01*
X02812842Y02756715D01*
X02812020Y02755830D01*
X02811177Y02754965D01*
X02810312Y02754122D01*
X02809427Y02753300D01*
X02808523Y02752499D01*
X02807598Y02751722D01*
X02806655Y02750967D01*
X02805694Y02750236D01*
X02804715Y02749528D01*
X02803719Y02748845D01*
X02802707Y02748186D01*
X02801679Y02747553D01*
X02800635Y02746944D01*
X02799577Y02746362D01*
X02798505Y02745806D01*
X02797419Y02745276D01*
X02796321Y02744773D01*
X02795211Y02744297D01*
X02794090Y02743849D01*
X02792957Y02743428D01*
X02791815Y02743035D01*
X02790664Y02742670D01*
X02789504Y02742334D01*
X02788336Y02742026D01*
X02787161Y02741747D01*
X02785979Y02741497D01*
X02784792Y02741276D01*
X02783599Y02741084D01*
X02782402Y02740921D01*
X02781202Y02740788D01*
X02779998Y02740684D01*
X02778793Y02740610D01*
X02777586Y02740566D01*
X02776378Y02740551D01*
X02775170Y02740566D01*
X02773963Y02740610D01*
X02772758Y02740684D01*
X02771554Y02740788D01*
X02770354Y02740921D01*
X02769157Y02741084D01*
X02767964Y02741276D01*
X02766777Y02741497D01*
X02765595Y02741747D01*
X02764420Y02742026D01*
X02763252Y02742334D01*
X02762092Y02742670D01*
X02760941Y02743035D01*
X02759799Y02743428D01*
X02758666Y02743849D01*
X02757545Y02744297D01*
X02756435Y02744773D01*
X02755337Y02745276D01*
X02754251Y02745806D01*
X02753179Y02746362D01*
X02752121Y02746944D01*
X02751077Y02747553D01*
X02750049Y02748186D01*
X02749037Y02748845D01*
X02748041Y02749528D01*
X02747062Y02750236D01*
X02746101Y02750967D01*
X02745158Y02751722D01*
X02744233Y02752499D01*
X02743329Y02753300D01*
X02742444Y02754122D01*
X02741579Y02754965D01*
X02740736Y02755830D01*
X02739914Y02756715D01*
X02739113Y02757619D01*
X02738336Y02758544D01*
X02737581Y02759487D01*
X02736850Y02760448D01*
X02736142Y02761427D01*
X02735459Y02762423D01*
X02734800Y02763435D01*
X02734167Y02764463D01*
X02733558Y02765507D01*
X02732976Y02766565D01*
X02732420Y02767637D01*
X02731890Y02768723D01*
X02731387Y02769821D01*
X02730911Y02770931D01*
X02730463Y02772052D01*
X02730042Y02773185D01*
X02729649Y02774327D01*
X02729284Y02775478D01*
X02728948Y02776638D01*
X02728640Y02777806D01*
X02728361Y02778981D01*
X02728111Y02780163D01*
X02727890Y02781350D01*
X02727698Y02782543D01*
X02727535Y02783740D01*
X02727402Y02784940D01*
X02727298Y02786144D01*
X02727224Y02787349D01*
X02727180Y02788556D01*
X02727165Y02789764D01*
X02727165Y04010236D02*
X02727180Y04011444D01*
X02727224Y04012651D01*
X02727298Y04013856D01*
X02727402Y04015060D01*
X02727535Y04016260D01*
X02727698Y04017457D01*
X02727890Y04018650D01*
X02728111Y04019837D01*
X02728361Y04021019D01*
X02728640Y04022194D01*
X02728948Y04023362D01*
X02729284Y04024522D01*
X02729649Y04025673D01*
X02730042Y04026815D01*
X02730463Y04027948D01*
X02730911Y04029069D01*
X02731387Y04030179D01*
X02731890Y04031277D01*
X02732420Y04032363D01*
X02732976Y04033435D01*
X02733558Y04034493D01*
X02734167Y04035537D01*
X02734800Y04036565D01*
X02735459Y04037577D01*
X02736142Y04038573D01*
X02736850Y04039552D01*
X02737581Y04040513D01*
X02738336Y04041456D01*
X02739113Y04042381D01*
X02739914Y04043285D01*
X02740736Y04044170D01*
X02741579Y04045035D01*
X02742444Y04045878D01*
X02743329Y04046700D01*
X02744233Y04047501D01*
X02745158Y04048278D01*
X02746101Y04049033D01*
X02747062Y04049764D01*
X02748041Y04050472D01*
X02749037Y04051155D01*
X02750049Y04051814D01*
X02751077Y04052447D01*
X02752121Y04053056D01*
X02753179Y04053638D01*
X02754251Y04054194D01*
X02755337Y04054724D01*
X02756435Y04055227D01*
X02757545Y04055703D01*
X02758666Y04056151D01*
X02759799Y04056572D01*
X02760941Y04056965D01*
X02762092Y04057330D01*
X02763252Y04057666D01*
X02764420Y04057974D01*
X02765595Y04058253D01*
X02766777Y04058503D01*
X02767964Y04058724D01*
X02769157Y04058916D01*
X02770354Y04059079D01*
X02771554Y04059212D01*
X02772758Y04059316D01*
X02773963Y04059390D01*
X02775170Y04059434D01*
X02776378Y04059449D01*
X02777586Y04059434D01*
X02778793Y04059390D01*
X02779998Y04059316D01*
X02781202Y04059212D01*
X02782402Y04059079D01*
X02783599Y04058916D01*
X02784792Y04058724D01*
X02785979Y04058503D01*
X02787161Y04058253D01*
X02788336Y04057974D01*
X02789504Y04057666D01*
X02790664Y04057330D01*
X02791815Y04056965D01*
X02792957Y04056572D01*
X02794090Y04056151D01*
X02795211Y04055703D01*
X02796321Y04055227D01*
X02797419Y04054724D01*
X02798505Y04054194D01*
X02799577Y04053638D01*
X02800635Y04053056D01*
X02801679Y04052447D01*
X02802707Y04051814D01*
X02803719Y04051155D01*
X02804715Y04050472D01*
X02805694Y04049764D01*
X02806655Y04049033D01*
X02807598Y04048278D01*
X02808523Y04047501D01*
X02809427Y04046700D01*
X02810312Y04045878D01*
X02811177Y04045035D01*
X02812020Y04044170D01*
X02812842Y04043285D01*
X02813643Y04042381D01*
X02814420Y04041456D01*
X02815175Y04040513D01*
X02815906Y04039552D01*
X02816614Y04038573D01*
X02817297Y04037577D01*
X02817956Y04036565D01*
X02818589Y04035537D01*
X02819198Y04034493D01*
X02819780Y04033435D01*
X02820336Y04032363D01*
X02820866Y04031277D01*
X02821369Y04030179D01*
X02821845Y04029069D01*
X02822293Y04027948D01*
X02822714Y04026815D01*
X02823107Y04025673D01*
X02823472Y04024522D01*
X02823808Y04023362D01*
X02824116Y04022194D01*
X02824395Y04021019D01*
X02824645Y04019837D01*
X02824866Y04018650D01*
X02825058Y04017457D01*
X02825221Y04016260D01*
X02825354Y04015060D01*
X02825458Y04013856D01*
X02825532Y04012651D01*
X02825576Y04011444D01*
X02825591Y04010236D01*
X02825576Y04009028D01*
X02825532Y04007821D01*
X02825458Y04006616D01*
X02825354Y04005412D01*
X02825221Y04004212D01*
X02825058Y04003015D01*
X02824866Y04001822D01*
X02824645Y04000635D01*
X02824395Y03999453D01*
X02824116Y03998278D01*
X02823808Y03997110D01*
X02823472Y03995950D01*
X02823107Y03994799D01*
X02822714Y03993657D01*
X02822293Y03992524D01*
X02821845Y03991403D01*
X02821369Y03990293D01*
X02820866Y03989195D01*
X02820336Y03988109D01*
X02819780Y03987037D01*
X02819198Y03985979D01*
X02818589Y03984935D01*
X02817956Y03983907D01*
X02817297Y03982895D01*
X02816614Y03981899D01*
X02815906Y03980920D01*
X02815175Y03979959D01*
X02814420Y03979016D01*
X02813643Y03978091D01*
X02812842Y03977187D01*
X02812020Y03976302D01*
X02811177Y03975437D01*
X02810312Y03974594D01*
X02809427Y03973772D01*
X02808523Y03972971D01*
X02807598Y03972194D01*
X02806655Y03971439D01*
X02805694Y03970708D01*
X02804715Y03970000D01*
X02803719Y03969317D01*
X02802707Y03968658D01*
X02801679Y03968025D01*
X02800635Y03967416D01*
X02799577Y03966834D01*
X02798505Y03966278D01*
X02797419Y03965748D01*
X02796321Y03965245D01*
X02795211Y03964769D01*
X02794090Y03964321D01*
X02792957Y03963900D01*
X02791815Y03963507D01*
X02790664Y03963142D01*
X02789504Y03962806D01*
X02788336Y03962498D01*
X02787161Y03962219D01*
X02785979Y03961969D01*
X02784792Y03961748D01*
X02783599Y03961556D01*
X02782402Y03961393D01*
X02781202Y03961260D01*
X02779998Y03961156D01*
X02778793Y03961082D01*
X02777586Y03961038D01*
X02776378Y03961023D01*
X02775170Y03961038D01*
X02773963Y03961082D01*
X02772758Y03961156D01*
X02771554Y03961260D01*
X02770354Y03961393D01*
X02769157Y03961556D01*
X02767964Y03961748D01*
X02766777Y03961969D01*
X02765595Y03962219D01*
X02764420Y03962498D01*
X02763252Y03962806D01*
X02762092Y03963142D01*
X02760941Y03963507D01*
X02759799Y03963900D01*
X02758666Y03964321D01*
X02757545Y03964769D01*
X02756435Y03965245D01*
X02755337Y03965748D01*
X02754251Y03966278D01*
X02753179Y03966834D01*
X02752121Y03967416D01*
X02751077Y03968025D01*
X02750049Y03968658D01*
X02749037Y03969317D01*
X02748041Y03970000D01*
X02747062Y03970708D01*
X02746101Y03971439D01*
X02745158Y03972194D01*
X02744233Y03972971D01*
X02743329Y03973772D01*
X02742444Y03974594D01*
X02741579Y03975437D01*
X02740736Y03976302D01*
X02739914Y03977187D01*
X02739113Y03978091D01*
X02738336Y03979016D01*
X02737581Y03979959D01*
X02736850Y03980920D01*
X02736142Y03981899D01*
X02735459Y03982895D01*
X02734800Y03983907D01*
X02734167Y03984935D01*
X02733558Y03985979D01*
X02732976Y03987037D01*
X02732420Y03988109D01*
X02731890Y03989195D01*
X02731387Y03990293D01*
X02730911Y03991403D01*
X02730463Y03992524D01*
X02730042Y03993657D01*
X02729649Y03994799D01*
X02729284Y03995950D01*
X02728948Y03997110D01*
X02728640Y03998278D01*
X02728361Y03999453D01*
X02728111Y04000635D01*
X02727890Y04001822D01*
X02727698Y04003015D01*
X02727535Y04004212D01*
X02727402Y04005412D01*
X02727298Y04006616D01*
X02727224Y04007821D01*
X02727180Y04009028D01*
X02727165Y04010236D01*
X02887008Y04250000D02*
X02887027Y04251546D01*
X02887084Y04253091D01*
X02887179Y04254634D01*
X02887311Y04256174D01*
X02887482Y04257711D01*
X02887690Y04259243D01*
X02887935Y04260769D01*
X02888218Y04262289D01*
X02888539Y04263802D01*
X02888896Y04265306D01*
X02889290Y04266801D01*
X02889720Y04268286D01*
X02890187Y04269759D01*
X02890690Y04271221D01*
X02891229Y04272671D01*
X02891803Y04274106D01*
X02892412Y04275527D01*
X02893056Y04276933D01*
X02893734Y04278322D01*
X02894446Y04279694D01*
X02895191Y04281049D01*
X02895970Y04282384D01*
X02896781Y04283701D01*
X02897624Y04284996D01*
X02898499Y04286271D01*
X02899404Y04287524D01*
X02900340Y04288755D01*
X02901307Y04289962D01*
X02902302Y04291145D01*
X02903326Y04292303D01*
X02904378Y04293436D01*
X02905458Y04294542D01*
X02906564Y04295622D01*
X02907697Y04296674D01*
X02908855Y04297698D01*
X02910038Y04298693D01*
X02911245Y04299660D01*
X02912476Y04300596D01*
X02913729Y04301501D01*
X02915004Y04302376D01*
X02916299Y04303219D01*
X02917616Y04304030D01*
X02918951Y04304809D01*
X02920306Y04305554D01*
X02921678Y04306266D01*
X02923067Y04306944D01*
X02924473Y04307588D01*
X02925894Y04308197D01*
X02927329Y04308771D01*
X02928779Y04309310D01*
X02930241Y04309813D01*
X02931714Y04310280D01*
X02933199Y04310710D01*
X02934694Y04311104D01*
X02936198Y04311461D01*
X02937711Y04311782D01*
X02939231Y04312065D01*
X02940757Y04312310D01*
X02942289Y04312518D01*
X02943826Y04312689D01*
X02945366Y04312821D01*
X02946909Y04312916D01*
X02948454Y04312973D01*
X02950000Y04312992D01*
X02951546Y04312973D01*
X02953091Y04312916D01*
X02954634Y04312821D01*
X02956174Y04312689D01*
X02957711Y04312518D01*
X02959243Y04312310D01*
X02960769Y04312065D01*
X02962289Y04311782D01*
X02963802Y04311461D01*
X02965306Y04311104D01*
X02966801Y04310710D01*
X02968286Y04310280D01*
X02969759Y04309813D01*
X02971221Y04309310D01*
X02972671Y04308771D01*
X02974106Y04308197D01*
X02975527Y04307588D01*
X02976933Y04306944D01*
X02978322Y04306266D01*
X02979694Y04305554D01*
X02981049Y04304809D01*
X02982384Y04304030D01*
X02983701Y04303219D01*
X02984996Y04302376D01*
X02986271Y04301501D01*
X02987524Y04300596D01*
X02988755Y04299660D01*
X02989962Y04298693D01*
X02991145Y04297698D01*
X02992303Y04296674D01*
X02993436Y04295622D01*
X02994542Y04294542D01*
X02995622Y04293436D01*
X02996674Y04292303D01*
X02997698Y04291145D01*
X02998693Y04289962D01*
X02999660Y04288755D01*
X03000596Y04287524D01*
X03001501Y04286271D01*
X03002376Y04284996D01*
X03003219Y04283701D01*
X03004030Y04282384D01*
X03004809Y04281049D01*
X03005554Y04279694D01*
X03006266Y04278322D01*
X03006944Y04276933D01*
X03007588Y04275527D01*
X03008197Y04274106D01*
X03008771Y04272671D01*
X03009310Y04271221D01*
X03009813Y04269759D01*
X03010280Y04268286D01*
X03010710Y04266801D01*
X03011104Y04265306D01*
X03011461Y04263802D01*
X03011782Y04262289D01*
X03012065Y04260769D01*
X03012310Y04259243D01*
X03012518Y04257711D01*
X03012689Y04256174D01*
X03012821Y04254634D01*
X03012916Y04253091D01*
X03012973Y04251546D01*
X03012992Y04250000D01*
X03012973Y04248454D01*
X03012916Y04246909D01*
X03012821Y04245366D01*
X03012689Y04243826D01*
X03012518Y04242289D01*
X03012310Y04240757D01*
X03012065Y04239231D01*
X03011782Y04237711D01*
X03011461Y04236198D01*
X03011104Y04234694D01*
X03010710Y04233199D01*
X03010280Y04231714D01*
X03009813Y04230241D01*
X03009310Y04228779D01*
X03008771Y04227329D01*
X03008197Y04225894D01*
X03007588Y04224473D01*
X03006944Y04223067D01*
X03006266Y04221678D01*
X03005554Y04220306D01*
X03004809Y04218951D01*
X03004030Y04217616D01*
X03003219Y04216299D01*
X03002376Y04215004D01*
X03001501Y04213729D01*
X03000596Y04212476D01*
X02999660Y04211245D01*
X02998693Y04210038D01*
X02997698Y04208855D01*
X02996674Y04207697D01*
X02995622Y04206564D01*
X02994542Y04205458D01*
X02993436Y04204378D01*
X02992303Y04203326D01*
X02991145Y04202302D01*
X02989962Y04201307D01*
X02988755Y04200340D01*
X02987524Y04199404D01*
X02986271Y04198499D01*
X02984996Y04197624D01*
X02983701Y04196781D01*
X02982384Y04195970D01*
X02981049Y04195191D01*
X02979694Y04194446D01*
X02978322Y04193734D01*
X02976933Y04193056D01*
X02975527Y04192412D01*
X02974106Y04191803D01*
X02972671Y04191229D01*
X02971221Y04190690D01*
X02969759Y04190187D01*
X02968286Y04189720D01*
X02966801Y04189290D01*
X02965306Y04188896D01*
X02963802Y04188539D01*
X02962289Y04188218D01*
X02960769Y04187935D01*
X02959243Y04187690D01*
X02957711Y04187482D01*
X02956174Y04187311D01*
X02954634Y04187179D01*
X02953091Y04187084D01*
X02951546Y04187027D01*
X02950000Y04187008D01*
X02948454Y04187027D01*
X02946909Y04187084D01*
X02945366Y04187179D01*
X02943826Y04187311D01*
X02942289Y04187482D01*
X02940757Y04187690D01*
X02939231Y04187935D01*
X02937711Y04188218D01*
X02936198Y04188539D01*
X02934694Y04188896D01*
X02933199Y04189290D01*
X02931714Y04189720D01*
X02930241Y04190187D01*
X02928779Y04190690D01*
X02927329Y04191229D01*
X02925894Y04191803D01*
X02924473Y04192412D01*
X02923067Y04193056D01*
X02921678Y04193734D01*
X02920306Y04194446D01*
X02918951Y04195191D01*
X02917616Y04195970D01*
X02916299Y04196781D01*
X02915004Y04197624D01*
X02913729Y04198499D01*
X02912476Y04199404D01*
X02911245Y04200340D01*
X02910038Y04201307D01*
X02908855Y04202302D01*
X02907697Y04203326D01*
X02906564Y04204378D01*
X02905458Y04205458D01*
X02904378Y04206564D01*
X02903326Y04207697D01*
X02902302Y04208855D01*
X02901307Y04210038D01*
X02900340Y04211245D01*
X02899404Y04212476D01*
X02898499Y04213729D01*
X02897624Y04215004D01*
X02896781Y04216299D01*
X02895970Y04217616D01*
X02895191Y04218951D01*
X02894446Y04220306D01*
X02893734Y04221678D01*
X02893056Y04223067D01*
X02892412Y04224473D01*
X02891803Y04225894D01*
X02891229Y04227329D01*
X02890690Y04228779D01*
X02890187Y04230241D01*
X02889720Y04231714D01*
X02889290Y04233199D01*
X02888896Y04234694D01*
X02888539Y04236198D01*
X02888218Y04237711D01*
X02887935Y04239231D01*
X02887690Y04240757D01*
X02887482Y04242289D01*
X02887311Y04243826D01*
X02887179Y04245366D01*
X02887084Y04246909D01*
X02887027Y04248454D01*
X02887008Y04250000D01*
D11*
X-00140000Y00780000D02*
X-00140000Y00745000D01*
X00350000Y00745000D01*
X00350000Y01155000D01*
X-00140000Y01155000D01*
X-00140000Y01120000D01*
X-00200000Y01120000D01*
X-00200000Y01155000D01*
X-00275000Y01155000D01*
X-00275000Y00745000D01*
X-00200000Y00745000D01*
X-00200000Y00780000D01*
X-00140000Y00780000D01*
X-00211000Y00950000D02*
X-00210979Y00951742D01*
X-00210914Y00953484D01*
X-00210808Y00955223D01*
X-00210658Y00956959D01*
X-00210466Y00958691D01*
X-00210232Y00960418D01*
X-00209955Y00962138D01*
X-00209636Y00963851D01*
X-00209275Y00965556D01*
X-00208872Y00967252D01*
X-00208428Y00968937D01*
X-00207943Y00970610D01*
X-00207417Y00972271D01*
X-00206850Y00973919D01*
X-00206242Y00975553D01*
X-00205595Y00977171D01*
X-00204909Y00978772D01*
X-00204183Y00980356D01*
X-00203419Y00981922D01*
X-00202616Y00983469D01*
X-00201776Y00984996D01*
X-00200899Y00986501D01*
X-00199985Y00987985D01*
X-00199034Y00989445D01*
X-00198049Y00990882D01*
X-00197028Y00992295D01*
X-00195973Y00993681D01*
X-00194884Y00995042D01*
X-00193762Y00996375D01*
X-00192608Y00997681D01*
X-00191422Y00998957D01*
X-00190205Y01000205D01*
X-00188957Y01001422D01*
X-00187681Y01002608D01*
X-00186375Y01003762D01*
X-00185042Y01004884D01*
X-00183681Y01005973D01*
X-00182295Y01007028D01*
X-00180882Y01008049D01*
X-00179445Y01009034D01*
X-00177985Y01009985D01*
X-00176501Y01010899D01*
X-00174996Y01011776D01*
X-00173469Y01012616D01*
X-00171922Y01013419D01*
X-00170356Y01014183D01*
X-00168772Y01014909D01*
X-00167171Y01015595D01*
X-00165553Y01016242D01*
X-00163919Y01016850D01*
X-00162271Y01017417D01*
X-00160610Y01017943D01*
X-00158937Y01018428D01*
X-00157252Y01018872D01*
X-00155556Y01019275D01*
X-00153851Y01019636D01*
X-00152138Y01019955D01*
X-00150418Y01020232D01*
X-00148691Y01020466D01*
X-00146959Y01020658D01*
X-00145223Y01020808D01*
X-00143484Y01020914D01*
X-00141742Y01020979D01*
X-00140000Y01021000D01*
X-00138258Y01020979D01*
X-00136516Y01020914D01*
X-00134777Y01020808D01*
X-00133041Y01020658D01*
X-00131309Y01020466D01*
X-00129582Y01020232D01*
X-00127862Y01019955D01*
X-00126149Y01019636D01*
X-00124444Y01019275D01*
X-00122748Y01018872D01*
X-00121063Y01018428D01*
X-00119390Y01017943D01*
X-00117729Y01017417D01*
X-00116081Y01016850D01*
X-00114447Y01016242D01*
X-00112829Y01015595D01*
X-00111228Y01014909D01*
X-00109644Y01014183D01*
X-00108078Y01013419D01*
X-00106531Y01012616D01*
X-00105004Y01011776D01*
X-00103499Y01010899D01*
X-00102015Y01009985D01*
X-00100555Y01009034D01*
X-00099118Y01008049D01*
X-00097705Y01007028D01*
X-00096319Y01005973D01*
X-00094958Y01004884D01*
X-00093625Y01003762D01*
X-00092319Y01002608D01*
X-00091043Y01001422D01*
X-00089795Y01000205D01*
X-00088578Y00998957D01*
X-00087392Y00997681D01*
X-00086238Y00996375D01*
X-00085116Y00995042D01*
X-00084027Y00993681D01*
X-00082972Y00992295D01*
X-00081951Y00990882D01*
X-00080966Y00989445D01*
X-00080015Y00987985D01*
X-00079101Y00986501D01*
X-00078224Y00984996D01*
X-00077384Y00983469D01*
X-00076581Y00981922D01*
X-00075817Y00980356D01*
X-00075091Y00978772D01*
X-00074405Y00977171D01*
X-00073758Y00975553D01*
X-00073150Y00973919D01*
X-00072583Y00972271D01*
X-00072057Y00970610D01*
X-00071572Y00968937D01*
X-00071128Y00967252D01*
X-00070725Y00965556D01*
X-00070364Y00963851D01*
X-00070045Y00962138D01*
X-00069768Y00960418D01*
X-00069534Y00958691D01*
X-00069342Y00956959D01*
X-00069192Y00955223D01*
X-00069086Y00953484D01*
X-00069021Y00951742D01*
X-00069000Y00950000D01*
X-00069021Y00948258D01*
X-00069086Y00946516D01*
X-00069192Y00944777D01*
X-00069342Y00943041D01*
X-00069534Y00941309D01*
X-00069768Y00939582D01*
X-00070045Y00937862D01*
X-00070364Y00936149D01*
X-00070725Y00934444D01*
X-00071128Y00932748D01*
X-00071572Y00931063D01*
X-00072057Y00929390D01*
X-00072583Y00927729D01*
X-00073150Y00926081D01*
X-00073758Y00924447D01*
X-00074405Y00922829D01*
X-00075091Y00921228D01*
X-00075817Y00919644D01*
X-00076581Y00918078D01*
X-00077384Y00916531D01*
X-00078224Y00915004D01*
X-00079101Y00913499D01*
X-00080015Y00912015D01*
X-00080966Y00910555D01*
X-00081951Y00909118D01*
X-00082972Y00907705D01*
X-00084027Y00906319D01*
X-00085116Y00904958D01*
X-00086238Y00903625D01*
X-00087392Y00902319D01*
X-00088578Y00901043D01*
X-00089795Y00899795D01*
X-00091043Y00898578D01*
X-00092319Y00897392D01*
X-00093625Y00896238D01*
X-00094958Y00895116D01*
X-00096319Y00894027D01*
X-00097705Y00892972D01*
X-00099118Y00891951D01*
X-00100555Y00890966D01*
X-00102015Y00890015D01*
X-00103499Y00889101D01*
X-00105004Y00888224D01*
X-00106531Y00887384D01*
X-00108078Y00886581D01*
X-00109644Y00885817D01*
X-00111228Y00885091D01*
X-00112829Y00884405D01*
X-00114447Y00883758D01*
X-00116081Y00883150D01*
X-00117729Y00882583D01*
X-00119390Y00882057D01*
X-00121063Y00881572D01*
X-00122748Y00881128D01*
X-00124444Y00880725D01*
X-00126149Y00880364D01*
X-00127862Y00880045D01*
X-00129582Y00879768D01*
X-00131309Y00879534D01*
X-00133041Y00879342D01*
X-00134777Y00879192D01*
X-00136516Y00879086D01*
X-00138258Y00879021D01*
X-00140000Y00879000D01*
X-00141742Y00879021D01*
X-00143484Y00879086D01*
X-00145223Y00879192D01*
X-00146959Y00879342D01*
X-00148691Y00879534D01*
X-00150418Y00879768D01*
X-00152138Y00880045D01*
X-00153851Y00880364D01*
X-00155556Y00880725D01*
X-00157252Y00881128D01*
X-00158937Y00881572D01*
X-00160610Y00882057D01*
X-00162271Y00882583D01*
X-00163919Y00883150D01*
X-00165553Y00883758D01*
X-00167171Y00884405D01*
X-00168772Y00885091D01*
X-00170356Y00885817D01*
X-00171922Y00886581D01*
X-00173469Y00887384D01*
X-00174996Y00888224D01*
X-00176501Y00889101D01*
X-00177985Y00890015D01*
X-00179445Y00890966D01*
X-00180882Y00891951D01*
X-00182295Y00892972D01*
X-00183681Y00894027D01*
X-00185042Y00895116D01*
X-00186375Y00896238D01*
X-00187681Y00897392D01*
X-00188957Y00898578D01*
X-00190205Y00899795D01*
X-00191422Y00901043D01*
X-00192608Y00902319D01*
X-00193762Y00903625D01*
X-00194884Y00904958D01*
X-00195973Y00906319D01*
X-00197028Y00907705D01*
X-00198049Y00909118D01*
X-00199034Y00910555D01*
X-00199985Y00912015D01*
X-00200899Y00913499D01*
X-00201776Y00915004D01*
X-00202616Y00916531D01*
X-00203419Y00918078D01*
X-00204183Y00919644D01*
X-00204909Y00921228D01*
X-00205595Y00922829D01*
X-00206242Y00924447D01*
X-00206850Y00926081D01*
X-00207417Y00927729D01*
X-00207943Y00929390D01*
X-00208428Y00931063D01*
X-00208872Y00932748D01*
X-00209275Y00934444D01*
X-00209636Y00936149D01*
X-00209955Y00937862D01*
X-00210232Y00939582D01*
X-00210466Y00941309D01*
X-00210658Y00943041D01*
X-00210808Y00944777D01*
X-00210914Y00946516D01*
X-00210979Y00948258D01*
X-00211000Y00950000D01*
X00600000Y00775000D02*
X00600000Y00725000D01*
X00625000Y00700000D01*
X00675000Y00700000D01*
X00700000Y00725000D01*
X00725000Y00700000D01*
X00775000Y00700000D01*
X00800000Y00725000D01*
X00825000Y00700000D01*
X00875000Y00700000D01*
X00900000Y00725000D01*
X00925000Y00700000D01*
X00975000Y00700000D01*
X01000000Y00725000D01*
X01025000Y00700000D01*
X01075000Y00700000D01*
X01100000Y00725000D01*
X01125000Y00700000D01*
X01175000Y00700000D01*
X01200000Y00725000D01*
X01225000Y00700000D01*
X01275000Y00700000D01*
X01300000Y00725000D01*
X01300000Y00775000D01*
X01275000Y00800000D01*
X01225000Y00800000D01*
X01200000Y00775000D01*
X01175000Y00800000D01*
X01125000Y00800000D01*
X01100000Y00775000D01*
X01075000Y00800000D01*
X01025000Y00800000D01*
X01000000Y00775000D01*
X00975000Y00800000D01*
X00925000Y00800000D01*
X00900000Y00775000D01*
X00875000Y00800000D01*
X00825000Y00800000D01*
X00800000Y00775000D01*
X00775000Y00800000D01*
X00725000Y00800000D01*
X00700000Y00775000D01*
X00675000Y00800000D01*
X00625000Y00800000D01*
X00600000Y00775000D01*
X01525000Y00745000D02*
X01600000Y00745000D01*
X01600000Y00780000D01*
X01660000Y00780000D01*
X01660000Y00745000D01*
X02150000Y00745000D01*
X02150000Y01155000D01*
X01660000Y01155000D01*
X01660000Y01120000D01*
X01600000Y01120000D01*
X01600000Y01155000D01*
X01525000Y01155000D01*
X01525000Y00745000D01*
X01589000Y00950000D02*
X01589021Y00951742D01*
X01589086Y00953484D01*
X01589192Y00955223D01*
X01589342Y00956959D01*
X01589534Y00958691D01*
X01589768Y00960418D01*
X01590045Y00962138D01*
X01590364Y00963851D01*
X01590725Y00965556D01*
X01591128Y00967252D01*
X01591572Y00968937D01*
X01592057Y00970610D01*
X01592583Y00972271D01*
X01593150Y00973919D01*
X01593758Y00975553D01*
X01594405Y00977171D01*
X01595091Y00978772D01*
X01595817Y00980356D01*
X01596581Y00981922D01*
X01597384Y00983469D01*
X01598224Y00984996D01*
X01599101Y00986501D01*
X01600015Y00987985D01*
X01600966Y00989445D01*
X01601951Y00990882D01*
X01602972Y00992295D01*
X01604027Y00993681D01*
X01605116Y00995042D01*
X01606238Y00996375D01*
X01607392Y00997681D01*
X01608578Y00998957D01*
X01609795Y01000205D01*
X01611043Y01001422D01*
X01612319Y01002608D01*
X01613625Y01003762D01*
X01614958Y01004884D01*
X01616319Y01005973D01*
X01617705Y01007028D01*
X01619118Y01008049D01*
X01620555Y01009034D01*
X01622015Y01009985D01*
X01623499Y01010899D01*
X01625004Y01011776D01*
X01626531Y01012616D01*
X01628078Y01013419D01*
X01629644Y01014183D01*
X01631228Y01014909D01*
X01632829Y01015595D01*
X01634447Y01016242D01*
X01636081Y01016850D01*
X01637729Y01017417D01*
X01639390Y01017943D01*
X01641063Y01018428D01*
X01642748Y01018872D01*
X01644444Y01019275D01*
X01646149Y01019636D01*
X01647862Y01019955D01*
X01649582Y01020232D01*
X01651309Y01020466D01*
X01653041Y01020658D01*
X01654777Y01020808D01*
X01656516Y01020914D01*
X01658258Y01020979D01*
X01660000Y01021000D01*
X01661742Y01020979D01*
X01663484Y01020914D01*
X01665223Y01020808D01*
X01666959Y01020658D01*
X01668691Y01020466D01*
X01670418Y01020232D01*
X01672138Y01019955D01*
X01673851Y01019636D01*
X01675556Y01019275D01*
X01677252Y01018872D01*
X01678937Y01018428D01*
X01680610Y01017943D01*
X01682271Y01017417D01*
X01683919Y01016850D01*
X01685553Y01016242D01*
X01687171Y01015595D01*
X01688772Y01014909D01*
X01690356Y01014183D01*
X01691922Y01013419D01*
X01693469Y01012616D01*
X01694996Y01011776D01*
X01696501Y01010899D01*
X01697985Y01009985D01*
X01699445Y01009034D01*
X01700882Y01008049D01*
X01702295Y01007028D01*
X01703681Y01005973D01*
X01705042Y01004884D01*
X01706375Y01003762D01*
X01707681Y01002608D01*
X01708957Y01001422D01*
X01710205Y01000205D01*
X01711422Y00998957D01*
X01712608Y00997681D01*
X01713762Y00996375D01*
X01714884Y00995042D01*
X01715973Y00993681D01*
X01717028Y00992295D01*
X01718049Y00990882D01*
X01719034Y00989445D01*
X01719985Y00987985D01*
X01720899Y00986501D01*
X01721776Y00984996D01*
X01722616Y00983469D01*
X01723419Y00981922D01*
X01724183Y00980356D01*
X01724909Y00978772D01*
X01725595Y00977171D01*
X01726242Y00975553D01*
X01726850Y00973919D01*
X01727417Y00972271D01*
X01727943Y00970610D01*
X01728428Y00968937D01*
X01728872Y00967252D01*
X01729275Y00965556D01*
X01729636Y00963851D01*
X01729955Y00962138D01*
X01730232Y00960418D01*
X01730466Y00958691D01*
X01730658Y00956959D01*
X01730808Y00955223D01*
X01730914Y00953484D01*
X01730979Y00951742D01*
X01731000Y00950000D01*
X01730979Y00948258D01*
X01730914Y00946516D01*
X01730808Y00944777D01*
X01730658Y00943041D01*
X01730466Y00941309D01*
X01730232Y00939582D01*
X01729955Y00937862D01*
X01729636Y00936149D01*
X01729275Y00934444D01*
X01728872Y00932748D01*
X01728428Y00931063D01*
X01727943Y00929390D01*
X01727417Y00927729D01*
X01726850Y00926081D01*
X01726242Y00924447D01*
X01725595Y00922829D01*
X01724909Y00921228D01*
X01724183Y00919644D01*
X01723419Y00918078D01*
X01722616Y00916531D01*
X01721776Y00915004D01*
X01720899Y00913499D01*
X01719985Y00912015D01*
X01719034Y00910555D01*
X01718049Y00909118D01*
X01717028Y00907705D01*
X01715973Y00906319D01*
X01714884Y00904958D01*
X01713762Y00903625D01*
X01712608Y00902319D01*
X01711422Y00901043D01*
X01710205Y00899795D01*
X01708957Y00898578D01*
X01707681Y00897392D01*
X01706375Y00896238D01*
X01705042Y00895116D01*
X01703681Y00894027D01*
X01702295Y00892972D01*
X01700882Y00891951D01*
X01699445Y00890966D01*
X01697985Y00890015D01*
X01696501Y00889101D01*
X01694996Y00888224D01*
X01693469Y00887384D01*
X01691922Y00886581D01*
X01690356Y00885817D01*
X01688772Y00885091D01*
X01687171Y00884405D01*
X01685553Y00883758D01*
X01683919Y00883150D01*
X01682271Y00882583D01*
X01680610Y00882057D01*
X01678937Y00881572D01*
X01677252Y00881128D01*
X01675556Y00880725D01*
X01673851Y00880364D01*
X01672138Y00880045D01*
X01670418Y00879768D01*
X01668691Y00879534D01*
X01666959Y00879342D01*
X01665223Y00879192D01*
X01663484Y00879086D01*
X01661742Y00879021D01*
X01660000Y00879000D01*
X01658258Y00879021D01*
X01656516Y00879086D01*
X01654777Y00879192D01*
X01653041Y00879342D01*
X01651309Y00879534D01*
X01649582Y00879768D01*
X01647862Y00880045D01*
X01646149Y00880364D01*
X01644444Y00880725D01*
X01642748Y00881128D01*
X01641063Y00881572D01*
X01639390Y00882057D01*
X01637729Y00882583D01*
X01636081Y00883150D01*
X01634447Y00883758D01*
X01632829Y00884405D01*
X01631228Y00885091D01*
X01629644Y00885817D01*
X01628078Y00886581D01*
X01626531Y00887384D01*
X01625004Y00888224D01*
X01623499Y00889101D01*
X01622015Y00890015D01*
X01620555Y00890966D01*
X01619118Y00891951D01*
X01617705Y00892972D01*
X01616319Y00894027D01*
X01614958Y00895116D01*
X01613625Y00896238D01*
X01612319Y00897392D01*
X01611043Y00898578D01*
X01609795Y00899795D01*
X01608578Y00901043D01*
X01607392Y00902319D01*
X01606238Y00903625D01*
X01605116Y00904958D01*
X01604027Y00906319D01*
X01602972Y00907705D01*
X01601951Y00909118D01*
X01600966Y00910555D01*
X01600015Y00912015D01*
X01599101Y00913499D01*
X01598224Y00915004D01*
X01597384Y00916531D01*
X01596581Y00918078D01*
X01595817Y00919644D01*
X01595091Y00921228D01*
X01594405Y00922829D01*
X01593758Y00924447D01*
X01593150Y00926081D01*
X01592583Y00927729D01*
X01592057Y00929390D01*
X01591572Y00931063D01*
X01591128Y00932748D01*
X01590725Y00934444D01*
X01590364Y00936149D01*
X01590045Y00937862D01*
X01589768Y00939582D01*
X01589534Y00941309D01*
X01589342Y00943041D01*
X01589192Y00944777D01*
X01589086Y00946516D01*
X01589021Y00948258D01*
X01589000Y00950000D01*
X01750000Y01500000D02*
X01750030Y01502454D01*
X01750120Y01504907D01*
X01750271Y01507356D01*
X01750482Y01509802D01*
X01750752Y01512241D01*
X01751082Y01514673D01*
X01751472Y01517096D01*
X01751921Y01519509D01*
X01752430Y01521910D01*
X01752997Y01524298D01*
X01753622Y01526671D01*
X01754306Y01529028D01*
X01755047Y01531368D01*
X01755846Y01533689D01*
X01756701Y01535990D01*
X01757612Y01538268D01*
X01758579Y01540524D01*
X01759601Y01542756D01*
X01760678Y01544961D01*
X01761808Y01547140D01*
X01762991Y01549290D01*
X01764227Y01551410D01*
X01765515Y01553500D01*
X01766853Y01555557D01*
X01768242Y01557581D01*
X01769679Y01559570D01*
X01771165Y01561523D01*
X01772699Y01563439D01*
X01774279Y01565317D01*
X01775905Y01567156D01*
X01777575Y01568954D01*
X01779289Y01570711D01*
X01781046Y01572425D01*
X01782844Y01574095D01*
X01784683Y01575721D01*
X01786561Y01577301D01*
X01788477Y01578835D01*
X01790430Y01580321D01*
X01792419Y01581758D01*
X01794443Y01583147D01*
X01796500Y01584485D01*
X01798590Y01585773D01*
X01800710Y01587009D01*
X01802860Y01588192D01*
X01805039Y01589322D01*
X01807244Y01590399D01*
X01809476Y01591421D01*
X01811732Y01592388D01*
X01814010Y01593299D01*
X01816311Y01594154D01*
X01818632Y01594953D01*
X01820972Y01595694D01*
X01823329Y01596378D01*
X01825702Y01597003D01*
X01828090Y01597570D01*
X01830491Y01598079D01*
X01832904Y01598528D01*
X01835327Y01598918D01*
X01837759Y01599248D01*
X01840198Y01599518D01*
X01842644Y01599729D01*
X01845093Y01599880D01*
X01847546Y01599970D01*
X01850000Y01600000D01*
X01852454Y01599970D01*
X01854907Y01599880D01*
X01857356Y01599729D01*
X01859802Y01599518D01*
X01862241Y01599248D01*
X01864673Y01598918D01*
X01867096Y01598528D01*
X01869509Y01598079D01*
X01871910Y01597570D01*
X01874298Y01597003D01*
X01876671Y01596378D01*
X01879028Y01595694D01*
X01881368Y01594953D01*
X01883689Y01594154D01*
X01885990Y01593299D01*
X01888268Y01592388D01*
X01890524Y01591421D01*
X01892756Y01590399D01*
X01894961Y01589322D01*
X01897140Y01588192D01*
X01899290Y01587009D01*
X01901410Y01585773D01*
X01903500Y01584485D01*
X01905557Y01583147D01*
X01907581Y01581758D01*
X01909570Y01580321D01*
X01911523Y01578835D01*
X01913439Y01577301D01*
X01915317Y01575721D01*
X01917156Y01574095D01*
X01918954Y01572425D01*
X01920711Y01570711D01*
X01922425Y01568954D01*
X01924095Y01567156D01*
X01925721Y01565317D01*
X01927301Y01563439D01*
X01928835Y01561523D01*
X01930321Y01559570D01*
X01931758Y01557581D01*
X01933147Y01555557D01*
X01934485Y01553500D01*
X01935773Y01551410D01*
X01937009Y01549290D01*
X01938192Y01547140D01*
X01939322Y01544961D01*
X01940399Y01542756D01*
X01941421Y01540524D01*
X01942388Y01538268D01*
X01943299Y01535990D01*
X01944154Y01533689D01*
X01944953Y01531368D01*
X01945694Y01529028D01*
X01946378Y01526671D01*
X01947003Y01524298D01*
X01947570Y01521910D01*
X01948079Y01519509D01*
X01948528Y01517096D01*
X01948918Y01514673D01*
X01949248Y01512241D01*
X01949518Y01509802D01*
X01949729Y01507356D01*
X01949880Y01504907D01*
X01949970Y01502454D01*
X01950000Y01500000D01*
X01949970Y01497546D01*
X01949880Y01495093D01*
X01949729Y01492644D01*
X01949518Y01490198D01*
X01949248Y01487759D01*
X01948918Y01485327D01*
X01948528Y01482904D01*
X01948079Y01480491D01*
X01947570Y01478090D01*
X01947003Y01475702D01*
X01946378Y01473329D01*
X01945694Y01470972D01*
X01944953Y01468632D01*
X01944154Y01466311D01*
X01943299Y01464010D01*
X01942388Y01461732D01*
X01941421Y01459476D01*
X01940399Y01457244D01*
X01939322Y01455039D01*
X01938192Y01452860D01*
X01937009Y01450710D01*
X01935773Y01448590D01*
X01934485Y01446500D01*
X01933147Y01444443D01*
X01931758Y01442419D01*
X01930321Y01440430D01*
X01928835Y01438477D01*
X01927301Y01436561D01*
X01925721Y01434683D01*
X01924095Y01432844D01*
X01922425Y01431046D01*
X01920711Y01429289D01*
X01918954Y01427575D01*
X01917156Y01425905D01*
X01915317Y01424279D01*
X01913439Y01422699D01*
X01911523Y01421165D01*
X01909570Y01419679D01*
X01907581Y01418242D01*
X01905557Y01416853D01*
X01903500Y01415515D01*
X01901410Y01414227D01*
X01899290Y01412991D01*
X01897140Y01411808D01*
X01894961Y01410678D01*
X01892756Y01409601D01*
X01890524Y01408579D01*
X01888268Y01407612D01*
X01885990Y01406701D01*
X01883689Y01405846D01*
X01881368Y01405047D01*
X01879028Y01404306D01*
X01876671Y01403622D01*
X01874298Y01402997D01*
X01871910Y01402430D01*
X01869509Y01401921D01*
X01867096Y01401472D01*
X01864673Y01401082D01*
X01862241Y01400752D01*
X01859802Y01400482D01*
X01857356Y01400271D01*
X01854907Y01400120D01*
X01852454Y01400030D01*
X01850000Y01400000D01*
X01847546Y01400030D01*
X01845093Y01400120D01*
X01842644Y01400271D01*
X01840198Y01400482D01*
X01837759Y01400752D01*
X01835327Y01401082D01*
X01832904Y01401472D01*
X01830491Y01401921D01*
X01828090Y01402430D01*
X01825702Y01402997D01*
X01823329Y01403622D01*
X01820972Y01404306D01*
X01818632Y01405047D01*
X01816311Y01405846D01*
X01814010Y01406701D01*
X01811732Y01407612D01*
X01809476Y01408579D01*
X01807244Y01409601D01*
X01805039Y01410678D01*
X01802860Y01411808D01*
X01800710Y01412991D01*
X01798590Y01414227D01*
X01796500Y01415515D01*
X01794443Y01416853D01*
X01792419Y01418242D01*
X01790430Y01419679D01*
X01788477Y01421165D01*
X01786561Y01422699D01*
X01784683Y01424279D01*
X01782844Y01425905D01*
X01781046Y01427575D01*
X01779289Y01429289D01*
X01777575Y01431046D01*
X01775905Y01432844D01*
X01774279Y01434683D01*
X01772699Y01436561D01*
X01771165Y01438477D01*
X01769679Y01440430D01*
X01768242Y01442419D01*
X01766853Y01444443D01*
X01765515Y01446500D01*
X01764227Y01448590D01*
X01762991Y01450710D01*
X01761808Y01452860D01*
X01760678Y01455039D01*
X01759601Y01457244D01*
X01758579Y01459476D01*
X01757612Y01461732D01*
X01756701Y01464010D01*
X01755846Y01466311D01*
X01755047Y01468632D01*
X01754306Y01470972D01*
X01753622Y01473329D01*
X01752997Y01475702D01*
X01752430Y01478090D01*
X01751921Y01480491D01*
X01751472Y01482904D01*
X01751082Y01485327D01*
X01750752Y01487759D01*
X01750482Y01490198D01*
X01750271Y01492644D01*
X01750120Y01495093D01*
X01750030Y01497546D01*
X01750000Y01500000D01*
X00564433Y02038745D02*
X00560096Y02034408D01*
X00564433Y02038745D02*
X00564433Y02047419D01*
X00560096Y02051756D01*
X00555759Y02051756D01*
X00551422Y02047419D01*
X00551422Y02038745D01*
X00547085Y02034408D01*
X00542748Y02034408D01*
X00538411Y02038745D01*
X00538411Y02047419D01*
X00542748Y02051756D01*
X00538411Y02063873D02*
X00564433Y02063873D01*
X00555759Y02072547D01*
X00564433Y02081221D01*
X00538411Y02081221D01*
X00547085Y02093338D02*
X00538411Y02102012D01*
X00564433Y02102012D01*
X00564433Y02093338D02*
X00564433Y02110686D01*
D12*
X00325000Y01130000D02*
X00000000Y01130000D01*
X00000000Y00770000D01*
X00325000Y00770000D01*
X00325000Y01130000D01*
X01800000Y01130000D02*
X01800000Y00770000D01*
X02125000Y00770000D01*
X02125000Y01130000D01*
X01800000Y01130000D01*
D13*
X01833446Y01038901D02*
X01833446Y00996865D01*
X01864973Y00996865D01*
X01854464Y01017883D01*
X01854464Y01028392D01*
X01864973Y01038901D01*
X01885991Y01038901D01*
X01896500Y01028392D01*
X01896500Y01007374D01*
X01885991Y00996865D01*
X01885991Y00974446D02*
X01896500Y00963937D01*
X01896500Y00942919D01*
X01885991Y00932410D01*
X01843955Y00974446D01*
X01885991Y00974446D01*
X01885991Y00932410D02*
X01843955Y00932410D01*
X01833446Y00942919D01*
X01833446Y00963937D01*
X01843955Y00974446D01*
X01843955Y00909991D02*
X01854464Y00909991D01*
X01864973Y00899482D01*
X01864973Y00878464D01*
X01854464Y00867955D01*
X01843955Y00867955D01*
X01833446Y00878464D01*
X01833446Y00899482D01*
X01843955Y00909991D01*
X01864973Y00899482D02*
X01875482Y00909991D01*
X01885991Y00909991D01*
X01896500Y00899482D01*
X01896500Y00878464D01*
X01885991Y00867955D01*
X01875482Y00867955D01*
X01864973Y00878464D01*
X01843955Y00845536D02*
X01885991Y00803500D01*
X01896500Y00803500D01*
X01833446Y00803500D02*
X01833446Y00845536D01*
X01843955Y00845536D01*
X00096500Y00845536D02*
X00096500Y00803500D01*
X00096500Y00824518D02*
X00033446Y00824518D01*
X00054464Y00803500D01*
D14*
X-00012000Y00800353D02*
X-00035353Y00800353D01*
X-00047030Y00788677D01*
X-00035353Y00777000D01*
X-00012000Y00777000D01*
X-00029515Y00777000D02*
X-00029515Y00800353D01*
X-00035353Y00812911D02*
X-00047030Y00824587D01*
X-00012000Y00824587D01*
X-00012000Y00812911D02*
X-00012000Y00836264D01*
X-00017838Y00848821D02*
X-00012000Y00854660D01*
X-00012000Y00866336D01*
X-00017838Y00872175D01*
X-00029515Y00872175D01*
X-00035353Y00866336D01*
X-00035353Y00860498D01*
X-00029515Y00848821D01*
X-00047030Y00848821D01*
X-00047030Y00872175D01*
X-00017838Y00890570D02*
X-00012000Y00890570D01*
X-00012000Y00896409D01*
X-00017838Y00896409D01*
X-00017838Y00890570D01*
X-00012000Y00896409D02*
X-00000323Y00884732D01*
X-00012000Y00908672D02*
X-00035353Y00932026D01*
X-00041192Y00932026D01*
X-00047030Y00926187D01*
X-00047030Y00914511D01*
X-00041192Y00908672D01*
X-00012000Y00908672D02*
X-00012000Y00932026D01*
X-00012000Y00944583D02*
X-00035353Y00944583D01*
X-00035353Y00950421D01*
X-00029515Y00956260D01*
X-00035353Y00962098D01*
X-00029515Y00967936D01*
X-00012000Y00967936D01*
X-00012000Y00956260D02*
X-00029515Y00956260D01*
X-00035353Y00980494D02*
X-00035353Y00986332D01*
X-00029515Y00992170D01*
X-00035353Y00998009D01*
X-00029515Y01003847D01*
X-00012000Y01003847D01*
X-00012000Y00992170D02*
X-00029515Y00992170D01*
X-00035353Y00980494D02*
X-00012000Y00980494D01*
X01752970Y00926187D02*
X01752970Y00914511D01*
X01758808Y00908672D01*
X01752970Y00926187D02*
X01758808Y00932026D01*
X01764647Y00932026D01*
X01788000Y00908672D01*
X01788000Y00932026D01*
X01788000Y00944583D02*
X01764647Y00944583D01*
X01764647Y00950421D01*
X01770485Y00956260D01*
X01764647Y00962098D01*
X01770485Y00967936D01*
X01788000Y00967936D01*
X01788000Y00956260D02*
X01770485Y00956260D01*
X01764647Y00980494D02*
X01764647Y00986332D01*
X01770485Y00992170D01*
X01764647Y00998009D01*
X01770485Y01003847D01*
X01788000Y01003847D01*
X01788000Y00992170D02*
X01770485Y00992170D01*
X01764647Y00980494D02*
X01788000Y00980494D01*
X01788000Y00896409D02*
X01788000Y00890570D01*
X01782162Y00890570D01*
X01782162Y00896409D01*
X01788000Y00896409D01*
X01799677Y00884732D01*
X01782162Y00872175D02*
X01770485Y00872175D01*
X01764647Y00866336D01*
X01764647Y00860498D01*
X01770485Y00848821D01*
X01752970Y00848821D01*
X01752970Y00872175D01*
X01782162Y00872175D02*
X01788000Y00866336D01*
X01788000Y00854660D01*
X01782162Y00848821D01*
X01788000Y00836264D02*
X01788000Y00812911D01*
X01788000Y00824587D02*
X01752970Y00824587D01*
X01764647Y00812911D01*
X01764647Y00800353D02*
X01788000Y00800353D01*
X01770485Y00800353D02*
X01770485Y00777000D01*
X01764647Y00777000D02*
X01752970Y00788677D01*
X01764647Y00800353D01*
X01764647Y00777000D02*
X01788000Y00777000D01*
X02663882Y02627000D02*
X02694575Y02627000D01*
X02709921Y02634673D02*
X02717594Y02627000D01*
X02732941Y02627000D01*
X02740614Y02634673D01*
X02755961Y02627000D02*
X02755961Y02673039D01*
X02778980Y02673039D01*
X02786653Y02665366D01*
X02786653Y02634673D01*
X02778980Y02627000D01*
X02755961Y02627000D01*
X02740614Y02665366D02*
X02732941Y02673039D01*
X02717594Y02673039D01*
X02709921Y02665366D01*
X02709921Y02634673D01*
X02663882Y02627000D02*
X02663882Y02673039D01*
D15*
X02167500Y01050000D03*
X02167500Y00950000D03*
X02167500Y00850000D03*
X00367500Y00850000D03*
X00367500Y00950000D03*
X00367500Y01050000D03*
D16*
X-00096850Y01450000D02*
X-00096791Y01454831D01*
X-00096613Y01459659D01*
X-00096317Y01464481D01*
X-00095902Y01469295D01*
X-00095370Y01474097D01*
X-00094719Y01478884D01*
X-00093952Y01483654D01*
X-00093068Y01488404D01*
X-00092067Y01493130D01*
X-00090951Y01497831D01*
X-00089719Y01502502D01*
X-00088374Y01507143D01*
X-00086915Y01511748D01*
X-00085343Y01516317D01*
X-00083660Y01520845D01*
X-00081866Y01525331D01*
X-00079962Y01529772D01*
X-00077950Y01534164D01*
X-00075831Y01538506D01*
X-00073606Y01542794D01*
X-00071277Y01547027D01*
X-00068844Y01551201D01*
X-00066309Y01555314D01*
X-00063675Y01559364D01*
X-00060942Y01563348D01*
X-00058111Y01567263D01*
X-00055186Y01571108D01*
X-00052167Y01574880D01*
X-00049057Y01578577D01*
X-00045856Y01582196D01*
X-00042568Y01585736D01*
X-00039194Y01589194D01*
X-00035736Y01592568D01*
X-00032196Y01595856D01*
X-00028577Y01599057D01*
X-00024880Y01602167D01*
X-00021108Y01605186D01*
X-00017263Y01608111D01*
X-00013348Y01610942D01*
X-00009364Y01613675D01*
X-00005314Y01616309D01*
X-00001201Y01618844D01*
X00002973Y01621277D01*
X00007206Y01623606D01*
X00011494Y01625831D01*
X00015836Y01627950D01*
X00020228Y01629962D01*
X00024669Y01631866D01*
X00029155Y01633660D01*
X00033683Y01635343D01*
X00038252Y01636915D01*
X00042857Y01638374D01*
X00047498Y01639719D01*
X00052169Y01640951D01*
X00056870Y01642067D01*
X00061596Y01643068D01*
X00066346Y01643952D01*
X00071116Y01644719D01*
X00075903Y01645370D01*
X00080705Y01645902D01*
X00085519Y01646317D01*
X00090341Y01646613D01*
X00095169Y01646791D01*
X00100000Y01646850D01*
X00104831Y01646791D01*
X00109659Y01646613D01*
X00114481Y01646317D01*
X00119295Y01645902D01*
X00124097Y01645370D01*
X00128884Y01644719D01*
X00133654Y01643952D01*
X00138404Y01643068D01*
X00143130Y01642067D01*
X00147831Y01640951D01*
X00152502Y01639719D01*
X00157143Y01638374D01*
X00161748Y01636915D01*
X00166317Y01635343D01*
X00170845Y01633660D01*
X00175331Y01631866D01*
X00179772Y01629962D01*
X00184164Y01627950D01*
X00188506Y01625831D01*
X00192794Y01623606D01*
X00197027Y01621277D01*
X00201201Y01618844D01*
X00205314Y01616309D01*
X00209364Y01613675D01*
X00213348Y01610942D01*
X00217263Y01608111D01*
X00221108Y01605186D01*
X00224880Y01602167D01*
X00228577Y01599057D01*
X00232196Y01595856D01*
X00235736Y01592568D01*
X00239194Y01589194D01*
X00242568Y01585736D01*
X00245856Y01582196D01*
X00249057Y01578577D01*
X00252167Y01574880D01*
X00255186Y01571108D01*
X00258111Y01567263D01*
X00260942Y01563348D01*
X00263675Y01559364D01*
X00266309Y01555314D01*
X00268844Y01551201D01*
X00271277Y01547027D01*
X00273606Y01542794D01*
X00275831Y01538506D01*
X00277950Y01534164D01*
X00279962Y01529772D01*
X00281866Y01525331D01*
X00283660Y01520845D01*
X00285343Y01516317D01*
X00286915Y01511748D01*
X00288374Y01507143D01*
X00289719Y01502502D01*
X00290951Y01497831D01*
X00292067Y01493130D01*
X00293068Y01488404D01*
X00293952Y01483654D01*
X00294719Y01478884D01*
X00295370Y01474097D01*
X00295902Y01469295D01*
X00296317Y01464481D01*
X00296613Y01459659D01*
X00296791Y01454831D01*
X00296850Y01450000D01*
X00296791Y01445169D01*
X00296613Y01440341D01*
X00296317Y01435519D01*
X00295902Y01430705D01*
X00295370Y01425903D01*
X00294719Y01421116D01*
X00293952Y01416346D01*
X00293068Y01411596D01*
X00292067Y01406870D01*
X00290951Y01402169D01*
X00289719Y01397498D01*
X00288374Y01392857D01*
X00286915Y01388252D01*
X00285343Y01383683D01*
X00283660Y01379155D01*
X00281866Y01374669D01*
X00279962Y01370228D01*
X00277950Y01365836D01*
X00275831Y01361494D01*
X00273606Y01357206D01*
X00271277Y01352973D01*
X00268844Y01348799D01*
X00266309Y01344686D01*
X00263675Y01340636D01*
X00260942Y01336652D01*
X00258111Y01332737D01*
X00255186Y01328892D01*
X00252167Y01325120D01*
X00249057Y01321423D01*
X00245856Y01317804D01*
X00242568Y01314264D01*
X00239194Y01310806D01*
X00235736Y01307432D01*
X00232196Y01304144D01*
X00228577Y01300943D01*
X00224880Y01297833D01*
X00221108Y01294814D01*
X00217263Y01291889D01*
X00213348Y01289058D01*
X00209364Y01286325D01*
X00205314Y01283691D01*
X00201201Y01281156D01*
X00197027Y01278723D01*
X00192794Y01276394D01*
X00188506Y01274169D01*
X00184164Y01272050D01*
X00179772Y01270038D01*
X00175331Y01268134D01*
X00170845Y01266340D01*
X00166317Y01264657D01*
X00161748Y01263085D01*
X00157143Y01261626D01*
X00152502Y01260281D01*
X00147831Y01259049D01*
X00143130Y01257933D01*
X00138404Y01256932D01*
X00133654Y01256048D01*
X00128884Y01255281D01*
X00124097Y01254630D01*
X00119295Y01254098D01*
X00114481Y01253683D01*
X00109659Y01253387D01*
X00104831Y01253209D01*
X00100000Y01253150D01*
X00095169Y01253209D01*
X00090341Y01253387D01*
X00085519Y01253683D01*
X00080705Y01254098D01*
X00075903Y01254630D01*
X00071116Y01255281D01*
X00066346Y01256048D01*
X00061596Y01256932D01*
X00056870Y01257933D01*
X00052169Y01259049D01*
X00047498Y01260281D01*
X00042857Y01261626D01*
X00038252Y01263085D01*
X00033683Y01264657D01*
X00029155Y01266340D01*
X00024669Y01268134D01*
X00020228Y01270038D01*
X00015836Y01272050D01*
X00011494Y01274169D01*
X00007206Y01276394D01*
X00002973Y01278723D01*
X-00001201Y01281156D01*
X-00005314Y01283691D01*
X-00009364Y01286325D01*
X-00013348Y01289058D01*
X-00017263Y01291889D01*
X-00021108Y01294814D01*
X-00024880Y01297833D01*
X-00028577Y01300943D01*
X-00032196Y01304144D01*
X-00035736Y01307432D01*
X-00039194Y01310806D01*
X-00042568Y01314264D01*
X-00045856Y01317804D01*
X-00049057Y01321423D01*
X-00052167Y01325120D01*
X-00055186Y01328892D01*
X-00058111Y01332737D01*
X-00060942Y01336652D01*
X-00063675Y01340636D01*
X-00066309Y01344686D01*
X-00068844Y01348799D01*
X-00071277Y01352973D01*
X-00073606Y01357206D01*
X-00075831Y01361494D01*
X-00077950Y01365836D01*
X-00079962Y01370228D01*
X-00081866Y01374669D01*
X-00083660Y01379155D01*
X-00085343Y01383683D01*
X-00086915Y01388252D01*
X-00088374Y01392857D01*
X-00089719Y01397498D01*
X-00090951Y01402169D01*
X-00092067Y01406870D01*
X-00093068Y01411596D01*
X-00093952Y01416346D01*
X-00094719Y01421116D01*
X-00095370Y01425903D01*
X-00095902Y01430705D01*
X-00096317Y01435519D01*
X-00096613Y01440341D01*
X-00096791Y01445169D01*
X-00096850Y01450000D01*
X-00025000Y01550000D02*
X00025000Y01550000D01*
X00175000Y01550000D02*
X00225000Y01550000D01*
X00200000Y01575000D02*
X00200000Y01525000D01*
X00211811Y01822835D02*
X00239370Y01822835D01*
X00239370Y01905512D01*
X00239370Y02094488D02*
X00239370Y02177165D01*
X-00181890Y02177165D01*
X-00181890Y01822835D01*
X00026772Y01822835D01*
X00600000Y01900000D02*
X00600000Y01960000D01*
X00600974Y01960012D01*
X00601948Y01960047D01*
X00602920Y01960107D01*
X00603890Y01960190D01*
X00604859Y01960296D01*
X00605824Y01960426D01*
X00606786Y01960580D01*
X00607744Y01960757D01*
X00608697Y01960957D01*
X00609645Y01961180D01*
X00610588Y01961427D01*
X00611524Y01961696D01*
X00612453Y01961988D01*
X00613375Y01962302D01*
X00614289Y01962639D01*
X00615195Y01962998D01*
X00616091Y01963379D01*
X00616978Y01963782D01*
X00617855Y01964206D01*
X00618721Y01964652D01*
X00619577Y01965118D01*
X00620420Y01965605D01*
X00621252Y01966113D01*
X00622071Y01966640D01*
X00622877Y01967187D01*
X00623669Y01967754D01*
X00624447Y01968340D01*
X00625211Y01968945D01*
X00625959Y01969568D01*
X00626693Y01970209D01*
X00627410Y01970868D01*
X00628112Y01971544D01*
X00628796Y01972237D01*
X00629464Y01972946D01*
X00630114Y01973672D01*
X00630746Y01974413D01*
X00631360Y01975169D01*
X00631955Y01975940D01*
X00632532Y01976726D01*
X00633089Y01977525D01*
X00633626Y01978337D01*
X00634144Y01979162D01*
X00634641Y01980000D01*
X00635118Y01980849D01*
X00635574Y01981710D01*
X00636009Y01982582D01*
X00636422Y01983464D01*
X00636814Y01984356D01*
X00637184Y01985257D01*
X00637532Y01986167D01*
X00637858Y01987085D01*
X00638161Y01988010D01*
X00638442Y01988943D01*
X00638699Y01989883D01*
X00638934Y01990828D01*
X00639146Y01991779D01*
X00639335Y01992735D01*
X00639500Y01993695D01*
X00639642Y01994658D01*
X00639760Y01995625D01*
X00639855Y01996595D01*
X00639926Y01997566D01*
X00639973Y01998539D01*
X00639997Y01999513D01*
X00639997Y02000487D01*
X00639973Y02001461D01*
X00639926Y02002434D01*
X00639855Y02003405D01*
X00639760Y02004375D01*
X00639642Y02005342D01*
X00639500Y02006305D01*
X00639335Y02007265D01*
X00639146Y02008221D01*
X00638934Y02009172D01*
X00638699Y02010117D01*
X00638442Y02011057D01*
X00638161Y02011990D01*
X00637858Y02012915D01*
X00637532Y02013833D01*
X00637184Y02014743D01*
X00636814Y02015644D01*
X00636422Y02016536D01*
X00636009Y02017418D01*
X00635574Y02018290D01*
X00635118Y02019151D01*
X00634641Y02020000D01*
X00634144Y02020838D01*
X00633626Y02021663D01*
X00633089Y02022475D01*
X00632532Y02023274D01*
X00631955Y02024060D01*
X00631360Y02024831D01*
X00630746Y02025587D01*
X00630114Y02026328D01*
X00629464Y02027054D01*
X00628796Y02027763D01*
X00628112Y02028456D01*
X00627410Y02029132D01*
X00626693Y02029791D01*
X00625959Y02030432D01*
X00625211Y02031055D01*
X00624447Y02031660D01*
X00623669Y02032246D01*
X00622877Y02032813D01*
X00622071Y02033360D01*
X00621252Y02033887D01*
X00620420Y02034395D01*
X00619577Y02034882D01*
X00618721Y02035348D01*
X00617855Y02035794D01*
X00616978Y02036218D01*
X00616091Y02036621D01*
X00615195Y02037002D01*
X00614289Y02037361D01*
X00613375Y02037698D01*
X00612453Y02038012D01*
X00611524Y02038304D01*
X00610588Y02038573D01*
X00609645Y02038820D01*
X00608697Y02039043D01*
X00607744Y02039243D01*
X00606786Y02039420D01*
X00605824Y02039574D01*
X00604859Y02039704D01*
X00603890Y02039810D01*
X00602920Y02039893D01*
X00601948Y02039953D01*
X00600974Y02039988D01*
X00600000Y02040000D01*
X00600000Y02100000D01*
X02000000Y02100000D01*
X02000000Y01900000D01*
X00600000Y01900000D01*
X01115000Y01740000D02*
X01385000Y01740000D01*
X01387192Y01739973D01*
X01389382Y01739893D01*
X01391570Y01739760D01*
X01393753Y01739573D01*
X01395932Y01739334D01*
X01398104Y01739041D01*
X01400268Y01738695D01*
X01402424Y01738297D01*
X01404569Y01737847D01*
X01406702Y01737344D01*
X01408823Y01736790D01*
X01410929Y01736184D01*
X01413020Y01735527D01*
X01415094Y01734819D01*
X01417151Y01734061D01*
X01419188Y01733254D01*
X01421205Y01732396D01*
X01423201Y01731490D01*
X01425174Y01730536D01*
X01427123Y01729534D01*
X01429048Y01728484D01*
X01430946Y01727389D01*
X01432817Y01726247D01*
X01434659Y01725060D01*
X01436472Y01723828D01*
X01438255Y01722553D01*
X01440006Y01721235D01*
X01441724Y01719874D01*
X01443409Y01718472D01*
X01445059Y01717029D01*
X01446673Y01715547D01*
X01448251Y01714026D01*
X01449791Y01712467D01*
X01451293Y01710870D01*
X01452756Y01709238D01*
X01454178Y01707571D01*
X01455560Y01705869D01*
X01456899Y01704134D01*
X01458196Y01702367D01*
X01459450Y01700569D01*
X01460659Y01698741D01*
X01461823Y01696885D01*
X01462942Y01695000D01*
X01464015Y01693089D01*
X01465041Y01691152D01*
X01466019Y01689191D01*
X01466949Y01687206D01*
X01467831Y01685199D01*
X01468664Y01683172D01*
X01469447Y01681125D01*
X01470180Y01679059D01*
X01470862Y01676976D01*
X01471493Y01674878D01*
X01472074Y01672764D01*
X01472602Y01670637D01*
X01473079Y01668498D01*
X01473503Y01666347D01*
X01473875Y01664187D01*
X01474194Y01662019D01*
X01474460Y01659843D01*
X01474673Y01657662D01*
X01474833Y01655476D01*
X01474940Y01653287D01*
X01474993Y01651096D01*
X01474993Y01648904D01*
X01474940Y01646713D01*
X01474833Y01644524D01*
X01474673Y01642338D01*
X01474460Y01640157D01*
X01474194Y01637981D01*
X01473875Y01635813D01*
X01473503Y01633653D01*
X01473079Y01631502D01*
X01472602Y01629363D01*
X01472074Y01627236D01*
X01471493Y01625122D01*
X01470862Y01623024D01*
X01470180Y01620941D01*
X01469447Y01618875D01*
X01468664Y01616828D01*
X01467831Y01614801D01*
X01466949Y01612794D01*
X01466019Y01610809D01*
X01465041Y01608848D01*
X01464015Y01606911D01*
X01462942Y01605000D01*
X01461823Y01603115D01*
X01460659Y01601259D01*
X01459450Y01599431D01*
X01458196Y01597633D01*
X01456899Y01595866D01*
X01455560Y01594131D01*
X01454178Y01592429D01*
X01452756Y01590762D01*
X01451293Y01589130D01*
X01449791Y01587533D01*
X01448251Y01585974D01*
X01446673Y01584453D01*
X01445059Y01582971D01*
X01443409Y01581528D01*
X01441724Y01580126D01*
X01440006Y01578765D01*
X01438255Y01577447D01*
X01436472Y01576172D01*
X01434659Y01574940D01*
X01432817Y01573753D01*
X01430946Y01572611D01*
X01429048Y01571516D01*
X01427123Y01570466D01*
X01425174Y01569464D01*
X01423201Y01568510D01*
X01421205Y01567604D01*
X01419188Y01566746D01*
X01417151Y01565939D01*
X01415094Y01565181D01*
X01413020Y01564473D01*
X01410929Y01563816D01*
X01408823Y01563210D01*
X01406702Y01562656D01*
X01404569Y01562153D01*
X01402424Y01561703D01*
X01400268Y01561305D01*
X01398104Y01560959D01*
X01395932Y01560666D01*
X01393753Y01560427D01*
X01391570Y01560240D01*
X01389382Y01560107D01*
X01387192Y01560027D01*
X01385000Y01560000D01*
X01115000Y01560000D01*
X01112808Y01560027D01*
X01110618Y01560107D01*
X01108430Y01560240D01*
X01106247Y01560427D01*
X01104068Y01560666D01*
X01101896Y01560959D01*
X01099732Y01561305D01*
X01097576Y01561703D01*
X01095431Y01562153D01*
X01093298Y01562656D01*
X01091177Y01563210D01*
X01089071Y01563816D01*
X01086980Y01564473D01*
X01084906Y01565181D01*
X01082849Y01565939D01*
X01080812Y01566746D01*
X01078795Y01567604D01*
X01076799Y01568510D01*
X01074826Y01569464D01*
X01072877Y01570466D01*
X01070952Y01571516D01*
X01069054Y01572611D01*
X01067183Y01573753D01*
X01065341Y01574940D01*
X01063528Y01576172D01*
X01061745Y01577447D01*
X01059994Y01578765D01*
X01058276Y01580126D01*
X01056591Y01581528D01*
X01054941Y01582971D01*
X01053327Y01584453D01*
X01051749Y01585974D01*
X01050209Y01587533D01*
X01048707Y01589130D01*
X01047244Y01590762D01*
X01045822Y01592429D01*
X01044440Y01594131D01*
X01043101Y01595866D01*
X01041804Y01597633D01*
X01040550Y01599431D01*
X01039341Y01601259D01*
X01038177Y01603115D01*
X01037058Y01605000D01*
X01035985Y01606911D01*
X01034959Y01608848D01*
X01033981Y01610809D01*
X01033051Y01612794D01*
X01032169Y01614801D01*
X01031336Y01616828D01*
X01030553Y01618875D01*
X01029820Y01620941D01*
X01029138Y01623024D01*
X01028507Y01625122D01*
X01027926Y01627236D01*
X01027398Y01629363D01*
X01026921Y01631502D01*
X01026497Y01633653D01*
X01026125Y01635813D01*
X01025806Y01637981D01*
X01025540Y01640157D01*
X01025327Y01642338D01*
X01025167Y01644524D01*
X01025060Y01646713D01*
X01025007Y01648904D01*
X01025007Y01651096D01*
X01025060Y01653287D01*
X01025167Y01655476D01*
X01025327Y01657662D01*
X01025540Y01659843D01*
X01025806Y01662019D01*
X01026125Y01664187D01*
X01026497Y01666347D01*
X01026921Y01668498D01*
X01027398Y01670637D01*
X01027926Y01672764D01*
X01028507Y01674878D01*
X01029138Y01676976D01*
X01029820Y01679059D01*
X01030553Y01681125D01*
X01031336Y01683172D01*
X01032169Y01685199D01*
X01033051Y01687206D01*
X01033981Y01689191D01*
X01034959Y01691152D01*
X01035985Y01693089D01*
X01037058Y01695000D01*
X01038177Y01696885D01*
X01039341Y01698741D01*
X01040550Y01700569D01*
X01041804Y01702367D01*
X01043101Y01704134D01*
X01044440Y01705869D01*
X01045822Y01707571D01*
X01047244Y01709238D01*
X01048707Y01710870D01*
X01050209Y01712467D01*
X01051749Y01714026D01*
X01053327Y01715547D01*
X01054941Y01717029D01*
X01056591Y01718472D01*
X01058276Y01719874D01*
X01059994Y01721235D01*
X01061745Y01722553D01*
X01063528Y01723828D01*
X01065341Y01725060D01*
X01067183Y01726247D01*
X01069054Y01727389D01*
X01070952Y01728484D01*
X01072877Y01729534D01*
X01074826Y01730536D01*
X01076799Y01731490D01*
X01078795Y01732396D01*
X01080812Y01733254D01*
X01082849Y01734061D01*
X01084906Y01734819D01*
X01086980Y01735527D01*
X01089071Y01736184D01*
X01091177Y01736790D01*
X01093298Y01737344D01*
X01095431Y01737847D01*
X01097576Y01738297D01*
X01099732Y01738695D01*
X01101896Y01739041D01*
X01104068Y01739334D01*
X01106247Y01739573D01*
X01108430Y01739760D01*
X01110618Y01739893D01*
X01112808Y01739973D01*
X01115000Y01740000D01*
X01250000Y02520000D02*
X01250000Y02550000D01*
X01240000Y02550000D01*
X01250000Y02550000D02*
X01260000Y02550000D01*
X01250000Y02550000D02*
X01250000Y02580000D01*
X01950000Y01575000D02*
X01950000Y01425000D01*
X02225000Y01550000D02*
X02275000Y01550000D01*
X02250000Y01525000D02*
X02250000Y01575000D01*
X02153150Y01650000D02*
X02153209Y01654831D01*
X02153387Y01659659D01*
X02153683Y01664481D01*
X02154098Y01669295D01*
X02154630Y01674097D01*
X02155281Y01678884D01*
X02156048Y01683654D01*
X02156932Y01688404D01*
X02157933Y01693130D01*
X02159049Y01697831D01*
X02160281Y01702502D01*
X02161626Y01707143D01*
X02163085Y01711748D01*
X02164657Y01716317D01*
X02166340Y01720845D01*
X02168134Y01725331D01*
X02170038Y01729772D01*
X02172050Y01734164D01*
X02174169Y01738506D01*
X02176394Y01742794D01*
X02178723Y01747027D01*
X02181156Y01751201D01*
X02183691Y01755314D01*
X02186325Y01759364D01*
X02189058Y01763348D01*
X02191889Y01767263D01*
X02194814Y01771108D01*
X02197833Y01774880D01*
X02200943Y01778577D01*
X02204144Y01782196D01*
X02207432Y01785736D01*
X02210806Y01789194D01*
X02214264Y01792568D01*
X02217804Y01795856D01*
X02221423Y01799057D01*
X02225120Y01802167D01*
X02228892Y01805186D01*
X02232737Y01808111D01*
X02236652Y01810942D01*
X02240636Y01813675D01*
X02244686Y01816309D01*
X02248799Y01818844D01*
X02252973Y01821277D01*
X02257206Y01823606D01*
X02261494Y01825831D01*
X02265836Y01827950D01*
X02270228Y01829962D01*
X02274669Y01831866D01*
X02279155Y01833660D01*
X02283683Y01835343D01*
X02288252Y01836915D01*
X02292857Y01838374D01*
X02297498Y01839719D01*
X02302169Y01840951D01*
X02306870Y01842067D01*
X02311596Y01843068D01*
X02316346Y01843952D01*
X02321116Y01844719D01*
X02325903Y01845370D01*
X02330705Y01845902D01*
X02335519Y01846317D01*
X02340341Y01846613D01*
X02345169Y01846791D01*
X02350000Y01846850D01*
X02354831Y01846791D01*
X02359659Y01846613D01*
X02364481Y01846317D01*
X02369295Y01845902D01*
X02374097Y01845370D01*
X02378884Y01844719D01*
X02383654Y01843952D01*
X02388404Y01843068D01*
X02393130Y01842067D01*
X02397831Y01840951D01*
X02402502Y01839719D01*
X02407143Y01838374D01*
X02411748Y01836915D01*
X02416317Y01835343D01*
X02420845Y01833660D01*
X02425331Y01831866D01*
X02429772Y01829962D01*
X02434164Y01827950D01*
X02438506Y01825831D01*
X02442794Y01823606D01*
X02447027Y01821277D01*
X02451201Y01818844D01*
X02455314Y01816309D01*
X02459364Y01813675D01*
X02463348Y01810942D01*
X02467263Y01808111D01*
X02471108Y01805186D01*
X02474880Y01802167D01*
X02478577Y01799057D01*
X02482196Y01795856D01*
X02485736Y01792568D01*
X02489194Y01789194D01*
X02492568Y01785736D01*
X02495856Y01782196D01*
X02499057Y01778577D01*
X02502167Y01774880D01*
X02505186Y01771108D01*
X02508111Y01767263D01*
X02510942Y01763348D01*
X02513675Y01759364D01*
X02516309Y01755314D01*
X02518844Y01751201D01*
X02521277Y01747027D01*
X02523606Y01742794D01*
X02525831Y01738506D01*
X02527950Y01734164D01*
X02529962Y01729772D01*
X02531866Y01725331D01*
X02533660Y01720845D01*
X02535343Y01716317D01*
X02536915Y01711748D01*
X02538374Y01707143D01*
X02539719Y01702502D01*
X02540951Y01697831D01*
X02542067Y01693130D01*
X02543068Y01688404D01*
X02543952Y01683654D01*
X02544719Y01678884D01*
X02545370Y01674097D01*
X02545902Y01669295D01*
X02546317Y01664481D01*
X02546613Y01659659D01*
X02546791Y01654831D01*
X02546850Y01650000D01*
X02546791Y01645169D01*
X02546613Y01640341D01*
X02546317Y01635519D01*
X02545902Y01630705D01*
X02545370Y01625903D01*
X02544719Y01621116D01*
X02543952Y01616346D01*
X02543068Y01611596D01*
X02542067Y01606870D01*
X02540951Y01602169D01*
X02539719Y01597498D01*
X02538374Y01592857D01*
X02536915Y01588252D01*
X02535343Y01583683D01*
X02533660Y01579155D01*
X02531866Y01574669D01*
X02529962Y01570228D01*
X02527950Y01565836D01*
X02525831Y01561494D01*
X02523606Y01557206D01*
X02521277Y01552973D01*
X02518844Y01548799D01*
X02516309Y01544686D01*
X02513675Y01540636D01*
X02510942Y01536652D01*
X02508111Y01532737D01*
X02505186Y01528892D01*
X02502167Y01525120D01*
X02499057Y01521423D01*
X02495856Y01517804D01*
X02492568Y01514264D01*
X02489194Y01510806D01*
X02485736Y01507432D01*
X02482196Y01504144D01*
X02478577Y01500943D01*
X02474880Y01497833D01*
X02471108Y01494814D01*
X02467263Y01491889D01*
X02463348Y01489058D01*
X02459364Y01486325D01*
X02455314Y01483691D01*
X02451201Y01481156D01*
X02447027Y01478723D01*
X02442794Y01476394D01*
X02438506Y01474169D01*
X02434164Y01472050D01*
X02429772Y01470038D01*
X02425331Y01468134D01*
X02420845Y01466340D01*
X02416317Y01464657D01*
X02411748Y01463085D01*
X02407143Y01461626D01*
X02402502Y01460281D01*
X02397831Y01459049D01*
X02393130Y01457933D01*
X02388404Y01456932D01*
X02383654Y01456048D01*
X02378884Y01455281D01*
X02374097Y01454630D01*
X02369295Y01454098D01*
X02364481Y01453683D01*
X02359659Y01453387D01*
X02354831Y01453209D01*
X02350000Y01453150D01*
X02345169Y01453209D01*
X02340341Y01453387D01*
X02335519Y01453683D01*
X02330705Y01454098D01*
X02325903Y01454630D01*
X02321116Y01455281D01*
X02316346Y01456048D01*
X02311596Y01456932D01*
X02306870Y01457933D01*
X02302169Y01459049D01*
X02297498Y01460281D01*
X02292857Y01461626D01*
X02288252Y01463085D01*
X02283683Y01464657D01*
X02279155Y01466340D01*
X02274669Y01468134D01*
X02270228Y01470038D01*
X02265836Y01472050D01*
X02261494Y01474169D01*
X02257206Y01476394D01*
X02252973Y01478723D01*
X02248799Y01481156D01*
X02244686Y01483691D01*
X02240636Y01486325D01*
X02236652Y01489058D01*
X02232737Y01491889D01*
X02228892Y01494814D01*
X02225120Y01497833D01*
X02221423Y01500943D01*
X02217804Y01504144D01*
X02214264Y01507432D01*
X02210806Y01510806D01*
X02207432Y01514264D01*
X02204144Y01517804D01*
X02200943Y01521423D01*
X02197833Y01525120D01*
X02194814Y01528892D01*
X02191889Y01532737D01*
X02189058Y01536652D01*
X02186325Y01540636D01*
X02183691Y01544686D01*
X02181156Y01548799D01*
X02178723Y01552973D01*
X02176394Y01557206D01*
X02174169Y01561494D01*
X02172050Y01565836D01*
X02170038Y01570228D01*
X02168134Y01574669D01*
X02166340Y01579155D01*
X02164657Y01583683D01*
X02163085Y01588252D01*
X02161626Y01592857D01*
X02160281Y01597498D01*
X02159049Y01602169D01*
X02157933Y01606870D01*
X02156932Y01611596D01*
X02156048Y01616346D01*
X02155281Y01621116D01*
X02154630Y01625903D01*
X02154098Y01630705D01*
X02153683Y01635519D01*
X02153387Y01640341D01*
X02153209Y01645169D01*
X02153150Y01650000D01*
X02425000Y01550000D02*
X02475000Y01550000D01*
X02584646Y01677953D02*
X02840551Y01677953D01*
X02840551Y02315748D01*
X02879921Y02315748D01*
X02879921Y01677953D01*
X02840551Y01677953D01*
X02584646Y01677953D02*
X02584646Y02315748D01*
X02840551Y02315748D01*
X02870866Y02695276D02*
X02870866Y04104724D01*
X-00270866Y04104724D01*
X-00270866Y02695276D01*
X02870866Y02695276D01*
X02746850Y02927559D02*
X02746850Y03896063D01*
X-00146850Y03896063D01*
X-00146850Y02927559D01*
X02746850Y02927559D01*
X02565748Y03144094D02*
X02565748Y03679528D01*
X00034252Y03679528D01*
X00034252Y03144094D01*
X02565748Y03144094D01*
X02400000Y02580000D02*
X02400000Y02550000D01*
X02390000Y02550000D01*
X02400000Y02550000D02*
X02400000Y02520000D01*
X02400000Y02550000D02*
X02410000Y02550000D01*
X02153150Y02200000D02*
X02153209Y02204831D01*
X02153387Y02209659D01*
X02153683Y02214481D01*
X02154098Y02219295D01*
X02154630Y02224097D01*
X02155281Y02228884D01*
X02156048Y02233654D01*
X02156932Y02238404D01*
X02157933Y02243130D01*
X02159049Y02247831D01*
X02160281Y02252502D01*
X02161626Y02257143D01*
X02163085Y02261748D01*
X02164657Y02266317D01*
X02166340Y02270845D01*
X02168134Y02275331D01*
X02170038Y02279772D01*
X02172050Y02284164D01*
X02174169Y02288506D01*
X02176394Y02292794D01*
X02178723Y02297027D01*
X02181156Y02301201D01*
X02183691Y02305314D01*
X02186325Y02309364D01*
X02189058Y02313348D01*
X02191889Y02317263D01*
X02194814Y02321108D01*
X02197833Y02324880D01*
X02200943Y02328577D01*
X02204144Y02332196D01*
X02207432Y02335736D01*
X02210806Y02339194D01*
X02214264Y02342568D01*
X02217804Y02345856D01*
X02221423Y02349057D01*
X02225120Y02352167D01*
X02228892Y02355186D01*
X02232737Y02358111D01*
X02236652Y02360942D01*
X02240636Y02363675D01*
X02244686Y02366309D01*
X02248799Y02368844D01*
X02252973Y02371277D01*
X02257206Y02373606D01*
X02261494Y02375831D01*
X02265836Y02377950D01*
X02270228Y02379962D01*
X02274669Y02381866D01*
X02279155Y02383660D01*
X02283683Y02385343D01*
X02288252Y02386915D01*
X02292857Y02388374D01*
X02297498Y02389719D01*
X02302169Y02390951D01*
X02306870Y02392067D01*
X02311596Y02393068D01*
X02316346Y02393952D01*
X02321116Y02394719D01*
X02325903Y02395370D01*
X02330705Y02395902D01*
X02335519Y02396317D01*
X02340341Y02396613D01*
X02345169Y02396791D01*
X02350000Y02396850D01*
X02354831Y02396791D01*
X02359659Y02396613D01*
X02364481Y02396317D01*
X02369295Y02395902D01*
X02374097Y02395370D01*
X02378884Y02394719D01*
X02383654Y02393952D01*
X02388404Y02393068D01*
X02393130Y02392067D01*
X02397831Y02390951D01*
X02402502Y02389719D01*
X02407143Y02388374D01*
X02411748Y02386915D01*
X02416317Y02385343D01*
X02420845Y02383660D01*
X02425331Y02381866D01*
X02429772Y02379962D01*
X02434164Y02377950D01*
X02438506Y02375831D01*
X02442794Y02373606D01*
X02447027Y02371277D01*
X02451201Y02368844D01*
X02455314Y02366309D01*
X02459364Y02363675D01*
X02463348Y02360942D01*
X02467263Y02358111D01*
X02471108Y02355186D01*
X02474880Y02352167D01*
X02478577Y02349057D01*
X02482196Y02345856D01*
X02485736Y02342568D01*
X02489194Y02339194D01*
X02492568Y02335736D01*
X02495856Y02332196D01*
X02499057Y02328577D01*
X02502167Y02324880D01*
X02505186Y02321108D01*
X02508111Y02317263D01*
X02510942Y02313348D01*
X02513675Y02309364D01*
X02516309Y02305314D01*
X02518844Y02301201D01*
X02521277Y02297027D01*
X02523606Y02292794D01*
X02525831Y02288506D01*
X02527950Y02284164D01*
X02529962Y02279772D01*
X02531866Y02275331D01*
X02533660Y02270845D01*
X02535343Y02266317D01*
X02536915Y02261748D01*
X02538374Y02257143D01*
X02539719Y02252502D01*
X02540951Y02247831D01*
X02542067Y02243130D01*
X02543068Y02238404D01*
X02543952Y02233654D01*
X02544719Y02228884D01*
X02545370Y02224097D01*
X02545902Y02219295D01*
X02546317Y02214481D01*
X02546613Y02209659D01*
X02546791Y02204831D01*
X02546850Y02200000D01*
X02546791Y02195169D01*
X02546613Y02190341D01*
X02546317Y02185519D01*
X02545902Y02180705D01*
X02545370Y02175903D01*
X02544719Y02171116D01*
X02543952Y02166346D01*
X02543068Y02161596D01*
X02542067Y02156870D01*
X02540951Y02152169D01*
X02539719Y02147498D01*
X02538374Y02142857D01*
X02536915Y02138252D01*
X02535343Y02133683D01*
X02533660Y02129155D01*
X02531866Y02124669D01*
X02529962Y02120228D01*
X02527950Y02115836D01*
X02525831Y02111494D01*
X02523606Y02107206D01*
X02521277Y02102973D01*
X02518844Y02098799D01*
X02516309Y02094686D01*
X02513675Y02090636D01*
X02510942Y02086652D01*
X02508111Y02082737D01*
X02505186Y02078892D01*
X02502167Y02075120D01*
X02499057Y02071423D01*
X02495856Y02067804D01*
X02492568Y02064264D01*
X02489194Y02060806D01*
X02485736Y02057432D01*
X02482196Y02054144D01*
X02478577Y02050943D01*
X02474880Y02047833D01*
X02471108Y02044814D01*
X02467263Y02041889D01*
X02463348Y02039058D01*
X02459364Y02036325D01*
X02455314Y02033691D01*
X02451201Y02031156D01*
X02447027Y02028723D01*
X02442794Y02026394D01*
X02438506Y02024169D01*
X02434164Y02022050D01*
X02429772Y02020038D01*
X02425331Y02018134D01*
X02420845Y02016340D01*
X02416317Y02014657D01*
X02411748Y02013085D01*
X02407143Y02011626D01*
X02402502Y02010281D01*
X02397831Y02009049D01*
X02393130Y02007933D01*
X02388404Y02006932D01*
X02383654Y02006048D01*
X02378884Y02005281D01*
X02374097Y02004630D01*
X02369295Y02004098D01*
X02364481Y02003683D01*
X02359659Y02003387D01*
X02354831Y02003209D01*
X02350000Y02003150D01*
X02345169Y02003209D01*
X02340341Y02003387D01*
X02335519Y02003683D01*
X02330705Y02004098D01*
X02325903Y02004630D01*
X02321116Y02005281D01*
X02316346Y02006048D01*
X02311596Y02006932D01*
X02306870Y02007933D01*
X02302169Y02009049D01*
X02297498Y02010281D01*
X02292857Y02011626D01*
X02288252Y02013085D01*
X02283683Y02014657D01*
X02279155Y02016340D01*
X02274669Y02018134D01*
X02270228Y02020038D01*
X02265836Y02022050D01*
X02261494Y02024169D01*
X02257206Y02026394D01*
X02252973Y02028723D01*
X02248799Y02031156D01*
X02244686Y02033691D01*
X02240636Y02036325D01*
X02236652Y02039058D01*
X02232737Y02041889D01*
X02228892Y02044814D01*
X02225120Y02047833D01*
X02221423Y02050943D01*
X02217804Y02054144D01*
X02214264Y02057432D01*
X02210806Y02060806D01*
X02207432Y02064264D01*
X02204144Y02067804D01*
X02200943Y02071423D01*
X02197833Y02075120D01*
X02194814Y02078892D01*
X02191889Y02082737D01*
X02189058Y02086652D01*
X02186325Y02090636D01*
X02183691Y02094686D01*
X02181156Y02098799D01*
X02178723Y02102973D01*
X02176394Y02107206D01*
X02174169Y02111494D01*
X02172050Y02115836D01*
X02170038Y02120228D01*
X02168134Y02124669D01*
X02166340Y02129155D01*
X02164657Y02133683D01*
X02163085Y02138252D01*
X02161626Y02142857D01*
X02160281Y02147498D01*
X02159049Y02152169D01*
X02157933Y02156870D01*
X02156932Y02161596D01*
X02156048Y02166346D01*
X02155281Y02171116D01*
X02154630Y02175903D01*
X02154098Y02180705D01*
X02153683Y02185519D01*
X02153387Y02190341D01*
X02153209Y02195169D01*
X02153150Y02200000D01*
X02225000Y02100000D02*
X02275000Y02100000D01*
X02250000Y02075000D02*
X02250000Y02125000D01*
X02425000Y02100000D02*
X02475000Y02100000D01*
X02800000Y01075000D02*
X02800000Y01025000D01*
X02503150Y00950000D02*
X02503209Y00954831D01*
X02503387Y00959659D01*
X02503683Y00964481D01*
X02504098Y00969295D01*
X02504630Y00974097D01*
X02505281Y00978884D01*
X02506048Y00983654D01*
X02506932Y00988404D01*
X02507933Y00993130D01*
X02509049Y00997831D01*
X02510281Y01002502D01*
X02511626Y01007143D01*
X02513085Y01011748D01*
X02514657Y01016317D01*
X02516340Y01020845D01*
X02518134Y01025331D01*
X02520038Y01029772D01*
X02522050Y01034164D01*
X02524169Y01038506D01*
X02526394Y01042794D01*
X02528723Y01047027D01*
X02531156Y01051201D01*
X02533691Y01055314D01*
X02536325Y01059364D01*
X02539058Y01063348D01*
X02541889Y01067263D01*
X02544814Y01071108D01*
X02547833Y01074880D01*
X02550943Y01078577D01*
X02554144Y01082196D01*
X02557432Y01085736D01*
X02560806Y01089194D01*
X02564264Y01092568D01*
X02567804Y01095856D01*
X02571423Y01099057D01*
X02575120Y01102167D01*
X02578892Y01105186D01*
X02582737Y01108111D01*
X02586652Y01110942D01*
X02590636Y01113675D01*
X02594686Y01116309D01*
X02598799Y01118844D01*
X02602973Y01121277D01*
X02607206Y01123606D01*
X02611494Y01125831D01*
X02615836Y01127950D01*
X02620228Y01129962D01*
X02624669Y01131866D01*
X02629155Y01133660D01*
X02633683Y01135343D01*
X02638252Y01136915D01*
X02642857Y01138374D01*
X02647498Y01139719D01*
X02652169Y01140951D01*
X02656870Y01142067D01*
X02661596Y01143068D01*
X02666346Y01143952D01*
X02671116Y01144719D01*
X02675903Y01145370D01*
X02680705Y01145902D01*
X02685519Y01146317D01*
X02690341Y01146613D01*
X02695169Y01146791D01*
X02700000Y01146850D01*
X02704831Y01146791D01*
X02709659Y01146613D01*
X02714481Y01146317D01*
X02719295Y01145902D01*
X02724097Y01145370D01*
X02728884Y01144719D01*
X02733654Y01143952D01*
X02738404Y01143068D01*
X02743130Y01142067D01*
X02747831Y01140951D01*
X02752502Y01139719D01*
X02757143Y01138374D01*
X02761748Y01136915D01*
X02766317Y01135343D01*
X02770845Y01133660D01*
X02775331Y01131866D01*
X02779772Y01129962D01*
X02784164Y01127950D01*
X02788506Y01125831D01*
X02792794Y01123606D01*
X02797027Y01121277D01*
X02801201Y01118844D01*
X02805314Y01116309D01*
X02809364Y01113675D01*
X02813348Y01110942D01*
X02817263Y01108111D01*
X02821108Y01105186D01*
X02824880Y01102167D01*
X02828577Y01099057D01*
X02832196Y01095856D01*
X02835736Y01092568D01*
X02839194Y01089194D01*
X02842568Y01085736D01*
X02845856Y01082196D01*
X02849057Y01078577D01*
X02852167Y01074880D01*
X02855186Y01071108D01*
X02858111Y01067263D01*
X02860942Y01063348D01*
X02863675Y01059364D01*
X02866309Y01055314D01*
X02868844Y01051201D01*
X02871277Y01047027D01*
X02873606Y01042794D01*
X02875831Y01038506D01*
X02877950Y01034164D01*
X02879962Y01029772D01*
X02881866Y01025331D01*
X02883660Y01020845D01*
X02885343Y01016317D01*
X02886915Y01011748D01*
X02888374Y01007143D01*
X02889719Y01002502D01*
X02890951Y00997831D01*
X02892067Y00993130D01*
X02893068Y00988404D01*
X02893952Y00983654D01*
X02894719Y00978884D01*
X02895370Y00974097D01*
X02895902Y00969295D01*
X02896317Y00964481D01*
X02896613Y00959659D01*
X02896791Y00954831D01*
X02896850Y00950000D01*
X02896791Y00945169D01*
X02896613Y00940341D01*
X02896317Y00935519D01*
X02895902Y00930705D01*
X02895370Y00925903D01*
X02894719Y00921116D01*
X02893952Y00916346D01*
X02893068Y00911596D01*
X02892067Y00906870D01*
X02890951Y00902169D01*
X02889719Y00897498D01*
X02888374Y00892857D01*
X02886915Y00888252D01*
X02885343Y00883683D01*
X02883660Y00879155D01*
X02881866Y00874669D01*
X02879962Y00870228D01*
X02877950Y00865836D01*
X02875831Y00861494D01*
X02873606Y00857206D01*
X02871277Y00852973D01*
X02868844Y00848799D01*
X02866309Y00844686D01*
X02863675Y00840636D01*
X02860942Y00836652D01*
X02858111Y00832737D01*
X02855186Y00828892D01*
X02852167Y00825120D01*
X02849057Y00821423D01*
X02845856Y00817804D01*
X02842568Y00814264D01*
X02839194Y00810806D01*
X02835736Y00807432D01*
X02832196Y00804144D01*
X02828577Y00800943D01*
X02824880Y00797833D01*
X02821108Y00794814D01*
X02817263Y00791889D01*
X02813348Y00789058D01*
X02809364Y00786325D01*
X02805314Y00783691D01*
X02801201Y00781156D01*
X02797027Y00778723D01*
X02792794Y00776394D01*
X02788506Y00774169D01*
X02784164Y00772050D01*
X02779772Y00770038D01*
X02775331Y00768134D01*
X02770845Y00766340D01*
X02766317Y00764657D01*
X02761748Y00763085D01*
X02757143Y00761626D01*
X02752502Y00760281D01*
X02747831Y00759049D01*
X02743130Y00757933D01*
X02738404Y00756932D01*
X02733654Y00756048D01*
X02728884Y00755281D01*
X02724097Y00754630D01*
X02719295Y00754098D01*
X02714481Y00753683D01*
X02709659Y00753387D01*
X02704831Y00753209D01*
X02700000Y00753150D01*
X02695169Y00753209D01*
X02690341Y00753387D01*
X02685519Y00753683D01*
X02680705Y00754098D01*
X02675903Y00754630D01*
X02671116Y00755281D01*
X02666346Y00756048D01*
X02661596Y00756932D01*
X02656870Y00757933D01*
X02652169Y00759049D01*
X02647498Y00760281D01*
X02642857Y00761626D01*
X02638252Y00763085D01*
X02633683Y00764657D01*
X02629155Y00766340D01*
X02624669Y00768134D01*
X02620228Y00770038D01*
X02615836Y00772050D01*
X02611494Y00774169D01*
X02607206Y00776394D01*
X02602973Y00778723D01*
X02598799Y00781156D01*
X02594686Y00783691D01*
X02590636Y00786325D01*
X02586652Y00789058D01*
X02582737Y00791889D01*
X02578892Y00794814D01*
X02575120Y00797833D01*
X02571423Y00800943D01*
X02567804Y00804144D01*
X02564264Y00807432D01*
X02560806Y00810806D01*
X02557432Y00814264D01*
X02554144Y00817804D01*
X02550943Y00821423D01*
X02547833Y00825120D01*
X02544814Y00828892D01*
X02541889Y00832737D01*
X02539058Y00836652D01*
X02536325Y00840636D01*
X02533691Y00844686D01*
X02531156Y00848799D01*
X02528723Y00852973D01*
X02526394Y00857206D01*
X02524169Y00861494D01*
X02522050Y00865836D01*
X02520038Y00870228D01*
X02518134Y00874669D01*
X02516340Y00879155D01*
X02514657Y00883683D01*
X02513085Y00888252D01*
X02511626Y00892857D01*
X02510281Y00897498D01*
X02509049Y00902169D01*
X02507933Y00906870D01*
X02506932Y00911596D01*
X02506048Y00916346D01*
X02505281Y00921116D01*
X02504630Y00925903D01*
X02504098Y00930705D01*
X02503683Y00935519D01*
X02503387Y00940341D01*
X02503209Y00945169D01*
X02503150Y00950000D01*
X02775000Y00850000D02*
X02825000Y00850000D01*
X02800000Y00825000D02*
X02800000Y00875000D01*
X00210000Y02550000D02*
X00200000Y02550000D01*
X00190000Y02550000D01*
X00200000Y02550000D02*
X00200000Y02580000D01*
X00200000Y02550000D02*
X00200000Y02520000D01*
D17*
X00555000Y01875000D02*
X00555006Y01875491D01*
X00555024Y01875981D01*
X00555054Y01876471D01*
X00555096Y01876960D01*
X00555150Y01877448D01*
X00555216Y01877935D01*
X00555294Y01878419D01*
X00555384Y01878902D01*
X00555486Y01879382D01*
X00555599Y01879860D01*
X00555724Y01880334D01*
X00555861Y01880806D01*
X00556009Y01881274D01*
X00556169Y01881738D01*
X00556340Y01882198D01*
X00556522Y01882654D01*
X00556716Y01883105D01*
X00556920Y01883551D01*
X00557136Y01883992D01*
X00557362Y01884428D01*
X00557598Y01884858D01*
X00557845Y01885282D01*
X00558103Y01885700D01*
X00558371Y01886111D01*
X00558648Y01886516D01*
X00558936Y01886914D01*
X00559233Y01887305D01*
X00559540Y01887688D01*
X00559856Y01888063D01*
X00560181Y01888431D01*
X00560515Y01888791D01*
X00560858Y01889142D01*
X00561209Y01889485D01*
X00561569Y01889819D01*
X00561937Y01890144D01*
X00562312Y01890460D01*
X00562695Y01890767D01*
X00563086Y01891064D01*
X00563484Y01891352D01*
X00563889Y01891629D01*
X00564300Y01891897D01*
X00564718Y01892155D01*
X00565142Y01892402D01*
X00565572Y01892638D01*
X00566008Y01892864D01*
X00566449Y01893080D01*
X00566895Y01893284D01*
X00567346Y01893478D01*
X00567802Y01893660D01*
X00568262Y01893831D01*
X00568726Y01893991D01*
X00569194Y01894139D01*
X00569666Y01894276D01*
X00570140Y01894401D01*
X00570618Y01894514D01*
X00571098Y01894616D01*
X00571581Y01894706D01*
X00572065Y01894784D01*
X00572552Y01894850D01*
X00573040Y01894904D01*
X00573529Y01894946D01*
X00574019Y01894976D01*
X00574509Y01894994D01*
X00575000Y01895000D01*
X00575491Y01894994D01*
X00575981Y01894976D01*
X00576471Y01894946D01*
X00576960Y01894904D01*
X00577448Y01894850D01*
X00577935Y01894784D01*
X00578419Y01894706D01*
X00578902Y01894616D01*
X00579382Y01894514D01*
X00579860Y01894401D01*
X00580334Y01894276D01*
X00580806Y01894139D01*
X00581274Y01893991D01*
X00581738Y01893831D01*
X00582198Y01893660D01*
X00582654Y01893478D01*
X00583105Y01893284D01*
X00583551Y01893080D01*
X00583992Y01892864D01*
X00584428Y01892638D01*
X00584858Y01892402D01*
X00585282Y01892155D01*
X00585700Y01891897D01*
X00586111Y01891629D01*
X00586516Y01891352D01*
X00586914Y01891064D01*
X00587305Y01890767D01*
X00587688Y01890460D01*
X00588063Y01890144D01*
X00588431Y01889819D01*
X00588791Y01889485D01*
X00589142Y01889142D01*
X00589485Y01888791D01*
X00589819Y01888431D01*
X00590144Y01888063D01*
X00590460Y01887688D01*
X00590767Y01887305D01*
X00591064Y01886914D01*
X00591352Y01886516D01*
X00591629Y01886111D01*
X00591897Y01885700D01*
X00592155Y01885282D01*
X00592402Y01884858D01*
X00592638Y01884428D01*
X00592864Y01883992D01*
X00593080Y01883551D01*
X00593284Y01883105D01*
X00593478Y01882654D01*
X00593660Y01882198D01*
X00593831Y01881738D01*
X00593991Y01881274D01*
X00594139Y01880806D01*
X00594276Y01880334D01*
X00594401Y01879860D01*
X00594514Y01879382D01*
X00594616Y01878902D01*
X00594706Y01878419D01*
X00594784Y01877935D01*
X00594850Y01877448D01*
X00594904Y01876960D01*
X00594946Y01876471D01*
X00594976Y01875981D01*
X00594994Y01875491D01*
X00595000Y01875000D01*
X00594994Y01874509D01*
X00594976Y01874019D01*
X00594946Y01873529D01*
X00594904Y01873040D01*
X00594850Y01872552D01*
X00594784Y01872065D01*
X00594706Y01871581D01*
X00594616Y01871098D01*
X00594514Y01870618D01*
X00594401Y01870140D01*
X00594276Y01869666D01*
X00594139Y01869194D01*
X00593991Y01868726D01*
X00593831Y01868262D01*
X00593660Y01867802D01*
X00593478Y01867346D01*
X00593284Y01866895D01*
X00593080Y01866449D01*
X00592864Y01866008D01*
X00592638Y01865572D01*
X00592402Y01865142D01*
X00592155Y01864718D01*
X00591897Y01864300D01*
X00591629Y01863889D01*
X00591352Y01863484D01*
X00591064Y01863086D01*
X00590767Y01862695D01*
X00590460Y01862312D01*
X00590144Y01861937D01*
X00589819Y01861569D01*
X00589485Y01861209D01*
X00589142Y01860858D01*
X00588791Y01860515D01*
X00588431Y01860181D01*
X00588063Y01859856D01*
X00587688Y01859540D01*
X00587305Y01859233D01*
X00586914Y01858936D01*
X00586516Y01858648D01*
X00586111Y01858371D01*
X00585700Y01858103D01*
X00585282Y01857845D01*
X00584858Y01857598D01*
X00584428Y01857362D01*
X00583992Y01857136D01*
X00583551Y01856920D01*
X00583105Y01856716D01*
X00582654Y01856522D01*
X00582198Y01856340D01*
X00581738Y01856169D01*
X00581274Y01856009D01*
X00580806Y01855861D01*
X00580334Y01855724D01*
X00579860Y01855599D01*
X00579382Y01855486D01*
X00578902Y01855384D01*
X00578419Y01855294D01*
X00577935Y01855216D01*
X00577448Y01855150D01*
X00576960Y01855096D01*
X00576471Y01855054D01*
X00575981Y01855024D01*
X00575491Y01855006D01*
X00575000Y01855000D01*
X00574509Y01855006D01*
X00574019Y01855024D01*
X00573529Y01855054D01*
X00573040Y01855096D01*
X00572552Y01855150D01*
X00572065Y01855216D01*
X00571581Y01855294D01*
X00571098Y01855384D01*
X00570618Y01855486D01*
X00570140Y01855599D01*
X00569666Y01855724D01*
X00569194Y01855861D01*
X00568726Y01856009D01*
X00568262Y01856169D01*
X00567802Y01856340D01*
X00567346Y01856522D01*
X00566895Y01856716D01*
X00566449Y01856920D01*
X00566008Y01857136D01*
X00565572Y01857362D01*
X00565142Y01857598D01*
X00564718Y01857845D01*
X00564300Y01858103D01*
X00563889Y01858371D01*
X00563484Y01858648D01*
X00563086Y01858936D01*
X00562695Y01859233D01*
X00562312Y01859540D01*
X00561937Y01859856D01*
X00561569Y01860181D01*
X00561209Y01860515D01*
X00560858Y01860858D01*
X00560515Y01861209D01*
X00560181Y01861569D01*
X00559856Y01861937D01*
X00559540Y01862312D01*
X00559233Y01862695D01*
X00558936Y01863086D01*
X00558648Y01863484D01*
X00558371Y01863889D01*
X00558103Y01864300D01*
X00557845Y01864718D01*
X00557598Y01865142D01*
X00557362Y01865572D01*
X00557136Y01866008D01*
X00556920Y01866449D01*
X00556716Y01866895D01*
X00556522Y01867346D01*
X00556340Y01867802D01*
X00556169Y01868262D01*
X00556009Y01868726D01*
X00555861Y01869194D01*
X00555724Y01869666D01*
X00555599Y01870140D01*
X00555486Y01870618D01*
X00555384Y01871098D01*
X00555294Y01871581D01*
X00555216Y01872065D01*
X00555150Y01872552D01*
X00555096Y01873040D01*
X00555054Y01873529D01*
X00555024Y01874019D01*
X00555006Y01874509D01*
X00555000Y01875000D01*
D18*
X00559823Y01892006D02*
X00553484Y01898344D01*
X00559823Y01904683D01*
X00572500Y01904683D01*
X00562992Y01904683D02*
X00562992Y01892006D01*
X00559823Y01892006D02*
X00572500Y01892006D01*
X00572500Y01920443D02*
X00553484Y01920443D01*
X00553484Y01914104D02*
X00553484Y01926782D01*
X00553484Y01936203D02*
X00559823Y01942542D01*
X00553484Y01948881D01*
X00572500Y01948881D01*
X00572500Y01958302D02*
X00572500Y01970979D01*
X00569331Y01980401D02*
X00572500Y01983570D01*
X00572500Y01989909D01*
X00569331Y01993078D01*
X00562992Y01993078D01*
X00562992Y01986740D01*
X00556653Y01993078D02*
X00553484Y01989909D01*
X00553484Y01983570D01*
X00556653Y01980401D01*
X00569331Y01980401D01*
X00562992Y01964641D02*
X00562992Y01958302D01*
X00553484Y01958302D02*
X00572500Y01958302D01*
X00553484Y01958302D02*
X00553484Y01970979D01*
X00559823Y02002500D02*
X00553484Y02008838D01*
X00559823Y02015177D01*
X00572500Y02015177D01*
X00562992Y02015177D02*
X00562992Y02002500D01*
X00559823Y02002500D02*
X00572500Y02002500D01*
X00569331Y02024598D02*
X00572500Y02027768D01*
X00572500Y02034107D01*
X00569331Y02037276D01*
X00566161Y02037276D01*
X00562992Y02034107D01*
X00562992Y02030937D01*
X00562992Y02034107D02*
X00559823Y02037276D01*
X00556653Y02037276D01*
X00553484Y02034107D01*
X00553484Y02027768D01*
X00556653Y02024598D01*
X00556653Y02046697D02*
X00559823Y02046697D01*
X00562992Y02049867D01*
X00562992Y02056205D01*
X00566161Y02059375D01*
X00569331Y02059375D01*
X00572500Y02056205D01*
X00572500Y02049867D01*
X00569331Y02046697D01*
X00566161Y02046697D01*
X00562992Y02049867D01*
X00562992Y02056205D02*
X00559823Y02059375D01*
X00556653Y02059375D01*
X00553484Y02056205D01*
X00553484Y02049867D01*
X00556653Y02046697D01*
X00556653Y02068796D02*
X00553484Y02071965D01*
X00553484Y02078304D01*
X00556653Y02081473D01*
X00559823Y02081473D01*
X00572500Y02068796D01*
X00572500Y02081473D01*
X00572500Y02090895D02*
X00553484Y02090895D01*
X00553484Y02100403D01*
X00556653Y02103572D01*
X00562992Y02103572D01*
X00566161Y02100403D01*
X00566161Y02090895D01*
X00524803Y02122047D02*
X00524803Y01877953D01*
X00509055Y01877953D01*
X00553484Y01936203D02*
X00572500Y01936203D01*
X00390945Y01877953D02*
X00375197Y01877953D01*
X00375197Y02122047D01*
X00390945Y02122047D01*
X00509055Y02122047D02*
X00524803Y02122047D01*
X00224899Y02483500D02*
X00215391Y02489839D01*
X00224899Y02496177D01*
X00215391Y02502516D02*
X00215391Y02483500D01*
X00205969Y02486669D02*
X00205969Y02499347D01*
X00193292Y02486669D01*
X00196461Y02483500D01*
X00202800Y02483500D01*
X00205969Y02486669D01*
X00193292Y02486669D02*
X00193292Y02499347D01*
X00196461Y02502516D01*
X00202800Y02502516D01*
X00205969Y02499347D01*
X00183871Y02483500D02*
X00171193Y02483500D01*
X00177532Y02483500D02*
X00177532Y02502516D01*
X00171193Y02496177D01*
X00180401Y02597500D02*
X00180401Y02616516D01*
X00189909Y02616516D01*
X00193079Y02613347D01*
X00193079Y02607008D01*
X00189909Y02603839D01*
X00180401Y02603839D01*
X00186740Y02603839D02*
X00193079Y02597500D01*
X00202500Y02597500D02*
X00215177Y02597500D01*
X00208839Y02597500D02*
X00208839Y02616516D01*
X00202500Y02610177D01*
X-00206500Y02047078D02*
X-00206500Y02034401D01*
X-00206500Y02040740D02*
X-00225516Y02040740D01*
X-00219177Y02034401D01*
X-00225516Y02024980D02*
X-00225516Y02018641D01*
X-00225516Y02021810D02*
X-00209669Y02021810D01*
X-00206500Y02018641D01*
X-00206500Y02015472D01*
X-00209669Y02012302D01*
X00083570Y01676516D02*
X00080401Y01673347D01*
X00080401Y01660669D01*
X00083570Y01657500D01*
X00089909Y01657500D01*
X00093079Y01660669D01*
X00102500Y01657500D02*
X00115177Y01657500D01*
X00108839Y01657500D02*
X00108839Y01676516D01*
X00102500Y01670177D01*
X00093079Y01673347D02*
X00089909Y01676516D01*
X00083570Y01676516D01*
X00610006Y00862538D02*
X00602500Y00855032D01*
X00602500Y00847526D01*
X00610006Y00840019D01*
X00625019Y00840019D01*
X00632526Y00832513D01*
X00632526Y00825006D01*
X00625019Y00817500D01*
X00610006Y00817500D01*
X00602500Y00825006D01*
X00610006Y00862538D02*
X00625019Y00862538D01*
X00632526Y00855032D01*
X00648539Y00862538D02*
X00648539Y00832513D01*
X00663552Y00817500D01*
X00678565Y00832513D01*
X00678565Y00862538D01*
X00694578Y00847526D02*
X00709591Y00862538D01*
X00709591Y00817500D01*
X00694578Y00817500D02*
X00724604Y00817500D01*
X00642513Y00682538D02*
X00642513Y00637500D01*
X00627500Y00637500D02*
X00657526Y00637500D01*
X00627500Y00667526D02*
X00642513Y00682538D01*
X01237500Y00817500D02*
X01237500Y00825006D01*
X01267526Y00855032D01*
X01267526Y00862538D01*
X01237500Y00862538D01*
X01232029Y01528500D02*
X01219352Y01528500D01*
X01219352Y01547516D01*
X01209930Y01544347D02*
X01206761Y01547516D01*
X01200422Y01547516D01*
X01197253Y01544347D01*
X01197253Y01531669D01*
X01200422Y01528500D01*
X01206761Y01528500D01*
X01209930Y01531669D01*
X01241450Y01531669D02*
X01244620Y01528500D01*
X01250959Y01528500D01*
X01254128Y01531669D01*
X01254128Y01544347D01*
X01250959Y01547516D01*
X01244620Y01547516D01*
X01241450Y01544347D01*
X01241450Y01531669D01*
X01263549Y01531669D02*
X01266719Y01528500D01*
X01273057Y01528500D01*
X01276227Y01531669D01*
X01285648Y01528500D02*
X01285648Y01547516D01*
X01276227Y01544347D02*
X01273057Y01547516D01*
X01266719Y01547516D01*
X01263549Y01544347D01*
X01263549Y01531669D01*
X01285648Y01534839D02*
X01298325Y01547516D01*
X01288817Y01538008D02*
X01298325Y01528500D01*
X01977500Y01523500D02*
X02007526Y01523500D01*
X02023539Y01523500D02*
X02053565Y01523500D01*
X02069578Y01523500D02*
X02069578Y01568538D01*
X02092098Y01568538D01*
X02099604Y01561032D01*
X02099604Y01531006D01*
X02092098Y01523500D01*
X02069578Y01523500D01*
X02038552Y01546019D02*
X02023539Y01546019D01*
X02023539Y01568538D02*
X02023539Y01523500D01*
X02023539Y01568538D02*
X02053565Y01568538D01*
X02115618Y01553526D02*
X02130631Y01568538D01*
X02130631Y01523500D01*
X02145643Y01523500D02*
X02115618Y01523500D01*
X01977500Y01523500D02*
X01977500Y01568538D01*
X02330401Y01439347D02*
X02330401Y01426669D01*
X02333570Y01423500D01*
X02339909Y01423500D01*
X02343078Y01426669D01*
X02352500Y01426669D02*
X02355669Y01423500D01*
X02362008Y01423500D01*
X02365177Y01426669D01*
X02365177Y01429839D01*
X02362008Y01433008D01*
X02358839Y01433008D01*
X02362008Y01433008D02*
X02365177Y01436177D01*
X02365177Y01439347D01*
X02362008Y01442516D01*
X02355669Y01442516D01*
X02352500Y01439347D01*
X02343078Y01439347D02*
X02339909Y01442516D01*
X02333570Y01442516D01*
X02330401Y01439347D01*
X02333570Y01973500D02*
X02339909Y01973500D01*
X02343078Y01976669D01*
X02333570Y01973500D02*
X02330401Y01976669D01*
X02330401Y01989347D01*
X02333570Y01992516D01*
X02339909Y01992516D01*
X02343078Y01989347D01*
X02352500Y01983008D02*
X02365177Y01983008D01*
X02362008Y01973500D02*
X02362008Y01992516D01*
X02352500Y01983008D01*
X02618484Y01979107D02*
X02618484Y01972768D01*
X02621653Y01969599D01*
X02618484Y01960177D02*
X02618484Y01953839D01*
X02618484Y01957008D02*
X02634331Y01957008D01*
X02637500Y01953839D01*
X02637500Y01950669D01*
X02634331Y01947500D01*
X02637500Y01969599D02*
X02624823Y01982276D01*
X02621653Y01982276D01*
X02618484Y01979107D01*
X02637500Y01982276D02*
X02637500Y01969599D01*
X02415177Y02597500D02*
X02402500Y02597500D01*
X02415177Y02610177D01*
X02415177Y02613347D01*
X02412008Y02616516D01*
X02405669Y02616516D01*
X02402500Y02613347D01*
X02393079Y02613347D02*
X02393079Y02607008D01*
X02389909Y02603839D01*
X02380401Y02603839D01*
X02386740Y02603839D02*
X02393079Y02597500D01*
X02380401Y02597500D02*
X02380401Y02616516D01*
X02389909Y02616516D01*
X02393079Y02613347D01*
X01265177Y02613347D02*
X01265177Y02610177D01*
X01262008Y02607008D01*
X01265177Y02603839D01*
X01265177Y02600669D01*
X01262008Y02597500D01*
X01255669Y02597500D01*
X01252500Y02600669D01*
X01258839Y02607008D02*
X01262008Y02607008D01*
X01265177Y02613347D02*
X01262008Y02616516D01*
X01255669Y02616516D01*
X01252500Y02613347D01*
X01243079Y02613347D02*
X01243079Y02607008D01*
X01239909Y02603839D01*
X01230401Y02603839D01*
X01236740Y02603839D02*
X01243079Y02597500D01*
X01230401Y02597500D02*
X01230401Y02616516D01*
X01239909Y02616516D01*
X01243079Y02613347D01*
X02907484Y00962008D02*
X02907484Y00955669D01*
X02910653Y00952500D01*
X02910653Y00943078D02*
X02907484Y00939909D01*
X02907484Y00933570D01*
X02910653Y00930401D01*
X02923331Y00930401D01*
X02926500Y00933570D01*
X02926500Y00939909D01*
X02923331Y00943078D01*
X02926500Y00952500D02*
X02913823Y00965177D01*
X02910653Y00965177D01*
X02907484Y00962008D01*
X02926500Y00965177D02*
X02926500Y00952500D01*
D19*
X02377756Y03310433D03*
X02234055Y03310433D03*
X02090354Y03310433D03*
X01946654Y03310433D03*
X01802953Y03310433D03*
X01659252Y03310433D03*
X01515551Y03310433D03*
X01371850Y03310433D03*
X01228150Y03310433D03*
X01084449Y03310433D03*
X00940748Y03310433D03*
X00797047Y03310433D03*
X00653346Y03310433D03*
X00509646Y03310433D03*
X00365945Y03310433D03*
X00222244Y03310433D03*
X00222244Y03513189D03*
X00365945Y03513189D03*
X00509646Y03513189D03*
X00653346Y03513189D03*
X00797047Y03513189D03*
X00940748Y03513189D03*
X01084449Y03513189D03*
X01228150Y03513189D03*
X01371850Y03513189D03*
X01515551Y03513189D03*
X01659252Y03513189D03*
X01802953Y03513189D03*
X01946654Y03513189D03*
X02090354Y03513189D03*
X02234055Y03513189D03*
X02377756Y03513189D03*
D20*
X01953299Y01578099D02*
X01946099Y01572699D01*
X01944293Y01575027D01*
X01942431Y01577310D01*
X01940513Y01579547D01*
X01938541Y01581736D01*
X01936516Y01583876D01*
X01934440Y01585966D01*
X01932313Y01588005D01*
X01930137Y01589991D01*
X01927913Y01591923D01*
X01925642Y01593800D01*
X01923326Y01595622D01*
X01920967Y01597386D01*
X01918565Y01599092D01*
X01916122Y01600738D01*
X01913639Y01602325D01*
X01911118Y01603850D01*
X01908561Y01605313D01*
X01905969Y01606713D01*
X01903343Y01608050D01*
X01900686Y01609322D01*
X01897998Y01610528D01*
X01895281Y01611668D01*
X01892538Y01612742D01*
X01889769Y01613748D01*
X01886976Y01614687D01*
X01884161Y01615556D01*
X01881326Y01616357D01*
X01878472Y01617088D01*
X01875601Y01617749D01*
X01872714Y01618340D01*
X01869814Y01618860D01*
X01866902Y01619309D01*
X01863980Y01619686D01*
X01861050Y01619992D01*
X01858113Y01620227D01*
X01855172Y01620389D01*
X01852227Y01620479D01*
X01849281Y01620498D01*
X01846335Y01620444D01*
X01843391Y01620319D01*
X01840452Y01620121D01*
X01837518Y01619852D01*
X01834592Y01619511D01*
X01831674Y01619098D01*
X01828768Y01618615D01*
X01825875Y01618060D01*
X01822995Y01617435D01*
X01820132Y01616740D01*
X01817287Y01615975D01*
X01814462Y01615140D01*
X01811657Y01614237D01*
X01808876Y01613265D01*
X01806119Y01612226D01*
X01803389Y01611120D01*
X01800686Y01609947D01*
X01798013Y01608709D01*
X01795371Y01607405D01*
X01792761Y01606037D01*
X01790186Y01604606D01*
X01787646Y01603113D01*
X01785144Y01601558D01*
X01782680Y01599942D01*
X01780257Y01598266D01*
X01777876Y01596531D01*
X01775537Y01594739D01*
X01773243Y01592891D01*
X01770995Y01590986D01*
X01768794Y01589028D01*
X01766642Y01587016D01*
X01764540Y01584952D01*
X01762488Y01582837D01*
X01760489Y01580673D01*
X01758544Y01578460D01*
X01756653Y01576201D01*
X01754818Y01573896D01*
X01753040Y01571547D01*
X01751319Y01569155D01*
X01749658Y01566722D01*
X01748057Y01564249D01*
X01746517Y01561737D01*
X01745038Y01559189D01*
X01743623Y01556605D01*
X01742271Y01553987D01*
X01740983Y01551337D01*
X01739760Y01548657D01*
X01738604Y01545947D01*
X01737514Y01543210D01*
X01736491Y01540447D01*
X01735536Y01537660D01*
X01734650Y01534850D01*
X01733832Y01532020D01*
X01733084Y01529170D01*
X01732406Y01526303D01*
X01731798Y01523420D01*
X01731261Y01520523D01*
X01730794Y01517614D01*
X01730399Y01514695D01*
X01730076Y01511766D01*
X01729824Y01508831D01*
X01729644Y01505890D01*
X01729536Y01502946D01*
X01729500Y01500000D01*
X01729536Y01497054D01*
X01729644Y01494110D01*
X01729824Y01491169D01*
X01730076Y01488234D01*
X01730399Y01485305D01*
X01730794Y01482386D01*
X01731261Y01479477D01*
X01731798Y01476580D01*
X01732406Y01473697D01*
X01733084Y01470830D01*
X01733832Y01467980D01*
X01734650Y01465150D01*
X01735536Y01462340D01*
X01736491Y01459553D01*
X01737514Y01456790D01*
X01738604Y01454053D01*
X01739760Y01451343D01*
X01740983Y01448663D01*
X01742271Y01446013D01*
X01743623Y01443395D01*
X01745038Y01440811D01*
X01746517Y01438263D01*
X01748057Y01435751D01*
X01749658Y01433278D01*
X01751319Y01430845D01*
X01753040Y01428453D01*
X01754818Y01426104D01*
X01756653Y01423799D01*
X01758544Y01421540D01*
X01760489Y01419327D01*
X01762488Y01417163D01*
X01764540Y01415048D01*
X01766642Y01412984D01*
X01768794Y01410972D01*
X01770995Y01409014D01*
X01773243Y01407109D01*
X01775537Y01405261D01*
X01777876Y01403469D01*
X01780257Y01401734D01*
X01782680Y01400058D01*
X01785144Y01398442D01*
X01787646Y01396887D01*
X01790186Y01395394D01*
X01792761Y01393963D01*
X01795371Y01392595D01*
X01798013Y01391291D01*
X01800686Y01390053D01*
X01803389Y01388880D01*
X01806119Y01387774D01*
X01808876Y01386735D01*
X01811657Y01385763D01*
X01814462Y01384860D01*
X01817287Y01384025D01*
X01820132Y01383260D01*
X01822995Y01382565D01*
X01825875Y01381940D01*
X01828768Y01381385D01*
X01831674Y01380902D01*
X01834592Y01380489D01*
X01837518Y01380148D01*
X01840452Y01379879D01*
X01843391Y01379681D01*
X01846335Y01379556D01*
X01849281Y01379502D01*
X01852227Y01379521D01*
X01855172Y01379611D01*
X01858113Y01379773D01*
X01861050Y01380008D01*
X01863980Y01380314D01*
X01866902Y01380691D01*
X01869814Y01381140D01*
X01872714Y01381660D01*
X01875601Y01382251D01*
X01878472Y01382912D01*
X01881326Y01383643D01*
X01884161Y01384444D01*
X01886976Y01385313D01*
X01889769Y01386252D01*
X01892538Y01387258D01*
X01895281Y01388332D01*
X01897998Y01389472D01*
X01900686Y01390678D01*
X01903343Y01391950D01*
X01905969Y01393287D01*
X01908561Y01394687D01*
X01911118Y01396150D01*
X01913639Y01397675D01*
X01916122Y01399262D01*
X01918565Y01400908D01*
X01920967Y01402614D01*
X01923326Y01404378D01*
X01925642Y01406200D01*
X01927913Y01408077D01*
X01930137Y01410009D01*
X01932313Y01411995D01*
X01934440Y01414034D01*
X01936516Y01416124D01*
X01938541Y01418264D01*
X01940513Y01420453D01*
X01942431Y01422690D01*
X01944293Y01424973D01*
X01946099Y01427301D01*
X01953299Y01421901D01*
X01951359Y01419398D01*
X01949358Y01416944D01*
X01947297Y01414539D01*
X01945179Y01412186D01*
X01943003Y01409885D01*
X01940772Y01407638D01*
X01938486Y01405446D01*
X01936148Y01403311D01*
X01933758Y01401233D01*
X01931318Y01399215D01*
X01928829Y01397257D01*
X01926294Y01395360D01*
X01923712Y01393526D01*
X01921087Y01391755D01*
X01918419Y01390050D01*
X01915710Y01388410D01*
X01912962Y01386836D01*
X01910176Y01385331D01*
X01907355Y01383894D01*
X01904499Y01382526D01*
X01901610Y01381229D01*
X01898690Y01380002D01*
X01895742Y01378847D01*
X01892766Y01377765D01*
X01889764Y01376756D01*
X01886739Y01375821D01*
X01883692Y01374960D01*
X01880624Y01374173D01*
X01877539Y01373462D01*
X01874436Y01372826D01*
X01871320Y01372267D01*
X01868190Y01371784D01*
X01865050Y01371377D01*
X01861900Y01371048D01*
X01858744Y01370796D01*
X01855582Y01370620D01*
X01852417Y01370523D01*
X01849250Y01370502D01*
X01846084Y01370559D01*
X01842920Y01370694D01*
X01839761Y01370905D01*
X01836608Y01371194D01*
X01833462Y01371560D01*
X01830327Y01372003D01*
X01827203Y01372522D01*
X01824093Y01373118D01*
X01820998Y01373789D01*
X01817921Y01374536D01*
X01814863Y01375358D01*
X01811826Y01376254D01*
X01808811Y01377225D01*
X01805822Y01378269D01*
X01802859Y01379385D01*
X01799924Y01380574D01*
X01797018Y01381834D01*
X01794145Y01383165D01*
X01791305Y01384565D01*
X01788500Y01386035D01*
X01785732Y01387573D01*
X01783002Y01389178D01*
X01780313Y01390849D01*
X01777665Y01392586D01*
X01775060Y01394386D01*
X01772500Y01396250D01*
X01769986Y01398176D01*
X01767521Y01400163D01*
X01765104Y01402210D01*
X01762738Y01404315D01*
X01760425Y01406477D01*
X01758165Y01408695D01*
X01755960Y01410968D01*
X01753811Y01413294D01*
X01751720Y01415672D01*
X01749687Y01418100D01*
X01747715Y01420577D01*
X01745803Y01423102D01*
X01743954Y01425672D01*
X01742169Y01428288D01*
X01740448Y01430946D01*
X01738792Y01433645D01*
X01737203Y01436384D01*
X01735681Y01439161D01*
X01734228Y01441974D01*
X01732843Y01444822D01*
X01731529Y01447703D01*
X01730286Y01450616D01*
X01729114Y01453558D01*
X01728015Y01456527D01*
X01726988Y01459523D01*
X01726035Y01462543D01*
X01725157Y01465585D01*
X01724353Y01468648D01*
X01723624Y01471729D01*
X01722970Y01474828D01*
X01722393Y01477941D01*
X01721891Y01481068D01*
X01721467Y01484206D01*
X01721119Y01487353D01*
X01720848Y01490508D01*
X01720655Y01493669D01*
X01720539Y01496834D01*
X01720500Y01500000D01*
X01720539Y01503166D01*
X01720655Y01506331D01*
X01720848Y01509492D01*
X01721119Y01512647D01*
X01721467Y01515794D01*
X01721891Y01518932D01*
X01722393Y01522059D01*
X01722970Y01525172D01*
X01723624Y01528271D01*
X01724353Y01531352D01*
X01725157Y01534415D01*
X01726035Y01537457D01*
X01726988Y01540477D01*
X01728015Y01543473D01*
X01729114Y01546442D01*
X01730286Y01549384D01*
X01731529Y01552297D01*
X01732843Y01555178D01*
X01734228Y01558026D01*
X01735681Y01560839D01*
X01737203Y01563616D01*
X01738792Y01566355D01*
X01740448Y01569054D01*
X01742169Y01571712D01*
X01743954Y01574328D01*
X01745803Y01576898D01*
X01747715Y01579423D01*
X01749687Y01581900D01*
X01751720Y01584328D01*
X01753811Y01586706D01*
X01755960Y01589032D01*
X01758165Y01591305D01*
X01760425Y01593523D01*
X01762738Y01595685D01*
X01765104Y01597790D01*
X01767521Y01599837D01*
X01769986Y01601824D01*
X01772500Y01603750D01*
X01775060Y01605614D01*
X01777665Y01607414D01*
X01780313Y01609151D01*
X01783002Y01610822D01*
X01785732Y01612427D01*
X01788500Y01613965D01*
X01791305Y01615435D01*
X01794145Y01616835D01*
X01797018Y01618166D01*
X01799924Y01619426D01*
X01802859Y01620615D01*
X01805822Y01621731D01*
X01808811Y01622775D01*
X01811826Y01623746D01*
X01814863Y01624642D01*
X01817921Y01625464D01*
X01820998Y01626211D01*
X01824093Y01626882D01*
X01827203Y01627478D01*
X01830327Y01627997D01*
X01833462Y01628440D01*
X01836608Y01628806D01*
X01839761Y01629095D01*
X01842920Y01629306D01*
X01846084Y01629441D01*
X01849250Y01629498D01*
X01852417Y01629477D01*
X01855582Y01629380D01*
X01858744Y01629204D01*
X01861900Y01628952D01*
X01865050Y01628623D01*
X01868190Y01628216D01*
X01871320Y01627733D01*
X01874436Y01627174D01*
X01877539Y01626538D01*
X01880624Y01625827D01*
X01883692Y01625040D01*
X01886739Y01624179D01*
X01889764Y01623244D01*
X01892766Y01622235D01*
X01895742Y01621153D01*
X01898690Y01619998D01*
X01901610Y01618771D01*
X01904499Y01617474D01*
X01907355Y01616106D01*
X01910176Y01614669D01*
X01912962Y01613164D01*
X01915710Y01611590D01*
X01918419Y01609950D01*
X01921087Y01608245D01*
X01923712Y01606474D01*
X01926294Y01604640D01*
X01928829Y01602743D01*
X01931318Y01600785D01*
X01933758Y01598767D01*
X01936148Y01596689D01*
X01938486Y01594554D01*
X01940772Y01592362D01*
X01943003Y01590115D01*
X01945179Y01587814D01*
X01947297Y01585461D01*
X01949358Y01583056D01*
X01951359Y01580602D01*
X01953299Y01578099D01*
X01952540Y01577530D01*
X01950614Y01580014D01*
X01948627Y01582450D01*
X01946582Y01584837D01*
X01944479Y01587173D01*
X01942319Y01589457D01*
X01940104Y01591688D01*
X01937835Y01593863D01*
X01935514Y01595983D01*
X01933142Y01598045D01*
X01930720Y01600049D01*
X01928249Y01601992D01*
X01925732Y01603875D01*
X01923170Y01605696D01*
X01920563Y01607453D01*
X01917915Y01609146D01*
X01915226Y01610774D01*
X01912498Y01612336D01*
X01909733Y01613830D01*
X01906932Y01615257D01*
X01904097Y01616614D01*
X01901229Y01617902D01*
X01898331Y01619120D01*
X01895404Y01620266D01*
X01892450Y01621340D01*
X01889470Y01622342D01*
X01886467Y01623270D01*
X01883442Y01624125D01*
X01880397Y01624905D01*
X01877334Y01625611D01*
X01874255Y01626242D01*
X01871161Y01626797D01*
X01868054Y01627277D01*
X01864937Y01627680D01*
X01861811Y01628007D01*
X01858677Y01628258D01*
X01855539Y01628432D01*
X01852397Y01628529D01*
X01849254Y01628549D01*
X01846111Y01628492D01*
X01842970Y01628359D01*
X01839834Y01628148D01*
X01836704Y01627862D01*
X01833581Y01627498D01*
X01830469Y01627059D01*
X01827368Y01626543D01*
X01824281Y01625952D01*
X01821209Y01625285D01*
X01818154Y01624544D01*
X01815118Y01623728D01*
X01812104Y01622838D01*
X01809112Y01621875D01*
X01806144Y01620839D01*
X01803202Y01619730D01*
X01800289Y01618550D01*
X01797405Y01617299D01*
X01794553Y01615978D01*
X01791734Y01614588D01*
X01788949Y01613129D01*
X01786202Y01611602D01*
X01783492Y01610009D01*
X01780822Y01608350D01*
X01778193Y01606626D01*
X01775608Y01604839D01*
X01773067Y01602988D01*
X01770572Y01601077D01*
X01768124Y01599104D01*
X01765725Y01597073D01*
X01763377Y01594983D01*
X01761081Y01592837D01*
X01758837Y01590635D01*
X01756648Y01588379D01*
X01754515Y01586070D01*
X01752439Y01583710D01*
X01750422Y01581299D01*
X01748464Y01578840D01*
X01746567Y01576334D01*
X01744731Y01573782D01*
X01742958Y01571186D01*
X01741250Y01568548D01*
X01739606Y01565868D01*
X01738029Y01563149D01*
X01736518Y01560393D01*
X01735076Y01557600D01*
X01733702Y01554773D01*
X01732397Y01551913D01*
X01731163Y01549022D01*
X01730000Y01546102D01*
X01728909Y01543154D01*
X01727890Y01540180D01*
X01726944Y01537182D01*
X01726071Y01534163D01*
X01725273Y01531122D01*
X01724550Y01528063D01*
X01723901Y01524988D01*
X01723328Y01521897D01*
X01722830Y01518793D01*
X01722409Y01515678D01*
X01722063Y01512554D01*
X01721795Y01509422D01*
X01721603Y01506284D01*
X01721487Y01503143D01*
X01721449Y01500000D01*
X01721487Y01496857D01*
X01721603Y01493716D01*
X01721795Y01490578D01*
X01722063Y01487446D01*
X01722409Y01484322D01*
X01722830Y01481207D01*
X01723328Y01478103D01*
X01723901Y01475012D01*
X01724550Y01471937D01*
X01725273Y01468878D01*
X01726071Y01465837D01*
X01726944Y01462818D01*
X01727890Y01459820D01*
X01728909Y01456846D01*
X01730000Y01453898D01*
X01731163Y01450978D01*
X01732397Y01448087D01*
X01733702Y01445227D01*
X01735076Y01442400D01*
X01736518Y01439607D01*
X01738029Y01436851D01*
X01739606Y01434132D01*
X01741250Y01431452D01*
X01742958Y01428814D01*
X01744731Y01426218D01*
X01746567Y01423666D01*
X01748464Y01421160D01*
X01750422Y01418701D01*
X01752439Y01416290D01*
X01754515Y01413930D01*
X01756648Y01411621D01*
X01758837Y01409365D01*
X01761081Y01407163D01*
X01763377Y01405017D01*
X01765725Y01402927D01*
X01768124Y01400896D01*
X01770572Y01398923D01*
X01773067Y01397012D01*
X01775608Y01395161D01*
X01778193Y01393374D01*
X01780822Y01391650D01*
X01783492Y01389991D01*
X01786202Y01388398D01*
X01788949Y01386871D01*
X01791734Y01385412D01*
X01794553Y01384022D01*
X01797405Y01382701D01*
X01800289Y01381450D01*
X01803202Y01380270D01*
X01806144Y01379161D01*
X01809112Y01378125D01*
X01812104Y01377162D01*
X01815118Y01376272D01*
X01818154Y01375456D01*
X01821209Y01374715D01*
X01824281Y01374048D01*
X01827368Y01373457D01*
X01830469Y01372941D01*
X01833581Y01372502D01*
X01836704Y01372138D01*
X01839834Y01371852D01*
X01842970Y01371641D01*
X01846111Y01371508D01*
X01849254Y01371451D01*
X01852397Y01371471D01*
X01855539Y01371568D01*
X01858677Y01371742D01*
X01861811Y01371993D01*
X01864937Y01372320D01*
X01868054Y01372723D01*
X01871161Y01373203D01*
X01874255Y01373758D01*
X01877334Y01374389D01*
X01880397Y01375095D01*
X01883442Y01375875D01*
X01886467Y01376730D01*
X01889470Y01377658D01*
X01892450Y01378660D01*
X01895404Y01379734D01*
X01898331Y01380880D01*
X01901229Y01382098D01*
X01904097Y01383386D01*
X01906932Y01384743D01*
X01909733Y01386170D01*
X01912498Y01387664D01*
X01915226Y01389226D01*
X01917915Y01390854D01*
X01920563Y01392547D01*
X01923170Y01394304D01*
X01925732Y01396125D01*
X01928249Y01398008D01*
X01930720Y01399951D01*
X01933142Y01401955D01*
X01935514Y01404017D01*
X01937835Y01406137D01*
X01940104Y01408312D01*
X01942319Y01410543D01*
X01944479Y01412827D01*
X01946582Y01415163D01*
X01948627Y01417550D01*
X01950614Y01419986D01*
X01952540Y01422470D01*
X01951781Y01423039D01*
X01949869Y01420574D01*
X01947897Y01418156D01*
X01945866Y01415787D01*
X01943779Y01413468D01*
X01941635Y01411201D01*
X01939436Y01408987D01*
X01937184Y01406827D01*
X01934880Y01404723D01*
X01932525Y01402677D01*
X01930121Y01400688D01*
X01927669Y01398759D01*
X01925170Y01396890D01*
X01922627Y01395083D01*
X01920040Y01393338D01*
X01917411Y01391658D01*
X01914742Y01390042D01*
X01912034Y01388492D01*
X01909289Y01387009D01*
X01906509Y01385593D01*
X01903694Y01384245D01*
X01900848Y01382967D01*
X01897972Y01381759D01*
X01895066Y01380621D01*
X01892134Y01379555D01*
X01889176Y01378561D01*
X01886195Y01377639D01*
X01883193Y01376791D01*
X01880170Y01376016D01*
X01877130Y01375315D01*
X01874073Y01374689D01*
X01871002Y01374138D01*
X01867919Y01373662D01*
X01864824Y01373262D01*
X01861721Y01372937D01*
X01858611Y01372689D01*
X01855495Y01372516D01*
X01852377Y01372420D01*
X01849257Y01372400D01*
X01846137Y01372456D01*
X01843020Y01372589D01*
X01839907Y01372798D01*
X01836800Y01373083D01*
X01833700Y01373443D01*
X01830611Y01373880D01*
X01827533Y01374391D01*
X01824469Y01374978D01*
X01821419Y01375640D01*
X01818387Y01376376D01*
X01815374Y01377186D01*
X01812382Y01378069D01*
X01809412Y01379025D01*
X01806466Y01380054D01*
X01803546Y01381154D01*
X01800654Y01382326D01*
X01797792Y01383567D01*
X01794961Y01384879D01*
X01792162Y01386259D01*
X01789399Y01387707D01*
X01786671Y01389222D01*
X01783982Y01390804D01*
X01781331Y01392450D01*
X01778722Y01394162D01*
X01776156Y01395936D01*
X01773634Y01397773D01*
X01771157Y01399670D01*
X01768727Y01401628D01*
X01766346Y01403645D01*
X01764016Y01405719D01*
X01761736Y01407849D01*
X01759509Y01410035D01*
X01757337Y01412274D01*
X01755220Y01414566D01*
X01753159Y01416909D01*
X01751156Y01419302D01*
X01749213Y01421743D01*
X01747330Y01424230D01*
X01745508Y01426763D01*
X01743748Y01429340D01*
X01742052Y01431959D01*
X01740421Y01434619D01*
X01738855Y01437318D01*
X01737356Y01440054D01*
X01735924Y01442826D01*
X01734560Y01445632D01*
X01733265Y01448471D01*
X01732040Y01451341D01*
X01730886Y01454239D01*
X01729802Y01457165D01*
X01728791Y01460117D01*
X01727852Y01463092D01*
X01726986Y01466090D01*
X01726194Y01469108D01*
X01725476Y01472144D01*
X01724832Y01475197D01*
X01724263Y01478265D01*
X01723769Y01481346D01*
X01723351Y01484438D01*
X01723008Y01487539D01*
X01722741Y01490648D01*
X01722551Y01493762D01*
X01722436Y01496880D01*
X01722398Y01500000D01*
X01722436Y01503120D01*
X01722551Y01506238D01*
X01722741Y01509352D01*
X01723008Y01512461D01*
X01723351Y01515562D01*
X01723769Y01518654D01*
X01724263Y01521735D01*
X01724832Y01524803D01*
X01725476Y01527856D01*
X01726194Y01530892D01*
X01726986Y01533910D01*
X01727852Y01536908D01*
X01728791Y01539883D01*
X01729802Y01542835D01*
X01730886Y01545761D01*
X01732040Y01548659D01*
X01733265Y01551529D01*
X01734560Y01554368D01*
X01735924Y01557174D01*
X01737356Y01559946D01*
X01738855Y01562682D01*
X01740421Y01565381D01*
X01742052Y01568041D01*
X01743748Y01570660D01*
X01745508Y01573237D01*
X01747330Y01575770D01*
X01749213Y01578257D01*
X01751156Y01580698D01*
X01753159Y01583091D01*
X01755220Y01585434D01*
X01757337Y01587726D01*
X01759509Y01589965D01*
X01761736Y01592151D01*
X01764016Y01594281D01*
X01766346Y01596355D01*
X01768727Y01598372D01*
X01771157Y01600330D01*
X01773634Y01602227D01*
X01776156Y01604064D01*
X01778722Y01605838D01*
X01781331Y01607550D01*
X01783982Y01609196D01*
X01786671Y01610778D01*
X01789399Y01612293D01*
X01792162Y01613741D01*
X01794961Y01615121D01*
X01797792Y01616433D01*
X01800654Y01617674D01*
X01803546Y01618846D01*
X01806466Y01619946D01*
X01809412Y01620975D01*
X01812382Y01621931D01*
X01815374Y01622814D01*
X01818387Y01623624D01*
X01821419Y01624360D01*
X01824469Y01625022D01*
X01827533Y01625609D01*
X01830611Y01626120D01*
X01833700Y01626557D01*
X01836800Y01626917D01*
X01839907Y01627202D01*
X01843020Y01627411D01*
X01846137Y01627544D01*
X01849257Y01627600D01*
X01852377Y01627580D01*
X01855495Y01627484D01*
X01858611Y01627311D01*
X01861721Y01627063D01*
X01864824Y01626738D01*
X01867919Y01626338D01*
X01871002Y01625862D01*
X01874073Y01625311D01*
X01877130Y01624685D01*
X01880170Y01623984D01*
X01883193Y01623209D01*
X01886195Y01622361D01*
X01889176Y01621439D01*
X01892134Y01620445D01*
X01895066Y01619379D01*
X01897972Y01618241D01*
X01900848Y01617033D01*
X01903694Y01615755D01*
X01906509Y01614407D01*
X01909289Y01612991D01*
X01912034Y01611508D01*
X01914742Y01609958D01*
X01917411Y01608342D01*
X01920040Y01606662D01*
X01922627Y01604917D01*
X01925170Y01603110D01*
X01927669Y01601241D01*
X01930121Y01599312D01*
X01932525Y01597323D01*
X01934880Y01595277D01*
X01937184Y01593173D01*
X01939436Y01591013D01*
X01941635Y01588799D01*
X01943779Y01586532D01*
X01945866Y01584213D01*
X01947897Y01581844D01*
X01949869Y01579426D01*
X01951781Y01576961D01*
X01951022Y01576391D01*
X01949124Y01578838D01*
X01947166Y01581238D01*
X01945151Y01583590D01*
X01943079Y01585891D01*
X01940951Y01588141D01*
X01938769Y01590339D01*
X01936533Y01592482D01*
X01934246Y01594570D01*
X01931909Y01596602D01*
X01929523Y01598576D01*
X01927089Y01600490D01*
X01924609Y01602345D01*
X01922084Y01604139D01*
X01919516Y01605870D01*
X01916907Y01607538D01*
X01914258Y01609142D01*
X01911570Y01610680D01*
X01908845Y01612153D01*
X01906086Y01613558D01*
X01903292Y01614895D01*
X01900467Y01616164D01*
X01897612Y01617363D01*
X01894728Y01618492D01*
X01891818Y01619550D01*
X01888882Y01620537D01*
X01885924Y01621452D01*
X01882943Y01622294D01*
X01879943Y01623062D01*
X01876926Y01623758D01*
X01873892Y01624379D01*
X01870843Y01624926D01*
X01867783Y01625398D01*
X01864711Y01625796D01*
X01861631Y01626118D01*
X01858544Y01626364D01*
X01855452Y01626536D01*
X01852357Y01626631D01*
X01849260Y01626651D01*
X01846164Y01626595D01*
X01843069Y01626463D01*
X01839979Y01626256D01*
X01836896Y01625973D01*
X01833819Y01625615D01*
X01830753Y01625182D01*
X01827698Y01624674D01*
X01824656Y01624091D01*
X01821630Y01623435D01*
X01818620Y01622704D01*
X01815630Y01621900D01*
X01812660Y01621023D01*
X01809712Y01620074D01*
X01806788Y01619053D01*
X01803890Y01617961D01*
X01801020Y01616799D01*
X01798179Y01615566D01*
X01795368Y01614265D01*
X01792591Y01612895D01*
X01789848Y01611457D01*
X01787141Y01609953D01*
X01784471Y01608383D01*
X01781841Y01606749D01*
X01779251Y01605050D01*
X01776704Y01603289D01*
X01774200Y01601466D01*
X01771742Y01599583D01*
X01769331Y01597639D01*
X01766968Y01595638D01*
X01764654Y01593579D01*
X01762392Y01591465D01*
X01760182Y01589295D01*
X01758025Y01587072D01*
X01755924Y01584798D01*
X01753879Y01582472D01*
X01751891Y01580097D01*
X01749962Y01577675D01*
X01748093Y01575205D01*
X01746284Y01572691D01*
X01744538Y01570134D01*
X01742855Y01567534D01*
X01741236Y01564894D01*
X01739681Y01562216D01*
X01738193Y01559500D01*
X01736772Y01556748D01*
X01735418Y01553963D01*
X01734133Y01551145D01*
X01732917Y01548297D01*
X01731771Y01545420D01*
X01730696Y01542516D01*
X01729692Y01539586D01*
X01728760Y01536633D01*
X01727901Y01533657D01*
X01727115Y01530662D01*
X01726402Y01527648D01*
X01725763Y01524618D01*
X01725198Y01521573D01*
X01724708Y01518515D01*
X01724292Y01515446D01*
X01723952Y01512368D01*
X01723688Y01509283D01*
X01723498Y01506191D01*
X01723385Y01503097D01*
X01723347Y01500000D01*
X01723385Y01496903D01*
X01723498Y01493809D01*
X01723688Y01490717D01*
X01723952Y01487632D01*
X01724292Y01484554D01*
X01724708Y01481485D01*
X01725198Y01478427D01*
X01725763Y01475382D01*
X01726402Y01472352D01*
X01727115Y01469338D01*
X01727901Y01466343D01*
X01728760Y01463367D01*
X01729692Y01460414D01*
X01730696Y01457484D01*
X01731771Y01454580D01*
X01732917Y01451703D01*
X01734133Y01448855D01*
X01735418Y01446037D01*
X01736772Y01443252D01*
X01738193Y01440500D01*
X01739681Y01437784D01*
X01741236Y01435106D01*
X01742855Y01432466D01*
X01744538Y01429866D01*
X01746284Y01427309D01*
X01748093Y01424795D01*
X01749962Y01422325D01*
X01751891Y01419903D01*
X01753879Y01417528D01*
X01755924Y01415202D01*
X01758025Y01412928D01*
X01760182Y01410705D01*
X01762392Y01408535D01*
X01764654Y01406421D01*
X01766968Y01404362D01*
X01769331Y01402361D01*
X01771742Y01400417D01*
X01774200Y01398534D01*
X01776704Y01396711D01*
X01779251Y01394950D01*
X01781841Y01393251D01*
X01784471Y01391617D01*
X01787141Y01390047D01*
X01789848Y01388543D01*
X01792591Y01387105D01*
X01795368Y01385735D01*
X01798179Y01384434D01*
X01801020Y01383201D01*
X01803890Y01382039D01*
X01806788Y01380947D01*
X01809712Y01379926D01*
X01812660Y01378977D01*
X01815630Y01378100D01*
X01818620Y01377296D01*
X01821630Y01376565D01*
X01824656Y01375909D01*
X01827698Y01375326D01*
X01830753Y01374818D01*
X01833819Y01374385D01*
X01836896Y01374027D01*
X01839979Y01373744D01*
X01843069Y01373537D01*
X01846164Y01373405D01*
X01849260Y01373349D01*
X01852357Y01373369D01*
X01855452Y01373464D01*
X01858544Y01373636D01*
X01861631Y01373882D01*
X01864711Y01374204D01*
X01867783Y01374602D01*
X01870843Y01375074D01*
X01873892Y01375621D01*
X01876926Y01376242D01*
X01879943Y01376938D01*
X01882943Y01377706D01*
X01885924Y01378548D01*
X01888882Y01379463D01*
X01891818Y01380450D01*
X01894728Y01381508D01*
X01897612Y01382637D01*
X01900467Y01383836D01*
X01903292Y01385105D01*
X01906086Y01386442D01*
X01908845Y01387847D01*
X01911570Y01389320D01*
X01914258Y01390858D01*
X01916907Y01392462D01*
X01919516Y01394130D01*
X01922084Y01395861D01*
X01924609Y01397655D01*
X01927089Y01399510D01*
X01929523Y01401424D01*
X01931909Y01403398D01*
X01934246Y01405430D01*
X01936533Y01407518D01*
X01938769Y01409661D01*
X01940951Y01411859D01*
X01943079Y01414109D01*
X01945151Y01416410D01*
X01947166Y01418762D01*
X01949124Y01421162D01*
X01951022Y01423609D01*
X01950262Y01424178D01*
X01948379Y01421749D01*
X01946436Y01419368D01*
X01944436Y01417034D01*
X01942379Y01414750D01*
X01940267Y01412517D01*
X01938101Y01410336D01*
X01935883Y01408208D01*
X01933613Y01406136D01*
X01931293Y01404120D01*
X01928924Y01402161D01*
X01926508Y01400261D01*
X01924047Y01398420D01*
X01921541Y01396640D01*
X01918993Y01394921D01*
X01916403Y01393266D01*
X01913773Y01391674D01*
X01911106Y01390148D01*
X01908402Y01388686D01*
X01905663Y01387292D01*
X01902890Y01385964D01*
X01900086Y01384705D01*
X01897253Y01383515D01*
X01894390Y01382395D01*
X01891502Y01381345D01*
X01888588Y01380365D01*
X01885652Y01379458D01*
X01882694Y01378622D01*
X01879716Y01377859D01*
X01876721Y01377169D01*
X01873710Y01376552D01*
X01870685Y01376010D01*
X01867647Y01375541D01*
X01864599Y01375147D01*
X01861542Y01374827D01*
X01858478Y01374582D01*
X01855409Y01374412D01*
X01852337Y01374318D01*
X01849263Y01374298D01*
X01846190Y01374354D01*
X01843119Y01374484D01*
X01840052Y01374690D01*
X01836992Y01374971D01*
X01833939Y01375326D01*
X01830895Y01375756D01*
X01827863Y01376261D01*
X01824844Y01376839D01*
X01821841Y01377491D01*
X01818854Y01378216D01*
X01815885Y01379014D01*
X01812938Y01379884D01*
X01810012Y01380826D01*
X01807110Y01381839D01*
X01804234Y01382923D01*
X01801385Y01384077D01*
X01798565Y01385301D01*
X01795776Y01386592D01*
X01793020Y01387952D01*
X01790297Y01389379D01*
X01787610Y01390871D01*
X01784961Y01392429D01*
X01782350Y01394052D01*
X01779780Y01395738D01*
X01777252Y01397486D01*
X01774767Y01399295D01*
X01772328Y01401164D01*
X01769934Y01403093D01*
X01767589Y01405080D01*
X01765293Y01407123D01*
X01763047Y01409222D01*
X01760854Y01411375D01*
X01758713Y01413581D01*
X01756628Y01415839D01*
X01754598Y01418147D01*
X01752625Y01420504D01*
X01750711Y01422908D01*
X01748856Y01425359D01*
X01747061Y01427854D01*
X01745328Y01430393D01*
X01743657Y01432973D01*
X01742050Y01435593D01*
X01740508Y01438251D01*
X01739031Y01440947D01*
X01737620Y01443678D01*
X01736276Y01446442D01*
X01735001Y01449239D01*
X01733794Y01452065D01*
X01732657Y01454921D01*
X01731590Y01457803D01*
X01730594Y01460711D01*
X01729669Y01463642D01*
X01728816Y01466595D01*
X01728035Y01469568D01*
X01727328Y01472559D01*
X01726693Y01475567D01*
X01726133Y01478589D01*
X01725646Y01481624D01*
X01725234Y01484670D01*
X01724897Y01487725D01*
X01724634Y01490787D01*
X01724446Y01493855D01*
X01724334Y01496927D01*
X01724296Y01500000D01*
X01724334Y01503073D01*
X01724446Y01506145D01*
X01724634Y01509213D01*
X01724897Y01512275D01*
X01725234Y01515330D01*
X01725646Y01518376D01*
X01726133Y01521411D01*
X01726693Y01524433D01*
X01727328Y01527441D01*
X01728035Y01530432D01*
X01728816Y01533405D01*
X01729669Y01536358D01*
X01730594Y01539289D01*
X01731590Y01542197D01*
X01732657Y01545079D01*
X01733794Y01547935D01*
X01735001Y01550761D01*
X01736276Y01553558D01*
X01737620Y01556322D01*
X01739031Y01559053D01*
X01740508Y01561749D01*
X01742050Y01564407D01*
X01743657Y01567027D01*
X01745328Y01569607D01*
X01747061Y01572146D01*
X01748856Y01574641D01*
X01750711Y01577092D01*
X01752625Y01579496D01*
X01754598Y01581853D01*
X01756628Y01584161D01*
X01758713Y01586419D01*
X01760854Y01588625D01*
X01763047Y01590778D01*
X01765293Y01592877D01*
X01767589Y01594920D01*
X01769934Y01596907D01*
X01772328Y01598836D01*
X01774767Y01600705D01*
X01777252Y01602514D01*
X01779780Y01604262D01*
X01782350Y01605948D01*
X01784961Y01607571D01*
X01787610Y01609129D01*
X01790297Y01610621D01*
X01793020Y01612048D01*
X01795776Y01613408D01*
X01798565Y01614699D01*
X01801385Y01615923D01*
X01804234Y01617077D01*
X01807110Y01618161D01*
X01810012Y01619174D01*
X01812938Y01620116D01*
X01815885Y01620986D01*
X01818854Y01621784D01*
X01821841Y01622509D01*
X01824844Y01623161D01*
X01827863Y01623739D01*
X01830895Y01624244D01*
X01833939Y01624674D01*
X01836992Y01625029D01*
X01840052Y01625310D01*
X01843119Y01625516D01*
X01846190Y01625646D01*
X01849263Y01625702D01*
X01852337Y01625682D01*
X01855409Y01625588D01*
X01858478Y01625418D01*
X01861542Y01625173D01*
X01864599Y01624853D01*
X01867647Y01624459D01*
X01870685Y01623990D01*
X01873710Y01623448D01*
X01876721Y01622831D01*
X01879716Y01622141D01*
X01882694Y01621378D01*
X01885652Y01620542D01*
X01888588Y01619635D01*
X01891502Y01618655D01*
X01894390Y01617605D01*
X01897253Y01616485D01*
X01900086Y01615295D01*
X01902890Y01614036D01*
X01905663Y01612708D01*
X01908402Y01611314D01*
X01911106Y01609852D01*
X01913773Y01608326D01*
X01916403Y01606734D01*
X01918993Y01605079D01*
X01921541Y01603360D01*
X01924047Y01601580D01*
X01926508Y01599739D01*
X01928924Y01597839D01*
X01931293Y01595880D01*
X01933613Y01593864D01*
X01935883Y01591792D01*
X01938101Y01589664D01*
X01940267Y01587483D01*
X01942379Y01585250D01*
X01944436Y01582966D01*
X01946436Y01580632D01*
X01948379Y01578251D01*
X01950262Y01575822D01*
X01949503Y01575252D01*
X01947634Y01577663D01*
X01945706Y01580027D01*
X01943720Y01582343D01*
X01941679Y01584609D01*
X01939583Y01586826D01*
X01937433Y01588990D01*
X01935232Y01591101D01*
X01932979Y01593158D01*
X01930676Y01595159D01*
X01928326Y01597103D01*
X01925928Y01598989D01*
X01923485Y01600815D01*
X01920998Y01602582D01*
X01918469Y01604287D01*
X01915899Y01605930D01*
X01913289Y01607509D01*
X01910642Y01609025D01*
X01907958Y01610475D01*
X01905240Y01611859D01*
X01902488Y01613176D01*
X01899706Y01614425D01*
X01896893Y01615606D01*
X01894053Y01616718D01*
X01891186Y01617761D01*
X01888294Y01618732D01*
X01885380Y01619633D01*
X01882444Y01620462D01*
X01879489Y01621220D01*
X01876517Y01621904D01*
X01873528Y01622516D01*
X01870526Y01623055D01*
X01867511Y01623520D01*
X01864486Y01623911D01*
X01861452Y01624228D01*
X01858411Y01624471D01*
X01855366Y01624640D01*
X01852317Y01624733D01*
X01849266Y01624753D01*
X01846216Y01624698D01*
X01843169Y01624568D01*
X01840125Y01624364D01*
X01837088Y01624085D01*
X01834058Y01623732D01*
X01831037Y01623305D01*
X01828028Y01622805D01*
X01825032Y01622231D01*
X01822051Y01621584D01*
X01819087Y01620864D01*
X01816141Y01620072D01*
X01813215Y01619209D01*
X01810312Y01618274D01*
X01807432Y01617268D01*
X01804578Y01616192D01*
X01801750Y01615047D01*
X01798952Y01613833D01*
X01796184Y01612551D01*
X01793448Y01611201D01*
X01790747Y01609785D01*
X01788080Y01608304D01*
X01785451Y01606758D01*
X01782860Y01605147D01*
X01780309Y01603475D01*
X01777800Y01601740D01*
X01775334Y01599944D01*
X01772913Y01598089D01*
X01770538Y01596175D01*
X01768210Y01594203D01*
X01765931Y01592175D01*
X01763703Y01590092D01*
X01761526Y01587955D01*
X01759402Y01585766D01*
X01757332Y01583525D01*
X01755318Y01581235D01*
X01753360Y01578895D01*
X01751460Y01576509D01*
X01749619Y01574077D01*
X01747837Y01571600D01*
X01746117Y01569081D01*
X01744459Y01566521D01*
X01742865Y01563920D01*
X01741334Y01561282D01*
X01739868Y01558607D01*
X01738468Y01555897D01*
X01737135Y01553153D01*
X01735869Y01550378D01*
X01734671Y01547572D01*
X01733543Y01544738D01*
X01732484Y01541878D01*
X01731495Y01538992D01*
X01730577Y01536083D01*
X01729731Y01533152D01*
X01728956Y01530202D01*
X01728254Y01527233D01*
X01727624Y01524249D01*
X01727068Y01521249D01*
X01726585Y01518237D01*
X01726176Y01515214D01*
X01725841Y01512182D01*
X01725581Y01509143D01*
X01725394Y01506099D01*
X01725282Y01503050D01*
X01725245Y01500000D01*
X01725282Y01496950D01*
X01725394Y01493901D01*
X01725581Y01490857D01*
X01725841Y01487818D01*
X01726176Y01484786D01*
X01726585Y01481763D01*
X01727068Y01478751D01*
X01727624Y01475751D01*
X01728254Y01472767D01*
X01728956Y01469798D01*
X01729731Y01466848D01*
X01730577Y01463917D01*
X01731495Y01461008D01*
X01732484Y01458122D01*
X01733543Y01455262D01*
X01734671Y01452428D01*
X01735869Y01449622D01*
X01737135Y01446847D01*
X01738468Y01444103D01*
X01739868Y01441393D01*
X01741334Y01438718D01*
X01742865Y01436080D01*
X01744459Y01433479D01*
X01746117Y01430919D01*
X01747837Y01428400D01*
X01749619Y01425923D01*
X01751460Y01423491D01*
X01753360Y01421105D01*
X01755318Y01418765D01*
X01757332Y01416475D01*
X01759402Y01414234D01*
X01761526Y01412045D01*
X01763703Y01409908D01*
X01765931Y01407825D01*
X01768210Y01405797D01*
X01770538Y01403825D01*
X01772913Y01401911D01*
X01775334Y01400056D01*
X01777800Y01398260D01*
X01780309Y01396525D01*
X01782860Y01394853D01*
X01785451Y01393242D01*
X01788080Y01391696D01*
X01790747Y01390215D01*
X01793448Y01388799D01*
X01796184Y01387449D01*
X01798952Y01386167D01*
X01801750Y01384953D01*
X01804578Y01383808D01*
X01807432Y01382732D01*
X01810312Y01381726D01*
X01813215Y01380791D01*
X01816141Y01379928D01*
X01819087Y01379136D01*
X01822051Y01378416D01*
X01825032Y01377769D01*
X01828028Y01377195D01*
X01831037Y01376695D01*
X01834058Y01376268D01*
X01837088Y01375915D01*
X01840125Y01375636D01*
X01843169Y01375432D01*
X01846216Y01375302D01*
X01849266Y01375247D01*
X01852317Y01375267D01*
X01855366Y01375360D01*
X01858411Y01375529D01*
X01861452Y01375772D01*
X01864486Y01376089D01*
X01867511Y01376480D01*
X01870526Y01376945D01*
X01873528Y01377484D01*
X01876517Y01378096D01*
X01879489Y01378780D01*
X01882444Y01379538D01*
X01885380Y01380367D01*
X01888294Y01381268D01*
X01891186Y01382239D01*
X01894053Y01383282D01*
X01896893Y01384394D01*
X01899706Y01385575D01*
X01902488Y01386824D01*
X01905240Y01388141D01*
X01907958Y01389525D01*
X01910642Y01390975D01*
X01913289Y01392491D01*
X01915899Y01394070D01*
X01918469Y01395713D01*
X01920998Y01397418D01*
X01923485Y01399185D01*
X01925928Y01401011D01*
X01928326Y01402897D01*
X01930676Y01404841D01*
X01932979Y01406842D01*
X01935232Y01408899D01*
X01937433Y01411010D01*
X01939583Y01413174D01*
X01941679Y01415391D01*
X01943720Y01417657D01*
X01945706Y01419973D01*
X01947634Y01422337D01*
X01949503Y01424748D01*
X01948744Y01425317D01*
X01946889Y01422925D01*
X01944975Y01420579D01*
X01943005Y01418281D01*
X01940979Y01416032D01*
X01938899Y01413832D01*
X01936766Y01411685D01*
X01934581Y01409590D01*
X01932345Y01407549D01*
X01930060Y01405563D01*
X01927727Y01403634D01*
X01925348Y01401762D01*
X01922924Y01399950D01*
X01920456Y01398197D01*
X01917946Y01396504D01*
X01915395Y01394874D01*
X01912805Y01393307D01*
X01910178Y01391803D01*
X01907514Y01390364D01*
X01904817Y01388991D01*
X01902086Y01387684D01*
X01899325Y01386444D01*
X01896534Y01385272D01*
X01893715Y01384168D01*
X01890870Y01383134D01*
X01888000Y01382170D01*
X01885108Y01381276D01*
X01882195Y01380453D01*
X01879262Y01379702D01*
X01876312Y01379022D01*
X01873347Y01378415D01*
X01870367Y01377881D01*
X01867375Y01377419D01*
X01864373Y01377031D01*
X01861362Y01376717D01*
X01858345Y01376476D01*
X01855322Y01376308D01*
X01852297Y01376215D01*
X01849270Y01376196D01*
X01846243Y01376251D01*
X01843218Y01376380D01*
X01840198Y01376583D01*
X01837184Y01376859D01*
X01834177Y01377209D01*
X01831179Y01377633D01*
X01828193Y01378130D01*
X01825220Y01378699D01*
X01822262Y01379341D01*
X01819320Y01380056D01*
X01816397Y01380842D01*
X01813493Y01381699D01*
X01810612Y01382627D01*
X01807754Y01383625D01*
X01804921Y01384692D01*
X01802116Y01385829D01*
X01799339Y01387034D01*
X01796592Y01388306D01*
X01793877Y01389645D01*
X01791196Y01391050D01*
X01788550Y01392521D01*
X01785940Y01394055D01*
X01783369Y01395653D01*
X01780838Y01397313D01*
X01778348Y01399035D01*
X01775901Y01400817D01*
X01773498Y01402658D01*
X01771141Y01404558D01*
X01768831Y01406514D01*
X01766570Y01408527D01*
X01764358Y01410594D01*
X01762198Y01412715D01*
X01760090Y01414887D01*
X01758036Y01417111D01*
X01756037Y01419384D01*
X01754094Y01421706D01*
X01752209Y01424074D01*
X01750382Y01426487D01*
X01748614Y01428945D01*
X01746907Y01431445D01*
X01745262Y01433986D01*
X01743679Y01436567D01*
X01742160Y01439185D01*
X01740705Y01441840D01*
X01739316Y01444529D01*
X01737993Y01447252D01*
X01736737Y01450006D01*
X01735548Y01452790D01*
X01734428Y01455603D01*
X01733377Y01458442D01*
X01732396Y01461305D01*
X01731485Y01464192D01*
X01730645Y01467100D01*
X01729877Y01470028D01*
X01729180Y01472974D01*
X01728555Y01475936D01*
X01728003Y01478913D01*
X01727524Y01481902D01*
X01727118Y01484901D01*
X01726786Y01487910D01*
X01726527Y01490926D01*
X01726342Y01493948D01*
X01726231Y01496973D01*
X01726194Y01500000D01*
X01726231Y01503027D01*
X01726342Y01506052D01*
X01726527Y01509074D01*
X01726786Y01512090D01*
X01727118Y01515099D01*
X01727524Y01518098D01*
X01728003Y01521087D01*
X01728555Y01524064D01*
X01729180Y01527026D01*
X01729877Y01529972D01*
X01730645Y01532900D01*
X01731485Y01535808D01*
X01732396Y01538695D01*
X01733377Y01541558D01*
X01734428Y01544397D01*
X01735548Y01547210D01*
X01736737Y01549994D01*
X01737993Y01552748D01*
X01739316Y01555471D01*
X01740705Y01558160D01*
X01742160Y01560815D01*
X01743679Y01563433D01*
X01745262Y01566014D01*
X01746907Y01568555D01*
X01748614Y01571055D01*
X01750382Y01573513D01*
X01752209Y01575926D01*
X01754094Y01578294D01*
X01756037Y01580616D01*
X01758036Y01582889D01*
X01760090Y01585113D01*
X01762198Y01587285D01*
X01764358Y01589406D01*
X01766570Y01591473D01*
X01768831Y01593486D01*
X01771141Y01595442D01*
X01773498Y01597342D01*
X01775901Y01599183D01*
X01778348Y01600965D01*
X01780838Y01602687D01*
X01783369Y01604347D01*
X01785940Y01605945D01*
X01788550Y01607479D01*
X01791196Y01608950D01*
X01793877Y01610355D01*
X01796592Y01611694D01*
X01799339Y01612966D01*
X01802116Y01614171D01*
X01804921Y01615308D01*
X01807754Y01616375D01*
X01810612Y01617373D01*
X01813493Y01618301D01*
X01816397Y01619158D01*
X01819320Y01619944D01*
X01822262Y01620659D01*
X01825220Y01621301D01*
X01828193Y01621870D01*
X01831179Y01622367D01*
X01834177Y01622791D01*
X01837184Y01623141D01*
X01840198Y01623417D01*
X01843218Y01623620D01*
X01846243Y01623749D01*
X01849270Y01623804D01*
X01852297Y01623785D01*
X01855322Y01623692D01*
X01858345Y01623524D01*
X01861362Y01623283D01*
X01864373Y01622969D01*
X01867375Y01622581D01*
X01870367Y01622119D01*
X01873347Y01621585D01*
X01876312Y01620978D01*
X01879262Y01620298D01*
X01882195Y01619547D01*
X01885108Y01618724D01*
X01888000Y01617830D01*
X01890870Y01616866D01*
X01893715Y01615832D01*
X01896534Y01614728D01*
X01899325Y01613556D01*
X01902086Y01612316D01*
X01904817Y01611009D01*
X01907514Y01609636D01*
X01910178Y01608197D01*
X01912805Y01606693D01*
X01915395Y01605126D01*
X01917946Y01603496D01*
X01920456Y01601803D01*
X01922924Y01600050D01*
X01925348Y01598238D01*
X01927727Y01596366D01*
X01930060Y01594437D01*
X01932345Y01592451D01*
X01934581Y01590410D01*
X01936766Y01588315D01*
X01938899Y01586168D01*
X01940979Y01583968D01*
X01943005Y01581719D01*
X01944975Y01579421D01*
X01946889Y01577075D01*
X01948744Y01574683D01*
X01947985Y01574114D01*
X01946144Y01576487D01*
X01944245Y01578815D01*
X01942290Y01581095D01*
X01940279Y01583328D01*
X01938215Y01585510D01*
X01936098Y01587641D01*
X01933930Y01589720D01*
X01931711Y01591745D01*
X01929444Y01593715D01*
X01927129Y01595630D01*
X01924768Y01597487D01*
X01922362Y01599286D01*
X01919913Y01601025D01*
X01917422Y01602704D01*
X01914891Y01604322D01*
X01912321Y01605877D01*
X01909714Y01607369D01*
X01907071Y01608797D01*
X01904394Y01610160D01*
X01901684Y01611457D01*
X01898944Y01612687D01*
X01896174Y01613850D01*
X01893377Y01614945D01*
X01890554Y01615971D01*
X01887706Y01616928D01*
X01884836Y01617815D01*
X01881945Y01618631D01*
X01879035Y01619377D01*
X01876108Y01620051D01*
X01873165Y01620653D01*
X01870208Y01621184D01*
X01867240Y01621641D01*
X01864260Y01622027D01*
X01861273Y01622339D01*
X01858278Y01622578D01*
X01855279Y01622744D01*
X01852277Y01622836D01*
X01849273Y01622855D01*
X01846269Y01622800D01*
X01843268Y01622672D01*
X01840271Y01622471D01*
X01837280Y01622197D01*
X01834296Y01621849D01*
X01831321Y01621429D01*
X01828358Y01620936D01*
X01825408Y01620371D01*
X01822472Y01619733D01*
X01819553Y01619025D01*
X01816652Y01618245D01*
X01813771Y01617394D01*
X01810912Y01616473D01*
X01808076Y01615483D01*
X01805265Y01614423D01*
X01802481Y01613295D01*
X01799725Y01612100D01*
X01797000Y01610837D01*
X01794306Y01609508D01*
X01791645Y01608114D01*
X01789019Y01606655D01*
X01786430Y01605132D01*
X01783879Y01603546D01*
X01781367Y01601899D01*
X01778896Y01600190D01*
X01776468Y01598422D01*
X01774083Y01596595D01*
X01771745Y01594710D01*
X01769452Y01592768D01*
X01767208Y01590771D01*
X01765014Y01588720D01*
X01762870Y01586615D01*
X01760779Y01584459D01*
X01758740Y01582253D01*
X01756757Y01579997D01*
X01754829Y01577693D01*
X01752958Y01575343D01*
X01751145Y01572948D01*
X01749391Y01570510D01*
X01747697Y01568029D01*
X01746064Y01565507D01*
X01744494Y01562947D01*
X01742986Y01560348D01*
X01741543Y01557714D01*
X01740164Y01555045D01*
X01738851Y01552343D01*
X01737605Y01549610D01*
X01736425Y01546847D01*
X01735314Y01544057D01*
X01734271Y01541239D01*
X01733298Y01538398D01*
X01732394Y01535533D01*
X01731560Y01532647D01*
X01730797Y01529742D01*
X01730106Y01526818D01*
X01729486Y01523879D01*
X01728938Y01520925D01*
X01728463Y01517959D01*
X01728060Y01514983D01*
X01727730Y01511997D01*
X01727473Y01509004D01*
X01727290Y01506006D01*
X01727180Y01503004D01*
X01727143Y01500000D01*
X01727180Y01496996D01*
X01727290Y01493994D01*
X01727473Y01490996D01*
X01727730Y01488003D01*
X01728060Y01485017D01*
X01728463Y01482041D01*
X01728938Y01479075D01*
X01729486Y01476121D01*
X01730106Y01473182D01*
X01730797Y01470258D01*
X01731560Y01467353D01*
X01732394Y01464467D01*
X01733298Y01461602D01*
X01734271Y01458761D01*
X01735314Y01455943D01*
X01736425Y01453153D01*
X01737605Y01450390D01*
X01738851Y01447657D01*
X01740164Y01444955D01*
X01741543Y01442286D01*
X01742986Y01439652D01*
X01744494Y01437053D01*
X01746064Y01434493D01*
X01747697Y01431971D01*
X01749391Y01429490D01*
X01751145Y01427052D01*
X01752958Y01424657D01*
X01754829Y01422307D01*
X01756757Y01420003D01*
X01758740Y01417747D01*
X01760779Y01415541D01*
X01762870Y01413385D01*
X01765014Y01411280D01*
X01767208Y01409229D01*
X01769452Y01407232D01*
X01771745Y01405290D01*
X01774083Y01403405D01*
X01776468Y01401578D01*
X01778896Y01399810D01*
X01781367Y01398101D01*
X01783879Y01396454D01*
X01786430Y01394868D01*
X01789019Y01393345D01*
X01791645Y01391886D01*
X01794306Y01390492D01*
X01797000Y01389163D01*
X01799725Y01387900D01*
X01802481Y01386705D01*
X01805265Y01385577D01*
X01808076Y01384517D01*
X01810912Y01383527D01*
X01813771Y01382606D01*
X01816652Y01381755D01*
X01819553Y01380975D01*
X01822472Y01380267D01*
X01825408Y01379629D01*
X01828358Y01379064D01*
X01831321Y01378571D01*
X01834296Y01378151D01*
X01837280Y01377803D01*
X01840271Y01377529D01*
X01843268Y01377328D01*
X01846269Y01377200D01*
X01849273Y01377145D01*
X01852277Y01377164D01*
X01855279Y01377256D01*
X01858278Y01377422D01*
X01861273Y01377661D01*
X01864260Y01377973D01*
X01867240Y01378359D01*
X01870208Y01378816D01*
X01873165Y01379347D01*
X01876108Y01379949D01*
X01879035Y01380623D01*
X01881945Y01381369D01*
X01884836Y01382185D01*
X01887706Y01383072D01*
X01890554Y01384029D01*
X01893377Y01385055D01*
X01896174Y01386150D01*
X01898944Y01387313D01*
X01901684Y01388543D01*
X01904394Y01389840D01*
X01907071Y01391203D01*
X01909714Y01392631D01*
X01912321Y01394123D01*
X01914891Y01395678D01*
X01917422Y01397296D01*
X01919913Y01398975D01*
X01922362Y01400714D01*
X01924768Y01402513D01*
X01927129Y01404370D01*
X01929444Y01406285D01*
X01931711Y01408255D01*
X01933930Y01410280D01*
X01936098Y01412359D01*
X01938215Y01414490D01*
X01940279Y01416672D01*
X01942290Y01418905D01*
X01944245Y01421185D01*
X01946144Y01423513D01*
X01947985Y01425886D01*
X01947226Y01426456D01*
X01945398Y01424101D01*
X01943514Y01421791D01*
X01941574Y01419528D01*
X01939580Y01417313D01*
X01937531Y01415148D01*
X01935431Y01413033D01*
X01933279Y01410971D01*
X01931077Y01408961D01*
X01928827Y01407006D01*
X01926530Y01405107D01*
X01924187Y01403264D01*
X01921800Y01401479D01*
X01919370Y01399753D01*
X01916898Y01398087D01*
X01914387Y01396482D01*
X01911837Y01394939D01*
X01909250Y01393459D01*
X01906627Y01392042D01*
X01903971Y01390690D01*
X01901282Y01389403D01*
X01898563Y01388182D01*
X01895815Y01387028D01*
X01893039Y01385942D01*
X01890238Y01384924D01*
X01887412Y01383975D01*
X01884564Y01383095D01*
X01881696Y01382285D01*
X01878808Y01381545D01*
X01875904Y01380876D01*
X01872984Y01380278D01*
X01870050Y01379752D01*
X01867104Y01379298D01*
X01864148Y01378916D01*
X01861183Y01378606D01*
X01858212Y01378369D01*
X01855236Y01378204D01*
X01852257Y01378113D01*
X01849276Y01378094D01*
X01846296Y01378148D01*
X01843318Y01378275D01*
X01840344Y01378475D01*
X01837376Y01378747D01*
X01834415Y01379092D01*
X01831464Y01379510D01*
X01828523Y01379999D01*
X01825596Y01380560D01*
X01822683Y01381192D01*
X01819786Y01381895D01*
X01816908Y01382669D01*
X01814049Y01383513D01*
X01811212Y01384427D01*
X01808398Y01385410D01*
X01805609Y01386461D01*
X01802847Y01387581D01*
X01800112Y01388767D01*
X01797408Y01390020D01*
X01794734Y01391339D01*
X01792094Y01392722D01*
X01789489Y01394170D01*
X01786920Y01395681D01*
X01784388Y01397255D01*
X01781896Y01398889D01*
X01779444Y01400585D01*
X01777035Y01402339D01*
X01774669Y01404152D01*
X01772348Y01406023D01*
X01770074Y01407949D01*
X01767847Y01409931D01*
X01765669Y01411966D01*
X01763542Y01414054D01*
X01761467Y01416194D01*
X01759445Y01418383D01*
X01757476Y01420622D01*
X01755563Y01422908D01*
X01753707Y01425239D01*
X01751908Y01427616D01*
X01750167Y01430036D01*
X01748487Y01432497D01*
X01746867Y01435000D01*
X01745308Y01437540D01*
X01743813Y01440119D01*
X01742380Y01442733D01*
X01741012Y01445381D01*
X01739710Y01448062D01*
X01738473Y01450774D01*
X01737303Y01453515D01*
X01736200Y01456284D01*
X01735165Y01459080D01*
X01734199Y01461899D01*
X01733302Y01464742D01*
X01732475Y01467606D01*
X01731718Y01470489D01*
X01731032Y01473389D01*
X01730417Y01476306D01*
X01729873Y01479236D01*
X01729402Y01482180D01*
X01729002Y01485133D01*
X01728675Y01488096D01*
X01728420Y01491066D01*
X01728238Y01494041D01*
X01728128Y01497020D01*
X01728092Y01500000D01*
X01728128Y01502980D01*
X01728238Y01505959D01*
X01728420Y01508934D01*
X01728675Y01511904D01*
X01729002Y01514867D01*
X01729402Y01517820D01*
X01729873Y01520764D01*
X01730417Y01523694D01*
X01731032Y01526611D01*
X01731718Y01529511D01*
X01732475Y01532394D01*
X01733302Y01535258D01*
X01734199Y01538101D01*
X01735165Y01540920D01*
X01736200Y01543716D01*
X01737303Y01546485D01*
X01738473Y01549226D01*
X01739710Y01551938D01*
X01741012Y01554619D01*
X01742380Y01557267D01*
X01743813Y01559881D01*
X01745308Y01562460D01*
X01746867Y01565000D01*
X01748487Y01567503D01*
X01750167Y01569964D01*
X01751908Y01572384D01*
X01753707Y01574761D01*
X01755563Y01577092D01*
X01757476Y01579378D01*
X01759445Y01581617D01*
X01761467Y01583806D01*
X01763542Y01585946D01*
X01765669Y01588034D01*
X01767847Y01590069D01*
X01770074Y01592051D01*
X01772348Y01593977D01*
X01774669Y01595848D01*
X01777035Y01597661D01*
X01779444Y01599415D01*
X01781896Y01601111D01*
X01784388Y01602745D01*
X01786920Y01604319D01*
X01789489Y01605830D01*
X01792094Y01607278D01*
X01794734Y01608661D01*
X01797408Y01609980D01*
X01800112Y01611233D01*
X01802847Y01612419D01*
X01805609Y01613539D01*
X01808398Y01614590D01*
X01811212Y01615573D01*
X01814049Y01616487D01*
X01816908Y01617331D01*
X01819786Y01618105D01*
X01822683Y01618808D01*
X01825596Y01619440D01*
X01828523Y01620001D01*
X01831464Y01620490D01*
X01834415Y01620908D01*
X01837376Y01621253D01*
X01840344Y01621525D01*
X01843318Y01621725D01*
X01846296Y01621852D01*
X01849276Y01621906D01*
X01852257Y01621887D01*
X01855236Y01621796D01*
X01858212Y01621631D01*
X01861183Y01621394D01*
X01864148Y01621084D01*
X01867104Y01620702D01*
X01870050Y01620248D01*
X01872984Y01619722D01*
X01875904Y01619124D01*
X01878808Y01618455D01*
X01881696Y01617715D01*
X01884564Y01616905D01*
X01887412Y01616025D01*
X01890238Y01615076D01*
X01893039Y01614058D01*
X01895815Y01612972D01*
X01898563Y01611818D01*
X01901282Y01610597D01*
X01903971Y01609310D01*
X01906627Y01607958D01*
X01909250Y01606541D01*
X01911837Y01605061D01*
X01914387Y01603518D01*
X01916898Y01601913D01*
X01919370Y01600247D01*
X01921800Y01598521D01*
X01924187Y01596736D01*
X01926530Y01594893D01*
X01928827Y01592994D01*
X01931077Y01591039D01*
X01933279Y01589029D01*
X01935431Y01586967D01*
X01937531Y01584852D01*
X01939580Y01582687D01*
X01941574Y01580472D01*
X01943514Y01578209D01*
X01945398Y01575899D01*
X01947226Y01573544D01*
X01946466Y01572975D01*
X01944653Y01575311D01*
X01942784Y01577603D01*
X01940859Y01579848D01*
X01938880Y01582046D01*
X01936847Y01584194D01*
X01934763Y01586292D01*
X01932628Y01588339D01*
X01930443Y01590332D01*
X01928211Y01592272D01*
X01925932Y01594157D01*
X01923607Y01595985D01*
X01921238Y01597756D01*
X01918827Y01599468D01*
X01916375Y01601121D01*
X01913883Y01602714D01*
X01911352Y01604245D01*
X01908786Y01605713D01*
X01906183Y01607119D01*
X01903548Y01608461D01*
X01900880Y01609737D01*
X01898182Y01610948D01*
X01895455Y01612093D01*
X01892701Y01613171D01*
X01889922Y01614181D01*
X01887118Y01615123D01*
X01884292Y01615996D01*
X01881446Y01616800D01*
X01878581Y01617534D01*
X01875699Y01618197D01*
X01872802Y01618790D01*
X01869891Y01619312D01*
X01866968Y01619763D01*
X01864035Y01620142D01*
X01861094Y01620449D01*
X01858145Y01620684D01*
X01855193Y01620847D01*
X01852236Y01620938D01*
X01849279Y01620957D01*
X01846322Y01620903D01*
X01843367Y01620777D01*
X01840417Y01620579D01*
X01837472Y01620308D01*
X01834534Y01619966D01*
X01831606Y01619552D01*
X01828688Y01619067D01*
X01825784Y01618510D01*
X01822894Y01617883D01*
X01820020Y01617185D01*
X01817164Y01616417D01*
X01814327Y01615579D01*
X01811512Y01614672D01*
X01808720Y01613697D01*
X01805953Y01612654D01*
X01803212Y01611544D01*
X01800499Y01610366D01*
X01797815Y01609123D01*
X01795163Y01607815D01*
X01792544Y01606442D01*
X01789959Y01605005D01*
X01787409Y01603506D01*
X01784898Y01601945D01*
X01782425Y01600323D01*
X01779992Y01598641D01*
X01777601Y01596900D01*
X01775254Y01595101D01*
X01772951Y01593245D01*
X01770695Y01591333D01*
X01768486Y01589367D01*
X01766325Y01587347D01*
X01764215Y01585276D01*
X01762155Y01583153D01*
X01760149Y01580980D01*
X01758196Y01578759D01*
X01756298Y01576492D01*
X01754456Y01574178D01*
X01752671Y01571820D01*
X01750944Y01569419D01*
X01749276Y01566976D01*
X01747669Y01564494D01*
X01746123Y01561973D01*
X01744639Y01559415D01*
X01743218Y01556821D01*
X01741860Y01554193D01*
X01740568Y01551533D01*
X01739341Y01548842D01*
X01738180Y01546122D01*
X01737085Y01543375D01*
X01736059Y01540601D01*
X01735100Y01537804D01*
X01734210Y01534983D01*
X01733390Y01532142D01*
X01732639Y01529281D01*
X01731958Y01526403D01*
X01731348Y01523510D01*
X01730808Y01520602D01*
X01730340Y01517682D01*
X01729944Y01514751D01*
X01729619Y01511811D01*
X01729366Y01508865D01*
X01729186Y01505913D01*
X01729077Y01502957D01*
X01729041Y01500000D01*
X01729077Y01497043D01*
X01729186Y01494087D01*
X01729366Y01491135D01*
X01729619Y01488189D01*
X01729944Y01485249D01*
X01730340Y01482318D01*
X01730808Y01479398D01*
X01731348Y01476490D01*
X01731958Y01473597D01*
X01732639Y01470719D01*
X01733390Y01467858D01*
X01734210Y01465017D01*
X01735100Y01462196D01*
X01736059Y01459399D01*
X01737085Y01456625D01*
X01738180Y01453878D01*
X01739341Y01451158D01*
X01740568Y01448467D01*
X01741860Y01445807D01*
X01743218Y01443179D01*
X01744639Y01440585D01*
X01746123Y01438027D01*
X01747669Y01435506D01*
X01749276Y01433024D01*
X01750944Y01430581D01*
X01752671Y01428180D01*
X01754456Y01425822D01*
X01756298Y01423508D01*
X01758196Y01421241D01*
X01760149Y01419020D01*
X01762155Y01416847D01*
X01764215Y01414724D01*
X01766325Y01412653D01*
X01768486Y01410633D01*
X01770695Y01408667D01*
X01772951Y01406755D01*
X01775254Y01404899D01*
X01777601Y01403100D01*
X01779992Y01401359D01*
X01782425Y01399677D01*
X01784898Y01398055D01*
X01787409Y01396494D01*
X01789959Y01394995D01*
X01792544Y01393558D01*
X01795163Y01392185D01*
X01797815Y01390877D01*
X01800499Y01389634D01*
X01803212Y01388456D01*
X01805953Y01387346D01*
X01808720Y01386303D01*
X01811512Y01385328D01*
X01814327Y01384421D01*
X01817164Y01383583D01*
X01820020Y01382815D01*
X01822894Y01382117D01*
X01825784Y01381490D01*
X01828688Y01380933D01*
X01831606Y01380448D01*
X01834534Y01380034D01*
X01837472Y01379692D01*
X01840417Y01379421D01*
X01843367Y01379223D01*
X01846322Y01379097D01*
X01849279Y01379043D01*
X01852236Y01379062D01*
X01855193Y01379153D01*
X01858145Y01379316D01*
X01861094Y01379551D01*
X01864035Y01379858D01*
X01866968Y01380237D01*
X01869891Y01380688D01*
X01872802Y01381210D01*
X01875699Y01381803D01*
X01878581Y01382466D01*
X01881446Y01383200D01*
X01884292Y01384004D01*
X01887118Y01384877D01*
X01889922Y01385819D01*
X01892701Y01386829D01*
X01895455Y01387907D01*
X01898182Y01389052D01*
X01900880Y01390263D01*
X01903548Y01391539D01*
X01906183Y01392881D01*
X01908786Y01394287D01*
X01911352Y01395755D01*
X01913883Y01397286D01*
X01916375Y01398879D01*
X01918827Y01400532D01*
X01921238Y01402244D01*
X01923607Y01404015D01*
X01925932Y01405843D01*
X01928211Y01407728D01*
X01930443Y01409668D01*
X01932628Y01411661D01*
X01934763Y01413708D01*
X01936847Y01415806D01*
X01938880Y01417954D01*
X01940859Y01420152D01*
X01942784Y01422397D01*
X01944653Y01424689D01*
X01946466Y01427025D01*
M02*
