G75*
%MOIN*%
%OFA0B0*%
%FSLAX26Y26*%
%IPPOS*%
%LPD*%
%AMOC8*
5,1,8,0,0,1.08239X$1,22.5*
%
%ADD10C,0.133984*%
%ADD11C,0.068000*%
%ADD12C,0.138000*%
%ADD13C,0.072000*%
%ADD14C,0.084000*%
%ADD15R,0.084000X0.084000*%
%ADD16C,0.073000*%
%ADD17C,0.178000*%
%ADD18R,0.103000X0.103000*%
%ADD19C,0.103000*%
%ADD20C,0.074000*%
%ADD21C,0.106425*%
%ADD22OC8,0.074000*%
%ADD23C,0.082000*%
%ADD24C,0.036000*%
%ADD25C,0.108000*%
D10*
X-00350000Y00700000D03*
X02950000Y04250000D03*
D11*
X02280000Y01050000D02*
X02220000Y01050000D01*
X02220000Y00950000D02*
X02280000Y00950000D01*
X02280000Y00850000D02*
X02220000Y00850000D01*
X01250000Y00780000D02*
X01250000Y00720000D01*
X01150000Y00720000D02*
X01150000Y00780000D01*
X01050000Y00780000D02*
X01050000Y00720000D01*
X00950000Y00720000D02*
X00950000Y00780000D01*
X00850000Y00780000D02*
X00850000Y00720000D01*
X00750000Y00720000D02*
X00750000Y00780000D01*
X00650000Y00780000D02*
X00650000Y00720000D01*
X00480000Y00850000D02*
X00420000Y00850000D01*
X00420000Y00950000D02*
X00480000Y00950000D01*
X00480000Y01050000D02*
X00420000Y01050000D01*
D12*
X-00140000Y00950000D03*
X01660000Y00950000D03*
D13*
X01650000Y01850000D03*
X01550000Y01850000D03*
X01450000Y01850000D03*
X01350000Y01850000D03*
X01250000Y01850000D03*
X01150000Y01850000D03*
X01050000Y01850000D03*
X00950000Y01850000D03*
X00850000Y01850000D03*
X00750000Y01850000D03*
X00650000Y01850000D03*
X00650000Y02150000D03*
X00750000Y02150000D03*
X00850000Y02150000D03*
X00950000Y02150000D03*
X01050000Y02150000D03*
X01150000Y02150000D03*
X01250000Y02150000D03*
X01350000Y02150000D03*
X01450000Y02150000D03*
X01550000Y02150000D03*
X01650000Y02150000D03*
X01750000Y02150000D03*
X01850000Y02150000D03*
X01950000Y02150000D03*
X01950000Y01850000D03*
X01850000Y01850000D03*
X01750000Y01850000D03*
D14*
X02448425Y01650000D03*
X02448425Y02200000D03*
X02700000Y01048425D03*
X00001575Y01450000D03*
D15*
X00198425Y01450000D03*
X02251575Y01650000D03*
X02251575Y02200000D03*
X02700000Y00851575D03*
D16*
X01350000Y01650000D03*
X01150000Y01650000D03*
D17*
X00239370Y02000000D03*
X00121260Y01814961D03*
X00003150Y02000000D03*
D18*
X02750000Y01800000D03*
D19*
X02750000Y01996850D03*
X02750000Y02193701D03*
D20*
X02559843Y02789764D03*
X02459843Y02789764D03*
X02359843Y02789764D03*
X02259843Y02789764D03*
X02159843Y02789764D03*
X02059843Y02789764D03*
X01959843Y02789764D03*
X01859843Y02789764D03*
X01759843Y02789764D03*
X01659843Y02789764D03*
X01559843Y02789764D03*
X01459843Y02789764D03*
X01359843Y02789764D03*
X01259843Y02789764D03*
X01159843Y02789764D03*
X01059843Y02789764D03*
D21*
X-00176378Y02789764D03*
X-00176378Y04010236D03*
X02776378Y04010236D03*
X02776378Y02789764D03*
D22*
X01900000Y01500000D03*
X01800000Y01500000D03*
D23*
X00250000Y02550000D03*
X00150000Y02550000D03*
D24*
X01200000Y02550000D03*
X01200000Y02550000D03*
X01300000Y02550000D03*
X02350000Y02550000D03*
X02350000Y02550000D03*
X02450000Y02550000D03*
D25*
X00450000Y02127953D03*
X00450000Y01872047D03*
M02*
