G75*
%MOIN*%
%OFA0B0*%
%FSLAX26Y26*%
%IPPOS*%
%LPD*%
%AMOC8*
5,1,8,0,0,1.08239X$1,22.5*
%
%ADD10C,0.006000*%
%ADD11C,0.060000*%
%ADD12C,0.064000*%
%ADD13C,0.076000*%
%ADD14R,0.076000X0.076000*%
%ADD15C,0.065000*%
%ADD16C,0.170000*%
%ADD17R,0.095000X0.095000*%
%ADD18C,0.095000*%
%ADD19C,0.066000*%
%ADD20OC8,0.066000*%
%ADD21C,0.074000*%
%ADD22C,0.100000*%
%ADD23C,0.010000*%
%ADD24C,0.016000*%
D10*
X00949333Y04203000D02*
X00938657Y04213676D01*
X00938657Y04256379D01*
X00949333Y04267055D01*
X00981360Y04267055D01*
X00981360Y04203000D01*
X00949333Y04203000D01*
X01003112Y04203000D02*
X01024464Y04224352D01*
X01013788Y04224352D02*
X01045815Y04224352D01*
X01045815Y04203000D02*
X01045815Y04267055D01*
X01013788Y04267055D01*
X01003112Y04256379D01*
X01003112Y04235027D01*
X01013788Y04224352D01*
X01067567Y04235027D02*
X01110270Y04235027D01*
X01110270Y04245703D02*
X01088919Y04267055D01*
X01067567Y04245703D01*
X01067567Y04203000D01*
X01110270Y04203000D02*
X01110270Y04245703D01*
X01132022Y04256379D02*
X01132022Y04213676D01*
X01142698Y04203000D01*
X01164049Y04203000D01*
X01174725Y04213676D01*
X01174725Y04256379D01*
X01164049Y04267055D01*
X01142698Y04267055D01*
X01132022Y04256379D01*
X01196477Y04256379D02*
X01196477Y04245703D01*
X01207153Y04235027D01*
X01239180Y04235027D01*
X01239180Y04203000D02*
X01207153Y04203000D01*
X01196477Y04213676D01*
X01196477Y04224352D01*
X01207153Y04235027D01*
X01196477Y04256379D02*
X01207153Y04267055D01*
X01239180Y04267055D01*
X01239180Y04203000D01*
X01260932Y04203000D02*
X01260932Y04267055D01*
X01282284Y04224352D02*
X01260932Y04203000D01*
X01282284Y04224352D02*
X01303635Y04203000D01*
X01303635Y04267055D01*
X01325387Y04256379D02*
X01336063Y04267055D01*
X01357414Y04267055D01*
X01368090Y04256379D01*
X01368090Y04213676D01*
X01357414Y04203000D01*
X01336063Y04203000D01*
X01325387Y04213676D01*
X01325387Y04256379D01*
X01389842Y04267055D02*
X01389842Y04203000D01*
X01432545Y04267055D01*
X01432545Y04203000D01*
X01454297Y04213676D02*
X01454297Y04224352D01*
X01464973Y04235027D01*
X01486324Y04235027D01*
X01497000Y04245703D01*
X01497000Y04256379D01*
X01486324Y04267055D01*
X01464973Y04267055D01*
X01454297Y04256379D01*
X01454297Y04213676D02*
X01464973Y04203000D01*
X01486324Y04203000D01*
X01497000Y04213676D01*
D11*
X02220000Y01050000D02*
X02280000Y01050000D01*
X02280000Y00950000D02*
X02220000Y00950000D01*
X02220000Y00850000D02*
X02280000Y00850000D01*
X01250000Y00780000D02*
X01250000Y00720000D01*
X01150000Y00720000D02*
X01150000Y00780000D01*
X01050000Y00780000D02*
X01050000Y00720000D01*
X00950000Y00720000D02*
X00950000Y00780000D01*
X00850000Y00780000D02*
X00850000Y00720000D01*
X00750000Y00720000D02*
X00750000Y00780000D01*
X00650000Y00780000D02*
X00650000Y00720000D01*
X00480000Y00850000D02*
X00420000Y00850000D01*
X00420000Y00950000D02*
X00480000Y00950000D01*
X00480000Y01050000D02*
X00420000Y01050000D01*
D12*
X00650000Y01850000D03*
X00750000Y01850000D03*
X00850000Y01850000D03*
X00950000Y01850000D03*
X01050000Y01850000D03*
X01150000Y01850000D03*
X01250000Y01850000D03*
X01350000Y01850000D03*
X01450000Y01850000D03*
X01550000Y01850000D03*
X01650000Y01850000D03*
X01750000Y01850000D03*
X01850000Y01850000D03*
X01950000Y01850000D03*
X01950000Y02150000D03*
X01850000Y02150000D03*
X01750000Y02150000D03*
X01650000Y02150000D03*
X01550000Y02150000D03*
X01450000Y02150000D03*
X01350000Y02150000D03*
X01250000Y02150000D03*
X01150000Y02150000D03*
X01050000Y02150000D03*
X00950000Y02150000D03*
X00850000Y02150000D03*
X00750000Y02150000D03*
X00650000Y02150000D03*
D13*
X00001575Y01450000D03*
X02448425Y01650000D03*
X02448425Y02200000D03*
X02700000Y01048425D03*
D14*
X02700000Y00851575D03*
X02251575Y01650000D03*
X02251575Y02200000D03*
X00198425Y01450000D03*
D15*
X01150000Y01650000D03*
X01350000Y01650000D03*
D16*
X00239370Y02000000D03*
X00121260Y01814961D03*
X00003150Y02000000D03*
D17*
X02750000Y01800000D03*
D18*
X02750000Y01996850D03*
X02750000Y02193701D03*
D19*
X02559843Y02789764D03*
X02459843Y02789764D03*
X02359843Y02789764D03*
X02259843Y02789764D03*
X02159843Y02789764D03*
X02059843Y02789764D03*
X01959843Y02789764D03*
X01859843Y02789764D03*
X01759843Y02789764D03*
X01659843Y02789764D03*
X01559843Y02789764D03*
X01459843Y02789764D03*
X01359843Y02789764D03*
X01259843Y02789764D03*
X01159843Y02789764D03*
X01059843Y02789764D03*
D20*
X01800000Y01500000D03*
X01900000Y01500000D03*
D21*
X02350000Y02550000D03*
X02450000Y02550000D03*
X01300000Y02550000D03*
X01200000Y02550000D03*
X00250000Y02550000D03*
X00150000Y02550000D03*
D22*
X00450000Y02127953D03*
X00450000Y01872047D03*
D23*
X00450000Y02124000D02*
X00450000Y02127953D01*
X00450000Y02124000D02*
X00126000Y02124000D01*
X00009000Y02007000D01*
X00003150Y02000000D01*
X00150000Y02550000D02*
X00153000Y02556000D01*
X00180000Y02556000D01*
X00360000Y02736000D01*
X01107000Y02736000D01*
X01152000Y02781000D01*
X01159843Y02789764D01*
X01251000Y02781000D02*
X01259843Y02789764D01*
X01251000Y02781000D02*
X00799000Y02529000D01*
X00799000Y02133000D01*
X00756000Y01890000D01*
X00756000Y01854000D01*
X00750000Y01850000D01*
X00850000Y01850000D02*
X00855000Y01854000D01*
X00855000Y01890000D01*
X01098000Y02133000D01*
X01098000Y02520000D01*
X01314000Y02736000D01*
X01413000Y02736000D01*
X01458000Y02781000D01*
X01459843Y02789764D01*
X01251000Y02601000D02*
X01200000Y02550000D01*
X01251000Y02601000D02*
X01944000Y02601000D01*
X02124000Y02781000D01*
X02151000Y02781000D01*
X02159843Y02789764D01*
X02259000Y02781000D02*
X02259843Y02789764D01*
X02259000Y02781000D02*
X01656000Y02178000D01*
X01656000Y02151000D01*
X01650000Y02150000D01*
X01773000Y02097000D02*
X01503000Y02097000D01*
X01450000Y02150000D01*
X01251000Y02142000D02*
X01251000Y01953000D01*
X01350000Y01854000D01*
X01350000Y01850000D01*
X01150000Y01850000D02*
X01143000Y01845000D01*
X00657000Y01359000D01*
X00657000Y00756000D01*
X00650000Y00750000D01*
X00603000Y00702000D02*
X00630000Y00675000D01*
X01629000Y00675000D01*
X02682000Y01728000D01*
X02682000Y01926000D01*
X02745000Y01989000D01*
X02750000Y01996850D01*
X02448000Y02196000D02*
X02448425Y02200000D01*
X02448000Y02196000D02*
X02448000Y01656000D01*
X02448425Y01650000D01*
X02251575Y01650000D02*
X02250000Y01656000D01*
X02250000Y02196000D01*
X02251575Y02200000D01*
X01998000Y01872000D02*
X01773000Y02097000D01*
X01827000Y01899000D02*
X01899000Y01899000D01*
X01944000Y01854000D01*
X01950000Y01850000D01*
X01998000Y01872000D02*
X01998000Y01827000D01*
X01800000Y01629000D01*
X01800000Y01500000D01*
X01800000Y01836000D02*
X01800000Y01872000D01*
X01827000Y01899000D01*
X01850000Y01850000D02*
X01251000Y01251000D01*
X01251000Y00756000D01*
X01250000Y00750000D01*
X01053000Y00756000D02*
X01050000Y00750000D01*
X01053000Y00756000D02*
X01053000Y01089000D01*
X01800000Y01836000D01*
X01750000Y01850000D02*
X01746000Y01845000D01*
X00855000Y00954000D01*
X00855000Y00756000D01*
X00850000Y00750000D01*
X00603000Y00702000D02*
X00603000Y00891000D01*
X00450000Y01044000D01*
X00450000Y01050000D01*
X00450000Y00855000D02*
X00450000Y00850000D01*
X00450000Y00855000D02*
X00207000Y01098000D01*
X00207000Y01449000D01*
X00198425Y01450000D01*
X01251000Y02142000D02*
X01250000Y02150000D01*
X02350000Y02550000D02*
X02358000Y02556000D01*
X02556000Y02754000D01*
X02556000Y02781000D01*
X02559843Y02789764D01*
X02700000Y01048425D02*
X02700000Y01044000D01*
X02610000Y00954000D01*
X02250000Y00954000D01*
X02250000Y00950000D01*
D24*
X-00246572Y00657159D02*
X-00251860Y00648000D01*
X02989008Y00648000D01*
X02989008Y04145545D01*
X02964612Y04139008D01*
X02935388Y04139008D01*
X02907159Y04146572D01*
X02881849Y04161184D01*
X02861184Y04181849D01*
X02846572Y04207159D01*
X02839008Y04235388D01*
X02839008Y04264612D01*
X02846572Y04292841D01*
X02851632Y04301606D01*
X-00402000Y04301606D01*
X-00402000Y00798140D01*
X-00392841Y00803428D01*
X-00364612Y00810992D01*
X-00335388Y00810992D01*
X-00307159Y00803428D01*
X-00281849Y00788816D01*
X-00261184Y00768151D01*
X-00246572Y00742841D01*
X-00239008Y00714612D01*
X-00239008Y00685388D01*
X-00246572Y00657159D01*
X-00247276Y00655939D02*
X00619362Y00655939D01*
X00621301Y00654000D02*
X01637698Y00654000D01*
X02690698Y01707000D01*
X02703000Y01719301D01*
X02703000Y01736500D01*
X02804127Y01736500D01*
X02813500Y01745873D01*
X02813500Y01854127D01*
X02804127Y01863500D01*
X02703000Y01863500D01*
X02703000Y01917302D01*
X02724415Y01938716D01*
X02737369Y01933350D01*
X02762631Y01933350D01*
X02785970Y01943018D01*
X02803833Y01960881D01*
X02813500Y01984219D01*
X02813500Y02009481D01*
X02803833Y02032820D01*
X02785970Y02050683D01*
X02762631Y02060350D01*
X02737369Y02060350D01*
X02714030Y02050683D01*
X02696167Y02032820D01*
X02686500Y02009481D01*
X02686500Y01984219D01*
X02693536Y01967234D01*
X02673302Y01947000D01*
X02673301Y01947000D01*
X02661000Y01934698D01*
X02661000Y01736698D01*
X01826219Y00901917D01*
X01833000Y00927224D01*
X01833000Y00972776D01*
X01821210Y01016775D01*
X01798434Y01056224D01*
X01766224Y01088434D01*
X01726775Y01111210D01*
X01682776Y01123000D01*
X01637224Y01123000D01*
X01593224Y01111210D01*
X01553775Y01088434D01*
X01521566Y01056224D01*
X01498790Y01016775D01*
X01487000Y00972776D01*
X01487000Y00927224D01*
X01498790Y00883224D01*
X01521566Y00843775D01*
X01553775Y00811566D01*
X01593224Y00788790D01*
X01637224Y00777000D01*
X01682776Y00777000D01*
X01708083Y00783781D01*
X01620301Y00696000D01*
X01289849Y00696000D01*
X01296000Y00710850D01*
X01296000Y00789150D01*
X01288997Y00806057D01*
X01276057Y00818997D01*
X01272000Y00820677D01*
X01272000Y01242301D01*
X01834262Y01804564D01*
X01840452Y01802000D01*
X01859548Y01802000D01*
X01877190Y01809308D01*
X01890692Y01822810D01*
X01898000Y01840452D01*
X01898000Y01859548D01*
X01890692Y01877190D01*
X01889882Y01878000D01*
X01890301Y01878000D01*
X01903978Y01864323D01*
X01902000Y01859548D01*
X01902000Y01840452D01*
X01909308Y01822810D01*
X01922810Y01809308D01*
X01940452Y01802000D01*
X01943302Y01802000D01*
X01779000Y01637698D01*
X01779000Y01548296D01*
X01751000Y01520296D01*
X01751000Y01479703D01*
X01779703Y01451000D01*
X01820296Y01451000D01*
X01849000Y01479703D01*
X01849000Y01520296D01*
X01821000Y01548296D01*
X01821000Y01620301D01*
X02006698Y01806000D01*
X02019000Y01818301D01*
X02019000Y01880698D01*
X01794000Y02105698D01*
X01783790Y02115908D01*
X01790692Y02122810D01*
X01798000Y02140452D01*
X01798000Y02159548D01*
X01790692Y02177190D01*
X01777190Y02190692D01*
X01759548Y02198000D01*
X01740452Y02198000D01*
X01722810Y02190692D01*
X01709308Y02177190D01*
X01702000Y02159548D01*
X01702000Y02140452D01*
X01709308Y02122810D01*
X01714118Y02118000D01*
X01685882Y02118000D01*
X01690692Y02122810D01*
X01698000Y02140452D01*
X01698000Y02159548D01*
X01690692Y02177190D01*
X01687790Y02180092D01*
X02248941Y02741242D01*
X02250096Y02740764D01*
X02269589Y02740764D01*
X02287599Y02748224D01*
X02301383Y02762008D01*
X02308842Y02780017D01*
X02308842Y02799510D01*
X02301383Y02817520D01*
X02287599Y02831304D01*
X02269589Y02838764D01*
X02250096Y02838764D01*
X02232086Y02831304D01*
X02218302Y02817520D01*
X02210843Y02799510D01*
X02210843Y02780017D01*
X02215961Y02767660D01*
X01647302Y02199000D01*
X01647301Y02199000D01*
X01646301Y02198000D01*
X01640452Y02198000D01*
X01622810Y02190692D01*
X01609308Y02177190D01*
X01602000Y02159548D01*
X01602000Y02140452D01*
X01609308Y02122810D01*
X01614118Y02118000D01*
X01585882Y02118000D01*
X01590692Y02122810D01*
X01598000Y02140452D01*
X01598000Y02159548D01*
X01590692Y02177190D01*
X01577190Y02190692D01*
X01559548Y02198000D01*
X01540452Y02198000D01*
X01522810Y02190692D01*
X01509308Y02177190D01*
X01502000Y02159548D01*
X01502000Y02140452D01*
X01509308Y02122810D01*
X01514118Y02118000D01*
X01511698Y02118000D01*
X01495436Y02134262D01*
X01498000Y02140452D01*
X01498000Y02159548D01*
X01490692Y02177190D01*
X01477190Y02190692D01*
X01459548Y02198000D01*
X01440452Y02198000D01*
X01422810Y02190692D01*
X01409308Y02177190D01*
X01402000Y02159548D01*
X01402000Y02140452D01*
X01409308Y02122810D01*
X01422810Y02109308D01*
X01440452Y02102000D01*
X01459548Y02102000D01*
X01465738Y02104564D01*
X01494301Y02076000D01*
X01764301Y02076000D01*
X01942302Y01898000D01*
X01940452Y01898000D01*
X01932848Y01894850D01*
X01907698Y01920000D01*
X01818301Y01920000D01*
X01806000Y01907698D01*
X01783092Y01884790D01*
X01777190Y01890692D01*
X01759548Y01898000D01*
X01740452Y01898000D01*
X01722810Y01890692D01*
X01709308Y01877190D01*
X01702000Y01859548D01*
X01702000Y01840452D01*
X01704857Y01833555D01*
X00834000Y00962698D01*
X00834000Y00823163D01*
X00823943Y00818997D01*
X00811003Y00806057D01*
X00804000Y00789150D01*
X00804000Y00710850D01*
X00810151Y00696000D01*
X00789849Y00696000D01*
X00796000Y00710850D01*
X00796000Y00789150D01*
X00788997Y00806057D01*
X00776057Y00818997D01*
X00759150Y00826000D01*
X00740850Y00826000D01*
X00723943Y00818997D01*
X00711003Y00806057D01*
X00704000Y00789150D01*
X00704000Y00710850D01*
X00710151Y00696000D01*
X00689849Y00696000D01*
X00696000Y00710850D01*
X00696000Y00789150D01*
X00688997Y00806057D01*
X00678000Y00817054D01*
X00678000Y01350301D01*
X01132848Y01805150D01*
X01140452Y01802000D01*
X01159548Y01802000D01*
X01177190Y01809308D01*
X01190692Y01822810D01*
X01198000Y01840452D01*
X01198000Y01859548D01*
X01190692Y01877190D01*
X01177190Y01890692D01*
X01159548Y01898000D01*
X01140452Y01898000D01*
X01122810Y01890692D01*
X01109308Y01877190D01*
X01102000Y01859548D01*
X01102000Y01840452D01*
X01103978Y01835677D01*
X00636000Y01367698D01*
X00636000Y00823991D01*
X00624000Y00819020D01*
X00624000Y00899698D01*
X00611698Y00912000D01*
X00509376Y01014322D01*
X00518997Y01023943D01*
X00526000Y01040850D01*
X00526000Y01059150D01*
X00518997Y01076057D01*
X00506057Y01088997D01*
X00489150Y01096000D01*
X00410850Y01096000D01*
X00393943Y01088997D01*
X00381003Y01076057D01*
X00374000Y01059150D01*
X00374000Y01040850D01*
X00381003Y01023943D01*
X00393943Y01011003D01*
X00410850Y01004000D01*
X00460301Y01004000D01*
X00466302Y00998000D01*
X00452000Y00998000D01*
X00452000Y00952001D01*
X00448000Y00952001D01*
X00448000Y00998000D01*
X00416222Y00998000D01*
X00408760Y00996818D01*
X00401574Y00994483D01*
X00394843Y00991053D01*
X00388730Y00986612D01*
X00383388Y00981270D01*
X00378947Y00975157D01*
X00375517Y00968426D01*
X00373250Y00961448D01*
X00228000Y01106698D01*
X00228000Y01396000D01*
X00243053Y01396000D01*
X00252425Y01405373D01*
X00252425Y01494627D01*
X00243053Y01504000D01*
X00153798Y01504000D01*
X00144425Y01494627D01*
X00144425Y01405373D01*
X00153798Y01396000D01*
X00186000Y01396000D01*
X00186000Y01089301D01*
X00198301Y01077000D01*
X00390124Y00885178D01*
X00381003Y00876057D01*
X00374000Y00859150D01*
X00374000Y00840850D01*
X00381003Y00823943D01*
X00393943Y00811003D01*
X00410850Y00804000D01*
X00489150Y00804000D01*
X00506057Y00811003D01*
X00518997Y00823943D01*
X00526000Y00840850D01*
X00526000Y00859150D01*
X00518997Y00876057D01*
X00506057Y00888997D01*
X00489150Y00896000D01*
X00438698Y00896000D01*
X00432698Y00902000D01*
X00448000Y00902000D01*
X00448000Y00947999D01*
X00452000Y00947999D01*
X00452000Y00902000D01*
X00483778Y00902000D01*
X00491240Y00903182D01*
X00498426Y00905517D01*
X00505157Y00908947D01*
X00511270Y00913388D01*
X00516612Y00918730D01*
X00521053Y00924843D01*
X00524483Y00931574D01*
X00526505Y00937797D01*
X00582000Y00882301D01*
X00582000Y00693301D01*
X00609000Y00666301D01*
X00621301Y00654000D01*
X00603363Y00671938D02*
X-00242612Y00671938D01*
X-00239008Y00687937D02*
X00587365Y00687937D01*
X00582000Y00703935D02*
X-00239008Y00703935D01*
X-00240434Y00719934D02*
X00582000Y00719934D01*
X00582000Y00735932D02*
X-00244720Y00735932D01*
X-00251820Y00751931D02*
X00582000Y00751931D01*
X00582000Y00767929D02*
X-00261056Y00767929D01*
X-00276961Y00783928D02*
X-00188630Y00783928D01*
X-00206775Y00788790D02*
X-00162776Y00777000D01*
X-00117224Y00777000D01*
X-00073224Y00788790D01*
X-00033775Y00811566D01*
X-00001566Y00843775D01*
X00021210Y00883224D01*
X00033000Y00927224D01*
X00033000Y00972776D01*
X00021210Y01016775D01*
X-00001566Y01056224D01*
X-00033775Y01088434D01*
X-00073224Y01111210D01*
X-00117224Y01123000D01*
X-00162776Y01123000D01*
X-00206775Y01111210D01*
X-00246224Y01088434D01*
X-00278434Y01056224D01*
X-00301210Y01016775D01*
X-00313000Y00972776D01*
X-00313000Y00927224D01*
X-00301210Y00883224D01*
X-00278434Y00843775D01*
X-00246224Y00811566D01*
X-00206775Y00788790D01*
X-00226065Y00799926D02*
X-00301093Y00799926D01*
X-00266582Y00831923D02*
X-00402000Y00831923D01*
X-00402000Y00815925D02*
X-00250584Y00815925D01*
X-00280828Y00847922D02*
X-00402000Y00847922D01*
X-00402000Y00863920D02*
X-00290065Y00863920D01*
X-00299302Y00879919D02*
X-00402000Y00879919D01*
X-00402000Y00895917D02*
X-00304611Y00895917D01*
X-00308898Y00911916D02*
X-00402000Y00911916D01*
X-00402000Y00927914D02*
X-00313000Y00927914D01*
X-00313000Y00943913D02*
X-00402000Y00943913D01*
X-00402000Y00959911D02*
X-00313000Y00959911D01*
X-00312160Y00975910D02*
X-00402000Y00975910D01*
X-00402000Y00991908D02*
X-00307873Y00991908D01*
X-00303586Y01007907D02*
X-00402000Y01007907D01*
X-00402000Y01023906D02*
X-00297094Y01023906D01*
X-00287857Y01039904D02*
X-00402000Y01039904D01*
X-00402000Y01055903D02*
X-00278620Y01055903D01*
X-00262758Y01071901D02*
X-00402000Y01071901D01*
X-00402000Y01087900D02*
X-00246759Y01087900D01*
X-00219440Y01103898D02*
X-00402000Y01103898D01*
X-00402000Y01119897D02*
X-00174357Y01119897D01*
X-00105643Y01119897D02*
X00186000Y01119897D01*
X00186000Y01135895D02*
X-00402000Y01135895D01*
X-00402000Y01151894D02*
X00186000Y01151894D01*
X00186000Y01167892D02*
X-00402000Y01167892D01*
X-00402000Y01183891D02*
X00186000Y01183891D01*
X00186000Y01199889D02*
X-00402000Y01199889D01*
X-00402000Y01215888D02*
X00186000Y01215888D01*
X00186000Y01231886D02*
X-00402000Y01231886D01*
X-00402000Y01247885D02*
X00186000Y01247885D01*
X00186000Y01263883D02*
X-00402000Y01263883D01*
X-00402000Y01279882D02*
X00186000Y01279882D01*
X00186000Y01295880D02*
X-00402000Y01295880D01*
X-00402000Y01311879D02*
X00186000Y01311879D01*
X00186000Y01327877D02*
X-00402000Y01327877D01*
X-00402000Y01343876D02*
X00186000Y01343876D01*
X00186000Y01359875D02*
X-00402000Y01359875D01*
X-00402000Y01375873D02*
X00186000Y01375873D01*
X00186000Y01391872D02*
X-00402000Y01391872D01*
X-00402000Y01407870D02*
X-00035491Y01407870D01*
X-00034907Y01407286D02*
X-00027776Y01402104D01*
X-00019922Y01398103D01*
X-00011539Y01395379D01*
X-00002832Y01394000D01*
X00000716Y01394000D01*
X00000716Y01449141D01*
X00002433Y01449141D01*
X00002433Y01394000D01*
X00005982Y01394000D01*
X00014688Y01395379D01*
X00023071Y01398103D01*
X00030925Y01402104D01*
X00038056Y01407286D01*
X00044289Y01413518D01*
X00049470Y01420649D01*
X00053472Y01428503D01*
X00056196Y01436887D01*
X00057575Y01445593D01*
X00057575Y01449141D01*
X00002434Y01449141D01*
X00002434Y01450858D01*
X00057575Y01450858D01*
X00057575Y01454407D01*
X00056196Y01463113D01*
X00053472Y01471496D01*
X00049470Y01479350D01*
X00044289Y01486481D01*
X00038056Y01492714D01*
X00030925Y01497895D01*
X00023071Y01501897D01*
X00014688Y01504621D01*
X00005982Y01506000D01*
X00002433Y01506000D01*
X00002433Y01450859D01*
X00000716Y01450859D01*
X00000716Y01506000D01*
X-00002832Y01506000D01*
X-00011539Y01504621D01*
X-00019922Y01501897D01*
X-00027776Y01497895D01*
X-00034907Y01492714D01*
X-00041140Y01486481D01*
X-00046321Y01479350D01*
X-00050322Y01471496D01*
X-00053046Y01463113D01*
X-00054425Y01454407D01*
X-00054425Y01450858D01*
X00000716Y01450858D01*
X00000716Y01449141D01*
X-00054425Y01449141D01*
X-00054425Y01445593D01*
X-00053046Y01436887D01*
X-00050322Y01428503D01*
X-00046321Y01420649D01*
X-00041140Y01413518D01*
X-00034907Y01407286D01*
X-00047961Y01423869D02*
X-00402000Y01423869D01*
X-00402000Y01439867D02*
X-00053518Y01439867D01*
X-00054194Y01455866D02*
X-00402000Y01455866D01*
X-00402000Y01471864D02*
X-00050135Y01471864D01*
X-00039758Y01487863D02*
X-00402000Y01487863D01*
X-00402000Y01503861D02*
X-00013877Y01503861D01*
X00000716Y01503861D02*
X00002433Y01503861D01*
X00017026Y01503861D02*
X00153659Y01503861D01*
X00144425Y01487863D02*
X00042908Y01487863D01*
X00053285Y01471864D02*
X00144425Y01471864D01*
X00144425Y01455866D02*
X00057344Y01455866D01*
X00056668Y01439867D02*
X00144425Y01439867D01*
X00144425Y01423869D02*
X00051110Y01423869D01*
X00038641Y01407870D02*
X00144425Y01407870D01*
X00228000Y01391872D02*
X00660173Y01391872D01*
X00676172Y01407870D02*
X00252425Y01407870D01*
X00252425Y01423869D02*
X00692170Y01423869D01*
X00708169Y01439867D02*
X00252425Y01439867D01*
X00252425Y01455866D02*
X00724167Y01455866D01*
X00740166Y01471864D02*
X00252425Y01471864D01*
X00252425Y01487863D02*
X00756164Y01487863D01*
X00772163Y01503861D02*
X00243191Y01503861D01*
X00228000Y01375873D02*
X00644175Y01375873D01*
X00636000Y01359875D02*
X00228000Y01359875D01*
X00228000Y01343876D02*
X00636000Y01343876D01*
X00636000Y01327877D02*
X00228000Y01327877D01*
X00228000Y01311879D02*
X00636000Y01311879D01*
X00636000Y01295880D02*
X00228000Y01295880D01*
X00228000Y01279882D02*
X00636000Y01279882D01*
X00636000Y01263883D02*
X00228000Y01263883D01*
X00228000Y01247885D02*
X00636000Y01247885D01*
X00636000Y01231886D02*
X00228000Y01231886D01*
X00228000Y01215888D02*
X00636000Y01215888D01*
X00636000Y01199889D02*
X00228000Y01199889D01*
X00228000Y01183891D02*
X00636000Y01183891D01*
X00636000Y01167892D02*
X00228000Y01167892D01*
X00228000Y01151894D02*
X00636000Y01151894D01*
X00636000Y01135895D02*
X00228000Y01135895D01*
X00228000Y01119897D02*
X00636000Y01119897D01*
X00636000Y01103898D02*
X00230800Y01103898D01*
X00246799Y01087900D02*
X00392846Y01087900D01*
X00379282Y01071901D02*
X00262797Y01071901D01*
X00278796Y01055903D02*
X00374000Y01055903D01*
X00374392Y01039904D02*
X00294794Y01039904D01*
X00310793Y01023906D02*
X00381041Y01023906D01*
X00401418Y01007907D02*
X00326791Y01007907D01*
X00342790Y00991908D02*
X00396521Y00991908D01*
X00379494Y00975910D02*
X00358788Y00975910D01*
X00331389Y00943913D02*
X00033000Y00943913D01*
X00033000Y00959911D02*
X00315390Y00959911D01*
X00299391Y00975910D02*
X00032160Y00975910D01*
X00027873Y00991908D02*
X00283393Y00991908D01*
X00267394Y01007907D02*
X00023587Y01007907D01*
X00017094Y01023906D02*
X00251396Y01023906D01*
X00235397Y01039904D02*
X00007857Y01039904D01*
X-00001380Y01055903D02*
X00219399Y01055903D01*
X00203400Y01071901D02*
X-00017242Y01071901D01*
X-00033241Y01087900D02*
X00187402Y01087900D01*
X00186000Y01103898D02*
X-00060559Y01103898D01*
X00033000Y00927914D02*
X00347387Y00927914D01*
X00363386Y00911916D02*
X00028898Y00911916D01*
X00024611Y00895917D02*
X00379384Y00895917D01*
X00384865Y00879919D02*
X00019302Y00879919D01*
X00010065Y00863920D02*
X00375976Y00863920D01*
X00374000Y00847922D02*
X00000828Y00847922D01*
X-00013418Y00831923D02*
X00377697Y00831923D01*
X00389021Y00815925D02*
X-00029416Y00815925D01*
X-00053935Y00799926D02*
X00582000Y00799926D01*
X00582000Y00783928D02*
X-00091370Y00783928D01*
X-00398906Y00799926D02*
X-00402000Y00799926D01*
X00000716Y01407870D02*
X00002433Y01407870D01*
X00002433Y01423869D02*
X00000716Y01423869D01*
X00000716Y01439867D02*
X00002433Y01439867D01*
X00002433Y01455866D02*
X00000716Y01455866D01*
X00000716Y01471864D02*
X00002433Y01471864D01*
X00002433Y01487863D02*
X00000716Y01487863D01*
X00081781Y01719651D02*
X00092701Y01715830D01*
X00103979Y01713256D01*
X00113260Y01712210D01*
X00113260Y01806960D01*
X00129260Y01806960D01*
X00129260Y01712210D01*
X00138540Y01713256D01*
X00149819Y01715830D01*
X00160738Y01719651D01*
X00171161Y01724671D01*
X00180957Y01730825D01*
X00190002Y01738038D01*
X00198182Y01746219D01*
X00205395Y01755264D01*
X00211550Y01765059D01*
X00216569Y01775482D01*
X00220390Y01786402D01*
X00222964Y01797680D01*
X00224010Y01806961D01*
X00129260Y01806961D01*
X00129260Y01822960D01*
X00224010Y01822960D01*
X00222964Y01832241D01*
X00220390Y01843520D01*
X00216569Y01854439D01*
X00211550Y01864862D01*
X00205395Y01874658D01*
X00198182Y01883702D01*
X00190002Y01891883D01*
X00180957Y01899096D01*
X00171161Y01905251D01*
X00160738Y01910270D01*
X00149819Y01914091D01*
X00138540Y01916665D01*
X00129260Y01917711D01*
X00129260Y01822961D01*
X00113260Y01822961D01*
X00113260Y01917711D01*
X00103979Y01916665D01*
X00092701Y01914091D01*
X00081781Y01910270D01*
X00071358Y01905251D01*
X00061563Y01899096D01*
X00052518Y01891883D01*
X00044338Y01883702D01*
X00037125Y01874658D01*
X00030970Y01864862D01*
X00025950Y01854439D01*
X00022129Y01843520D01*
X00019555Y01832241D01*
X00018509Y01822960D01*
X00113259Y01822960D01*
X00113259Y01806961D01*
X00018509Y01806961D01*
X00019555Y01797680D01*
X00022129Y01786402D01*
X00025950Y01775482D01*
X00030970Y01765059D01*
X00037125Y01755264D01*
X00044338Y01746219D01*
X00052518Y01738038D01*
X00061563Y01730825D01*
X00071358Y01724671D01*
X00081781Y01719651D01*
X00066313Y01727841D02*
X-00402000Y01727841D01*
X-00402000Y01743839D02*
X00046717Y01743839D01*
X00034250Y01759838D02*
X-00402000Y01759838D01*
X-00402000Y01775836D02*
X00025826Y01775836D01*
X00020889Y01791835D02*
X-00402000Y01791835D01*
X-00402000Y01807833D02*
X00113259Y01807833D01*
X00113260Y01791835D02*
X00129260Y01791835D01*
X00129260Y01807833D02*
X00432560Y01807833D01*
X00436872Y01806047D02*
X00463128Y01806047D01*
X00487386Y01816095D01*
X00505952Y01834661D01*
X00516000Y01858919D01*
X00516000Y01885175D01*
X00505952Y01909433D01*
X00487386Y01927999D01*
X00463128Y01938047D01*
X00436872Y01938047D01*
X00412614Y01927999D01*
X00394048Y01909433D01*
X00384000Y01885175D01*
X00384000Y01858919D01*
X00394048Y01834661D01*
X00412614Y01816095D01*
X00436872Y01806047D01*
X00467440Y01807833D02*
X00626370Y01807833D01*
X00622810Y01809308D02*
X00640452Y01802000D01*
X00659548Y01802000D01*
X00677190Y01809308D01*
X00690692Y01822810D01*
X00698000Y01840452D01*
X00698000Y01859548D01*
X00690692Y01877190D01*
X00677190Y01890692D01*
X00659548Y01898000D01*
X00640452Y01898000D01*
X00622810Y01890692D01*
X00609308Y01877190D01*
X00602000Y01859548D01*
X00602000Y01840452D01*
X00609308Y01822810D01*
X00622810Y01809308D01*
X00608884Y01823832D02*
X00495123Y01823832D01*
X00508093Y01839830D02*
X00602258Y01839830D01*
X00602000Y01855829D02*
X00514720Y01855829D01*
X00516000Y01871827D02*
X00607086Y01871827D01*
X00619944Y01887826D02*
X00514902Y01887826D01*
X00508275Y01903824D02*
X00737120Y01903824D01*
X00736474Y01900172D02*
X00735000Y01898698D01*
X00735000Y01895742D01*
X00722810Y01890692D01*
X00709308Y01877190D01*
X00702000Y01859548D01*
X00702000Y01840452D01*
X00709308Y01822810D01*
X00722810Y01809308D01*
X00740452Y01802000D01*
X00759548Y01802000D01*
X00777190Y01809308D01*
X00790692Y01822810D01*
X00798000Y01840452D01*
X00798000Y01859548D01*
X00790692Y01877190D01*
X00777410Y01890472D01*
X00817137Y02114980D01*
X00822810Y02109308D01*
X00840452Y02102000D01*
X00859548Y02102000D01*
X00877190Y02109308D01*
X00890692Y02122810D01*
X00898000Y02140452D01*
X00898000Y02159548D01*
X00890692Y02177190D01*
X00877190Y02190692D01*
X00859548Y02198000D01*
X00840452Y02198000D01*
X00822810Y02190692D01*
X00820000Y02187882D01*
X00820000Y02516665D01*
X01233951Y02747451D01*
X01250096Y02740764D01*
X01269589Y02740764D01*
X01287599Y02748224D01*
X01301383Y02762008D01*
X01308842Y02780017D01*
X01308842Y02799510D01*
X01301383Y02817520D01*
X01287599Y02831304D01*
X01269589Y02838764D01*
X01250096Y02838764D01*
X01232086Y02831304D01*
X01218302Y02817520D01*
X01210843Y02799510D01*
X01210843Y02782655D01*
X01208842Y02781539D01*
X01208842Y02799510D01*
X01201383Y02817520D01*
X01187599Y02831304D01*
X01169589Y02838764D01*
X01150096Y02838764D01*
X01132086Y02831304D01*
X01118302Y02817520D01*
X01110843Y02799510D01*
X01110843Y02780017D01*
X01113911Y02772609D01*
X01098301Y02757000D01*
X01096375Y02757000D01*
X01101383Y02762008D01*
X01108842Y02780017D01*
X01108842Y02799510D01*
X01101383Y02817520D01*
X01087599Y02831304D01*
X01069589Y02838764D01*
X01050096Y02838764D01*
X01032086Y02831304D01*
X01018302Y02817520D01*
X01010843Y02799510D01*
X01010843Y02780017D01*
X01018302Y02762008D01*
X01023310Y02757000D01*
X00351301Y02757000D01*
X00339000Y02744698D01*
X00184627Y02590326D01*
X00180022Y02594931D01*
X00160542Y02603000D01*
X00139458Y02603000D01*
X00119978Y02594931D01*
X00105069Y02580022D01*
X00097000Y02560542D01*
X00097000Y02539458D01*
X00105069Y02519978D01*
X00119978Y02505069D01*
X00139458Y02497000D01*
X00160542Y02497000D01*
X00180022Y02505069D01*
X00194931Y02519978D01*
X00200000Y02532215D01*
X00205069Y02519978D01*
X00219978Y02505069D01*
X00239458Y02497000D01*
X00260542Y02497000D01*
X00280022Y02505069D01*
X00294931Y02519978D01*
X00303000Y02539458D01*
X00303000Y02560542D01*
X00294931Y02580022D01*
X00280022Y02594931D01*
X00260542Y02603000D01*
X00256698Y02603000D01*
X00368698Y02715000D01*
X01089494Y02715000D01*
X00793541Y02550000D01*
X00790301Y02550000D01*
X00786219Y02545918D01*
X00781176Y02543106D01*
X00780291Y02539989D01*
X00778000Y02537698D01*
X00778000Y02531925D01*
X00776422Y02526371D01*
X00778000Y02523541D01*
X00778000Y02189882D01*
X00777190Y02190692D01*
X00759548Y02198000D01*
X00740452Y02198000D01*
X00722810Y02190692D01*
X00709308Y02177190D01*
X00702000Y02159548D01*
X00702000Y02140452D01*
X00709308Y02122810D01*
X00722810Y02109308D01*
X00740452Y02102000D01*
X00759548Y02102000D01*
X00773188Y02107650D01*
X00736474Y01900172D01*
X00739951Y01919823D02*
X00495562Y01919823D01*
X00468502Y01935821D02*
X00742782Y01935821D01*
X00745613Y01951820D02*
X00328178Y01951820D01*
X00333487Y01961015D02*
X00340370Y01986703D01*
X00340370Y02013297D01*
X00333487Y02038984D01*
X00320190Y02062015D01*
X00301385Y02080820D01*
X00278355Y02094117D01*
X00252667Y02101000D01*
X00226073Y02101000D01*
X00200385Y02094117D01*
X00177355Y02080820D01*
X00158550Y02062015D01*
X00145253Y02038984D01*
X00138370Y02013297D01*
X00138370Y01986703D01*
X00145253Y01961015D01*
X00158550Y01937984D01*
X00177355Y01919180D01*
X00200385Y01905883D01*
X00226073Y01899000D01*
X00252667Y01899000D01*
X00278355Y01905883D01*
X00301385Y01919180D01*
X00320190Y01937984D01*
X00333487Y01961015D01*
X00335310Y01967818D02*
X00748444Y01967818D01*
X00751275Y01983817D02*
X00339597Y01983817D01*
X00340370Y01999815D02*
X00754106Y01999815D01*
X00756937Y02015814D02*
X00339696Y02015814D01*
X00335409Y02031813D02*
X00759768Y02031813D01*
X00762599Y02047811D02*
X00328391Y02047811D01*
X00318396Y02063810D02*
X00427163Y02063810D01*
X00428095Y02063423D02*
X00419860Y02066835D01*
X00412140Y02071291D01*
X00405068Y02076718D01*
X00398765Y02083021D01*
X00393339Y02090093D01*
X00388882Y02097813D01*
X00385471Y02106048D01*
X00383164Y02114658D01*
X00382045Y02123157D01*
X00445204Y02123157D01*
X00445204Y02132748D01*
X00382045Y02132748D01*
X00383164Y02141247D01*
X00385471Y02149858D01*
X00388882Y02158093D01*
X00393339Y02165813D01*
X00398765Y02172884D01*
X00405068Y02179188D01*
X00412140Y02184614D01*
X00419860Y02189071D01*
X00428095Y02192482D01*
X00436705Y02194789D01*
X00445204Y02195908D01*
X00445204Y02132749D01*
X00454795Y02132749D01*
X00454795Y02195908D01*
X00463295Y02194789D01*
X00471905Y02192482D01*
X00480140Y02189071D01*
X00487860Y02184614D01*
X00494932Y02179188D01*
X00501235Y02172884D01*
X00506661Y02165813D01*
X00511118Y02158093D01*
X00514529Y02149858D01*
X00516836Y02141247D01*
X00517955Y02132748D01*
X00454796Y02132748D01*
X00454796Y02123157D01*
X00517955Y02123157D01*
X00516836Y02114658D01*
X00514529Y02106048D01*
X00511118Y02097813D01*
X00506661Y02090093D01*
X00501235Y02083021D01*
X00494932Y02076718D01*
X00487860Y02071291D01*
X00480140Y02066835D01*
X00471905Y02063423D01*
X00463295Y02061116D01*
X00454795Y02059997D01*
X00454795Y02123157D01*
X00445204Y02123157D01*
X00445204Y02059997D01*
X00436705Y02061116D01*
X00428095Y02063423D01*
X00445204Y02063810D02*
X00454795Y02063810D01*
X00454795Y02079808D02*
X00445204Y02079808D01*
X00445204Y02095807D02*
X00454795Y02095807D01*
X00454795Y02111805D02*
X00445204Y02111805D01*
X00445204Y02127804D02*
X-00402000Y02127804D01*
X-00402000Y02143802D02*
X00383848Y02143802D01*
X00389868Y02159801D02*
X-00402000Y02159801D01*
X-00402000Y02175799D02*
X00401680Y02175799D01*
X00426443Y02191798D02*
X-00402000Y02191798D01*
X-00402000Y02207796D02*
X00778000Y02207796D01*
X00778000Y02191798D02*
X00774521Y02191798D01*
X00778000Y02223795D02*
X-00402000Y02223795D01*
X-00402000Y02239793D02*
X00778000Y02239793D01*
X00778000Y02255792D02*
X-00402000Y02255792D01*
X-00402000Y02271790D02*
X00778000Y02271790D01*
X00778000Y02287789D02*
X-00402000Y02287789D01*
X-00402000Y02303787D02*
X00778000Y02303787D01*
X00778000Y02319786D02*
X-00402000Y02319786D01*
X-00402000Y02335784D02*
X00778000Y02335784D01*
X00778000Y02351783D02*
X-00402000Y02351783D01*
X-00402000Y02367781D02*
X00778000Y02367781D01*
X00778000Y02383780D02*
X-00402000Y02383780D01*
X-00402000Y02399779D02*
X00778000Y02399779D01*
X00778000Y02415777D02*
X-00402000Y02415777D01*
X-00402000Y02431776D02*
X00778000Y02431776D01*
X00778000Y02447774D02*
X-00402000Y02447774D01*
X-00402000Y02463773D02*
X00778000Y02463773D01*
X00778000Y02479771D02*
X-00402000Y02479771D01*
X-00402000Y02495770D02*
X00778000Y02495770D01*
X00778000Y02511768D02*
X00286721Y02511768D01*
X00298157Y02527767D02*
X00776819Y02527767D01*
X00782359Y02543765D02*
X00303000Y02543765D01*
X00303000Y02559764D02*
X00811054Y02559764D01*
X00839750Y02575762D02*
X00296696Y02575762D01*
X00283192Y02591761D02*
X00868446Y02591761D01*
X00897142Y02607759D02*
X00261458Y02607759D01*
X00277456Y02623758D02*
X00925838Y02623758D01*
X00954533Y02639756D02*
X00293455Y02639756D01*
X00309453Y02655755D02*
X00983229Y02655755D01*
X01011925Y02671753D02*
X00325452Y02671753D01*
X00341450Y02687752D02*
X01040621Y02687752D01*
X01069316Y02703750D02*
X00357449Y02703750D01*
X00330049Y02735748D02*
X-00093530Y02735748D01*
X-00093965Y02734697D02*
X-00079165Y02770427D01*
X-00079165Y02809101D01*
X-00093965Y02844830D01*
X-00121311Y02872177D01*
X-00157041Y02886976D01*
X-00195715Y02886976D01*
X-00231444Y02872177D01*
X-00258791Y02844830D01*
X-00273590Y02809101D01*
X-00273590Y02770427D01*
X-00258791Y02734697D01*
X-00231444Y02707351D01*
X-00195715Y02692551D01*
X-00157041Y02692551D01*
X-00121311Y02707351D01*
X-00093965Y02734697D01*
X-00086903Y02751746D02*
X00346048Y02751746D01*
X00314051Y02719749D02*
X-00108913Y02719749D01*
X-00130004Y02703750D02*
X00298052Y02703750D01*
X00282054Y02687752D02*
X-00402000Y02687752D01*
X-00402000Y02703750D02*
X-00222752Y02703750D01*
X-00243843Y02719749D02*
X-00402000Y02719749D01*
X-00402000Y02735748D02*
X-00259226Y02735748D01*
X-00265853Y02751746D02*
X-00402000Y02751746D01*
X-00402000Y02767745D02*
X-00272479Y02767745D01*
X-00273590Y02783743D02*
X-00402000Y02783743D01*
X-00402000Y02799742D02*
X-00273590Y02799742D01*
X-00270840Y02815740D02*
X-00402000Y02815740D01*
X-00402000Y02831739D02*
X-00264213Y02831739D01*
X-00255884Y02847737D02*
X-00402000Y02847737D01*
X-00402000Y02863736D02*
X-00239885Y02863736D01*
X-00213198Y02879734D02*
X-00402000Y02879734D01*
X-00402000Y02895733D02*
X02989008Y02895733D01*
X02989008Y02911731D02*
X-00402000Y02911731D01*
X-00402000Y02927730D02*
X02989008Y02927730D01*
X02989008Y02943728D02*
X-00402000Y02943728D01*
X-00402000Y02959727D02*
X02989008Y02959727D01*
X02989008Y02975725D02*
X-00402000Y02975725D01*
X-00402000Y02991724D02*
X02989008Y02991724D01*
X02989008Y03007722D02*
X-00402000Y03007722D01*
X-00402000Y03023721D02*
X02989008Y03023721D01*
X02989008Y03039719D02*
X-00402000Y03039719D01*
X-00402000Y03055718D02*
X02989008Y03055718D01*
X02989008Y03071717D02*
X-00402000Y03071717D01*
X-00402000Y03087715D02*
X02989008Y03087715D01*
X02989008Y03103714D02*
X-00402000Y03103714D01*
X-00402000Y03119712D02*
X02989008Y03119712D01*
X02989008Y03135711D02*
X-00402000Y03135711D01*
X-00402000Y03151709D02*
X02989008Y03151709D01*
X02989008Y03167708D02*
X-00402000Y03167708D01*
X-00402000Y03183706D02*
X02989008Y03183706D01*
X02989008Y03199705D02*
X-00402000Y03199705D01*
X-00402000Y03215703D02*
X02989008Y03215703D01*
X02989008Y03231702D02*
X-00402000Y03231702D01*
X-00402000Y03247700D02*
X02989008Y03247700D01*
X02989008Y03263699D02*
X-00402000Y03263699D01*
X-00402000Y03279697D02*
X02989008Y03279697D01*
X02989008Y03295696D02*
X-00402000Y03295696D01*
X-00402000Y03311694D02*
X02989008Y03311694D01*
X02989008Y03327693D02*
X-00402000Y03327693D01*
X-00402000Y03343691D02*
X02989008Y03343691D01*
X02989008Y03359690D02*
X-00402000Y03359690D01*
X-00402000Y03375688D02*
X02989008Y03375688D01*
X02989008Y03391687D02*
X-00402000Y03391687D01*
X-00402000Y03407686D02*
X02989008Y03407686D01*
X02989008Y03423684D02*
X-00402000Y03423684D01*
X-00402000Y03439683D02*
X02989008Y03439683D01*
X02989008Y03455681D02*
X-00402000Y03455681D01*
X-00402000Y03471680D02*
X02989008Y03471680D01*
X02989008Y03487678D02*
X-00402000Y03487678D01*
X-00402000Y03503677D02*
X02989008Y03503677D01*
X02989008Y03519675D02*
X-00402000Y03519675D01*
X-00402000Y03535674D02*
X02989008Y03535674D01*
X02989008Y03551672D02*
X-00402000Y03551672D01*
X-00402000Y03567671D02*
X02989008Y03567671D01*
X02989008Y03583669D02*
X-00402000Y03583669D01*
X-00402000Y03599668D02*
X02989008Y03599668D01*
X02989008Y03615666D02*
X-00402000Y03615666D01*
X-00402000Y03631665D02*
X02989008Y03631665D01*
X02989008Y03647663D02*
X-00402000Y03647663D01*
X-00402000Y03663662D02*
X02989008Y03663662D01*
X02989008Y03679660D02*
X-00402000Y03679660D01*
X-00402000Y03695659D02*
X02989008Y03695659D01*
X02989008Y03711657D02*
X-00402000Y03711657D01*
X-00402000Y03727656D02*
X02989008Y03727656D01*
X02989008Y03743655D02*
X-00402000Y03743655D01*
X-00402000Y03759653D02*
X02989008Y03759653D01*
X02989008Y03775652D02*
X-00402000Y03775652D01*
X-00402000Y03791650D02*
X02989008Y03791650D01*
X02989008Y03807649D02*
X-00402000Y03807649D01*
X-00402000Y03823647D02*
X02989008Y03823647D01*
X02989008Y03839646D02*
X-00402000Y03839646D01*
X-00402000Y03855644D02*
X02989008Y03855644D01*
X02989008Y03871643D02*
X-00402000Y03871643D01*
X-00402000Y03887641D02*
X02989008Y03887641D01*
X02989008Y03903640D02*
X-00402000Y03903640D01*
X-00402000Y03919638D02*
X-00211684Y03919638D01*
X-00195715Y03913024D02*
X-00157041Y03913024D01*
X-00121311Y03927823D01*
X-00093965Y03955170D01*
X-00079165Y03990899D01*
X-00079165Y04029573D01*
X-00093965Y04065303D01*
X-00121311Y04092649D01*
X-00157041Y04107449D01*
X-00195715Y04107449D01*
X-00231444Y04092649D01*
X-00258791Y04065303D01*
X-00273590Y04029573D01*
X-00273590Y03990899D01*
X-00258791Y03955170D01*
X-00231444Y03927823D01*
X-00195715Y03913024D01*
X-00239258Y03935637D02*
X-00402000Y03935637D01*
X-00402000Y03951635D02*
X-00255256Y03951635D01*
X-00263954Y03967634D02*
X-00402000Y03967634D01*
X-00402000Y03983632D02*
X-00270580Y03983632D01*
X-00273590Y03999631D02*
X-00402000Y03999631D01*
X-00402000Y04015629D02*
X-00273590Y04015629D01*
X-00272739Y04031628D02*
X-00402000Y04031628D01*
X-00402000Y04047626D02*
X-00266112Y04047626D01*
X-00259486Y04063625D02*
X-00402000Y04063625D01*
X-00402000Y04079624D02*
X-00244470Y04079624D01*
X-00224267Y04095622D02*
X-00402000Y04095622D01*
X-00402000Y04111621D02*
X02989008Y04111621D01*
X02989008Y04127619D02*
X-00402000Y04127619D01*
X-00402000Y04143618D02*
X02918184Y04143618D01*
X02884565Y04159616D02*
X-00402000Y04159616D01*
X-00402000Y04175615D02*
X02867419Y04175615D01*
X02855547Y04191613D02*
X01501807Y04191613D01*
X01494194Y04184000D02*
X01516000Y04205806D01*
X01516000Y04221546D01*
X01507856Y04229689D01*
X01516000Y04237833D01*
X01516000Y04264249D01*
X01504870Y04275379D01*
X01494194Y04286055D01*
X01457103Y04286055D01*
X01456944Y04285896D01*
X01449581Y04278532D01*
X01444649Y04281820D01*
X01440415Y04286055D01*
X01438298Y04286055D01*
X01436536Y04287229D01*
X01430664Y04286055D01*
X01424675Y04286055D01*
X01423178Y04284557D01*
X01421102Y04284142D01*
X01417779Y04279159D01*
X01413545Y04274925D01*
X01413545Y04272807D01*
X01408842Y04265752D01*
X01408842Y04274925D01*
X01397712Y04286055D01*
X01381972Y04286055D01*
X01373628Y04277711D01*
X01365284Y04286055D01*
X01328193Y04286055D01*
X01319849Y04277711D01*
X01311505Y04286055D01*
X01295765Y04286055D01*
X01284635Y04274925D01*
X01284635Y04243351D01*
X01279932Y04243351D01*
X01279932Y04274925D01*
X01268802Y04286055D01*
X01253062Y04286055D01*
X01250056Y04283048D01*
X01247050Y04286055D01*
X01199283Y04286055D01*
X01188607Y04275379D01*
X01188222Y04274993D01*
X01185601Y04272373D01*
X01182595Y04275379D01*
X01171919Y04286055D01*
X01134828Y04286055D01*
X01124152Y04275379D01*
X01124083Y04275310D01*
X01115808Y04267035D01*
X01107919Y04274925D01*
X01096789Y04286055D01*
X01081049Y04286055D01*
X01064815Y04269821D01*
X01064815Y04274925D01*
X01053685Y04286055D01*
X01005918Y04286055D01*
X00997574Y04277711D01*
X00989230Y04286055D01*
X00941463Y04286055D01*
X00941305Y04285896D01*
X00930787Y04275379D01*
X00930718Y04275310D01*
X00919657Y04264249D01*
X00919657Y04205805D01*
X00930402Y04195061D01*
X00930787Y04194676D01*
X00941463Y04184000D01*
X00989230Y04184000D01*
X00992236Y04187006D01*
X00995242Y04184000D01*
X01010982Y04184000D01*
X01026815Y04199833D01*
X01026815Y04195130D01*
X01037945Y04184000D01*
X01053685Y04184000D01*
X01056691Y04187006D01*
X01059697Y04184000D01*
X01075437Y04184000D01*
X01086567Y04195130D01*
X01086567Y04216027D01*
X01091270Y04216027D01*
X01091270Y04195130D01*
X01102400Y04184000D01*
X01118140Y04184000D01*
X01126484Y04192344D01*
X01134828Y04184000D01*
X01171919Y04184000D01*
X01183049Y04195130D01*
X01185601Y04197682D01*
X01188607Y04194676D01*
X01199125Y04184158D01*
X01199283Y04184000D01*
X01247050Y04184000D01*
X01250056Y04187006D01*
X01253062Y04184000D01*
X01268802Y04184000D01*
X01269038Y04184236D01*
X01282283Y04197482D01*
X01295765Y04184000D01*
X01311505Y04184000D01*
X01319849Y04192344D01*
X01328193Y04184000D01*
X01365284Y04184000D01*
X01372806Y04191522D01*
X01377737Y04188234D01*
X01381972Y04184000D01*
X01384089Y04184000D01*
X01385851Y04182826D01*
X01391723Y04184000D01*
X01397712Y04184000D01*
X01399209Y04185497D01*
X01401285Y04185912D01*
X01404607Y04190896D01*
X01408842Y04195130D01*
X01408842Y04197247D01*
X01413545Y04204302D01*
X01413545Y04195130D01*
X01424675Y04184000D01*
X01440415Y04184000D01*
X01448759Y04192344D01*
X01456944Y04184158D01*
X01457103Y04184000D01*
X01494194Y04184000D01*
X01516000Y04207612D02*
X02846450Y04207612D01*
X02842164Y04223610D02*
X01513935Y04223610D01*
X01516000Y04239609D02*
X02839008Y04239609D01*
X02839008Y04255607D02*
X01516000Y04255607D01*
X01508643Y04271606D02*
X02840882Y04271606D01*
X02845169Y04287604D02*
X-00402000Y04287604D01*
X-00402000Y04271606D02*
X00927014Y04271606D01*
X00919657Y04255607D02*
X-00402000Y04255607D01*
X-00402000Y04239609D02*
X00919657Y04239609D01*
X00919657Y04223610D02*
X-00402000Y04223610D01*
X-00402000Y04207612D02*
X00919657Y04207612D01*
X00933850Y04191613D02*
X-00402000Y04191613D01*
X-00128489Y04095622D02*
X02728489Y04095622D01*
X02721311Y04092649D02*
X02693965Y04065303D01*
X02679165Y04029573D01*
X02679165Y03990899D01*
X02693965Y03955170D01*
X02721311Y03927823D01*
X02757041Y03913024D01*
X02795715Y03913024D01*
X02831444Y03927823D01*
X02858791Y03955170D01*
X02873590Y03990899D01*
X02873590Y04029573D01*
X02858791Y04065303D01*
X02831444Y04092649D01*
X02795715Y04107449D01*
X02757041Y04107449D01*
X02721311Y04092649D01*
X02708286Y04079624D02*
X-00108286Y04079624D01*
X-00093270Y04063625D02*
X02693270Y04063625D01*
X02686643Y04047626D02*
X-00086643Y04047626D01*
X-00080016Y04031628D02*
X02680017Y04031628D01*
X02679165Y04015629D02*
X-00079165Y04015629D01*
X-00079165Y03999631D02*
X02679165Y03999631D01*
X02682175Y03983632D02*
X-00082175Y03983632D01*
X-00088802Y03967634D02*
X02688802Y03967634D01*
X02697499Y03951635D02*
X-00097499Y03951635D01*
X-00113498Y03935637D02*
X02713498Y03935637D01*
X02741072Y03919638D02*
X-00141072Y03919638D01*
X-00139557Y02879734D02*
X02739557Y02879734D01*
X02757041Y02886976D02*
X02721311Y02872177D01*
X02693965Y02844830D01*
X02679165Y02809101D01*
X02679165Y02770427D01*
X02693965Y02734697D01*
X02721311Y02707351D01*
X02757041Y02692551D01*
X02795715Y02692551D01*
X02831444Y02707351D01*
X02858791Y02734697D01*
X02873590Y02770427D01*
X02873590Y02809101D01*
X02858791Y02844830D01*
X02831444Y02872177D01*
X02795715Y02886976D01*
X02757041Y02886976D01*
X02813199Y02879734D02*
X02989008Y02879734D01*
X02989008Y02863736D02*
X02839885Y02863736D01*
X02855884Y02847737D02*
X02989008Y02847737D01*
X02989008Y02831739D02*
X02864213Y02831739D01*
X02870840Y02815740D02*
X02989008Y02815740D01*
X02989008Y02799742D02*
X02873590Y02799742D01*
X02873590Y02783743D02*
X02989008Y02783743D01*
X02989008Y02767745D02*
X02872479Y02767745D01*
X02865852Y02751746D02*
X02989008Y02751746D01*
X02989008Y02735748D02*
X02859226Y02735748D01*
X02843843Y02719749D02*
X02989008Y02719749D01*
X02989008Y02703750D02*
X02822752Y02703750D01*
X02730003Y02703750D02*
X02211449Y02703750D01*
X02195450Y02687752D02*
X02989008Y02687752D01*
X02989008Y02671753D02*
X02179452Y02671753D01*
X02163453Y02655755D02*
X02989008Y02655755D01*
X02989008Y02639756D02*
X02147455Y02639756D01*
X02131456Y02623758D02*
X02989008Y02623758D01*
X02989008Y02607759D02*
X02115458Y02607759D01*
X02099459Y02591761D02*
X02313979Y02591761D01*
X02314170Y02591952D02*
X02308048Y02585830D01*
X02302960Y02578826D01*
X02299030Y02571113D01*
X02296354Y02562879D01*
X02295000Y02554329D01*
X02295000Y02550858D01*
X02349141Y02550858D01*
X02349141Y02549141D01*
X02350858Y02549141D01*
X02350858Y02495000D01*
X02354329Y02495000D01*
X02362879Y02496354D01*
X02371113Y02499030D01*
X02378826Y02502960D01*
X02385830Y02508048D01*
X02391952Y02514170D01*
X02397040Y02521174D01*
X02400970Y02528887D01*
X02401150Y02529439D01*
X02405069Y02519978D01*
X02419978Y02505069D01*
X02439458Y02497000D01*
X02460542Y02497000D01*
X02480022Y02505069D01*
X02494931Y02519978D01*
X02503000Y02539458D01*
X02503000Y02560542D01*
X02494931Y02580022D01*
X02480022Y02594931D01*
X02460542Y02603000D01*
X02439458Y02603000D01*
X02419978Y02594931D01*
X02405069Y02580022D01*
X02401150Y02570560D01*
X02400970Y02571113D01*
X02397040Y02578826D01*
X02391952Y02585830D01*
X02385830Y02591952D01*
X02378826Y02597040D01*
X02371113Y02600970D01*
X02362879Y02603646D01*
X02354329Y02605000D01*
X02350858Y02605000D01*
X02350858Y02550859D01*
X02349141Y02550859D01*
X02349141Y02605000D01*
X02345671Y02605000D01*
X02337121Y02603646D01*
X02328887Y02600970D01*
X02321174Y02597040D01*
X02314170Y02591952D01*
X02301399Y02575762D02*
X02083461Y02575762D01*
X02067462Y02559764D02*
X02295861Y02559764D01*
X02295000Y02549141D02*
X02295000Y02545671D01*
X02296354Y02537121D01*
X02299030Y02528887D01*
X02302960Y02521174D01*
X02308048Y02514170D01*
X02314170Y02508048D01*
X02321174Y02502960D01*
X02328887Y02499030D01*
X02337121Y02496354D01*
X02345671Y02495000D01*
X02349141Y02495000D01*
X02349141Y02549141D01*
X02295000Y02549141D01*
X02295302Y02543765D02*
X02051464Y02543765D01*
X02035465Y02527767D02*
X02299600Y02527767D01*
X02310450Y02511768D02*
X02019467Y02511768D01*
X02003468Y02495770D02*
X02340812Y02495770D01*
X02349141Y02495770D02*
X02350858Y02495770D01*
X02359188Y02495770D02*
X02989008Y02495770D01*
X02989008Y02511768D02*
X02486721Y02511768D01*
X02498157Y02527767D02*
X02989008Y02527767D01*
X02989008Y02543765D02*
X02503000Y02543765D01*
X02503000Y02559764D02*
X02989008Y02559764D01*
X02989008Y02575762D02*
X02496696Y02575762D01*
X02483192Y02591761D02*
X02989008Y02591761D01*
X02989008Y02479771D02*
X01987469Y02479771D01*
X01971471Y02463773D02*
X02989008Y02463773D01*
X02989008Y02447774D02*
X01955472Y02447774D01*
X01939474Y02431776D02*
X02989008Y02431776D01*
X02989008Y02415777D02*
X01923475Y02415777D01*
X01907477Y02399779D02*
X02989008Y02399779D01*
X02989008Y02383780D02*
X01891478Y02383780D01*
X01875480Y02367781D02*
X02989008Y02367781D01*
X02989008Y02351783D02*
X01859481Y02351783D01*
X01843483Y02335784D02*
X02989008Y02335784D01*
X02989008Y02319786D02*
X01827484Y02319786D01*
X01811486Y02303787D02*
X02989008Y02303787D01*
X02989008Y02287789D02*
X01795487Y02287789D01*
X01779489Y02271790D02*
X02989008Y02271790D01*
X02989008Y02255792D02*
X02771258Y02255792D01*
X02771099Y02255858D02*
X02762806Y02258080D01*
X02754795Y02259134D01*
X02754795Y02198497D01*
X02745204Y02198497D01*
X02745204Y02259134D01*
X02737194Y02258080D01*
X02728900Y02255858D01*
X02720968Y02252572D01*
X02713532Y02248279D01*
X02706720Y02243052D01*
X02700649Y02236981D01*
X02695422Y02230169D01*
X02691129Y02222733D01*
X02687843Y02214800D01*
X02685621Y02206507D01*
X02684566Y02198496D01*
X02745204Y02198496D01*
X02745204Y02188905D01*
X02684566Y02188905D01*
X02685621Y02180895D01*
X02687843Y02172601D01*
X02691129Y02164669D01*
X02695422Y02157233D01*
X02700649Y02150421D01*
X02706720Y02144350D01*
X02713532Y02139123D01*
X02720968Y02134830D01*
X02728900Y02131544D01*
X02737194Y02129321D01*
X02745204Y02128267D01*
X02745204Y02188905D01*
X02754795Y02188905D01*
X02754795Y02128267D01*
X02762806Y02129321D01*
X02771099Y02131544D01*
X02779032Y02134830D01*
X02786468Y02139123D01*
X02793280Y02144350D01*
X02799351Y02150421D01*
X02804578Y02157233D01*
X02808871Y02164669D01*
X02812157Y02172601D01*
X02814379Y02180895D01*
X02815434Y02188905D01*
X02754796Y02188905D01*
X02754796Y02198496D01*
X02815434Y02198496D01*
X02814379Y02206507D01*
X02812157Y02214800D01*
X02808871Y02222733D01*
X02804578Y02230169D01*
X02799351Y02236981D01*
X02793280Y02243052D01*
X02786468Y02248279D01*
X02779032Y02252572D01*
X02771099Y02255858D01*
X02754795Y02255792D02*
X02745204Y02255792D01*
X02745204Y02239793D02*
X02754795Y02239793D01*
X02754795Y02223795D02*
X02745204Y02223795D01*
X02745204Y02207796D02*
X02754795Y02207796D01*
X02754796Y02191798D02*
X02989008Y02191798D01*
X02989008Y02207796D02*
X02814034Y02207796D01*
X02808258Y02223795D02*
X02989008Y02223795D01*
X02989008Y02239793D02*
X02796538Y02239793D01*
X02813014Y02175799D02*
X02989008Y02175799D01*
X02989008Y02159801D02*
X02806061Y02159801D01*
X02792566Y02143802D02*
X02989008Y02143802D01*
X02989008Y02127804D02*
X02271000Y02127804D01*
X02271000Y02143802D02*
X02707433Y02143802D01*
X02693939Y02159801D02*
X02487422Y02159801D01*
X02484907Y02157286D02*
X02491140Y02163518D01*
X02496321Y02170649D01*
X02500322Y02178503D01*
X02503046Y02186887D01*
X02504425Y02195593D01*
X02504425Y02199141D01*
X02449284Y02199141D01*
X02449284Y02200858D01*
X02504425Y02200858D01*
X02504425Y02204407D01*
X02503046Y02213113D01*
X02500322Y02221496D01*
X02496321Y02229350D01*
X02491140Y02236481D01*
X02484907Y02242714D01*
X02477776Y02247895D01*
X02469922Y02251897D01*
X02461539Y02254621D01*
X02452832Y02256000D01*
X02449283Y02256000D01*
X02449283Y02200859D01*
X02447567Y02200859D01*
X02447567Y02256000D01*
X02444018Y02256000D01*
X02435312Y02254621D01*
X02426929Y02251897D01*
X02419075Y02247895D01*
X02411944Y02242714D01*
X02405711Y02236481D01*
X02400530Y02229350D01*
X02396528Y02221496D01*
X02393804Y02213113D01*
X02392425Y02204407D01*
X02392425Y02200858D01*
X02447566Y02200858D01*
X02447566Y02199141D01*
X02392425Y02199141D01*
X02392425Y02195593D01*
X02393804Y02186887D01*
X02396528Y02178503D01*
X02400530Y02170649D01*
X02405711Y02163518D01*
X02411944Y02157286D01*
X02419075Y02152104D01*
X02426929Y02148103D01*
X02435312Y02145379D01*
X02444018Y02144000D01*
X02447567Y02144000D01*
X02447567Y02199141D01*
X02449283Y02199141D01*
X02449283Y02144000D01*
X02452832Y02144000D01*
X02461539Y02145379D01*
X02469922Y02148103D01*
X02477776Y02152104D01*
X02484907Y02157286D01*
X02498944Y02175799D02*
X02686986Y02175799D01*
X02685966Y02207796D02*
X02503888Y02207796D01*
X02503824Y02191798D02*
X02745204Y02191798D01*
X02745204Y02175799D02*
X02754795Y02175799D01*
X02754795Y02159801D02*
X02745204Y02159801D01*
X02745204Y02143802D02*
X02754795Y02143802D01*
X02691742Y02223795D02*
X02499151Y02223795D01*
X02487828Y02239793D02*
X02703461Y02239793D01*
X02728742Y02255792D02*
X02454146Y02255792D01*
X02449283Y02255792D02*
X02447567Y02255792D01*
X02442704Y02255792D02*
X01763490Y02255792D01*
X01747492Y02239793D02*
X02197575Y02239793D01*
X02197575Y02244627D02*
X02206947Y02254000D01*
X02296202Y02254000D01*
X02305575Y02244627D01*
X02305575Y02155373D01*
X02296202Y02146000D01*
X02271000Y02146000D01*
X02271000Y01704000D01*
X02296202Y01704000D01*
X02305575Y01694627D01*
X02305575Y01605373D01*
X02296202Y01596000D01*
X02206947Y01596000D01*
X02197575Y01605373D01*
X02197575Y01694627D01*
X02206947Y01704000D01*
X02229000Y01704000D01*
X02229000Y02146000D01*
X02206947Y02146000D01*
X02197575Y02155373D01*
X02197575Y02244627D01*
X02197575Y02223795D02*
X01731493Y02223795D01*
X01715495Y02207796D02*
X02197575Y02207796D01*
X02197575Y02191798D02*
X01974521Y02191798D01*
X01977190Y02190692D02*
X01959548Y02198000D01*
X01940452Y02198000D01*
X01922810Y02190692D01*
X01909308Y02177190D01*
X01902000Y02159548D01*
X01902000Y02140452D01*
X01909308Y02122810D01*
X01922810Y02109308D01*
X01940452Y02102000D01*
X01959548Y02102000D01*
X01977190Y02109308D01*
X01990692Y02122810D01*
X01998000Y02140452D01*
X01998000Y02159548D01*
X01990692Y02177190D01*
X01977190Y02190692D01*
X01991268Y02175799D02*
X02197575Y02175799D01*
X02197575Y02159801D02*
X01997895Y02159801D01*
X01998000Y02143802D02*
X02229000Y02143802D01*
X02229000Y02127804D02*
X01992761Y02127804D01*
X01979687Y02111805D02*
X02229000Y02111805D01*
X02229000Y02095807D02*
X01803892Y02095807D01*
X01787893Y02111805D02*
X01820313Y02111805D01*
X01822810Y02109308D02*
X01840452Y02102000D01*
X01859548Y02102000D01*
X01877190Y02109308D01*
X01890692Y02122810D01*
X01898000Y02140452D01*
X01898000Y02159548D01*
X01890692Y02177190D01*
X01877190Y02190692D01*
X01859548Y02198000D01*
X01840452Y02198000D01*
X01822810Y02190692D01*
X01809308Y02177190D01*
X01802000Y02159548D01*
X01802000Y02140452D01*
X01809308Y02122810D01*
X01822810Y02109308D01*
X01807239Y02127804D02*
X01792761Y02127804D01*
X01798000Y02143802D02*
X01802000Y02143802D01*
X01802105Y02159801D02*
X01797895Y02159801D01*
X01791268Y02175799D02*
X01808732Y02175799D01*
X01825479Y02191798D02*
X01774521Y02191798D01*
X01725479Y02191798D02*
X01699496Y02191798D01*
X01691268Y02175799D02*
X01708732Y02175799D01*
X01702105Y02159801D02*
X01697895Y02159801D01*
X01698000Y02143802D02*
X01702000Y02143802D01*
X01707239Y02127804D02*
X01692761Y02127804D01*
X01607239Y02127804D02*
X01592761Y02127804D01*
X01598000Y02143802D02*
X01602000Y02143802D01*
X01602105Y02159801D02*
X01597895Y02159801D01*
X01591268Y02175799D02*
X01608732Y02175799D01*
X01625479Y02191798D02*
X01574521Y02191798D01*
X01525479Y02191798D02*
X01474521Y02191798D01*
X01491268Y02175799D02*
X01508732Y02175799D01*
X01502105Y02159801D02*
X01497895Y02159801D01*
X01498000Y02143802D02*
X01502000Y02143802D01*
X01501895Y02127804D02*
X01507239Y02127804D01*
X01474495Y02095807D02*
X01090505Y02095807D01*
X01106503Y02111805D02*
X01120313Y02111805D01*
X01122810Y02109308D02*
X01140452Y02102000D01*
X01159548Y02102000D01*
X01177190Y02109308D01*
X01190692Y02122810D01*
X01198000Y02140452D01*
X01198000Y02159548D01*
X01190692Y02177190D01*
X01177190Y02190692D01*
X01159548Y02198000D01*
X01140452Y02198000D01*
X01122810Y02190692D01*
X01119000Y02186882D01*
X01119000Y02511301D01*
X01146144Y02538446D01*
X01146354Y02537121D01*
X01149030Y02528887D01*
X01152960Y02521174D01*
X01158048Y02514170D01*
X01164170Y02508048D01*
X01171174Y02502960D01*
X01178887Y02499030D01*
X01187121Y02496354D01*
X01195671Y02495000D01*
X01199141Y02495000D01*
X01199141Y02549141D01*
X01200858Y02549141D01*
X01200858Y02495000D01*
X01204329Y02495000D01*
X01212879Y02496354D01*
X01221113Y02499030D01*
X01228826Y02502960D01*
X01235830Y02508048D01*
X01241952Y02514170D01*
X01247040Y02521174D01*
X01250970Y02528887D01*
X01251150Y02529439D01*
X01255069Y02519978D01*
X01269978Y02505069D01*
X01289458Y02497000D01*
X01310542Y02497000D01*
X01330022Y02505069D01*
X01344931Y02519978D01*
X01353000Y02539458D01*
X01353000Y02560542D01*
X01344931Y02580022D01*
X01330022Y02594931D01*
X01310542Y02603000D01*
X01289458Y02603000D01*
X01269978Y02594931D01*
X01255069Y02580022D01*
X01251150Y02570561D01*
X01250970Y02571113D01*
X01247040Y02578826D01*
X01241952Y02585830D01*
X01235830Y02591952D01*
X01228826Y02597040D01*
X01221113Y02600970D01*
X01212879Y02603646D01*
X01211554Y02603855D01*
X01322698Y02715000D01*
X01421698Y02715000D01*
X01448234Y02741535D01*
X01450096Y02740764D01*
X01469589Y02740764D01*
X01487599Y02748224D01*
X01501383Y02762008D01*
X01508842Y02780017D01*
X01508842Y02799510D01*
X01501383Y02817520D01*
X01487599Y02831304D01*
X01469589Y02838764D01*
X01450096Y02838764D01*
X01432086Y02831304D01*
X01418302Y02817520D01*
X01410843Y02799510D01*
X01410843Y02780017D01*
X01415668Y02768367D01*
X01404301Y02757000D01*
X01396375Y02757000D01*
X01401383Y02762008D01*
X01408842Y02780017D01*
X01408842Y02799510D01*
X01401383Y02817520D01*
X01387599Y02831304D01*
X01369589Y02838764D01*
X01350096Y02838764D01*
X01332086Y02831304D01*
X01318302Y02817520D01*
X01310843Y02799510D01*
X01310843Y02780017D01*
X01318302Y02762008D01*
X01323310Y02757000D01*
X01305301Y02757000D01*
X01293000Y02744698D01*
X01077000Y02528698D01*
X01077000Y02190771D01*
X01059548Y02198000D01*
X01040452Y02198000D01*
X01022810Y02190692D01*
X01009308Y02177190D01*
X01002000Y02159548D01*
X01002000Y02140452D01*
X01009308Y02122810D01*
X01022810Y02109308D01*
X01038225Y02102923D01*
X00834000Y01898698D01*
X00834000Y01895327D01*
X00822810Y01890692D01*
X00809308Y01877190D01*
X00802000Y01859548D01*
X00802000Y01840452D01*
X00809308Y01822810D01*
X00822810Y01809308D01*
X00840452Y01802000D01*
X00859548Y01802000D01*
X00877190Y01809308D01*
X00890692Y01822810D01*
X00898000Y01840452D01*
X00898000Y01859548D01*
X00890692Y01877190D01*
X00881290Y01886592D01*
X01106698Y02112000D01*
X01113408Y02118710D01*
X01122810Y02109308D01*
X01179687Y02111805D02*
X01217506Y02111805D01*
X01217427Y02111862D02*
X01223794Y02107236D01*
X01230807Y02103663D01*
X01238292Y02101231D01*
X01246065Y02100000D01*
X01249999Y02100000D01*
X01249999Y02149999D01*
X01200000Y02149999D01*
X01200000Y02146065D01*
X01201231Y02138292D01*
X01203663Y02130807D01*
X01207236Y02123794D01*
X01211862Y02117427D01*
X01217427Y02111862D01*
X01205193Y02127804D02*
X01192761Y02127804D01*
X01198000Y02143802D02*
X01200358Y02143802D01*
X01200000Y02150000D02*
X01249999Y02150000D01*
X01249999Y02149999D01*
X01250000Y02149999D01*
X01250000Y02100000D01*
X01253935Y02100000D01*
X01261708Y02101231D01*
X01269193Y02103663D01*
X01276206Y02107236D01*
X01282573Y02111862D01*
X01288138Y02117427D01*
X01292764Y02123794D01*
X01296337Y02130807D01*
X01298769Y02138292D01*
X01300000Y02146065D01*
X01300000Y02149999D01*
X01250001Y02149999D01*
X01250001Y02150000D01*
X01300000Y02150000D01*
X01300000Y02153935D01*
X01298769Y02161708D01*
X01296337Y02169193D01*
X01292764Y02176206D01*
X01288138Y02182573D01*
X01282573Y02188138D01*
X01276206Y02192764D01*
X01269193Y02196337D01*
X01261708Y02198769D01*
X01253935Y02200000D01*
X01250000Y02200000D01*
X01250000Y02150001D01*
X01249999Y02150001D01*
X01249999Y02200000D01*
X01246065Y02200000D01*
X01238292Y02198769D01*
X01230807Y02196337D01*
X01223794Y02192764D01*
X01217427Y02188138D01*
X01211862Y02182573D01*
X01207236Y02176206D01*
X01203663Y02169193D01*
X01201231Y02161708D01*
X01200000Y02153935D01*
X01200000Y02150000D01*
X01200929Y02159801D02*
X01197895Y02159801D01*
X01191268Y02175799D02*
X01207029Y02175799D01*
X01222465Y02191798D02*
X01174521Y02191798D01*
X01125479Y02191798D02*
X01119000Y02191798D01*
X01119000Y02207796D02*
X01656098Y02207796D01*
X01672096Y02223795D02*
X01119000Y02223795D01*
X01119000Y02239793D02*
X01688095Y02239793D01*
X01704094Y02255792D02*
X01119000Y02255792D01*
X01119000Y02271790D02*
X01720092Y02271790D01*
X01736091Y02287789D02*
X01119000Y02287789D01*
X01119000Y02303787D02*
X01752089Y02303787D01*
X01768088Y02319786D02*
X01119000Y02319786D01*
X01119000Y02335784D02*
X01784086Y02335784D01*
X01800085Y02351783D02*
X01119000Y02351783D01*
X01119000Y02367781D02*
X01816083Y02367781D01*
X01832082Y02383780D02*
X01119000Y02383780D01*
X01119000Y02399779D02*
X01848080Y02399779D01*
X01864079Y02415777D02*
X01119000Y02415777D01*
X01119000Y02431776D02*
X01880077Y02431776D01*
X01896076Y02447774D02*
X01119000Y02447774D01*
X01119000Y02463773D02*
X01912074Y02463773D01*
X01928073Y02479771D02*
X01119000Y02479771D01*
X01119000Y02495770D02*
X01190812Y02495770D01*
X01199141Y02495770D02*
X01200858Y02495770D01*
X01209188Y02495770D02*
X01944071Y02495770D01*
X01960070Y02511768D02*
X01336721Y02511768D01*
X01348157Y02527767D02*
X01976068Y02527767D01*
X01992067Y02543765D02*
X01353000Y02543765D01*
X01353000Y02559764D02*
X02008065Y02559764D01*
X02024064Y02575762D02*
X01346696Y02575762D01*
X01333192Y02591761D02*
X02040063Y02591761D01*
X02056061Y02607759D02*
X01215458Y02607759D01*
X01231456Y02623758D02*
X02072060Y02623758D01*
X02088058Y02639756D02*
X01247455Y02639756D01*
X01263453Y02655755D02*
X02104057Y02655755D01*
X02120055Y02671753D02*
X01279452Y02671753D01*
X01295450Y02687752D02*
X02136054Y02687752D01*
X02152052Y02703750D02*
X01311449Y02703750D01*
X01284049Y02735748D02*
X01212958Y02735748D01*
X01184262Y02719749D02*
X01268051Y02719749D01*
X01252052Y02703750D02*
X01155566Y02703750D01*
X01126871Y02687752D02*
X01236054Y02687752D01*
X01220055Y02671753D02*
X01098175Y02671753D01*
X01069479Y02655755D02*
X01204056Y02655755D01*
X01188058Y02639756D02*
X01040783Y02639756D01*
X01012088Y02623758D02*
X01172059Y02623758D01*
X01156061Y02607759D02*
X00983392Y02607759D01*
X00954696Y02591761D02*
X01140062Y02591761D01*
X01124064Y02575762D02*
X00926000Y02575762D01*
X00897305Y02559764D02*
X01108065Y02559764D01*
X01092067Y02543765D02*
X00868609Y02543765D01*
X00839913Y02527767D02*
X01077000Y02527767D01*
X01077000Y02511768D02*
X00820000Y02511768D01*
X00820000Y02495770D02*
X01077000Y02495770D01*
X01077000Y02479771D02*
X00820000Y02479771D01*
X00820000Y02463773D02*
X01077000Y02463773D01*
X01077000Y02447774D02*
X00820000Y02447774D01*
X00820000Y02431776D02*
X01077000Y02431776D01*
X01077000Y02415777D02*
X00820000Y02415777D01*
X00820000Y02399779D02*
X01077000Y02399779D01*
X01077000Y02383780D02*
X00820000Y02383780D01*
X00820000Y02367781D02*
X01077000Y02367781D01*
X01077000Y02351783D02*
X00820000Y02351783D01*
X00820000Y02335784D02*
X01077000Y02335784D01*
X01077000Y02319786D02*
X00820000Y02319786D01*
X00820000Y02303787D02*
X01077000Y02303787D01*
X01077000Y02287789D02*
X00820000Y02287789D01*
X00820000Y02271790D02*
X01077000Y02271790D01*
X01077000Y02255792D02*
X00820000Y02255792D01*
X00820000Y02239793D02*
X01077000Y02239793D01*
X01077000Y02223795D02*
X00820000Y02223795D01*
X00820000Y02207796D02*
X01077000Y02207796D01*
X01077000Y02191798D02*
X01074521Y02191798D01*
X01025479Y02191798D02*
X00974521Y02191798D01*
X00977190Y02190692D02*
X00959548Y02198000D01*
X00940452Y02198000D01*
X00922810Y02190692D01*
X00909308Y02177190D01*
X00902000Y02159548D01*
X00902000Y02140452D01*
X00909308Y02122810D01*
X00922810Y02109308D01*
X00940452Y02102000D01*
X00959548Y02102000D01*
X00977190Y02109308D01*
X00990692Y02122810D01*
X00998000Y02140452D01*
X00998000Y02159548D01*
X00990692Y02177190D01*
X00977190Y02190692D01*
X00991268Y02175799D02*
X01008732Y02175799D01*
X01002105Y02159801D02*
X00997895Y02159801D01*
X00998000Y02143802D02*
X01002000Y02143802D01*
X01007239Y02127804D02*
X00992761Y02127804D01*
X00979687Y02111805D02*
X01020313Y02111805D01*
X01031108Y02095807D02*
X00813744Y02095807D01*
X00816575Y02111805D02*
X00820313Y02111805D01*
X00810914Y02079808D02*
X01015110Y02079808D01*
X00999111Y02063810D02*
X00808082Y02063810D01*
X00805251Y02047811D02*
X00983113Y02047811D01*
X00967114Y02031813D02*
X00802420Y02031813D01*
X00799589Y02015814D02*
X00951116Y02015814D01*
X00935117Y01999815D02*
X00796758Y01999815D01*
X00793927Y01983817D02*
X00919119Y01983817D01*
X00903120Y01967818D02*
X00791096Y01967818D01*
X00788265Y01951820D02*
X00887122Y01951820D01*
X00871123Y01935821D02*
X00785434Y01935821D01*
X00782603Y01919823D02*
X00855125Y01919823D01*
X00839126Y01903824D02*
X00779772Y01903824D01*
X00780056Y01887826D02*
X00819944Y01887826D01*
X00807086Y01871827D02*
X00792914Y01871827D01*
X00798000Y01855829D02*
X00802000Y01855829D01*
X00802258Y01839830D02*
X00797742Y01839830D01*
X00791115Y01823832D02*
X00808884Y01823832D01*
X00826370Y01807833D02*
X00773630Y01807833D01*
X00726370Y01807833D02*
X00673630Y01807833D01*
X00691115Y01823832D02*
X00708884Y01823832D01*
X00702258Y01839830D02*
X00697742Y01839830D01*
X00698000Y01855829D02*
X00702000Y01855829D01*
X00707086Y01871827D02*
X00692914Y01871827D01*
X00680056Y01887826D02*
X00719944Y01887826D01*
X00882524Y01887826D02*
X00919944Y01887826D01*
X00922810Y01890692D02*
X00909308Y01877190D01*
X00902000Y01859548D01*
X00902000Y01840452D01*
X00909308Y01822810D01*
X00922810Y01809308D01*
X00940452Y01802000D01*
X00959548Y01802000D01*
X00977190Y01809308D01*
X00990692Y01822810D01*
X00998000Y01840452D01*
X00998000Y01859548D01*
X00990692Y01877190D01*
X00977190Y01890692D01*
X00959548Y01898000D01*
X00940452Y01898000D01*
X00922810Y01890692D01*
X00907086Y01871827D02*
X00892914Y01871827D01*
X00898000Y01855829D02*
X00902000Y01855829D01*
X00902258Y01839830D02*
X00897742Y01839830D01*
X00891115Y01823832D02*
X00908884Y01823832D01*
X00926370Y01807833D02*
X00873630Y01807833D01*
X00898523Y01903824D02*
X01802126Y01903824D01*
X01786127Y01887826D02*
X01780056Y01887826D01*
X01818124Y01919823D02*
X00914521Y01919823D01*
X00930520Y01935821D02*
X01904480Y01935821D01*
X01907875Y01919823D02*
X01920479Y01919823D01*
X01923874Y01903824D02*
X01936477Y01903824D01*
X01963877Y01935821D02*
X02229000Y01935821D01*
X02229000Y01919823D02*
X01979875Y01919823D01*
X01995874Y01903824D02*
X02229000Y01903824D01*
X02229000Y01887826D02*
X02011873Y01887826D01*
X02019000Y01871827D02*
X02229000Y01871827D01*
X02229000Y01855829D02*
X02019000Y01855829D01*
X02019000Y01839830D02*
X02229000Y01839830D01*
X02229000Y01823832D02*
X02019000Y01823832D01*
X02008532Y01807833D02*
X02229000Y01807833D01*
X02229000Y01791835D02*
X01992533Y01791835D01*
X01976535Y01775836D02*
X02229000Y01775836D01*
X02229000Y01759838D02*
X01960536Y01759838D01*
X01944538Y01743839D02*
X02229000Y01743839D01*
X02229000Y01727841D02*
X01928539Y01727841D01*
X01912540Y01711842D02*
X02229000Y01711842D01*
X02198791Y01695844D02*
X01896542Y01695844D01*
X01880543Y01679845D02*
X02197575Y01679845D01*
X02197575Y01663846D02*
X01864545Y01663846D01*
X01848546Y01647848D02*
X02197575Y01647848D01*
X02197575Y01631849D02*
X01832548Y01631849D01*
X01821000Y01615851D02*
X02197575Y01615851D01*
X02203095Y01599852D02*
X01821000Y01599852D01*
X01821000Y01583854D02*
X02508155Y01583854D01*
X02492157Y01567855D02*
X01821000Y01567855D01*
X01821000Y01551857D02*
X02476158Y01551857D01*
X02460160Y01535858D02*
X01936266Y01535858D01*
X01951000Y01521125D02*
X01921125Y01551000D01*
X01900000Y01551000D01*
X01900000Y01500001D01*
X01899999Y01500001D01*
X01899999Y01551000D01*
X01878875Y01551000D01*
X01849000Y01521125D01*
X01849000Y01500000D01*
X01899999Y01500000D01*
X01899999Y01499999D01*
X01900000Y01499999D01*
X01900000Y01449000D01*
X01921125Y01449000D01*
X01951000Y01478875D01*
X01951000Y01499999D01*
X01900001Y01499999D01*
X01900001Y01500000D01*
X01951000Y01500000D01*
X01951000Y01521125D01*
X01951000Y01519860D02*
X02444161Y01519860D01*
X02428163Y01503861D02*
X01951000Y01503861D01*
X01951000Y01487863D02*
X02412164Y01487863D01*
X02396166Y01471864D02*
X01943989Y01471864D01*
X01927990Y01455866D02*
X02380167Y01455866D01*
X02364169Y01439867D02*
X01469565Y01439867D01*
X01453567Y01423869D02*
X02348170Y01423869D01*
X02332172Y01407870D02*
X01437568Y01407870D01*
X01421570Y01391872D02*
X02316173Y01391872D01*
X02300175Y01375873D02*
X01405571Y01375873D01*
X01389573Y01359875D02*
X02284176Y01359875D01*
X02268178Y01343876D02*
X01373574Y01343876D01*
X01357576Y01327877D02*
X02252179Y01327877D01*
X02236180Y01311879D02*
X01341577Y01311879D01*
X01325579Y01295880D02*
X02220182Y01295880D01*
X02204183Y01279882D02*
X01309580Y01279882D01*
X01293582Y01263883D02*
X02188185Y01263883D01*
X02172186Y01247885D02*
X01277583Y01247885D01*
X01272000Y01231886D02*
X02156188Y01231886D01*
X02140189Y01215888D02*
X01272000Y01215888D01*
X01272000Y01199889D02*
X02124191Y01199889D01*
X02108192Y01183891D02*
X01272000Y01183891D01*
X01272000Y01167892D02*
X02092194Y01167892D01*
X02076195Y01151894D02*
X01272000Y01151894D01*
X01272000Y01135895D02*
X02060197Y01135895D01*
X02044198Y01119897D02*
X01694357Y01119897D01*
X01739440Y01103898D02*
X02028200Y01103898D01*
X02012201Y01087900D02*
X01766759Y01087900D01*
X01782758Y01071901D02*
X01996203Y01071901D01*
X01980204Y01055903D02*
X01798620Y01055903D01*
X01807857Y01039904D02*
X01964206Y01039904D01*
X01948207Y01023906D02*
X01817094Y01023906D01*
X01823587Y01007907D02*
X01932209Y01007907D01*
X01916210Y00991908D02*
X01827873Y00991908D01*
X01832160Y00975910D02*
X01900211Y00975910D01*
X01884213Y00959911D02*
X01833000Y00959911D01*
X01833000Y00943913D02*
X01868214Y00943913D01*
X01852216Y00927914D02*
X01833000Y00927914D01*
X01836217Y00911916D02*
X01828898Y00911916D01*
X01863617Y00879919D02*
X02184865Y00879919D01*
X02181003Y00876057D02*
X02174000Y00859150D01*
X02174000Y00840850D01*
X02181003Y00823943D01*
X02193943Y00811003D01*
X02210850Y00804000D01*
X02289150Y00804000D01*
X02306057Y00811003D01*
X02318997Y00823943D01*
X02326000Y00840850D01*
X02326000Y00859150D01*
X02318997Y00876057D01*
X02306057Y00888997D01*
X02289150Y00896000D01*
X02210850Y00896000D01*
X02193943Y00888997D01*
X02181003Y00876057D01*
X02175976Y00863920D02*
X01847619Y00863920D01*
X01831620Y00847922D02*
X02174000Y00847922D01*
X02177697Y00831923D02*
X01815622Y00831923D01*
X01799623Y00815925D02*
X02189021Y00815925D01*
X02210651Y00895917D02*
X01879616Y00895917D01*
X01895614Y00911916D02*
X02190756Y00911916D01*
X02188730Y00913388D02*
X02194843Y00908947D01*
X02201574Y00905517D01*
X02208760Y00903182D01*
X02216222Y00902000D01*
X02248000Y00902000D01*
X02248000Y00947999D01*
X02252000Y00947999D01*
X02252000Y00902000D01*
X02283778Y00902000D01*
X02291240Y00903182D01*
X02298426Y00905517D01*
X02305157Y00908947D01*
X02311270Y00913388D01*
X02316612Y00918730D01*
X02321053Y00924843D01*
X02324483Y00931574D01*
X02326818Y00938760D01*
X02328000Y00946222D01*
X02328000Y00948000D01*
X02252001Y00948000D01*
X02252001Y00952000D01*
X02328000Y00952000D01*
X02328000Y00953778D01*
X02326818Y00961240D01*
X02324483Y00968426D01*
X02321053Y00975157D01*
X02316612Y00981270D01*
X02311270Y00986612D01*
X02305157Y00991053D01*
X02298426Y00994483D01*
X02291240Y00996818D01*
X02283778Y00998000D01*
X02252000Y00998000D01*
X02252000Y00952001D01*
X02248000Y00952001D01*
X02248000Y00998000D01*
X02216222Y00998000D01*
X02208760Y00996818D01*
X02201574Y00994483D01*
X02194843Y00991053D01*
X02188730Y00986612D01*
X02183388Y00981270D01*
X02178947Y00975157D01*
X02175517Y00968426D01*
X02173182Y00961240D01*
X02172000Y00953778D01*
X02172000Y00952000D01*
X02247999Y00952000D01*
X02247999Y00948000D01*
X02172000Y00948000D01*
X02172000Y00946222D01*
X02173182Y00938760D01*
X02175517Y00931574D01*
X02178947Y00924843D01*
X02183388Y00918730D01*
X02188730Y00913388D01*
X02177381Y00927914D02*
X01911613Y00927914D01*
X01927611Y00943913D02*
X02172366Y00943913D01*
X02172972Y00959911D02*
X01943610Y00959911D01*
X01959608Y00975910D02*
X02179494Y00975910D01*
X02196521Y00991908D02*
X01975607Y00991908D01*
X01991605Y01007907D02*
X02201418Y01007907D01*
X02193943Y01011003D02*
X02210850Y01004000D01*
X02289150Y01004000D01*
X02306057Y01011003D01*
X02318997Y01023943D01*
X02326000Y01040850D01*
X02326000Y01059150D01*
X02318997Y01076057D01*
X02306057Y01088997D01*
X02289150Y01096000D01*
X02210850Y01096000D01*
X02193943Y01088997D01*
X02181003Y01076057D01*
X02174000Y01059150D01*
X02174000Y01040850D01*
X02181003Y01023943D01*
X02193943Y01011003D01*
X02181041Y01023906D02*
X02007604Y01023906D01*
X02023602Y01039904D02*
X02174392Y01039904D01*
X02174000Y01055903D02*
X02039601Y01055903D01*
X02055600Y01071901D02*
X02179282Y01071901D01*
X02192846Y01087900D02*
X02071598Y01087900D01*
X02087597Y01103898D02*
X02692266Y01103898D01*
X02695593Y01104425D02*
X02686887Y01103046D01*
X02678503Y01100322D01*
X02670649Y01096321D01*
X02663518Y01091140D01*
X02657286Y01084907D01*
X02652104Y01077776D01*
X02648103Y01069922D01*
X02645379Y01061539D01*
X02644000Y01052832D01*
X02644000Y01049283D01*
X02699141Y01049283D01*
X02699141Y01047567D01*
X02644000Y01047567D01*
X02644000Y01044018D01*
X02645379Y01035312D01*
X02648103Y01026929D01*
X02652104Y01019075D01*
X02657286Y01011944D01*
X02663518Y01005711D01*
X02670649Y01000530D01*
X02678503Y00996528D01*
X02686887Y00993804D01*
X02695593Y00992425D01*
X02699141Y00992425D01*
X02699141Y01047566D01*
X02700858Y01047566D01*
X02700858Y00992425D01*
X02704407Y00992425D01*
X02713113Y00993804D01*
X02721496Y00996528D01*
X02729350Y01000530D01*
X02736481Y01005711D01*
X02742714Y01011944D01*
X02747895Y01019075D01*
X02751897Y01026929D01*
X02754621Y01035312D01*
X02756000Y01044018D01*
X02756000Y01047567D01*
X02700859Y01047567D01*
X02700859Y01049283D01*
X02756000Y01049283D01*
X02756000Y01052832D01*
X02754621Y01061539D01*
X02751897Y01069922D01*
X02747895Y01077776D01*
X02742714Y01084907D01*
X02736481Y01091140D01*
X02729350Y01096321D01*
X02721496Y01100322D01*
X02713113Y01103046D01*
X02704407Y01104425D01*
X02700858Y01104425D01*
X02700858Y01049284D01*
X02699141Y01049284D01*
X02699141Y01104425D01*
X02695593Y01104425D01*
X02699141Y01103898D02*
X02700858Y01103898D01*
X02707734Y01103898D02*
X02989008Y01103898D01*
X02989008Y01087900D02*
X02739721Y01087900D01*
X02750889Y01071901D02*
X02989008Y01071901D01*
X02989008Y01055903D02*
X02755514Y01055903D01*
X02755348Y01039904D02*
X02989008Y01039904D01*
X02989008Y01023906D02*
X02750357Y01023906D01*
X02738678Y01007907D02*
X02989008Y01007907D01*
X02989008Y00991908D02*
X02303479Y00991908D01*
X02298582Y01007907D02*
X02661322Y01007907D01*
X02649643Y01023906D02*
X02318959Y01023906D01*
X02325608Y01039904D02*
X02644652Y01039904D01*
X02644486Y01055903D02*
X02326000Y01055903D01*
X02320718Y01071901D02*
X02649111Y01071901D01*
X02660279Y01087900D02*
X02307154Y01087900D01*
X02252000Y00991908D02*
X02248000Y00991908D01*
X02248000Y00975910D02*
X02252000Y00975910D01*
X02252000Y00959911D02*
X02248000Y00959911D01*
X02248000Y00943913D02*
X02252000Y00943913D01*
X02252000Y00927914D02*
X02248000Y00927914D01*
X02248000Y00911916D02*
X02252000Y00911916D01*
X02289349Y00895917D02*
X02646000Y00895917D01*
X02646000Y00896202D02*
X02646000Y00806947D01*
X02655373Y00797575D01*
X02744627Y00797575D01*
X02754000Y00806947D01*
X02754000Y00896202D01*
X02744627Y00905575D01*
X02655373Y00905575D01*
X02646000Y00896202D01*
X02646000Y00879919D02*
X02315135Y00879919D01*
X02324024Y00863920D02*
X02646000Y00863920D01*
X02646000Y00847922D02*
X02326000Y00847922D01*
X02322302Y00831923D02*
X02646000Y00831923D01*
X02646000Y00815925D02*
X02310978Y00815925D01*
X02309244Y00911916D02*
X02989008Y00911916D01*
X02989008Y00927914D02*
X02322618Y00927914D01*
X02327634Y00943913D02*
X02989008Y00943913D01*
X02989008Y00959911D02*
X02327028Y00959911D01*
X02320506Y00975910D02*
X02989008Y00975910D01*
X02989008Y00895917D02*
X02754000Y00895917D01*
X02754000Y00879919D02*
X02989008Y00879919D01*
X02989008Y00863920D02*
X02754000Y00863920D01*
X02754000Y00847922D02*
X02989008Y00847922D01*
X02989008Y00831923D02*
X02754000Y00831923D01*
X02754000Y00815925D02*
X02989008Y00815925D01*
X02989008Y00799926D02*
X02746979Y00799926D01*
X02653021Y00799926D02*
X01783625Y00799926D01*
X01767626Y00783928D02*
X02989008Y00783928D01*
X02989008Y00767929D02*
X01751628Y00767929D01*
X01735629Y00751931D02*
X02989008Y00751931D01*
X02989008Y00735932D02*
X01719631Y00735932D01*
X01703632Y00719934D02*
X02989008Y00719934D01*
X02989008Y00703935D02*
X01687633Y00703935D01*
X01671635Y00687937D02*
X02989008Y00687937D01*
X02989008Y00671938D02*
X01655636Y00671938D01*
X01639638Y00655939D02*
X02989008Y00655939D01*
X02700858Y01007907D02*
X02699141Y01007907D01*
X02699141Y01023906D02*
X02700858Y01023906D01*
X02700858Y01039904D02*
X02699141Y01039904D01*
X02699141Y01055903D02*
X02700858Y01055903D01*
X02700858Y01071901D02*
X02699141Y01071901D01*
X02699141Y01087900D02*
X02700858Y01087900D01*
X02989008Y01119897D02*
X02103595Y01119897D01*
X02119594Y01135895D02*
X02989008Y01135895D01*
X02989008Y01151894D02*
X02135592Y01151894D01*
X02151591Y01167892D02*
X02989008Y01167892D01*
X02989008Y01183891D02*
X02167589Y01183891D01*
X02183588Y01199889D02*
X02989008Y01199889D01*
X02989008Y01215888D02*
X02199586Y01215888D01*
X02215585Y01231886D02*
X02989008Y01231886D01*
X02989008Y01247885D02*
X02231583Y01247885D01*
X02247582Y01263883D02*
X02989008Y01263883D01*
X02989008Y01279882D02*
X02263580Y01279882D01*
X02279579Y01295880D02*
X02989008Y01295880D01*
X02989008Y01311879D02*
X02295577Y01311879D01*
X02311576Y01327877D02*
X02989008Y01327877D01*
X02989008Y01343876D02*
X02327574Y01343876D01*
X02343573Y01359875D02*
X02989008Y01359875D01*
X02989008Y01375873D02*
X02359571Y01375873D01*
X02375570Y01391872D02*
X02989008Y01391872D01*
X02989008Y01407870D02*
X02391569Y01407870D01*
X02407567Y01423869D02*
X02989008Y01423869D01*
X02989008Y01439867D02*
X02423566Y01439867D01*
X02439564Y01455866D02*
X02989008Y01455866D01*
X02989008Y01471864D02*
X02455563Y01471864D01*
X02471561Y01487863D02*
X02989008Y01487863D01*
X02989008Y01503861D02*
X02487560Y01503861D01*
X02503558Y01519860D02*
X02989008Y01519860D01*
X02989008Y01535858D02*
X02519557Y01535858D01*
X02535555Y01551857D02*
X02989008Y01551857D01*
X02989008Y01567855D02*
X02551554Y01567855D01*
X02567552Y01583854D02*
X02989008Y01583854D01*
X02989008Y01599852D02*
X02583551Y01599852D01*
X02599549Y01615851D02*
X02989008Y01615851D01*
X02989008Y01631849D02*
X02615548Y01631849D01*
X02631546Y01647848D02*
X02989008Y01647848D01*
X02989008Y01663846D02*
X02647545Y01663846D01*
X02663543Y01679845D02*
X02989008Y01679845D01*
X02989008Y01695844D02*
X02679542Y01695844D01*
X02695540Y01711842D02*
X02989008Y01711842D01*
X02989008Y01727841D02*
X02703000Y01727841D01*
X02661000Y01743839D02*
X02271000Y01743839D01*
X02271000Y01727841D02*
X02652142Y01727841D01*
X02636144Y01711842D02*
X02271000Y01711842D01*
X02304359Y01695844D02*
X02416251Y01695844D01*
X02419075Y01697895D02*
X02411944Y01692714D01*
X02405711Y01686481D01*
X02400530Y01679350D01*
X02396528Y01671496D01*
X02393804Y01663113D01*
X02392425Y01654407D01*
X02392425Y01650858D01*
X02447566Y01650858D01*
X02447566Y01649141D01*
X02392425Y01649141D01*
X02392425Y01645593D01*
X02393804Y01636887D01*
X02396528Y01628503D01*
X02400530Y01620649D01*
X02405711Y01613518D01*
X02411944Y01607286D01*
X02419075Y01602104D01*
X02426929Y01598103D01*
X02435312Y01595379D01*
X02444018Y01594000D01*
X02447567Y01594000D01*
X02447567Y01649141D01*
X02449283Y01649141D01*
X02449283Y01594000D01*
X02452832Y01594000D01*
X02461539Y01595379D01*
X02469922Y01598103D01*
X02477776Y01602104D01*
X02484907Y01607286D01*
X02491140Y01613518D01*
X02496321Y01620649D01*
X02500322Y01628503D01*
X02503046Y01636887D01*
X02504425Y01645593D01*
X02504425Y01649141D01*
X02449284Y01649141D01*
X02449284Y01650858D01*
X02504425Y01650858D01*
X02504425Y01654407D01*
X02503046Y01663113D01*
X02500322Y01671496D01*
X02496321Y01679350D01*
X02491140Y01686481D01*
X02484907Y01692714D01*
X02477776Y01697895D01*
X02469922Y01701897D01*
X02461539Y01704621D01*
X02452832Y01706000D01*
X02449283Y01706000D01*
X02449283Y01650859D01*
X02447567Y01650859D01*
X02447567Y01706000D01*
X02444018Y01706000D01*
X02435312Y01704621D01*
X02426929Y01701897D01*
X02419075Y01697895D01*
X02400889Y01679845D02*
X02305575Y01679845D01*
X02305575Y01663846D02*
X02394042Y01663846D01*
X02392425Y01647848D02*
X02305575Y01647848D01*
X02305575Y01631849D02*
X02395441Y01631849D01*
X02404016Y01615851D02*
X02305575Y01615851D01*
X02300055Y01599852D02*
X02423495Y01599852D01*
X02447567Y01599852D02*
X02449283Y01599852D01*
X02449283Y01615851D02*
X02447567Y01615851D01*
X02447567Y01631849D02*
X02449283Y01631849D01*
X02449283Y01647848D02*
X02447567Y01647848D01*
X02447567Y01663846D02*
X02449283Y01663846D01*
X02449283Y01679845D02*
X02447567Y01679845D01*
X02447567Y01695844D02*
X02449283Y01695844D01*
X02480600Y01695844D02*
X02620145Y01695844D01*
X02604147Y01679845D02*
X02495961Y01679845D01*
X02502808Y01663846D02*
X02588148Y01663846D01*
X02572149Y01647848D02*
X02504425Y01647848D01*
X02501409Y01631849D02*
X02556151Y01631849D01*
X02540152Y01615851D02*
X02492834Y01615851D01*
X02473355Y01599852D02*
X02524154Y01599852D01*
X02661000Y01759838D02*
X02271000Y01759838D01*
X02271000Y01775836D02*
X02661000Y01775836D01*
X02661000Y01791835D02*
X02271000Y01791835D01*
X02271000Y01807833D02*
X02661000Y01807833D01*
X02661000Y01823832D02*
X02271000Y01823832D01*
X02271000Y01839830D02*
X02661000Y01839830D01*
X02661000Y01855829D02*
X02271000Y01855829D01*
X02271000Y01871827D02*
X02661000Y01871827D01*
X02661000Y01887826D02*
X02271000Y01887826D01*
X02271000Y01903824D02*
X02661000Y01903824D01*
X02661000Y01919823D02*
X02271000Y01919823D01*
X02271000Y01935821D02*
X02662123Y01935821D01*
X02678122Y01951820D02*
X02271000Y01951820D01*
X02271000Y01967818D02*
X02693294Y01967818D01*
X02686667Y01983817D02*
X02271000Y01983817D01*
X02271000Y01999815D02*
X02686500Y01999815D01*
X02689123Y02015814D02*
X02271000Y02015814D01*
X02271000Y02031813D02*
X02695750Y02031813D01*
X02711158Y02047811D02*
X02271000Y02047811D01*
X02271000Y02063810D02*
X02989008Y02063810D01*
X02989008Y02079808D02*
X02271000Y02079808D01*
X02271000Y02095807D02*
X02989008Y02095807D01*
X02989008Y02111805D02*
X02271000Y02111805D01*
X02229000Y02079808D02*
X01819890Y02079808D01*
X01835889Y02063810D02*
X02229000Y02063810D01*
X02229000Y02047811D02*
X01851887Y02047811D01*
X01867886Y02031813D02*
X02229000Y02031813D01*
X02229000Y02015814D02*
X01883884Y02015814D01*
X01899883Y01999815D02*
X02229000Y01999815D01*
X02229000Y01983817D02*
X01915881Y01983817D01*
X01931880Y01967818D02*
X02229000Y01967818D01*
X02229000Y01951820D02*
X01947878Y01951820D01*
X01888482Y01951820D02*
X00946518Y01951820D01*
X00962517Y01967818D02*
X01872483Y01967818D01*
X01856484Y01983817D02*
X00978515Y01983817D01*
X00994514Y01999815D02*
X01840486Y01999815D01*
X01824487Y02015814D02*
X01010512Y02015814D01*
X01026511Y02031813D02*
X01808489Y02031813D01*
X01792490Y02047811D02*
X01042509Y02047811D01*
X01058508Y02063810D02*
X01776492Y02063810D01*
X01879687Y02111805D02*
X01920313Y02111805D01*
X01907239Y02127804D02*
X01892761Y02127804D01*
X01898000Y02143802D02*
X01902000Y02143802D01*
X01902105Y02159801D02*
X01897895Y02159801D01*
X01891268Y02175799D02*
X01908732Y02175799D01*
X01925479Y02191798D02*
X01874521Y02191798D01*
X01892914Y01871827D02*
X01896474Y01871827D01*
X01898000Y01855829D02*
X01902000Y01855829D01*
X01902258Y01839830D02*
X01897742Y01839830D01*
X01891115Y01823832D02*
X01908884Y01823832D01*
X01926370Y01807833D02*
X01873630Y01807833D01*
X01917138Y01775836D02*
X01805534Y01775836D01*
X01789536Y01759838D02*
X01901139Y01759838D01*
X01885141Y01743839D02*
X01773537Y01743839D01*
X01757539Y01727841D02*
X01869142Y01727841D01*
X01853144Y01711842D02*
X01741540Y01711842D01*
X01725542Y01695844D02*
X01837145Y01695844D01*
X01821147Y01679845D02*
X01709543Y01679845D01*
X01693545Y01663846D02*
X01805148Y01663846D01*
X01789150Y01647848D02*
X01677546Y01647848D01*
X01661548Y01631849D02*
X01779000Y01631849D01*
X01779000Y01615851D02*
X01645549Y01615851D01*
X01629551Y01599852D02*
X01779000Y01599852D01*
X01779000Y01583854D02*
X01613552Y01583854D01*
X01597554Y01567855D02*
X01779000Y01567855D01*
X01779000Y01551857D02*
X01581555Y01551857D01*
X01565557Y01535858D02*
X01766562Y01535858D01*
X01751000Y01519860D02*
X01549558Y01519860D01*
X01533560Y01503861D02*
X01751000Y01503861D01*
X01751000Y01487863D02*
X01517561Y01487863D01*
X01501563Y01471864D02*
X01758839Y01471864D01*
X01774838Y01455866D02*
X01485564Y01455866D01*
X01407160Y01535858D02*
X00863557Y01535858D01*
X00847558Y01519860D02*
X01391161Y01519860D01*
X01375163Y01503861D02*
X00831560Y01503861D01*
X00815561Y01487863D02*
X01359164Y01487863D01*
X01343166Y01471864D02*
X00799563Y01471864D01*
X00783564Y01455866D02*
X01327167Y01455866D01*
X01311169Y01439867D02*
X00767566Y01439867D01*
X00751567Y01423869D02*
X01295170Y01423869D01*
X01279172Y01407870D02*
X00735569Y01407870D01*
X00719570Y01391872D02*
X01263173Y01391872D01*
X01247175Y01375873D02*
X00703571Y01375873D01*
X00687573Y01359875D02*
X01231176Y01359875D01*
X01215178Y01343876D02*
X00678000Y01343876D01*
X00678000Y01327877D02*
X01199179Y01327877D01*
X01183181Y01311879D02*
X00678000Y01311879D01*
X00678000Y01295880D02*
X01167182Y01295880D01*
X01151184Y01279882D02*
X00678000Y01279882D01*
X00678000Y01263883D02*
X01135185Y01263883D01*
X01119187Y01247885D02*
X00678000Y01247885D01*
X00678000Y01231886D02*
X01103188Y01231886D01*
X01087189Y01215888D02*
X00678000Y01215888D01*
X00678000Y01199889D02*
X01071191Y01199889D01*
X01055192Y01183891D02*
X00678000Y01183891D01*
X00678000Y01167892D02*
X01039194Y01167892D01*
X01023195Y01151894D02*
X00678000Y01151894D01*
X00678000Y01135895D02*
X01007197Y01135895D01*
X00991198Y01119897D02*
X00678000Y01119897D01*
X00678000Y01103898D02*
X00975200Y01103898D01*
X00959201Y01087900D02*
X00678000Y01087900D01*
X00678000Y01071901D02*
X00943203Y01071901D01*
X00927204Y01055903D02*
X00678000Y01055903D01*
X00678000Y01039904D02*
X00911206Y01039904D01*
X00895207Y01023906D02*
X00678000Y01023906D01*
X00678000Y01007907D02*
X00879209Y01007907D01*
X00863210Y00991908D02*
X00678000Y00991908D01*
X00678000Y00975910D02*
X00847212Y00975910D01*
X00834000Y00959911D02*
X00678000Y00959911D01*
X00678000Y00943913D02*
X00834000Y00943913D01*
X00834000Y00927914D02*
X00678000Y00927914D01*
X00678000Y00911916D02*
X00834000Y00911916D01*
X00834000Y00895917D02*
X00678000Y00895917D01*
X00678000Y00879919D02*
X00834000Y00879919D01*
X00834000Y00863920D02*
X00678000Y00863920D01*
X00678000Y00847922D02*
X00834000Y00847922D01*
X00834000Y00831923D02*
X00678000Y00831923D01*
X00679129Y00815925D02*
X00720871Y00815925D01*
X00708464Y00799926D02*
X00691536Y00799926D01*
X00696000Y00783928D02*
X00704000Y00783928D01*
X00704000Y00767929D02*
X00696000Y00767929D01*
X00696000Y00751931D02*
X00704000Y00751931D01*
X00704000Y00735932D02*
X00696000Y00735932D01*
X00696000Y00719934D02*
X00704000Y00719934D01*
X00706864Y00703935D02*
X00693136Y00703935D01*
X00793136Y00703935D02*
X00806864Y00703935D01*
X00804000Y00719934D02*
X00796000Y00719934D01*
X00796000Y00735932D02*
X00804000Y00735932D01*
X00804000Y00751931D02*
X00796000Y00751931D01*
X00796000Y00767929D02*
X00804000Y00767929D01*
X00804000Y00783928D02*
X00796000Y00783928D01*
X00791536Y00799926D02*
X00808464Y00799926D01*
X00820871Y00815925D02*
X00779129Y00815925D01*
X00636000Y00831923D02*
X00624000Y00831923D01*
X00624000Y00847922D02*
X00636000Y00847922D01*
X00636000Y00863920D02*
X00624000Y00863920D01*
X00624000Y00879919D02*
X00636000Y00879919D01*
X00636000Y00895917D02*
X00624000Y00895917D01*
X00636000Y00911916D02*
X00611782Y00911916D01*
X00595784Y00927914D02*
X00636000Y00927914D01*
X00636000Y00943913D02*
X00579785Y00943913D01*
X00563787Y00959911D02*
X00636000Y00959911D01*
X00636000Y00975910D02*
X00547788Y00975910D01*
X00531790Y00991908D02*
X00636000Y00991908D01*
X00636000Y01007907D02*
X00515791Y01007907D01*
X00518959Y01023906D02*
X00636000Y01023906D01*
X00636000Y01039904D02*
X00525608Y01039904D01*
X00526000Y01055903D02*
X00636000Y01055903D01*
X00636000Y01071901D02*
X00520718Y01071901D01*
X00507154Y01087900D02*
X00636000Y01087900D01*
X00536387Y00927914D02*
X00522618Y00927914D01*
X00509244Y00911916D02*
X00552386Y00911916D01*
X00568384Y00895917D02*
X00489349Y00895917D01*
X00515135Y00879919D02*
X00582000Y00879919D01*
X00582000Y00863920D02*
X00524024Y00863920D01*
X00526000Y00847922D02*
X00582000Y00847922D01*
X00582000Y00831923D02*
X00522302Y00831923D01*
X00510978Y00815925D02*
X00582000Y00815925D01*
X00452000Y00911916D02*
X00448000Y00911916D01*
X00448000Y00927914D02*
X00452000Y00927914D01*
X00452000Y00943913D02*
X00448000Y00943913D01*
X00448000Y00959911D02*
X00452000Y00959911D01*
X00452000Y00975910D02*
X00448000Y00975910D01*
X00448000Y00991908D02*
X00452000Y00991908D01*
X00788161Y01519860D02*
X-00402000Y01519860D01*
X-00402000Y01535858D02*
X00804160Y01535858D01*
X00820158Y01551857D02*
X-00402000Y01551857D01*
X-00402000Y01567855D02*
X00836157Y01567855D01*
X00852156Y01583854D02*
X-00402000Y01583854D01*
X-00402000Y01599852D02*
X00868154Y01599852D01*
X00884153Y01615851D02*
X-00402000Y01615851D01*
X-00402000Y01631849D02*
X00900151Y01631849D01*
X00916150Y01647848D02*
X-00402000Y01647848D01*
X-00402000Y01663846D02*
X00932148Y01663846D01*
X00948147Y01679845D02*
X-00402000Y01679845D01*
X-00402000Y01695844D02*
X00964145Y01695844D01*
X00980144Y01711842D02*
X-00402000Y01711842D01*
X-00402000Y01823832D02*
X00018608Y01823832D01*
X00021287Y01839830D02*
X-00402000Y01839830D01*
X-00402000Y01855829D02*
X00026620Y01855829D01*
X00035346Y01871827D02*
X-00402000Y01871827D01*
X-00402000Y01887826D02*
X00048461Y01887826D01*
X00042628Y01904690D02*
X00053051Y01909710D01*
X00062847Y01915865D01*
X00071891Y01923078D01*
X00080072Y01931258D01*
X00087285Y01940303D01*
X00093440Y01950098D01*
X00098459Y01960521D01*
X00102280Y01971441D01*
X00104854Y01982720D01*
X00105900Y01992000D01*
X00011150Y01992000D01*
X00011150Y02008000D01*
X00105900Y02008000D01*
X00104854Y02017280D01*
X00102280Y02028559D01*
X00098459Y02039478D01*
X00093440Y02049901D01*
X00087285Y02059697D01*
X00080072Y02068742D01*
X00071891Y02076922D01*
X00062847Y02084135D01*
X00053051Y02090290D01*
X00042628Y02095309D01*
X00031709Y02099130D01*
X00020430Y02101705D01*
X00011149Y02102750D01*
X00011149Y02008000D01*
X-00004850Y02008000D01*
X-00004850Y02102750D01*
X-00014131Y02101705D01*
X-00025409Y02099130D01*
X-00036329Y02095309D01*
X-00046752Y02090290D01*
X-00056547Y02084135D01*
X-00065592Y02076922D01*
X-00073773Y02068742D01*
X-00080985Y02059697D01*
X-00087140Y02049901D01*
X-00092160Y02039478D01*
X-00095981Y02028559D01*
X-00098555Y02017280D01*
X-00099601Y02008000D01*
X-00004851Y02008000D01*
X-00004851Y01992000D01*
X-00099601Y01992000D01*
X-00098555Y01982720D01*
X-00095981Y01971441D01*
X-00092160Y01960521D01*
X-00087140Y01950098D01*
X-00080985Y01940303D01*
X-00073773Y01931258D01*
X-00065592Y01923078D01*
X-00056547Y01915865D01*
X-00046752Y01909710D01*
X-00036329Y01904690D01*
X-00025409Y01900870D01*
X-00014131Y01898295D01*
X-00004850Y01897250D01*
X-00004850Y01991999D01*
X00011149Y01991999D01*
X00011149Y01897250D01*
X00020430Y01898295D01*
X00031709Y01900870D01*
X00042628Y01904690D01*
X00040153Y01903824D02*
X00069088Y01903824D01*
X00067810Y01919823D02*
X00176712Y01919823D01*
X00173431Y01903824D02*
X00208069Y01903824D01*
X00194059Y01887826D02*
X00385098Y01887826D01*
X00384000Y01871827D02*
X00207173Y01871827D01*
X00215900Y01855829D02*
X00385280Y01855829D01*
X00391907Y01839830D02*
X00221232Y01839830D01*
X00223912Y01823832D02*
X00404877Y01823832D01*
X00391725Y01903824D02*
X00270671Y01903824D01*
X00302028Y01919823D02*
X00404438Y01919823D01*
X00431498Y01935821D02*
X00318027Y01935821D01*
X00221630Y01791835D02*
X01060136Y01791835D01*
X01059548Y01802000D02*
X01077190Y01809308D01*
X01090692Y01822810D01*
X01098000Y01840452D01*
X01098000Y01859548D01*
X01090692Y01877190D01*
X01077190Y01890692D01*
X01059548Y01898000D01*
X01040452Y01898000D01*
X01022810Y01890692D01*
X01009308Y01877190D01*
X01002000Y01859548D01*
X01002000Y01840452D01*
X01009308Y01822810D01*
X01022810Y01809308D01*
X01040452Y01802000D01*
X01059548Y01802000D01*
X01073630Y01807833D02*
X01076135Y01807833D01*
X01091115Y01823832D02*
X01092133Y01823832D01*
X01097742Y01839830D02*
X01102258Y01839830D01*
X01102000Y01855829D02*
X01098000Y01855829D01*
X01092914Y01871827D02*
X01107086Y01871827D01*
X01119944Y01887826D02*
X01080056Y01887826D01*
X01019944Y01887826D02*
X00980056Y01887826D01*
X00992914Y01871827D02*
X01007086Y01871827D01*
X01002000Y01855829D02*
X00998000Y01855829D01*
X00997742Y01839830D02*
X01002258Y01839830D01*
X01008884Y01823832D02*
X00991115Y01823832D01*
X00973630Y01807833D02*
X01026370Y01807833D01*
X01044138Y01775836D02*
X00216693Y01775836D01*
X00208269Y01759838D02*
X01028139Y01759838D01*
X01012141Y01743839D02*
X00195802Y01743839D01*
X00176206Y01727841D02*
X00996142Y01727841D01*
X01023542Y01695844D02*
X01133940Y01695844D01*
X01140353Y01698500D02*
X01122527Y01691116D01*
X01108884Y01677473D01*
X01101500Y01659647D01*
X01101500Y01640353D01*
X01108884Y01622527D01*
X01122527Y01608884D01*
X01140353Y01601500D01*
X01159647Y01601500D01*
X01177473Y01608884D01*
X01191116Y01622527D01*
X01198500Y01640353D01*
X01198500Y01659647D01*
X01191116Y01677473D01*
X01177473Y01691116D01*
X01159647Y01698500D01*
X01140353Y01698500D01*
X01166060Y01695844D02*
X01333940Y01695844D01*
X01340353Y01698500D02*
X01322527Y01691116D01*
X01308884Y01677473D01*
X01301500Y01659647D01*
X01301500Y01640353D01*
X01308884Y01622527D01*
X01322527Y01608884D01*
X01340353Y01601500D01*
X01359647Y01601500D01*
X01377473Y01608884D01*
X01391116Y01622527D01*
X01398500Y01640353D01*
X01398500Y01659647D01*
X01391116Y01677473D01*
X01377473Y01691116D01*
X01359647Y01698500D01*
X01340353Y01698500D01*
X01366060Y01695844D02*
X01567145Y01695844D01*
X01583144Y01711842D02*
X01039540Y01711842D01*
X01055539Y01727841D02*
X01599142Y01727841D01*
X01615141Y01743839D02*
X01071538Y01743839D01*
X01087536Y01759838D02*
X01631139Y01759838D01*
X01647138Y01775836D02*
X01103535Y01775836D01*
X01119533Y01791835D02*
X01663136Y01791835D01*
X01659548Y01802000D02*
X01677190Y01809308D01*
X01690692Y01822810D01*
X01698000Y01840452D01*
X01698000Y01859548D01*
X01690692Y01877190D01*
X01677190Y01890692D01*
X01659548Y01898000D01*
X01640452Y01898000D01*
X01622810Y01890692D01*
X01609308Y01877190D01*
X01602000Y01859548D01*
X01602000Y01840452D01*
X01609308Y01822810D01*
X01622810Y01809308D01*
X01640452Y01802000D01*
X01659548Y01802000D01*
X01673630Y01807833D02*
X01679135Y01807833D01*
X01691115Y01823832D02*
X01695133Y01823832D01*
X01697742Y01839830D02*
X01702258Y01839830D01*
X01702000Y01855829D02*
X01698000Y01855829D01*
X01692914Y01871827D02*
X01707086Y01871827D01*
X01719944Y01887826D02*
X01680056Y01887826D01*
X01619944Y01887826D02*
X01580056Y01887826D01*
X01577190Y01890692D02*
X01559548Y01898000D01*
X01540452Y01898000D01*
X01522810Y01890692D01*
X01509308Y01877190D01*
X01502000Y01859548D01*
X01502000Y01840452D01*
X01509308Y01822810D01*
X01522810Y01809308D01*
X01540452Y01802000D01*
X01559548Y01802000D01*
X01577190Y01809308D01*
X01590692Y01822810D01*
X01598000Y01840452D01*
X01598000Y01859548D01*
X01590692Y01877190D01*
X01577190Y01890692D01*
X01592914Y01871827D02*
X01607086Y01871827D01*
X01602000Y01855829D02*
X01598000Y01855829D01*
X01597742Y01839830D02*
X01602258Y01839830D01*
X01608884Y01823832D02*
X01591115Y01823832D01*
X01573630Y01807833D02*
X01626370Y01807833D01*
X01526370Y01807833D02*
X01473630Y01807833D01*
X01477190Y01809308D02*
X01490692Y01822810D01*
X01498000Y01840452D01*
X01498000Y01859548D01*
X01490692Y01877190D01*
X01477190Y01890692D01*
X01459548Y01898000D01*
X01440452Y01898000D01*
X01422810Y01890692D01*
X01409308Y01877190D01*
X01402000Y01859548D01*
X01402000Y01840452D01*
X01409308Y01822810D01*
X01422810Y01809308D01*
X01440452Y01802000D01*
X01459548Y01802000D01*
X01477190Y01809308D01*
X01491115Y01823832D02*
X01508884Y01823832D01*
X01502258Y01839830D02*
X01497742Y01839830D01*
X01498000Y01855829D02*
X01502000Y01855829D01*
X01507086Y01871827D02*
X01492914Y01871827D01*
X01480056Y01887826D02*
X01519944Y01887826D01*
X01419944Y01887826D02*
X01382885Y01887826D01*
X01382573Y01888138D02*
X01376206Y01892764D01*
X01369193Y01896337D01*
X01361708Y01898769D01*
X01353935Y01900000D01*
X01350000Y01900000D01*
X01350000Y01850001D01*
X01349999Y01850001D01*
X01349999Y01900000D01*
X01346065Y01900000D01*
X01338292Y01898769D01*
X01330807Y01896337D01*
X01323794Y01892764D01*
X01317427Y01888138D01*
X01311862Y01882573D01*
X01307236Y01876206D01*
X01303663Y01869193D01*
X01301231Y01861708D01*
X01300000Y01853935D01*
X01300000Y01850000D01*
X01349999Y01850000D01*
X01349999Y01849999D01*
X01300000Y01849999D01*
X01300000Y01846065D01*
X01301231Y01838292D01*
X01303663Y01830807D01*
X01307236Y01823794D01*
X01311862Y01817427D01*
X01317427Y01811862D01*
X01323794Y01807236D01*
X01330807Y01803663D01*
X01338292Y01801231D01*
X01346065Y01800000D01*
X01349999Y01800000D01*
X01349999Y01849999D01*
X01350000Y01849999D01*
X01350000Y01800000D01*
X01353935Y01800000D01*
X01361708Y01801231D01*
X01369193Y01803663D01*
X01376206Y01807236D01*
X01382573Y01811862D01*
X01388138Y01817427D01*
X01392764Y01823794D01*
X01396337Y01830807D01*
X01398769Y01838292D01*
X01400000Y01846065D01*
X01400000Y01849999D01*
X01350001Y01849999D01*
X01350001Y01850000D01*
X01400000Y01850000D01*
X01400000Y01853935D01*
X01398769Y01861708D01*
X01396337Y01869193D01*
X01392764Y01876206D01*
X01388138Y01882573D01*
X01382573Y01888138D01*
X01394995Y01871827D02*
X01407086Y01871827D01*
X01402000Y01855829D02*
X01399700Y01855829D01*
X01399012Y01839830D02*
X01402258Y01839830D01*
X01408884Y01823832D02*
X01392783Y01823832D01*
X01377027Y01807833D02*
X01426370Y01807833D01*
X01350000Y01807833D02*
X01349999Y01807833D01*
X01349999Y01823832D02*
X01350000Y01823832D01*
X01349999Y01839830D02*
X01350000Y01839830D01*
X01349999Y01855829D02*
X01350000Y01855829D01*
X01349999Y01871827D02*
X01350000Y01871827D01*
X01349999Y01887826D02*
X01350000Y01887826D01*
X01317115Y01887826D02*
X01280056Y01887826D01*
X01277190Y01890692D02*
X01259548Y01898000D01*
X01240452Y01898000D01*
X01222810Y01890692D01*
X01209308Y01877190D01*
X01202000Y01859548D01*
X01202000Y01840452D01*
X01209308Y01822810D01*
X01222810Y01809308D01*
X01240452Y01802000D01*
X01259548Y01802000D01*
X01277190Y01809308D01*
X01290692Y01822810D01*
X01298000Y01840452D01*
X01298000Y01859548D01*
X01290692Y01877190D01*
X01277190Y01890692D01*
X01292914Y01871827D02*
X01305005Y01871827D01*
X01300300Y01855829D02*
X01298000Y01855829D01*
X01297742Y01839830D02*
X01300987Y01839830D01*
X01307217Y01823832D02*
X01291115Y01823832D01*
X01273630Y01807833D02*
X01322972Y01807833D01*
X01226370Y01807833D02*
X01173630Y01807833D01*
X01191115Y01823832D02*
X01208884Y01823832D01*
X01202258Y01839830D02*
X01197742Y01839830D01*
X01198000Y01855829D02*
X01202000Y01855829D01*
X01207086Y01871827D02*
X01192914Y01871827D01*
X01180056Y01887826D02*
X01219944Y01887826D01*
X01188744Y01679845D02*
X01311256Y01679845D01*
X01303239Y01663846D02*
X01196761Y01663846D01*
X01198500Y01647848D02*
X01301500Y01647848D01*
X01305022Y01631849D02*
X01194978Y01631849D01*
X01184440Y01615851D02*
X01315560Y01615851D01*
X01384440Y01615851D02*
X01487153Y01615851D01*
X01503151Y01631849D02*
X01394978Y01631849D01*
X01398500Y01647848D02*
X01519150Y01647848D01*
X01535148Y01663846D02*
X01396761Y01663846D01*
X01388744Y01679845D02*
X01551147Y01679845D01*
X01471154Y01599852D02*
X00927551Y01599852D01*
X00911552Y01583854D02*
X01455156Y01583854D01*
X01439157Y01567855D02*
X00895554Y01567855D01*
X00879555Y01551857D02*
X01423158Y01551857D01*
X01115560Y01615851D02*
X00943549Y01615851D01*
X00959548Y01631849D02*
X01105022Y01631849D01*
X01101500Y01647848D02*
X00975546Y01647848D01*
X00991545Y01663846D02*
X01103239Y01663846D01*
X01111256Y01679845D02*
X01007543Y01679845D01*
X01074506Y02079808D02*
X01490493Y02079808D01*
X01420313Y02111805D02*
X01379687Y02111805D01*
X01377190Y02109308D02*
X01390692Y02122810D01*
X01398000Y02140452D01*
X01398000Y02159548D01*
X01390692Y02177190D01*
X01377190Y02190692D01*
X01359548Y02198000D01*
X01340452Y02198000D01*
X01322810Y02190692D01*
X01309308Y02177190D01*
X01302000Y02159548D01*
X01302000Y02140452D01*
X01309308Y02122810D01*
X01322810Y02109308D01*
X01340452Y02102000D01*
X01359548Y02102000D01*
X01377190Y02109308D01*
X01392761Y02127804D02*
X01407239Y02127804D01*
X01402000Y02143802D02*
X01398000Y02143802D01*
X01397895Y02159801D02*
X01402105Y02159801D01*
X01408732Y02175799D02*
X01391268Y02175799D01*
X01374521Y02191798D02*
X01425479Y02191798D01*
X01325479Y02191798D02*
X01277535Y02191798D01*
X01292971Y02175799D02*
X01308732Y02175799D01*
X01302105Y02159801D02*
X01299071Y02159801D01*
X01299641Y02143802D02*
X01302000Y02143802D01*
X01307239Y02127804D02*
X01294807Y02127804D01*
X01282494Y02111805D02*
X01320313Y02111805D01*
X01250000Y02111805D02*
X01249999Y02111805D01*
X01249999Y02127804D02*
X01250000Y02127804D01*
X01249999Y02143802D02*
X01250000Y02143802D01*
X01249999Y02159801D02*
X01250000Y02159801D01*
X01249999Y02175799D02*
X01250000Y02175799D01*
X01249999Y02191798D02*
X01250000Y02191798D01*
X01239550Y02511768D02*
X01263278Y02511768D01*
X01251843Y02527767D02*
X01250399Y02527767D01*
X01200858Y02527767D02*
X01199141Y02527767D01*
X01199141Y02543765D02*
X01200858Y02543765D01*
X01200858Y02511768D02*
X01199141Y02511768D01*
X01160450Y02511768D02*
X01119467Y02511768D01*
X01135465Y02527767D02*
X01149600Y02527767D01*
X01236021Y02591761D02*
X01266808Y02591761D01*
X01253304Y02575762D02*
X01248601Y02575762D01*
X01291121Y02751746D02*
X01300048Y02751746D01*
X01303759Y02767745D02*
X01315926Y02767745D01*
X01310843Y02783743D02*
X01308842Y02783743D01*
X01308747Y02799742D02*
X01310938Y02799742D01*
X01317565Y02815740D02*
X01302120Y02815740D01*
X01286549Y02831739D02*
X01333136Y02831739D01*
X01386549Y02831739D02*
X01433136Y02831739D01*
X01417565Y02815740D02*
X01402120Y02815740D01*
X01408747Y02799742D02*
X01410938Y02799742D01*
X01410843Y02783743D02*
X01408842Y02783743D01*
X01403759Y02767745D02*
X01415046Y02767745D01*
X01442446Y02735748D02*
X02184049Y02735748D01*
X02179420Y02742500D02*
X02186572Y02746145D01*
X02193067Y02750863D01*
X02198743Y02756539D01*
X02203461Y02763034D01*
X02207106Y02770187D01*
X02209587Y02777821D01*
X02210842Y02785750D01*
X02210842Y02787921D01*
X02161686Y02787921D01*
X02161686Y02791606D01*
X02210842Y02791606D01*
X02210842Y02793778D01*
X02209587Y02801706D01*
X02207106Y02809341D01*
X02203461Y02816494D01*
X02198743Y02822988D01*
X02193067Y02828664D01*
X02186572Y02833383D01*
X02179420Y02837027D01*
X02171785Y02839508D01*
X02163856Y02840764D01*
X02161685Y02840764D01*
X02161685Y02791607D01*
X02158000Y02791607D01*
X02158000Y02840764D01*
X02155829Y02840764D01*
X02147900Y02839508D01*
X02140265Y02837027D01*
X02133113Y02833383D01*
X02126618Y02828664D01*
X02120942Y02822988D01*
X02116223Y02816494D01*
X02112579Y02809341D01*
X02110098Y02801706D01*
X02108843Y02793778D01*
X02108843Y02791606D01*
X02157999Y02791606D01*
X02157999Y02787921D01*
X02108843Y02787921D01*
X02108843Y02785750D01*
X02110098Y02777821D01*
X02112579Y02770187D01*
X02116223Y02763034D01*
X02120942Y02756539D01*
X02126618Y02750863D01*
X02133113Y02746145D01*
X02140265Y02742500D01*
X02147900Y02740020D01*
X02155829Y02738764D01*
X02158000Y02738764D01*
X02158000Y02787920D01*
X02161685Y02787920D01*
X02161685Y02738764D01*
X02163856Y02738764D01*
X02171785Y02740020D01*
X02179420Y02742500D01*
X02193950Y02751746D02*
X02200048Y02751746D01*
X02205862Y02767745D02*
X02215926Y02767745D01*
X02210843Y02783743D02*
X02210524Y02783743D01*
X02210938Y02799742D02*
X02209898Y02799742D01*
X02203845Y02815740D02*
X02217565Y02815740D01*
X02233136Y02831739D02*
X02188835Y02831739D01*
X02161685Y02831739D02*
X02158000Y02831739D01*
X02158000Y02815740D02*
X02161685Y02815740D01*
X02161685Y02799742D02*
X02158000Y02799742D01*
X02158000Y02783743D02*
X02161685Y02783743D01*
X02161685Y02767745D02*
X02158000Y02767745D01*
X02158000Y02751746D02*
X02161685Y02751746D01*
X02168051Y02719749D02*
X01426447Y02719749D01*
X01491121Y02751746D02*
X01528564Y02751746D01*
X01532086Y02748224D02*
X01550096Y02740764D01*
X01569589Y02740764D01*
X01587599Y02748224D01*
X01601383Y02762008D01*
X01608842Y02780017D01*
X01608842Y02799510D01*
X01601383Y02817520D01*
X01587599Y02831304D01*
X01569589Y02838764D01*
X01550096Y02838764D01*
X01532086Y02831304D01*
X01518302Y02817520D01*
X01510843Y02799510D01*
X01510843Y02780017D01*
X01518302Y02762008D01*
X01532086Y02748224D01*
X01515926Y02767745D02*
X01503759Y02767745D01*
X01508842Y02783743D02*
X01510843Y02783743D01*
X01510938Y02799742D02*
X01508747Y02799742D01*
X01502120Y02815740D02*
X01517565Y02815740D01*
X01533136Y02831739D02*
X01486549Y02831739D01*
X01586549Y02831739D02*
X01633136Y02831739D01*
X01632086Y02831304D02*
X01618302Y02817520D01*
X01610843Y02799510D01*
X01610843Y02780017D01*
X01618302Y02762008D01*
X01632086Y02748224D01*
X01650096Y02740764D01*
X01669589Y02740764D01*
X01687599Y02748224D01*
X01701383Y02762008D01*
X01708842Y02780017D01*
X01708842Y02799510D01*
X01701383Y02817520D01*
X01687599Y02831304D01*
X01669589Y02838764D01*
X01650096Y02838764D01*
X01632086Y02831304D01*
X01617565Y02815740D02*
X01602120Y02815740D01*
X01608747Y02799742D02*
X01610938Y02799742D01*
X01610843Y02783743D02*
X01608842Y02783743D01*
X01603759Y02767745D02*
X01615926Y02767745D01*
X01628564Y02751746D02*
X01591121Y02751746D01*
X01691121Y02751746D02*
X01728564Y02751746D01*
X01732086Y02748224D02*
X01750096Y02740764D01*
X01769589Y02740764D01*
X01787599Y02748224D01*
X01801383Y02762008D01*
X01808842Y02780017D01*
X01808842Y02799510D01*
X01801383Y02817520D01*
X01787599Y02831304D01*
X01769589Y02838764D01*
X01750096Y02838764D01*
X01732086Y02831304D01*
X01718302Y02817520D01*
X01710843Y02799510D01*
X01710843Y02780017D01*
X01718302Y02762008D01*
X01732086Y02748224D01*
X01715926Y02767745D02*
X01703759Y02767745D01*
X01708842Y02783743D02*
X01710843Y02783743D01*
X01710938Y02799742D02*
X01708747Y02799742D01*
X01702120Y02815740D02*
X01717565Y02815740D01*
X01733136Y02831739D02*
X01686549Y02831739D01*
X01786549Y02831739D02*
X01833136Y02831739D01*
X01832086Y02831304D02*
X01818302Y02817520D01*
X01810843Y02799510D01*
X01810843Y02780017D01*
X01818302Y02762008D01*
X01832086Y02748224D01*
X01850096Y02740764D01*
X01869589Y02740764D01*
X01887599Y02748224D01*
X01901383Y02762008D01*
X01908842Y02780017D01*
X01908842Y02799510D01*
X01901383Y02817520D01*
X01887599Y02831304D01*
X01869589Y02838764D01*
X01850096Y02838764D01*
X01832086Y02831304D01*
X01817565Y02815740D02*
X01802120Y02815740D01*
X01808747Y02799742D02*
X01810938Y02799742D01*
X01810843Y02783743D02*
X01808842Y02783743D01*
X01803759Y02767745D02*
X01815926Y02767745D01*
X01828564Y02751746D02*
X01791121Y02751746D01*
X01891121Y02751746D02*
X01928564Y02751746D01*
X01932086Y02748224D02*
X01950096Y02740764D01*
X01969589Y02740764D01*
X01987599Y02748224D01*
X02001383Y02762008D01*
X02008842Y02780017D01*
X02008842Y02799510D01*
X02001383Y02817520D01*
X01987599Y02831304D01*
X01969589Y02838764D01*
X01950096Y02838764D01*
X01932086Y02831304D01*
X01918302Y02817520D01*
X01910843Y02799510D01*
X01910843Y02780017D01*
X01918302Y02762008D01*
X01932086Y02748224D01*
X01915926Y02767745D02*
X01903759Y02767745D01*
X01908842Y02783743D02*
X01910843Y02783743D01*
X01910938Y02799742D02*
X01908747Y02799742D01*
X01902120Y02815740D02*
X01917565Y02815740D01*
X01933136Y02831739D02*
X01886549Y02831739D01*
X01986549Y02831739D02*
X02033136Y02831739D01*
X02032086Y02831304D02*
X02018302Y02817520D01*
X02010843Y02799510D01*
X02010843Y02780017D01*
X02018302Y02762008D01*
X02032086Y02748224D01*
X02050096Y02740764D01*
X02069589Y02740764D01*
X02087599Y02748224D01*
X02101383Y02762008D01*
X02108842Y02780017D01*
X02108842Y02799510D01*
X02101383Y02817520D01*
X02087599Y02831304D01*
X02069589Y02838764D01*
X02050096Y02838764D01*
X02032086Y02831304D01*
X02017565Y02815740D02*
X02002120Y02815740D01*
X02008747Y02799742D02*
X02010938Y02799742D01*
X02010843Y02783743D02*
X02008842Y02783743D01*
X02003759Y02767745D02*
X02015926Y02767745D01*
X02028564Y02751746D02*
X01991121Y02751746D01*
X02091121Y02751746D02*
X02125735Y02751746D01*
X02113823Y02767745D02*
X02103759Y02767745D01*
X02108842Y02783743D02*
X02109160Y02783743D01*
X02108747Y02799742D02*
X02109787Y02799742D01*
X02115840Y02815740D02*
X02102120Y02815740D01*
X02086549Y02831739D02*
X02130850Y02831739D01*
X02227447Y02719749D02*
X02708913Y02719749D01*
X02693530Y02735748D02*
X02243446Y02735748D01*
X02291121Y02751746D02*
X02328564Y02751746D01*
X02332086Y02748224D02*
X02350096Y02740764D01*
X02369589Y02740764D01*
X02387599Y02748224D01*
X02401383Y02762008D01*
X02408842Y02780017D01*
X02408842Y02799510D01*
X02401383Y02817520D01*
X02387599Y02831304D01*
X02369589Y02838764D01*
X02350096Y02838764D01*
X02332086Y02831304D01*
X02318302Y02817520D01*
X02310843Y02799510D01*
X02310843Y02780017D01*
X02318302Y02762008D01*
X02332086Y02748224D01*
X02315926Y02767745D02*
X02303759Y02767745D01*
X02308842Y02783743D02*
X02310843Y02783743D01*
X02310938Y02799742D02*
X02308747Y02799742D01*
X02302120Y02815740D02*
X02317565Y02815740D01*
X02333136Y02831739D02*
X02286549Y02831739D01*
X02386549Y02831739D02*
X02433136Y02831739D01*
X02432086Y02831304D02*
X02418302Y02817520D01*
X02410843Y02799510D01*
X02410843Y02780017D01*
X02418302Y02762008D01*
X02432086Y02748224D01*
X02450096Y02740764D01*
X02469589Y02740764D01*
X02487599Y02748224D01*
X02501383Y02762008D01*
X02508842Y02780017D01*
X02508842Y02799510D01*
X02501383Y02817520D01*
X02487599Y02831304D01*
X02469589Y02838764D01*
X02450096Y02838764D01*
X02432086Y02831304D01*
X02417565Y02815740D02*
X02402120Y02815740D01*
X02408747Y02799742D02*
X02410938Y02799742D01*
X02410843Y02783743D02*
X02408842Y02783743D01*
X02403759Y02767745D02*
X02415926Y02767745D01*
X02428564Y02751746D02*
X02391121Y02751746D01*
X02491121Y02751746D02*
X02525735Y02751746D01*
X02526618Y02750863D02*
X02533113Y02746145D01*
X02540265Y02742500D01*
X02547900Y02740020D01*
X02555829Y02738764D01*
X02558000Y02738764D01*
X02558000Y02787920D01*
X02561685Y02787920D01*
X02561685Y02738764D01*
X02563856Y02738764D01*
X02571785Y02740020D01*
X02579420Y02742500D01*
X02586572Y02746145D01*
X02593067Y02750863D01*
X02598743Y02756539D01*
X02603461Y02763034D01*
X02607106Y02770187D01*
X02609587Y02777821D01*
X02610842Y02785750D01*
X02610842Y02787921D01*
X02561686Y02787921D01*
X02561686Y02791606D01*
X02610842Y02791606D01*
X02610842Y02793778D01*
X02609587Y02801706D01*
X02607106Y02809341D01*
X02603461Y02816494D01*
X02598743Y02822988D01*
X02593067Y02828664D01*
X02586572Y02833383D01*
X02579420Y02837027D01*
X02571785Y02839508D01*
X02563856Y02840764D01*
X02561685Y02840764D01*
X02561685Y02791607D01*
X02558000Y02791607D01*
X02558000Y02840764D01*
X02555829Y02840764D01*
X02547900Y02839508D01*
X02540265Y02837027D01*
X02533113Y02833383D01*
X02526618Y02828664D01*
X02520942Y02822988D01*
X02516223Y02816494D01*
X02512579Y02809341D01*
X02510098Y02801706D01*
X02508843Y02793778D01*
X02508843Y02791606D01*
X02557999Y02791606D01*
X02557999Y02787921D01*
X02508843Y02787921D01*
X02508843Y02785750D01*
X02510098Y02777821D01*
X02512579Y02770187D01*
X02516223Y02763034D01*
X02520942Y02756539D01*
X02526618Y02750863D01*
X02513823Y02767745D02*
X02503759Y02767745D01*
X02508842Y02783743D02*
X02509160Y02783743D01*
X02508747Y02799742D02*
X02509787Y02799742D01*
X02515840Y02815740D02*
X02502120Y02815740D01*
X02486549Y02831739D02*
X02530850Y02831739D01*
X02558000Y02831739D02*
X02561685Y02831739D01*
X02561685Y02815740D02*
X02558000Y02815740D01*
X02558000Y02799742D02*
X02561685Y02799742D01*
X02561685Y02783743D02*
X02558000Y02783743D01*
X02558000Y02767745D02*
X02561685Y02767745D01*
X02561685Y02751746D02*
X02558000Y02751746D01*
X02593950Y02751746D02*
X02686903Y02751746D01*
X02680276Y02767745D02*
X02605862Y02767745D01*
X02610524Y02783743D02*
X02679165Y02783743D01*
X02679165Y02799742D02*
X02609898Y02799742D01*
X02603845Y02815740D02*
X02681916Y02815740D01*
X02688542Y02831739D02*
X02588835Y02831739D01*
X02696872Y02847737D02*
X-00096872Y02847737D01*
X-00088542Y02831739D02*
X01033136Y02831739D01*
X01017565Y02815740D02*
X-00081915Y02815740D01*
X-00079165Y02799742D02*
X01010938Y02799742D01*
X01010843Y02783743D02*
X-00079165Y02783743D01*
X-00080276Y02767745D02*
X01015926Y02767745D01*
X01103759Y02767745D02*
X01109046Y02767745D01*
X01108842Y02783743D02*
X01110843Y02783743D01*
X01110938Y02799742D02*
X01108747Y02799742D01*
X01102120Y02815740D02*
X01117565Y02815740D01*
X01133136Y02831739D02*
X01086549Y02831739D01*
X01186549Y02831739D02*
X01233136Y02831739D01*
X01217565Y02815740D02*
X01202120Y02815740D01*
X01208747Y02799742D02*
X01210938Y02799742D01*
X01210843Y02783743D02*
X01208842Y02783743D01*
X00925479Y02191798D02*
X00874521Y02191798D01*
X00891268Y02175799D02*
X00908732Y02175799D01*
X00902105Y02159801D02*
X00897895Y02159801D01*
X00898000Y02143802D02*
X00902000Y02143802D01*
X00907239Y02127804D02*
X00892761Y02127804D01*
X00879687Y02111805D02*
X00920313Y02111805D01*
X00825479Y02191798D02*
X00820000Y02191798D01*
X00725479Y02191798D02*
X00674521Y02191798D01*
X00677190Y02190692D02*
X00659548Y02198000D01*
X00640452Y02198000D01*
X00622810Y02190692D01*
X00609308Y02177190D01*
X00602000Y02159548D01*
X00602000Y02140452D01*
X00609308Y02122810D01*
X00622810Y02109308D01*
X00640452Y02102000D01*
X00659548Y02102000D01*
X00677190Y02109308D01*
X00690692Y02122810D01*
X00698000Y02140452D01*
X00698000Y02159548D01*
X00690692Y02177190D01*
X00677190Y02190692D01*
X00691268Y02175799D02*
X00708732Y02175799D01*
X00702105Y02159801D02*
X00697895Y02159801D01*
X00698000Y02143802D02*
X00702000Y02143802D01*
X00707239Y02127804D02*
X00692761Y02127804D01*
X00679687Y02111805D02*
X00720313Y02111805D01*
X00771092Y02095807D02*
X00509960Y02095807D01*
X00516072Y02111805D02*
X00620313Y02111805D01*
X00607239Y02127804D02*
X00454796Y02127804D01*
X00454795Y02143802D02*
X00445204Y02143802D01*
X00445204Y02159801D02*
X00454795Y02159801D01*
X00454795Y02175799D02*
X00445204Y02175799D01*
X00445204Y02191798D02*
X00454795Y02191798D01*
X00473557Y02191798D02*
X00625479Y02191798D01*
X00608732Y02175799D02*
X00498320Y02175799D01*
X00510132Y02159801D02*
X00602105Y02159801D01*
X00602000Y02143802D02*
X00516152Y02143802D01*
X00498022Y02079808D02*
X00768261Y02079808D01*
X00765430Y02063810D02*
X00472837Y02063810D01*
X00401978Y02079808D02*
X00302397Y02079808D01*
X00272049Y02095807D02*
X00390040Y02095807D01*
X00383928Y02111805D02*
X-00402000Y02111805D01*
X-00402000Y02095807D02*
X-00034908Y02095807D01*
X-00004850Y02095807D02*
X00011149Y02095807D01*
X00011149Y02079808D02*
X-00004850Y02079808D01*
X-00004850Y02063810D02*
X00011149Y02063810D01*
X00011149Y02047811D02*
X-00004850Y02047811D01*
X-00004850Y02031813D02*
X00011149Y02031813D01*
X00011149Y02015814D02*
X-00004850Y02015814D01*
X-00004851Y01999815D02*
X-00402000Y01999815D01*
X-00402000Y01983817D02*
X-00098679Y01983817D01*
X-00094713Y01967818D02*
X-00402000Y01967818D01*
X-00402000Y01951820D02*
X-00087969Y01951820D01*
X-00077412Y01935821D02*
X-00402000Y01935821D01*
X-00402000Y01919823D02*
X-00061511Y01919823D01*
X-00033854Y01903824D02*
X-00402000Y01903824D01*
X-00402000Y02015814D02*
X-00098720Y02015814D01*
X-00094842Y02031813D02*
X-00402000Y02031813D01*
X-00402000Y02047811D02*
X-00088147Y02047811D01*
X-00077706Y02063810D02*
X-00402000Y02063810D01*
X-00402000Y02079808D02*
X-00061973Y02079808D01*
X00011150Y01999815D02*
X00138370Y01999815D01*
X00139045Y02015814D02*
X00105019Y02015814D01*
X00101141Y02031813D02*
X00143331Y02031813D01*
X00150349Y02047811D02*
X00094446Y02047811D01*
X00084005Y02063810D02*
X00160344Y02063810D01*
X00176343Y02079808D02*
X00068273Y02079808D01*
X00041207Y02095807D02*
X00206692Y02095807D01*
X00139143Y01983817D02*
X00104978Y01983817D01*
X00101012Y01967818D02*
X00143430Y01967818D01*
X00150562Y01951820D02*
X00094269Y01951820D01*
X00083711Y01935821D02*
X00160713Y01935821D01*
X00129260Y01903824D02*
X00113260Y01903824D01*
X00113260Y01887826D02*
X00129260Y01887826D01*
X00129260Y01871827D02*
X00113260Y01871827D01*
X00113260Y01855829D02*
X00129260Y01855829D01*
X00129260Y01839830D02*
X00113260Y01839830D01*
X00113260Y01823832D02*
X00129260Y01823832D01*
X00129260Y01775836D02*
X00113260Y01775836D01*
X00113260Y01759838D02*
X00129260Y01759838D01*
X00129260Y01743839D02*
X00113260Y01743839D01*
X00113260Y01727841D02*
X00129260Y01727841D01*
X00011149Y01903824D02*
X-00004850Y01903824D01*
X-00004850Y01919823D02*
X00011149Y01919823D01*
X00011149Y01935821D02*
X-00004850Y01935821D01*
X-00004850Y01951820D02*
X00011149Y01951820D01*
X00011149Y01967818D02*
X-00004850Y01967818D01*
X-00004850Y01983817D02*
X00011149Y01983817D01*
X00113278Y02511768D02*
X-00402000Y02511768D01*
X-00402000Y02527767D02*
X00101842Y02527767D01*
X00097000Y02543765D02*
X-00402000Y02543765D01*
X-00402000Y02559764D02*
X00097000Y02559764D01*
X00103304Y02575762D02*
X-00402000Y02575762D01*
X-00402000Y02591761D02*
X00116808Y02591761D01*
X00183192Y02591761D02*
X00186063Y02591761D01*
X00202061Y02607759D02*
X-00402000Y02607759D01*
X-00402000Y02623758D02*
X00218060Y02623758D01*
X00234058Y02639756D02*
X-00402000Y02639756D01*
X-00402000Y02655755D02*
X00250057Y02655755D01*
X00266055Y02671753D02*
X-00402000Y02671753D01*
X-00112871Y02863736D02*
X02712871Y02863736D01*
X02416808Y02591761D02*
X02386021Y02591761D01*
X02398601Y02575762D02*
X02403304Y02575762D01*
X02401843Y02527767D02*
X02400399Y02527767D01*
X02389550Y02511768D02*
X02413278Y02511768D01*
X02350858Y02511768D02*
X02349141Y02511768D01*
X02349141Y02527767D02*
X02350858Y02527767D01*
X02350858Y02543765D02*
X02349141Y02543765D01*
X02349141Y02559764D02*
X02350858Y02559764D01*
X02350858Y02575762D02*
X02349141Y02575762D01*
X02349141Y02591761D02*
X02350858Y02591761D01*
X02305575Y02239793D02*
X02409023Y02239793D01*
X02397699Y02223795D02*
X02305575Y02223795D01*
X02305575Y02207796D02*
X02392962Y02207796D01*
X02393026Y02191798D02*
X02305575Y02191798D01*
X02305575Y02175799D02*
X02397906Y02175799D01*
X02409429Y02159801D02*
X02305575Y02159801D01*
X02447567Y02159801D02*
X02449283Y02159801D01*
X02449283Y02175799D02*
X02447567Y02175799D01*
X02447567Y02191798D02*
X02449283Y02191798D01*
X02449283Y02207796D02*
X02447567Y02207796D01*
X02447567Y02223795D02*
X02449283Y02223795D01*
X02449283Y02239793D02*
X02447567Y02239793D01*
X02721520Y01935821D02*
X02731404Y01935821D01*
X02705521Y01919823D02*
X02989008Y01919823D01*
X02989008Y01935821D02*
X02768596Y01935821D01*
X02794772Y01951820D02*
X02989008Y01951820D01*
X02989008Y01967818D02*
X02806706Y01967818D01*
X02813333Y01983817D02*
X02989008Y01983817D01*
X02989008Y01999815D02*
X02813500Y01999815D01*
X02810877Y02015814D02*
X02989008Y02015814D01*
X02989008Y02031813D02*
X02804250Y02031813D01*
X02788842Y02047811D02*
X02989008Y02047811D01*
X02989008Y01903824D02*
X02703000Y01903824D01*
X02703000Y01887826D02*
X02989008Y01887826D01*
X02989008Y01871827D02*
X02703000Y01871827D01*
X02811798Y01855829D02*
X02989008Y01855829D01*
X02989008Y01839830D02*
X02813500Y01839830D01*
X02813500Y01823832D02*
X02989008Y01823832D01*
X02989008Y01807833D02*
X02813500Y01807833D01*
X02813500Y01791835D02*
X02989008Y01791835D01*
X02989008Y01775836D02*
X02813500Y01775836D01*
X02813500Y01759838D02*
X02989008Y01759838D01*
X02989008Y01743839D02*
X02811466Y01743839D01*
X01933136Y01791835D02*
X01821533Y01791835D01*
X01833438Y01535858D02*
X01863734Y01535858D01*
X01849000Y01519860D02*
X01849000Y01519860D01*
X01849000Y01503861D02*
X01849000Y01503861D01*
X01849000Y01499999D02*
X01849000Y01478875D01*
X01878875Y01449000D01*
X01899999Y01449000D01*
X01899999Y01499999D01*
X01849000Y01499999D01*
X01849000Y01487863D02*
X01849000Y01487863D01*
X01856011Y01471864D02*
X01841161Y01471864D01*
X01825162Y01455866D02*
X01872009Y01455866D01*
X01899999Y01455866D02*
X01900000Y01455866D01*
X01899999Y01471864D02*
X01900000Y01471864D01*
X01899999Y01487863D02*
X01900000Y01487863D01*
X01899999Y01503861D02*
X01900000Y01503861D01*
X01899999Y01519860D02*
X01900000Y01519860D01*
X01899999Y01535858D02*
X01900000Y01535858D01*
X01625643Y01119897D02*
X01272000Y01119897D01*
X01272000Y01103898D02*
X01580560Y01103898D01*
X01553241Y01087900D02*
X01272000Y01087900D01*
X01272000Y01071901D02*
X01537242Y01071901D01*
X01521380Y01055903D02*
X01272000Y01055903D01*
X01272000Y01039904D02*
X01512143Y01039904D01*
X01502906Y01023906D02*
X01272000Y01023906D01*
X01272000Y01007907D02*
X01496413Y01007907D01*
X01492127Y00991908D02*
X01272000Y00991908D01*
X01272000Y00975910D02*
X01487840Y00975910D01*
X01487000Y00959911D02*
X01272000Y00959911D01*
X01272000Y00943913D02*
X01487000Y00943913D01*
X01487000Y00927914D02*
X01272000Y00927914D01*
X01272000Y00911916D02*
X01491102Y00911916D01*
X01495389Y00895917D02*
X01272000Y00895917D01*
X01272000Y00879919D02*
X01500698Y00879919D01*
X01509935Y00863920D02*
X01272000Y00863920D01*
X01272000Y00847922D02*
X01519172Y00847922D01*
X01533418Y00831923D02*
X01272000Y00831923D01*
X01279129Y00815925D02*
X01549416Y00815925D01*
X01573935Y00799926D02*
X01291536Y00799926D01*
X01296000Y00783928D02*
X01611369Y00783928D01*
X01660234Y00735932D02*
X01296000Y00735932D01*
X01296000Y00719934D02*
X01644235Y00719934D01*
X01628237Y00703935D02*
X01293136Y00703935D01*
X01296000Y00751931D02*
X01676232Y00751931D01*
X01692231Y00767929D02*
X01296000Y00767929D01*
X00213278Y02511768D02*
X00186721Y02511768D01*
X00198157Y02527767D02*
X00201842Y02527767D01*
X01018595Y04191613D02*
X01030332Y04191613D01*
X01083050Y04191613D02*
X01094787Y04191613D01*
X01091270Y04207612D02*
X01086567Y04207612D01*
X01125753Y04191613D02*
X01127215Y04191613D01*
X01179533Y04191613D02*
X01191670Y04191613D01*
X01188607Y04194676D02*
X01188607Y04194676D01*
X01120379Y04271606D02*
X01111237Y04271606D01*
X01066600Y04271606D02*
X01064815Y04271606D01*
X01279932Y04271606D02*
X01284635Y04271606D01*
X01284635Y04255607D02*
X01279932Y04255607D01*
X01276415Y04191613D02*
X01288152Y04191613D01*
X01319118Y04191613D02*
X01320579Y04191613D01*
X01405325Y04191613D02*
X01417062Y04191613D01*
X01448028Y04191613D02*
X01449489Y04191613D01*
X01412744Y04271606D02*
X01408842Y04271606D01*
X02824267Y04095622D02*
X02989008Y04095622D01*
X02989008Y04079624D02*
X02844470Y04079624D01*
X02859486Y04063625D02*
X02989008Y04063625D01*
X02989008Y04047626D02*
X02866112Y04047626D01*
X02872739Y04031628D02*
X02989008Y04031628D01*
X02989008Y04015629D02*
X02873590Y04015629D01*
X02873590Y03999631D02*
X02989008Y03999631D01*
X02989008Y03983632D02*
X02870580Y03983632D01*
X02863953Y03967634D02*
X02989008Y03967634D01*
X02989008Y03951635D02*
X02855256Y03951635D01*
X02839258Y03935637D02*
X02989008Y03935637D01*
X02989008Y03919638D02*
X02811684Y03919638D01*
X02981816Y04143618D02*
X02989008Y04143618D01*
M02*
